<?xml version="1.0" standalone="no"?>
<!DOCTYPE svg PUBLIC "-//W3C//DTD SVG 1.1//EN" "http://www.w3.org/Graphics/SVG/1.1/DTD/svg11.dtd" >
<svg>
<metadata>
Created by FontForge 20090914 at Wed Jan  5 19:42:50 2022
 By www-data
Copyright &#194;&#169; 2011 ParaType Inc., ParaType Ltd. All rights reserved.
</metadata>
<defs>
<font id="PragmaticaSlab-Bold" horiz-adv-x="650" >
  <font-face 
    font-family="Pragmatica Slabserif"
    font-weight="700"
    font-stretch="normal"
    units-per-em="1000"
    panose-1="2 6 7 3 2 2 6 2 4 4"
    ascent="800"
    descent="-200"
    x-height="508"
    cap-height="700"
    bbox="-540 -300.002 1349 920"
    underline-thickness="50"
    underline-position="-150"
    unicode-range="U+0020-U+FB02"
  />
<missing-glyph horiz-adv-x="500" 
d="M58 8h384v496h-384v-496zM50 0v512h400v-512h-400z" />
    <glyph glyph-name="afii10017.var.accented" unicode="&#x410;`" horiz-adv-x="711" 
d="M170 577v123h269l215 -574h67v-126h-292v123h47l-15 45h-228l-16 -45h44v-123h-271v126h67l173 451h-60zM347 516l-82 -234h161zM350 885h160l-106 -132h-123z" />
    <glyph glyph-name="afii10022.var.accented" unicode="&#x415;`" horiz-adv-x="715" 
d="M671 465h-136v99h-253v-142h214v-129h-214v-157h267v135h136v-271h-635v136h67v428h-67v136h621v-235zM364 885h160l-106 -132h-123z" />
    <glyph glyph-name="afii10026.var.accented" unicode="&#x418;`" horiz-adv-x="843" 
d="M50 564v136h297v-136h-65v-316l279 452h232v-136h-67v-428h67v-136h-297v136h65v321l-279 -457h-232v136h67v428h-67zM418 885h160l-106 -132h-123z" />
    <glyph glyph-name="afii10032.var.accented" unicode="&#x41e;`" horiz-adv-x="788" 
d="M394 -20c-53.333 0 -100.833 7.66699 -142.5 23s-75.5 35.333 -101.5 60s-47.5 53.5 -64.5 86.5s-28.833 66 -35.5 99s-10 66.833 -10 101.5s3.33301 68.5 10 101.5s18.5 66 35.5 99s38.5 61.833 64.5 86.5s59.833 44.667 101.5 60s89.167 23 142.5 23
c116 0 204 -33.833 264 -101.5s90 -157.167 90 -268.5s-30 -200.833 -90 -268.5s-148 -101.5 -264 -101.5zM394 116c32 0 59.5 6.50195 82.5 19.502s40.333 28 52 45s20.834 37.667 27.501 62s10.667 44.166 12 59.499s2 31.333 2 48c0 18 -0.666992 34.667 -2 50
s-5.33301 35.166 -12 59.499s-15.834 44.833 -27.501 61.5s-29 31.334 -52 44.001s-50.5 19 -82.5 19c-116.667 0 -175 -78 -175 -234c0 -84.667 16.167 -144.834 48.5 -180.501s74.5 -53.5 126.5 -53.5zM390 885.002h160l-106 -132h-123z" />
    <glyph glyph-name="afii10037.var.accented" unicode="&#x423;`" horiz-adv-x="665" 
d="M0 564v136h301v-136h-45l104 -209l77 209h-45v136h283v-136h-66l-251 -564h-220v136h119l22 57l-212 371h-67zM348 885h160l-106 -132h-123z" />
    <glyph glyph-name="afii10045.var.accented" unicode="&#x42b;`" horiz-adv-x="1079" 
d="M730 564v136h299v-136h-67v-428h67v-136h-284v136h52v428h-67zM50 564v136h299v-136h-67v-118h153c25.333 0 49.5 -1.83301 72.5 -5.5s46.5 -10.667 70.5 -21s44.667 -23.5 62 -39.5s31.5 -37.167 42.5 -63.5s16.5 -56.5 16.5 -90.5
c0 -71.333 -25.667 -126.833 -77 -166.5s-118.333 -59.5 -201 -59.5h-371v136h67v428h-67zM282 310v-174h118c80.667 0 121 30 121 90c0 56 -41 84 -123 84h-116zM527 885h160l-106 -132h-123z" />
    <glyph glyph-name="afii10047.var.accented" unicode="&#x42d;`" horiz-adv-x="770" 
d="M552 288l-267.007 0.00195312v128h267c-3.33301 30.667 -10.166 57.167 -20.499 79.5s-21.5 39 -33.5 50s-26.5 19.667 -43.5 26s-31 10 -42 11s-23.5 1.5 -37.5 1.5c-54 0 -95.5 -12.833 -124.5 -38.5s-45.167 -52.5 -48.5 -80.5h-148v235h136v-59
c24 24.667 54.5 44 91.5 58s74.167 21 111.5 21c56 0 104.833 -7.5 146.5 -22.5s74.334 -33.833 98.001 -56.5s42.667 -50.667 57 -84s23.833 -65.5 28.5 -96.5s7 -64.833 7 -101.5c0 -49.333 -5 -94 -15 -134s-22.667 -72.833 -38 -98.5s-34.166 -48.167 -56.499 -67.5
s-43.666 -33.833 -63.999 -43.5s-42.833 -17.334 -67.5 -23.001s-45 -9.16699 -61 -10.5s-32.667 -2 -50 -2c-102.667 0 -183.167 25.333 -241.5 76s-90.5 116 -96.5 196h168c2 -36.667 17.333 -68.5 46 -95.5s69.334 -40.5 122.001 -40.5c20 0 38.833 2.16699 56.5 6.5
s35.834 12 54.501 23s33.834 28.667 45.501 53s18.167 54.166 19.5 89.499zM401.993 885.002h160l-106 -132h-123z" />
    <glyph glyph-name="afii10048.var.accented" unicode="&#x42e;`" horiz-adv-x="1128" 
d="M50 564v135.996h295v-136h-63v-129h111c2.66699 18.667 6.16699 37 10.5 55s14.166 42 29.499 72s34.333 55.667 57 77s55.5 40.166 98.5 56.499s92.5 24.5 148.5 24.5c54 0 102 -7.66699 144 -23s75.667 -35.166 101 -59.499s46.333 -53.333 63 -87s28 -66.667 34 -99
s9 -66.166 9 -101.499s-3 -69.166 -9 -101.499s-17.333 -65.333 -34 -99s-37.667 -62.667 -63 -87s-59 -44.166 -101 -59.499s-90 -23 -144 -23c-64 0 -119.667 10.333 -167 31s-83.333 47.834 -108 81.501s-42.667 67.5 -54 101.5s-17.666 69 -18.999 105h-107v-163h63
v-136h-295v136h67v428h-67zM910 349.996c0 16 -0.333008 29.5 -1 40.5s-2.5 27 -5.5 48s-8.16699 38.833 -15.5 53.5s-17 29.667 -29 45s-28.333 27 -49 35s-44.667 12 -72 12c-114 0 -171 -78 -171 -234s57 -234 171 -234c114.667 0 172 78 172 234zM537 884.996h160
l-106 -132h-123z" />
    <glyph glyph-name="afii10049.var.accented" unicode="&#x42f;`" horiz-adv-x="767" 
d="M418 0v136.002h67v106h-88l-161 -242h-191v136h83l101 121c-22 4.66699 -42.5 11.5 -61.5 20.5s-38.333 21.333 -58 37s-35.334 37.167 -47.001 64.5s-17.5 58.666 -17.5 93.999c0 36 6.5 68 19.5 96s29.167 50 48.5 66s41.5 29.167 66.5 39.5s47.833 17.166 68.5 20.499
s40.334 5 59.001 5h410v-136h-67v-428h67v-136h-299zM485 564.002h-141c-40.667 0 -71 -9 -91 -27s-30 -40 -30 -66s9.83301 -48 29.5 -66s52.167 -27 97.5 -27h135v186zM394 885.002h160l-106 -132h-123z" />
    <glyph glyph-name="afii10023.var.accented" unicode="&#x401;`" horiz-adv-x="715" 
d="M671 465h-136v99h-253v-142h214v-129h-214v-157h267v135h136v-271h-635v136h67v428h-67v136h621v-235zM121 766v106h112v-106h-112zM479 766v106h112v-106h-112zM322 898h150l-106 -132h-113z" />
    <glyph glyph-name="afii10065.var.accented" unicode="&#x430;`" horiz-adv-x="632" 
d="M395 0l-0.00195312 49.9912h-3c-36 -46 -92.667 -69 -170 -69c-30.667 0 -57.5 3.83301 -80.5 11.5s-40.333 16.834 -52 27.501s-21.167 23.334 -28.5 38.001s-11.833 27.334 -13.5 38.001s-2.5 21.334 -2.5 32.001c0 22.667 3.83301 42.667 11.5 60s17 31.166 28 41.499
s25.5 19.666 43.5 27.999s34.833 14.333 50.5 18s34.167 7.5 55.5 11.5c12.667 2 27 3.83301 43 5.5s28.167 3 36.5 4s17.5 2.5 27.5 4.5s17.167 3.83301 21.5 5.5s8.83301 4.33398 13.5 8.00098s7.83398 7.83398 9.50098 12.501s2.83398 10.334 3.50098 17.001v14
c-2 44.667 -29.333 67 -82 67c-62 0 -93 -27 -93 -81h-145c1.33301 28 6.66602 52.833 15.999 74.5s21.833 38.834 37.5 51.501s31.5 23.167 47.5 31.5s33.833 14.166 53.5 17.499s35.5 5.5 47.5 6.5s24.333 1.5 37 1.5c31.333 0 59.666 -2.66699 84.999 -8
s45.833 -11.666 61.5 -18.999s29.334 -17.166 41.001 -29.499s20.334 -23.5 26.001 -33.5s10 -22.167 13 -36.5s4.83301 -25.666 5.5 -33.999s1 -18.166 1 -29.499v-235h61v-102h-207zM389.998 209.991l0.000976562 32c-7.33301 -4 -15.666 -7.5 -24.999 -10.5
s-17 -5.16699 -23 -6.5s-15.167 -3.16602 -27.5 -5.49902s-20.5 -3.83301 -24.5 -4.5c-59.333 -9.33301 -89 -33.666 -89 -72.999c0 -21.333 8.16699 -36.5 24.5 -45.5s34.166 -13.5 53.499 -13.5c15.333 0 30.666 3.16699 45.999 9.5s30 19.666 44 39.999
s21 46.166 21 77.499zM297.999 699.991h160l-106 -132h-123z" />
    <glyph glyph-name="afii10070.var.accented" unicode="&#x435;`" horiz-adv-x="616" 
d="M418 147h154.001c-30.667 -110.667 -118.667 -166 -264 -166c-18.667 0 -37 1 -55 3s-41.167 8.33301 -69.5 19s-52.5 25 -72.5 43s-37.667 45 -53 81s-23 78.667 -23 128c0 86.667 25.667 153.667 77 201s119.666 71 204.999 71c72 0 128 -17 168 -51
s67 -76.667 81 -128c9.33301 -32 14 -75.667 14 -131h-387c0 -32.667 9.5 -63.167 28.5 -91.5s50.167 -42.5 93.5 -42.5c24 0 45.667 5.33301 65 16s32 26.667 38 48zM193.001 302l231.999 -0.00195312c-0.666992 25.333 -4.66699 46.833 -12 64.5s-17 30.334 -29 38.001
s-23.167 13 -33.5 16s-21.166 4.5 -32.499 4.5c-40.667 0 -71.167 -12.667 -91.5 -38s-31.5 -53.666 -33.5 -84.999zM304 699.998h160l-106 -132h-123z" />
    <glyph glyph-name="afii10074.var.accented" unicode="&#x438;`" horiz-adv-x="697" 
d="M660 102v-102h-269v102h56v228l-187 -330h-223v102h61v304h-61v102h269v-102h-56v-228l188 330h222v-102h-61v-304h61zM345 700h160l-106 -132h-123z" />
    <glyph glyph-name="afii10080.var.accented" unicode="&#x43e;`" horiz-adv-x="626" 
d="M313 -19c-83.333 0 -150.5 23.168 -201.5 69.501s-76.5 114.5 -76.5 204.5c0 48 7.66699 90.167 23 126.5s36.5 64.666 63.5 84.999s56.5 35.5 88.5 45.5s66.333 15 103 15c83.333 0 150.5 -23 201.5 -69s76.5 -113.667 76.5 -203c0 -90 -25.5 -158.167 -76.5 -204.5
s-118.167 -69.5 -201.5 -69.5zM313 83.001c80 0 120 57.333 120 172c0 113.333 -40 170 -120 170s-120 -56.667 -120 -170c0 -114.667 40 -172 120 -172zM308 700.001h160l-106 -132h-123z" />
    <glyph glyph-name="afii10085.var.accented" unicode="&#x443;`" horiz-adv-x="595" 
d="M0 406v102h278v-102h-48l88 -229l63 229h-49v102h263v-102h-58l-214 -591h-196v102h93l28 85l-192 404h-56zM306 700h160l-106 -132h-123z" />
    <glyph glyph-name="afii10093.var.accented" unicode="&#x44b;`" horiz-adv-x="871" 
d="M560 406v102h274v-102h-61v-304h61v-102h-213v406h-61zM37 406v102.002h274v-102h-61v-82h82h8h31c8 0 20.5 -1 37.5 -3s31.333 -4.83301 43 -8.5s24.834 -9.5 39.501 -17.5s26.667 -17.5 36 -28.5s17.166 -25.333 23.499 -43s9.5 -37.5 9.5 -59.5
c0 -38.667 -10.833 -70.834 -32.5 -96.501s-48.167 -43.334 -79.5 -53.001s-67 -14.5 -107 -14.5h-304v102h61v304h-61zM250 226.002v-124h58c62.667 0 94 20.667 94 62s-32.667 62 -98 62h-54zM431 700.002h160l-106 -132h-123z" />
    <glyph glyph-name="afii10095.var.accented" unicode="&#x44d;`" horiz-adv-x="617" 
d="M45 508l101.995 -0.000976562v-49c39.333 45.333 95 68 167 68c13.333 0 25.5 -0.333008 36.5 -1s26.333 -3 46 -7s37 -9.5 52 -16.5s31.333 -17.5 49 -31.5s32.334 -30.5 44.001 -49.5s21.334 -43.333 29.001 -73s11.5 -63.167 11.5 -100.5
c0 -36 -4.33301 -68.333 -13 -97s-19.5 -52.167 -32.5 -70.5s-29 -34.166 -48 -47.499s-36.5 -23.166 -52.5 -29.499s-34 -11.333 -54 -15s-35 -5.83398 -45 -6.50098s-20.667 -1 -32 -1c-50 0 -93.333 6.66699 -130 20s-64.5 31.166 -83.5 53.499
s-32.833 44.666 -41.5 66.999s-13.667 45.833 -15 70.5h150c1.33301 -29.333 12.666 -54.833 33.999 -76.5s50 -32.5 86 -32.5c8 0 15.167 0.333008 21.5 1s15.833 3.16699 28.5 7.5s23.334 10.333 32.001 18s16.834 19.834 24.501 36.501s11.834 36.667 12.501 60h-176v102
h176c0 26.667 -9.5 52.834 -28.5 78.501s-49.5 38.5 -91.5 38.5c-37.333 0 -67.666 -9.16699 -90.999 -27.5s-36 -41.833 -38 -70.5h-130v181zM304.995 699.999h160l-106 -132h-123z" />
    <glyph glyph-name="afii10096.var.accented" unicode="&#x44e;`" horiz-adv-x="918" 
d="M37 406l-0.000976562 102.002h268v-98h-55v-93h90c6 58 31.667 107.5 77 148.5s110 61.5 194 61.5s150.333 -22.5 199 -67.5s73 -113.167 73 -204.5c0 -90.667 -24.833 -159 -74.5 -205s-116.167 -69 -199.5 -69c-46.667 0 -87.667 6.83301 -123 20.5
s-63.166 32.167 -83.499 55.5s-35.833 48.166 -46.5 74.499s-17 54.166 -19 83.499h-87v-117h50v-98h-263v102h61v304h-61zM608.999 83.002c44.667 0 75.168 15.6699 91.501 47.0029s24.5 73 24.5 125c0 30.667 -3 57.167 -9 79.5s-13 39.166 -21 50.499
s-17.833 20.166 -29.5 26.499s-21.5 10.166 -29.5 11.499s-17 2 -27 2c-76 0 -114 -56.667 -114 -170c0 -21.333 1 -39.833 3 -55.5s6.5 -33.5 13.5 -53.5s18.667 -35.5 35 -46.5s37.166 -16.5 62.499 -16.5zM465 700.005h160l-106 -132h-123z" />
    <glyph glyph-name="afii10097.var.accented" unicode="&#x44f;`" horiz-adv-x="623" 
d="M312 0l0.000976562 98.998h61v77h-63l-108 -176h-164v102h64l68 87c-44 8.66699 -76.667 27.667 -98 57s-32 61 -32 95c0 30.667 6.16699 57.334 18.5 80.001s26.166 39.334 41.499 50.001s33.833 19 55.5 25s38 9.5 49 10.5s22.167 1.5 33.5 1.5h348v-102h-61v-304h61
v-102h-274zM373.001 405.998h-78c-64.667 0 -97 -21.333 -97 -64s31.333 -64 94 -64h81v128zM291.001 699.998h160l-106 -132h-123z" />
    <glyph glyph-name="afii10071.var.accented" unicode="&#x451;`" horiz-adv-x="616" 
d="M418 147h154.001c-30.667 -110.667 -118.667 -166 -264 -166c-18.667 0 -37 1 -55 3s-41.167 8.33301 -69.5 19s-52.5 25 -72.5 43s-37.667 45 -53 81s-23 78.667 -23 128c0 86.667 25.667 153.667 77 201s119.666 71 204.999 71c72 0 128 -17 168 -51
s67 -76.667 81 -128c9.33301 -32 14 -75.667 14 -131h-387c0 -32.667 9.5 -63.167 28.5 -91.5s50.167 -42.5 93.5 -42.5c24 0 45.667 5.33301 65 16s32 26.667 38 48zM193.001 302l231.999 -0.00195312c-0.666992 25.333 -4.66699 46.833 -12 64.5s-17 30.334 -29 38.001
s-23.167 13 -33.5 16s-21.166 4.5 -32.499 4.5c-40.667 0 -71.167 -12.667 -91.5 -38s-31.5 -53.666 -33.5 -84.999zM51 577.998v119h132v-119h-132zM433 577.998v119h132v-119h-132zM278 699.998h140l-106 -132h-103z" />
    <glyph glyph-name="fi" unicode="fi" horiz-adv-x="670" 
d="M369 0v102h46v304h-140v-304h46v-102h-264v102h66v304h-93v102h93v64c0 48.667 16 83.167 48 103.5s78.667 30.5 140 30.5c38 0 64.333 -2 79 -6v-102c-17.333 4 -36.333 6 -57 6c-38.667 0 -58 -19.333 -58 -58v-38h292v-406h66v-102h-264zM415 581v119h152v-119h-152z
" />
    <glyph glyph-name="fl" unicode="fl" horiz-adv-x="670" 
d="M57 0v102h66v304h-93v102h93v64c0 48.667 16 83.167 48 103.5s78.667 30.5 140 30.5c38 0 64.333 -2 79 -6h177v-598h66v-102h-264v102h46v304h-140v-304h46v-102h-264zM415 598h-25c-17.333 4 -36.333 6 -57 6c-38.667 0 -58 -19.333 -58 -58v-38h140v90z" />
    <glyph glyph-name=".notdef" horiz-adv-x="500" 
d="M58 8h384v496h-384v-496zM50 0v512h400v-512h-400z" />
    <glyph glyph-name="space" unicode=" " horiz-adv-x="233" 
 />
    <glyph glyph-name="exclam" unicode="!" horiz-adv-x="384" 
d="M106 700h172v-183l-43 -292h-86l-43 292v183zM109 0v158h166v-158h-166z" />
    <glyph glyph-name="quotedbl" unicode="&#x22;" horiz-adv-x="501" 
d="M229 700l-53 -192h-66l-53 192h172zM441 700l-53 -192h-66l-53 192h172z" />
    <glyph glyph-name="numbersign" unicode="#" 
d="M126 10l26 171h-135l13 80h135l28 185h-134l12 80h135l26 169h80l-26 -169h133l26 169h80l-26 -169h133l-12 -80h-134l-28 -185h133l-13 -80h-133l-26 -171h-80l26 171h-133l-26 -171h-80zM273 446l-28 -185h133l28 185h-133z" />
    <glyph glyph-name="dollar" unicode="$" 
d="M604 485l-151.996 0.000976562c0.666992 23.333 -6.33301 45 -21 65s-35.334 34 -62.001 42v-164c78 -18.667 139.167 -44.834 183.5 -78.501s66.5 -79.167 66.5 -136.5c0 -15.333 -1 -30.5 -3 -45.5s-7.83301 -34.167 -17.5 -57.5s-22.834 -43.5 -39.501 -60.5
s-41.334 -32.333 -74.001 -46s-71.334 -21.167 -116.001 -22.5v-76h-76v80c-58.667 10.667 -99.667 33 -123 67v-52h-136v235h162c0 -26 7 -51.667 21 -77s39.333 -42.333 76 -51v187l-11 3c-75.333 16.667 -131 42.667 -167 78s-54 82 -54 140c0 64 20.667 113.5 62 148.5
s98 53.833 170 56.5v58h76v-66c47.333 -10.667 80.333 -30.667 99 -60v48h136v-215zM455.004 191.001c0 40 -28.667 68.666 -86 85.999v-172c57.333 8.66699 86 37.334 86 86.001zM210.004 528c0 -34 27.667 -60.332 83 -78.999v150
c-30 -2.66699 -51.333 -9.83398 -64 -21.501s-19 -28.167 -19 -49.5z" />
    <glyph glyph-name="percent" unicode="%" horiz-adv-x="957" 
d="M53 520c0 32.667 4.50293 61.499 13.5029 86.499s20.167 44.5 33.5 58.5s28.833 25.333 46.5 34s33.667 14.334 48 17.001s28.166 4 41.499 4s27.166 -1.33301 41.499 -4s30.333 -8.5 48 -17.5s33.167 -20.5 46.5 -34.5s24.666 -33.5 33.999 -58.5s14 -53.5 14 -85.5
c0 -37.333 -6 -69.666 -18 -96.999s-27.667 -48.166 -47 -62.499s-39 -24.666 -59 -30.999s-40 -9.5 -60 -9.5c-18 0 -36.167 2.66699 -54.5 8s-37.833 14.666 -58.5 27.999s-37.5 34.166 -50.5 62.499s-19.5 62.166 -19.5 101.499zM158.003 519.999
c0 -40.667 7.8291 -71 23.4961 -91s33.834 -30 54.501 -30s38.834 10 54.501 30s23.5 50.333 23.5 91c0 42.667 -8.16699 73.5 -24.5 92.5s-34.166 28.5 -53.499 28.5s-37.166 -9.5 -53.499 -28.5s-24.5 -49.833 -24.5 -92.5zM535.999 186.999
c0 20.667 2.8291 41.5 8.49609 62.5s14.834 42.333 27.501 64s31.834 39.334 57.501 53.001s55.834 20.5 90.501 20.5s64.834 -6.83301 90.501 -20.5s44.834 -31.334 57.501 -53.001s21.834 -43 27.501 -64s8.5 -41.833 8.5 -62.5c0 -32.667 -4.66699 -61.5 -14 -86.5
s-20.833 -44.5 -34.5 -58.5s-29.334 -25.333 -47.001 -34s-33.5 -14.334 -47.5 -17.001s-27.667 -4 -41 -4s-27 1.33301 -41 4s-29.833 8.33398 -47.5 17.001s-33.334 20 -47.001 34s-25.167 33.5 -34.5 58.5s-14 53.833 -14 86.5zM641.995 186.999
c0 -38.667 7.50293 -68.5 22.5029 -89.5s33.5 -31.5 55.5 -31.5c19.333 0 37.166 9.5 53.499 28.5s24.5 49.833 24.5 92.5c0 9.33301 -0.833008 19.333 -2.5 30s-4.83398 23.667 -9.50098 39s-12.667 27.833 -24 37.5s-25.333 14.5 -42 14.5
c-20.667 0 -38.834 -10 -54.501 -30s-23.5 -50.333 -23.5 -91zM130.998 -0.000976562l600 700h86l-600 -700h-86z" />
    <glyph glyph-name="ampersand" unicode="&#x26;" horiz-adv-x="721" 
d="M479 392l216.999 -0.000976562v-116h-61c-14 -41.333 -35 -81.333 -63 -120l16 -20h88v-136h-151l-51 63c-51.333 -55.333 -121.666 -83 -210.999 -83c-74.667 0 -130.5 21.833 -167.5 65.5s-55.5 92.834 -55.5 147.501c0 52 12 92.667 36 122s65.333 60 124 92
c-22.667 24.667 -38 47.334 -46 68.001s-12 43.667 -12 69c0 52.667 18.167 95.167 54.5 127.5s82.5 48.5 138.5 48.5c50.667 0 93 -15.333 127 -46s51 -74.334 51 -131.001c0 -75.333 -40 -132.333 -120 -171l103 -124c9.33301 17.333 16 34 20 50h-37v94zM402.999 151.999
l-127 158c-54 -22 -81 -57.667 -81 -107c0 -8.66699 1.5 -17.834 4.5 -27.501s7.83301 -20 14.5 -31s17.167 -20 31.5 -27s31.5 -10.5 51.5 -10.5s40 3.83301 60 11.5s35.333 18.834 46 33.501zM321.999 456.999c52 22.667 78 53.665 78 92.998
c0 22.667 -6.83301 38.834 -20.5 48.501s-28.5 14.5 -44.5 14.5c-14.667 0 -29 -5 -43 -15s-21 -26.333 -21 -49c0 -11.333 2.5 -22.5 7.5 -33.5s10.5 -20.167 16.5 -27.5s15 -17.666 27 -30.999z" />
    <glyph glyph-name="quotesingle" unicode="'" horiz-adv-x="289" 
d="M229 700l-53 -192h-66l-53 192h172z" />
    <glyph glyph-name="parenleft" unicode="(" horiz-adv-x="398" 
d="M227 700h115c-35.333 -85.333 -62.833 -163 -82.5 -233s-29.5 -139.667 -29.5 -209c0 -70 9.66699 -139.833 29 -209.5s47 -147.5 83 -233.5h-115c-52.667 94 -90.5 171.667 -113.5 233s-34.5 131.333 -34.5 210c0 54 7 107 21 159s29.667 96 47 132s44 86.333 80 151z
" />
    <glyph glyph-name="parenright" unicode=")" horiz-adv-x="398" 
d="M170 -185l-114 -0.00195312c74 170.667 111 318.334 111 443.001c0 122.667 -37 270 -111 442h114c99.333 -155.333 149 -302.666 149 -441.999c0 -140 -49.667 -287.667 -149 -443z" />
    <glyph glyph-name="asterisk" unicode="*" horiz-adv-x="485" 
d="M243 491l-71 -96l-60 47l68 92l-108 37l24 71l110 -37v115h74v-115l109 37l24 -71l-108 -37l69 -92l-61 -47z" />
    <glyph glyph-name="plus" unicode="+" horiz-adv-x="672" 
d="M53 390h243v243h80v-243h243v-80h-243v-243h-80v243h-243v80z" />
    <glyph glyph-name="comma" unicode="," horiz-adv-x="377" 
d="M106 0v157.999h165v-158c0 -12.667 -0.5 -24.667 -1.5 -36s-4.66699 -26.166 -11 -44.499s-15 -33.833 -26 -46.5s-27.333 -24 -49 -34s-47.5 -15.333 -77.5 -16v79c21.333 0 41 7 59 21s27 37.667 27 71v6h-86z" />
    <glyph glyph-name="hyphen" unicode="-" horiz-adv-x="442" 
d="M75 205v125h292v-125h-292z" />
    <glyph glyph-name="period" unicode="." horiz-adv-x="377" 
d="M106 0v158h165v-158h-165z" />
    <glyph glyph-name="slash" unicode="/" horiz-adv-x="447" 
d="M0 -185l367 885h80l-367 -885h-80z" />
    <glyph glyph-name="zero" unicode="0" 
d="M325 -20c-11.333 0 -22.166 0.333008 -32.499 1s-25.666 3.66699 -45.999 9s-38.833 12.333 -55.5 21s-34.667 22.334 -54 41.001s-35.666 40.5 -48.999 65.5s-24.5 57.667 -33.5 98s-13.5 85.166 -13.5 134.499s4.5 94.166 13.5 134.499s20.167 73 33.5 98
s29.666 46.833 48.999 65.5s37.333 32.334 54 41.001s35.167 15.667 55.5 21s35.666 8.33301 45.999 9s21.166 1 32.499 1s22.166 -0.333008 32.499 -1s25.666 -3.66699 45.999 -9s38.833 -12.333 55.5 -21s34.667 -22.334 54 -41.001s35.666 -40.5 48.999 -65.5
s24.5 -57.667 33.5 -98s13.5 -85.166 13.5 -134.499s-4.5 -94.166 -13.5 -134.499s-20.167 -73 -33.5 -98s-29.666 -46.833 -48.999 -65.5s-37.333 -32.334 -54 -41.001s-35.167 -15.667 -55.5 -21s-35.666 -8.33301 -45.999 -9s-21.166 -1 -32.499 -1zM325 102
c28 0 51 7.49609 69 22.4961s30.833 36.333 38.5 64s12.667 53.334 15 77.001s3.5 51.834 3.5 84.501s-1.16699 60.834 -3.5 84.501s-7.33301 49.334 -15 77.001s-20.5 49 -38.5 64s-41 22.5 -69 22.5c-22 0 -41 -5.5 -57 -16.5s-28.333 -24.667 -37 -41
s-15.5 -36.5 -20.5 -60.5s-8.16699 -45.667 -9.5 -65s-2 -41 -2 -65s0.666992 -45.667 2 -65s4.5 -41 9.5 -65s11.833 -44.167 20.5 -60.5s21 -30 37 -41s35 -16.5 57 -16.5z" />
    <glyph glyph-name="one" unicode="1" 
d="M157 564v136h272v-564h107v-136h-379v136h107v428h-107z" />
    <glyph glyph-name="two" unicode="2" 
d="M603 0l-546.005 0.00195312v28c0 48.667 11.833 91.334 35.5 128.001s70.834 79 141.501 127l60 40.5l52 34.5c10.667 7.33301 23.334 17 38.001 29s25 22.5 31 31.5s11.333 19.833 16 32.5s7 26.667 7 42c0 35.333 -10.5 61.666 -31.5 78.999s-47.833 26 -80.5 26
c-36 0 -64.833 -10.167 -86.5 -30.5s-32.5 -48.5 -32.5 -84.5v-25h-153v21c0 28 4.33301 55 13 81s22.667 51.5 42 76.5s48.166 45.167 86.499 60.5s83.833 23 136.5 23c8 0 16.333 -0.166992 25 -0.5s22.334 -2 41.001 -5s35.834 -7.16699 51.501 -12.5
s32.834 -13.5 51.501 -24.5s34.5 -24 47.5 -39s23.833 -34.5 32.5 -58.5s13 -50.667 13 -80c0 -48.667 -13.5 -92.834 -40.5 -132.501s-77.167 -80.5 -150.5 -122.5c-31.333 -18 -54 -31.333 -68 -40s-29.167 -20.334 -45.5 -35.001s-29.166 -30.667 -38.499 -48h216v107
h136v-229z" />
    <glyph glyph-name="three" unicode="3" 
d="M38 241l154.996 0.00195312c0 -16.667 2.16699 -32.667 6.5 -48s11 -30 20 -44s22.333 -25.333 40 -34s38.5 -13 62.5 -13c26 0 47.833 4.16699 65.5 12.5s30 19.166 37 32.499s11.667 24.666 14 33.999s3.5 18.666 3.5 27.999c0 64 -36.667 96 -110 96h-70v115h53
c75.333 0 113 29.333 113 88c0 23.333 -8.66699 44.166 -26 62.499s-46 27.5 -86 27.5c-33.333 0 -60.5 -9 -81.5 -27s-31.5 -52 -31.5 -102h-147c0 22.667 1.83301 44.334 5.5 65.001s11.334 42.834 23.001 66.501s26.834 43.834 45.501 60.501s44.667 30.667 78 42
s72 17 116 17c48.667 0 90.334 -6.33301 125.001 -19s60.667 -29.334 78 -50.001s29.666 -41.5 36.999 -62.5s11 -43.167 11 -66.5c0 -25.333 -4.33301 -48 -13 -68s-20 -35.667 -34 -47s-27.167 -20 -39.5 -26s-25.166 -10.667 -38.499 -14v-3
c41.333 -4.66699 76.333 -20.667 105 -48s43 -68 43 -122c0 -37.333 -7.83301 -70 -23.5 -98s-34 -49.167 -55 -63.5s-45.333 -25.666 -73 -33.999s-50.334 -13.5 -68.001 -15.5s-34.5 -3 -50.5 -3h-22.5c-5 0 -15.667 0.833008 -32 2.5s-30.166 3.66699 -41.499 6
s-26 6.5 -44 12.5s-33.167 13.167 -45.5 21.5s-25.666 19.166 -39.999 32.499s-26 28.5 -35 45.5s-16.333 37.5 -22 61.5s-8.16699 50.333 -7.5 79z" />
    <glyph glyph-name="four" unicode="4" 
d="M158 279h206v264zM364 167h-334v116l330 417h169v-421h85v-112h-85v-51h67v-116h-299v116h67v51z" />
    <glyph glyph-name="five" unicode="5" 
d="M50 203l156.001 0.00292969c3.33301 -27.333 14.166 -51.333 32.499 -72s46.5 -31 84.5 -31c26 0 47.833 5.5 65.5 16.5s30 25.5 37 43.5s11.5 33.167 13.5 45.5s3 25.166 3 38.499c0 42 -11.5 74.333 -34.5 97s-50.167 34 -81.5 34c-52 0 -88 -16.667 -108 -50h-155
l45 375h441v-177h-126v55h-208l-20 -152c44 33.333 100 50 168 50c72.667 0 130 -21.333 172 -64s63 -99.334 63 -170.001c0 -73.333 -23.167 -135.333 -69.5 -186s-116.166 -76 -209.499 -76c-41.333 0 -78.166 5.16699 -110.499 15.5s-57.833 23.166 -76.5 38.499
s-34.334 33.5 -47.001 54.5s-21.334 40.667 -26.001 59s-7.66699 36.833 -9 55.5z" />
    <glyph glyph-name="six" unicode="6" 
d="M593 535l-142.005 0.000976562c-14 42 -53 63 -117 63c-84.667 0 -130 -59.667 -136 -179c40 41.333 91.667 62 155 62c30.667 0 60 -4.5 88 -13.5s54.333 -22.5 79 -40.5s44.334 -43 59.001 -75s22 -68.667 22 -110c0 -30 -4 -59.167 -12 -87.5
s-21.167 -56.166 -39.5 -83.499s-45.666 -49.333 -81.999 -66s-79.5 -25 -129.5 -25c-14.667 0 -27.834 0.333008 -39.501 1s-28.167 3.5 -49.5 8.5s-40.166 12 -56.499 21s-34.166 22.5 -53.499 40.5s-35.166 39.5 -47.499 64.5s-22.833 57.333 -31.5 97
s-13 84.167 -13 133.5c0 15.333 0.333008 30 1 44s3 34.5 7 61.5s9.66699 51.333 17 73s18.333 45.167 33 70.5s32 46.666 52 63.999s46 31.833 78 43.5s67.667 17.5 107 17.5c42.667 0 80.167 -5.83301 112.5 -17.5s57.5 -27.334 75.5 -47.001s31.833 -39.167 41.5 -58.5
s16.834 -40 21.501 -62zM197.995 241.001c0 -38.667 11.667 -71.5 35 -98.5s55.333 -40.5 96 -40.5c40 0 71.167 13 93.5 39s33.5 58.333 33.5 97c0 41.333 -11.833 74.166 -35.5 98.499s-54.834 36.5 -93.501 36.5c-35.333 0 -65.666 -11.167 -90.999 -33.5
s-38 -55.166 -38 -98.499z" />
    <glyph glyph-name="seven" unicode="7" 
d="M126 116h70c13.333 62 31.666 117 54.999 165c54.667 116.667 121.334 212.667 200.001 288v9h-262v-93h-136v215h561v-116c-34.667 -32 -66 -67 -94 -105s-48 -68.167 -60 -90.5s-25.333 -49.5 -40 -81.5c-28 -67.333 -47.333 -131 -58 -191h73v-116h-309v116z" />
    <glyph glyph-name="eight" unicode="8" 
d="M166 373c-30.667 10.667 -55.3359 29.333 -74.0029 56s-28 58 -28 94c0 22.667 4.16699 44.667 12.5 66s21.833 42.333 40.5 63s45.834 37.167 81.501 49.5s77.834 18.5 126.501 18.5c84.667 0 149.334 -18.5 194.001 -55.5s67 -84.167 67 -141.5
c0 -36 -9.16699 -67.167 -27.5 -93.5s-43.5 -45.166 -75.5 -56.499c84 -32.667 126 -90.334 126 -173.001c0 -16 -1.33301 -31.667 -4 -47s-9.66699 -34.166 -21 -56.499s-26.333 -41.5 -45 -57.5s-46.5 -29.833 -83.5 -41.5s-80.5 -17.5 -130.5 -17.5
s-93.5 5.83301 -130.5 17.5s-65 25.5 -84 41.5s-34 35.167 -45 57.5s-17.833 41.166 -20.5 56.499s-4 31 -4 47c0 83.333 41.667 141 125 173zM324.998 101.999c47.333 0 81.168 10.999 101.501 32.999s30.5 48 30.5 78c0 11.333 -1.5 22.5 -4.5 33.5
s-8.66699 22.833 -17 35.5s-22 23 -41 31s-42.167 12 -69.5 12s-50.5 -4 -69.5 -12s-32.667 -18.5 -41 -31.5s-14 -24.833 -17 -35.5s-4.5 -21.667 -4.5 -33c0 -29.333 10.167 -55.166 30.5 -77.499s54.166 -33.5 101.499 -33.5zM325 417.998c40 0 69.333 9.33301 88 28
s28 41 28 67s-10.667 46.667 -32 62s-49.333 23 -84 23c-33.333 0 -61 -7 -83 -21s-33 -35.333 -33 -64c0 -35.333 11.667 -60 35 -74s50.333 -21 81 -21z" />
    <glyph glyph-name="nine" unicode="9" 
d="M61 164l143 -0.000976562c5.33301 -20.667 18.333 -36.167 39 -46.5s44.667 -15.5 72 -15.5c82.667 0 127.667 59.333 135 178c-42 -42 -93.667 -63 -155 -63c-72 0 -131.333 22.333 -178 67s-70 102 -70 172c0 24 2.33301 47.333 7 70s13.334 46 26.001 70
s28.667 44.833 48 62.5s45.333 32.334 78 44.001s69.667 17.5 111 17.5c14 0 26.667 -0.333008 38 -1s27.333 -3.5 48 -8.5s39 -11.833 55 -20.5s33.5 -21.834 52.5 -39.501s34.667 -38.5 47 -62.5s22.666 -55.167 30.999 -93.5s12.5 -81.166 12.5 -128.499
c0 -15.333 -0.333008 -30.5 -1 -45.5s-3.16699 -36.167 -7.5 -63.5s-10.166 -52.333 -17.499 -75s-18.333 -47 -33 -73s-32 -48 -52 -66s-45.667 -33 -77 -45s-66.333 -18 -105 -18c-41.333 0 -77.833 5.83301 -109.5 17.5s-56.5 27.5 -74.5 47.5s-31.833 39.5 -41.5 58.5
s-16.834 39.167 -21.501 60.5zM450 457.999c0 10.667 -1.5 22.667 -4.5 36s-8.66699 28.5 -17 45.5s-22 31 -41 42s-41.833 16.5 -68.5 16.5c-42.667 0 -74.5 -13.833 -95.5 -41.5s-31.5 -59.834 -31.5 -96.501c0 -41.333 12 -74.166 36 -98.499s54.667 -36.5 92 -36.5
c44 0 76.667 13.167 98 39.5s32 57.5 32 93.5z" />
    <glyph glyph-name="colon" unicode=":" horiz-adv-x="377" 
d="M106 350v158h165v-158h-165zM106 0v158h165v-158h-165z" />
    <glyph glyph-name="semicolon" unicode=";" horiz-adv-x="377" 
d="M106 350v158h165v-158h-165zM106 0v157.999h165v-158c0 -12.667 -0.5 -24.667 -1.5 -36s-4.66699 -26.166 -11 -44.499s-15 -33.833 -26 -46.5s-27.333 -24 -49 -34s-47.5 -15.333 -77.5 -16v79c21.333 0 41 7 59 21s27 37.667 27 71v6h-86z" />
    <glyph glyph-name="less" unicode="&#x3c;" horiz-adv-x="672" 
d="M139 357l461 -265l-41 -70l-506 293v84l506 293l41 -70z" />
    <glyph glyph-name="equal" unicode="=" horiz-adv-x="672" 
d="M53 490h566v-80h-566v80zM53 290h566v-80h-566v80z" />
    <glyph glyph-name="greater" unicode="&#x3e;" horiz-adv-x="672" 
d="M533 357l-461 265l41 70l506 -293v-84l-506 -293l-41 70z" />
    <glyph glyph-name="question" unicode="?" horiz-adv-x="584" 
d="M199 0v158h166v-158h-166zM194 477l-153.997 0.000976562c-0.666992 39.333 4.5 73.833 15.5 103.5s25 52.667 42 69s37.667 29.333 62 39s46.833 16 67.5 19s43 4.5 67 4.5c76.667 0 137.167 -15.5 181.5 -46.5s66.5 -76.833 66.5 -137.5
c0 -23.333 -3.33301 -44.666 -10 -63.999s-16.5 -36.333 -29.5 -51s-24.5 -26 -34.5 -34s-23 -17.333 -39 -28c-15.333 -9.33301 -26.833 -16.833 -34.5 -22.5s-16.334 -13.667 -26.001 -24s-16.334 -22 -20.001 -35s-4.83398 -27.833 -3.50098 -44.5h-126v27
c0 36 6 64.667 18 86s28.333 40.666 49 57.999l29.5 21.5c17 12.333 28.833 21.666 35.5 27.999s14 16.5 22 30.5s12 28.667 12 44c0 24 -8 42.833 -24 56.5s-39 20.5 -69 20.5c-6.66699 0 -13 -0.333008 -19 -1s-14.5 -3.16699 -25.5 -7.5s-20.333 -10.333 -28 -18
s-14.167 -19.667 -19.5 -36s-7.33301 -35.5 -6 -57.5z" />
    <glyph glyph-name="at" unicode="@" horiz-adv-x="837" 
d="M573 104l37.999 -70c-56 -36 -120.667 -54 -194 -54c-118 0 -209.167 35.5 -273.5 106.5s-96.5 158.833 -96.5 263.5c0 108 35.333 196.667 106 266s158.667 104 264 104c107.333 0 195.833 -31.5 265.5 -94.5s104.5 -149.5 104.5 -259.5
c0 -58.667 -16.667 -110.667 -50 -156s-78.666 -68 -135.999 -68c-43.333 0 -71.666 13.333 -84.999 40c-20.667 -30.667 -60.667 -46 -120 -46c-61.333 0 -106.333 19.5 -135 58.5s-43 86.5 -43 142.5c0 56.667 15.833 104.5 47.5 143.5s73.167 58.5 124.5 58.5
c45.333 0 79.333 -11.333 102 -34l1 20h99v-254c0 -18.667 1.66699 -30.834 5 -36.501s10 -8.5 20 -8.5c29.333 0 51.333 13.833 66 41.5s22 60.5 22 98.5c0 47.333 -8.33301 89.333 -25 126s-39 65.834 -67 87.501s-58.667 37.834 -92 48.501s-68 16 -104 16
c-86.667 0 -156.334 -28.833 -209.001 -86.5s-79 -126.834 -79 -207.501c0 -86 26.5 -156.5 79.5 -211.5s122.5 -82.5 208.5 -82.5c58.667 0 110.667 16 156 48zM489.999 337c0 78 -27.665 116.999 -82.998 116.999c-25.333 0 -46 -9.83301 -62 -29.5
s-24 -48.834 -24 -87.501c0 -15.333 1.5 -30.666 4.5 -45.999s11.333 -31 25 -47s32.167 -24 55.5 -24c2.66699 0 6.16699 0.333008 10.5 1s11.166 3 20.499 7s17.666 9.83301 24.999 17.5s13.833 19.334 19.5 35.001s8.5 34.5 8.5 56.5z" />
    <glyph glyph-name="A" unicode="A" horiz-adv-x="711" 
d="M170 577v123h269l215 -574h67v-126h-292v123h47l-15 45h-228l-16 -45h44v-123h-271v126h67l173 451h-60zM347 516l-82 -234h161z" />
    <glyph glyph-name="B" unicode="B" horiz-adv-x="758" 
d="M50 564l0.00195312 136.001h418c43.333 0 80.166 -5.5 110.499 -16.5s52.666 -25.833 66.999 -44.5s24.333 -37.334 30 -56.001s8.5 -39 8.5 -61c0 -71.333 -38.333 -120 -115 -146v-1c16 -3.33301 31.5 -8.5 46.5 -15.5s30.833 -17 47.5 -30s30 -31 40 -54
s15 -49.5 15 -79.5c0 -130.667 -89.333 -196 -268 -196h-400v136h67v428h-67zM282.002 295.001v-159h171c20.667 0 41 6.16699 61 18.5s30 32.5 30 60.5c0 30.667 -10 51.667 -30 63s-47.333 17 -82 17h-150zM282.002 564.001v-140h152c30 0 51.167 7.5 63.5 22.5
s18.5 31.5 18.5 49.5s-6.66699 33.833 -20 47.5s-36.333 20.5 -69 20.5h-145z" />
    <glyph glyph-name="C" unicode="C" horiz-adv-x="731" 
d="M685 465l-152 0.00292969c-10.667 79.333 -62.667 119 -156 119c-8.66699 0 -17 -0.666992 -25 -2s-18.833 -4.16602 -32.5 -8.49902s-25.834 -11.833 -36.501 -22.5s-21.167 -24.334 -31.5 -41.001s-18.5 -39.334 -24.5 -68.001s-9 -61.667 -9 -99
c0 -68 15 -122.833 45 -164.5s72.333 -62.5 127 -62.5c26 0 48.5 4.16699 67.5 12.5s33.833 19.666 44.5 33.999s18.5 28.166 23.5 41.499s8.83301 27.666 11.5 42.999h164c-2.66699 -24 -7.16699 -46.833 -13.5 -68.5s-17 -45.167 -32 -70.5s-33.667 -47 -56 -65
s-52.166 -33 -89.499 -45s-79.666 -18 -126.999 -18s-90.5 6 -129.5 18s-75 31.333 -108 58s-58.833 64.167 -77.5 112.5s-28 105.833 -28 172.5c0 50 4.66699 95.167 14 135.5s21 73.333 35 99s31.333 48 52 67s40.167 33.333 58.5 43s38.666 17.334 60.999 23.001
s40 9 53 10s26.5 1.5 40.5 1.5c92 0 157 -26.667 195 -80v60h136v-235z" />
    <glyph glyph-name="D" unicode="D" horiz-adv-x="800" 
d="M50 564l-0.000976562 136h363c14.667 0 28.334 -0.333008 41.001 -1s31.5 -3.33398 56.5 -8.00098s47.5 -11.167 67.5 -19.5s42 -21.166 66 -38.499s43.833 -37.666 59.5 -60.999s29 -53.833 40 -91.5s16.5 -79.834 16.5 -126.501c0 -45.333 -4.83301 -86.5 -14.5 -123.5
s-22 -67.5 -37 -91.5s-33.5 -45 -55.5 -63s-43.5 -31.667 -64.5 -41s-44.333 -16.833 -70 -22.5s-47.167 -9.16699 -64.5 -10.5s-36 -2 -56 -2h-348v136h67v428h-67zM281.999 564v-428h100c133.333 0 200 71.667 200 215c0 142 -63.333 213 -190 213h-110z" />
    <glyph glyph-name="E" unicode="E" horiz-adv-x="715" 
d="M671 465h-136v99h-253v-142h214v-129h-214v-157h267v135h136v-271h-635v136h67v428h-67v136h621v-235z" />
    <glyph glyph-name="F" unicode="F" horiz-adv-x="646" 
d="M626 465h-136v99h-208v-160h185v-136h-185v-132h67v-136h-299v136h67v428h-67v136h576v-235z" />
    <glyph glyph-name="G" unicode="G" horiz-adv-x="801" 
d="M714 465l-146.003 -0.00195312c-2.66699 23.333 -17.5 49 -44.5 77s-65.5 42 -115.5 42c-26 0 -49.5 -3.83301 -70.5 -11.5s-38 -17 -51 -28s-24.167 -25 -33.5 -42s-16.166 -32 -20.499 -45s-7.66602 -28.5 -9.99902 -46.5s-3.66602 -30.5 -3.99902 -37.5
s-0.5 -15.833 -0.5 -26.5c0 -14 0.5 -27.667 1.5 -41s5 -32.5 12 -57.5s16.333 -46.333 28 -64s30 -33.5 55 -47.5s54.5 -21 88.5 -21c40 0 75.833 11.667 107.5 35s49.5 57.333 53.5 102h-138v127h355v-127h-59v-253h-123v75h-2c-43.333 -63.333 -115 -95 -215 -95
c-57.333 0 -107.666 8.83301 -150.999 26.5s-76.833 39.5 -100.5 65.5s-42.667 56.833 -57 92.5s-23.5 68 -27.5 97s-6 59.167 -6 90.5s2.83301 62.5 8.5 93.5s16.5 63.333 32.5 97s36.167 63.334 60.5 89.001s57.166 46.834 98.499 63.501s88.333 25 141 25
c89.333 0 155.333 -27 198 -81v61h135v-235z" />
    <glyph glyph-name="H" unicode="H" horiz-adv-x="832" 
d="M485 0v136h65v168h-268v-168h65v-136h-297v136h67v428h-67v136h297v-136h-65v-132h268v132h-65v136h297v-136h-67v-428h67v-136h-297z" />
    <glyph glyph-name="I" unicode="I" horiz-adv-x="399" 
d="M50 564v136h299v-136h-67v-428h67v-136h-299v136h67v428h-67z" />
    <glyph glyph-name="J" unicode="J" horiz-adv-x="625" 
d="M280 564l0.000976562 135.998h305v-136h-67v-311c0 -57.333 -7 -105.166 -21 -143.499s-33.667 -66.333 -59 -84s-50.333 -29.667 -75 -36s-53.334 -9.5 -86.001 -9.5c-50.667 0 -93.834 8 -129.501 24s-61.667 37 -78 63s-27.666 50.833 -33.999 74.5
s-9.5 47.834 -9.5 72.501v44h165v-28c0 -39.333 6.33301 -68.166 19 -86.499s34.667 -27.5 66 -27.5c30 0 50.333 9.16699 61 27.5s16 47.166 16 86.499v334h-73z" />
    <glyph glyph-name="K" unicode="K" horiz-adv-x="725" 
d="M302 352l161 217h-51v131h290v-136h-60l-164 -199l192 -229h55v-136h-311v131h58zM282 569v-438h57v-131h-289v136h67v428h-67v136h289v-131h-57z" />
    <glyph glyph-name="L" unicode="L" horiz-adv-x="625" 
d="M50 564v136h299v-136h-67v-428h192v138h136v-274h-560v136h67v428h-67z" />
    <glyph glyph-name="M" unicode="M" horiz-adv-x="1068" 
d="M726 0v136h60v372h-3l-193 -508h-112l-193 508h-3v-372h60v-136h-292v136h67v428h-67v136h306l185 -481l185 481h292v-136h-67v-428h67v-136h-292z" />
    <glyph glyph-name="N" unicode="N" horiz-adv-x="845" 
d="M502 564v136h293v-136h-67v-564h-168l-276 441h-2v-305h61v-136h-293v136h67v428h-67v136h234l276 -438h3v302h-61z" />
    <glyph glyph-name="O" unicode="O" horiz-adv-x="788" 
d="M394 -20c-53.333 0 -100.833 7.66699 -142.5 23s-75.5 35.333 -101.5 60s-47.5 53.5 -64.5 86.5s-28.833 66 -35.5 99s-10 66.833 -10 101.5s3.33301 68.5 10 101.5s18.5 66 35.5 99s38.5 61.833 64.5 86.5s59.833 44.667 101.5 60s89.167 23 142.5 23
c116 0 204 -33.833 264 -101.5s90 -157.167 90 -268.5s-30 -200.833 -90 -268.5s-148 -101.5 -264 -101.5zM394 116c32 0 59.5 6.50195 82.5 19.502s40.333 28 52 45s20.834 37.667 27.501 62s10.667 44.166 12 59.499s2 31.333 2 48c0 18 -0.666992 34.667 -2 50
s-5.33301 35.166 -12 59.499s-15.834 44.833 -27.501 61.5s-29 31.334 -52 44.001s-50.5 19 -82.5 19c-116.667 0 -175 -78 -175 -234c0 -84.667 16.167 -144.834 48.5 -180.501s74.5 -53.5 126.5 -53.5z" />
    <glyph glyph-name="P" unicode="P" horiz-adv-x="724" 
d="M50 564l-0.000976562 135.999h379c81.333 0 148 -18 200 -54s78 -93.333 78 -172c0 -40 -7.33301 -75 -22 -105s-32.167 -53 -52.5 -69s-44.5 -28.667 -72.5 -38s-52.167 -15.166 -72.5 -17.499s-41.166 -3.5 -62.499 -3.5h-143v-105h70v-136h-302v136h67v428h-67z
M281.999 563.999v-186.999h117c40.667 0 72.5 8.16699 95.5 24.5s34.5 40.166 34.5 71.499c0 60.667 -43.333 91 -130 91h-117z" />
    <glyph glyph-name="Q" unicode="Q" horiz-adv-x="787" 
d="M655 -82l-90.001 94.999c-45.333 -22 -102.666 -33 -171.999 -33c-60 0 -112.5 9.66699 -157.5 29s-79.5 42.5 -103.5 69.5s-43.333 58.833 -58 95.5s-24 68.5 -28 95.5s-6 53.833 -6 80.5c0 34.667 3.33301 68.334 10 101.001s18.334 65.667 35.001 99s38 62.333 64 87
s59.833 44.667 101.5 60s89.167 23 142.5 23c115.333 0 203.166 -34 263.499 -102s90.5 -157.333 90.5 -268c0 -107.333 -28.667 -195.333 -86 -264l81 -86zM392.999 115.999c29.333 0 53 4.33203 71 12.999l-83 89l79 74l82 -88c18 37.333 27 86 27 146
c0 84.667 -16.5 144.834 -49.5 180.501s-75.167 53.5 -126.5 53.5c-116.667 0 -175 -78 -175 -234s58.333 -234 175 -234z" />
    <glyph glyph-name="R" unicode="R" horiz-adv-x="782" 
d="M546 0l-139.002 258h-125v-122h67v-136h-299v136h67v428h-67v136h399c30.667 0 60.334 -3.33301 89.001 -10s56.667 -17.5 84 -32.5s49.333 -37.167 66 -66.5s25 -64 25 -104c0 -41.333 -11.667 -81.5 -35 -120.5s-59.666 -67.167 -108.999 -84.5l85 -146h83v-136h-191z
M281.998 564l0.000976562 -178h140c41.333 0 71.166 9.33301 89.499 28s27.5 38.667 27.5 60c0 60 -41 90 -123 90h-134z" />
    <glyph glyph-name="S" unicode="S" horiz-adv-x="675" 
d="M606 485h-148.002c-3.33301 25.333 -14.666 48.166 -33.999 68.499s-49.333 30.5 -90 30.5c-72 0 -108 -22.333 -108 -67c0 -14 4 -26.333 12 -37s19.833 -19.167 35.5 -25.5s29.834 -11 42.501 -14s28.667 -6.16699 48 -9.5c43.333 -8 78.833 -16.167 106.5 -24.5
s55.334 -20.333 83.001 -36s48.167 -36.5 61.5 -62.5s20 -57.667 20 -95c0 -11.333 -0.333008 -21.666 -1 -30.999s-2.83398 -22.5 -6.50098 -39.5s-8.83398 -32.167 -15.501 -45.5s-17 -27.666 -31 -42.999s-30.5 -28 -49.5 -38s-43.667 -18.5 -74 -25.5
s-64.166 -10.5 -101.499 -10.5s-73.333 6.5 -108 19.5s-62 32.5 -82 58.5v-58h-122v235h158c0 -12.667 1.83301 -25 5.5 -37s10.167 -24.667 19.5 -38s23.666 -24 42.999 -32s43 -12 71 -12c83.333 0 125 25 125 75c0 9.33301 -1.5 17.833 -4.5 25.5
s-6.5 14.334 -10.5 20.001s-10.5 11.167 -19.5 16.5s-16.5 9.5 -22.5 12.5s-15.5 6.33301 -28.5 10s-22.667 6.16699 -29 7.5l-32.5 7c-15.333 3.33301 -25.666 5.66602 -30.999 6.99902c-29.333 6 -53.666 12 -72.999 18s-39.833 14.5 -61.5 25.5
s-38.834 23.667 -51.501 38s-23.334 33.166 -32.001 56.499s-13 50 -13 80c0 38 9.16699 72.333 27.5 103s44.833 54.667 79.5 72c41.333 20 92 30 152 30c32.667 0 65.334 -6.66699 98.001 -20s56 -31 70 -53v53h122v-215z" />
    <glyph glyph-name="T" unicode="T" horiz-adv-x="725" 
d="M213 0v136h67v428h-129v-131h-136v267h695v-267h-136v131h-129v-428h67v-136h-299z" />
    <glyph glyph-name="U" unicode="U" horiz-adv-x="820" 
d="M481 564v135.996h299v-136h-67v-299c0 -13.333 -0.5 -26.166 -1.5 -38.499s-3.66699 -28.666 -8 -48.999s-10.333 -38.666 -18 -54.999s-19 -33.833 -34 -52.5s-32.833 -34.167 -53.5 -46.5s-47.167 -22.666 -79.5 -30.999s-68.5 -12.5 -108.5 -12.5
c-56 0 -104.167 7.83301 -144.5 23.5s-70.333 33.667 -90 54s-35.167 45.5 -46.5 75.5s-17.833 54 -19.5 72s-2.5 38 -2.5 60v299h-67v136h299v-136h-67v-272c0 -60 10.5 -104.333 31.5 -133s56.5 -43 106.5 -43s85.5 14 106.5 42s31.5 72.667 31.5 134v272h-67z" />
    <glyph glyph-name="V" unicode="V" horiz-adv-x="690" 
d="M-10 564v136h297v-136h-47l113 -364l108 364h-45v136h284v-136h-67l-202 -564h-175l-201 564h-65z" />
    <glyph glyph-name="W" unicode="W" horiz-adv-x="1019" 
d="M730 564v136h299v-136h-72l-149 -564h-182l-120 517l-120 -517h-176l-149 564h-71v136h299v-136h-60l83 -375l122 511h150l122 -511l83 375h-59z" />
    <glyph glyph-name="X" unicode="X" horiz-adv-x="716" 
d="M406 574v126h293v-136h-67l-168 -200l185 -228h67v-136h-308v126h48l-98 138l-98 -138h50v-126h-310v136h67l185 228l-167 200h-67v136h302v-126h-50l93 -127l93 127h-50z" />
    <glyph glyph-name="Y" unicode="Y" horiz-adv-x="641" 
d="M-10 564v136h294v-136h-45l92 -167l91 167h-42v136h271v-136h-65l-179 -300v-128h67v-136h-299v136h67v128l-185 300h-67z" />
    <glyph glyph-name="Z" unicode="Z" horiz-adv-x="652" 
d="M483 265h136v-265h-589v146l364 418h-219v-99h-136v235h563v-127l-371 -437h252v129z" />
    <glyph glyph-name="bracketleft" unicode="[" horiz-adv-x="426" 
d="M106 700h264v-92h-132v-701h132v-92h-264v885z" />
    <glyph glyph-name="backslash" unicode="\" horiz-adv-x="447" 
d="M447 -185h-80l-367 885h80z" />
    <glyph glyph-name="bracketright" unicode="]" horiz-adv-x="426" 
d="M56 700h264v-885h-264v92h132v701h-132v92z" />
    <glyph glyph-name="asciicircum" unicode="^" horiz-adv-x="460" 
d="M229 652l-100 -170h-100l130 218h140l130 -218h-100z" />
    <glyph glyph-name="underscore" unicode="_" horiz-adv-x="497" 
d="M0 -185v80h497v-80h-497z" />
    <glyph glyph-name="grave" unicode="`" horiz-adv-x="349" 
d="M179 700l69 -132h-123l-106 132h160z" />
    <glyph glyph-name="a" unicode="a" horiz-adv-x="632" 
d="M395 0l-0.00195312 49.9912h-3c-36 -46 -92.667 -69 -170 -69c-30.667 0 -57.5 3.83301 -80.5 11.5s-40.333 16.834 -52 27.501s-21.167 23.334 -28.5 38.001s-11.833 27.334 -13.5 38.001s-2.5 21.334 -2.5 32.001c0 22.667 3.83301 42.667 11.5 60s17 31.166 28 41.499
s25.5 19.666 43.5 27.999s34.833 14.333 50.5 18s34.167 7.5 55.5 11.5c12.667 2 27 3.83301 43 5.5s28.167 3 36.5 4s17.5 2.5 27.5 4.5s17.167 3.83301 21.5 5.5s8.83301 4.33398 13.5 8.00098s7.83398 7.83398 9.50098 12.501s2.83398 10.334 3.50098 17.001v14
c-2 44.667 -29.333 67 -82 67c-62 0 -93 -27 -93 -81h-145c1.33301 28 6.66602 52.833 15.999 74.5s21.833 38.834 37.5 51.501s31.5 23.167 47.5 31.5s33.833 14.166 53.5 17.499s35.5 5.5 47.5 6.5s24.333 1.5 37 1.5c31.333 0 59.666 -2.66699 84.999 -8
s45.833 -11.666 61.5 -18.999s29.334 -17.166 41.001 -29.499s20.334 -23.5 26.001 -33.5s10 -22.167 13 -36.5s4.83301 -25.666 5.5 -33.999s1 -18.166 1 -29.499v-235h61v-102h-207zM389.998 209.991l0.000976562 32c-7.33301 -4 -15.666 -7.5 -24.999 -10.5
s-17 -5.16699 -23 -6.5s-15.167 -3.16602 -27.5 -5.49902s-20.5 -3.83301 -24.5 -4.5c-59.333 -9.33301 -89 -33.666 -89 -72.999c0 -21.333 8.16699 -36.5 24.5 -45.5s34.166 -13.5 53.499 -13.5c15.333 0 30.666 3.16699 45.999 9.5s30 19.666 44 39.999
s21 46.166 21 77.499z" />
    <glyph glyph-name="b" unicode="b" horiz-adv-x="673" 
d="M37 598v102h213v-243c38.667 46.667 89.667 70 153 70c73.333 0 130.833 -24.5 172.5 -73.5s62.5 -114.833 62.5 -197.5c0 -91.333 -22.667 -160 -68 -206s-100.333 -69 -165 -69c-35.333 0 -64.833 5.83301 -88.5 17.5s-48.5 32.5 -74.5 62.5h-3v-61h-202v102h61v496
h-61zM242 254c0 -58.667 11.3359 -101.833 34.0029 -129.5s51 -41.5 85 -41.5c36.667 0 65.667 15.167 87 45.5s32 72.166 32 125.499c0 49.333 -9.66699 90.166 -29 122.499s-49.333 48.5 -90 48.5c-22 0 -40.833 -5 -56.5 -15s-27.334 -21.333 -35.001 -34
s-13.834 -28.167 -18.501 -46.5s-7.33398 -32.666 -8.00098 -42.999s-1 -21.166 -1 -32.499z" />
    <glyph glyph-name="c" unicode="c" horiz-adv-x="597" 
d="M441 508h101.999v-181h-133c-8.66699 65.333 -41.667 98 -99 98c-78.667 0 -118 -53.667 -118 -161c0 -32 3 -59.833 9 -83.5s13.167 -41.5 21.5 -53.5s18.333 -21.5 30 -28.5s21.5 -11.333 29.5 -13s16 -2.5 24 -2.5c35.333 0 60.833 12 76.5 36s23.5 48.333 23.5 73
h150c-1.33301 -22.667 -6.16602 -45 -14.499 -67s-21.333 -44.5 -39 -67.5s-43.5 -41.5 -77.5 -55.5s-74 -21 -120 -21c-84 0 -150.167 23.5 -198.5 70.5s-72.5 114.167 -72.5 201.5c0 82.667 21.333 149 64 199s106.667 75 192 75c66.667 0 116.667 -23 150 -69v50z" />
    <glyph glyph-name="d" unicode="d" horiz-adv-x="672" 
d="M361 598v102h213v-598h61v-102h-213v61h-2c-26.667 -28.667 -51.167 -49.167 -73.5 -61.5s-49.166 -18.5 -80.499 -18.5c-70.667 0 -126.834 25.167 -168.501 75.5s-62.5 116.833 -62.5 199.5c0 80.667 21 146 63 196s99 75 171 75c27.333 0 55.5 -6.33301 84.5 -19
s51.833 -29.667 68.5 -51v141h-61zM430 254c0 55.333 -10.333 97.666 -31 126.999s-50 44 -88 44c-40 0 -69.667 -16.333 -89 -49s-29 -73.334 -29 -122.001c0 -53.333 10.667 -95.166 32 -125.499s50 -45.5 86 -45.5c34 0 62.333 13.833 85 41.5s34 70.834 34 129.501z" />
    <glyph glyph-name="e" unicode="e" horiz-adv-x="616" 
d="M418 147h154.001c-30.667 -110.667 -118.667 -166 -264 -166c-18.667 0 -37 1 -55 3s-41.167 8.33301 -69.5 19s-52.5 25 -72.5 43s-37.667 45 -53 81s-23 78.667 -23 128c0 86.667 25.667 153.667 77 201s119.666 71 204.999 71c72 0 128 -17 168 -51
s67 -76.667 81 -128c9.33301 -32 14 -75.667 14 -131h-387c0 -32.667 9.5 -63.167 28.5 -91.5s50.167 -42.5 93.5 -42.5c24 0 45.667 5.33301 65 16s32 26.667 38 48zM193.001 302l231.999 -0.00195312c-0.666992 25.333 -4.66699 46.833 -12 64.5s-17 30.334 -29 38.001
s-23.167 13 -33.5 16s-21.166 4.5 -32.499 4.5c-40.667 0 -71.167 -12.667 -91.5 -38s-31.5 -53.666 -33.5 -84.999z" />
    <glyph glyph-name="f" unicode="f" horiz-adv-x="385" 
d="M37 0l-0.00195312 102h66v304h-73v102h73v64c0 48.667 16 83.167 48 103.5s78.667 30.5 140 30.5c44.667 0 74.334 -2 89.001 -6v-102c-17.333 4 -39.666 6 -66.999 6c-38.667 0 -58 -19.333 -58 -58v-38h84v-102h-84v-304h66v-102h-284z" />
    <glyph glyph-name="g" unicode="g" horiz-adv-x="673" 
d="M72 -40l148 0.000976562c9.33301 -38 42.333 -57 99 -57c22 0 40.667 4.33301 56 13s26 20.167 32 34.5s10.167 27.166 12.5 38.499s3.5 23 3.5 35v50h-4c-41.333 -41.333 -92 -62 -152 -62c-65.333 0 -120.333 20.5 -165 61.5s-67 102.5 -67 184.5
c0 84 20.833 149.833 62.5 197.5s98.834 71.5 171.501 71.5c67.333 0 117.666 -25 150.999 -75h3v56h213v-102h-61v-359c0 -164 -85.667 -246 -257 -246c-146 0 -228 53 -246 159zM310 114.001c14.667 0 27.8311 1.6709 39.498 5.00391s23.834 9.66602 36.501 18.999
s22.667 24.833 30 46.5s11 48.5 11 80.5c0 50 -10.667 89.167 -32 117.5s-50 42.5 -86 42.5c-23.333 0 -43.333 -5.83301 -60 -17.5s-28.667 -26.5 -36 -44.5s-12.5 -34.833 -15.5 -50.5s-4.5 -30.834 -4.5 -45.501c0 -16.667 1.33301 -32.334 4 -47.001
s7.66699 -30.834 15 -48.501s19.333 -31.667 36 -42s37.334 -15.5 62.001 -15.5z" />
    <glyph glyph-name="h" unicode="h" horiz-adv-x="688" 
d="M37 598l-0.00195312 102.001h213v-247c42 49.333 99.333 74 172 74c112 0 168 -69.333 168 -208v-217h61v-102h-271v102h58v192c0 87.333 -28.667 131 -86 131c-23.333 0 -42.666 -6 -57.999 -18s-25.666 -27.333 -30.999 -46s-8.83301 -33.334 -10.5 -44.001
s-2.5 -21 -2.5 -31v-184h58v-102h-271v102h61v496h-61z" />
    <glyph glyph-name="i" unicode="i" horiz-adv-x="348" 
d="M37 406v102h213v-406h61v-102h-274v102h61v304h-61zM98 581v119h152v-119h-152z" />
    <glyph glyph-name="j" unicode="j" horiz-adv-x="331" 
d="M53 406l-0.00195312 102.002h213v-533c0 -25.333 -2.33301 -47.833 -7 -67.5s-11.334 -35.334 -20.001 -47.001s-17.5 -21.334 -26.5 -29.001s-19.667 -13 -32 -16s-22.666 -5 -30.999 -6s-18.166 -1.5 -29.499 -1.5c-42 0 -73.667 2.33301 -95 7v102
c6.66699 -1.33301 11.334 -2 14.001 -2c17.333 0 31.5 2 42.5 6s18.667 10.167 23 18.5s7 15.833 8 22.5s1.5 16 1.5 28v416h-61zM113.998 581.002v119h152v-119h-152z" />
    <glyph glyph-name="k" unicode="k" horiz-adv-x="598" 
d="M37 598v102h213v-603h61v-97h-274v102h61v496h-61zM265 254l106 157h-26v97h230v-102h-57l-111 -137l123 -167h63v-102h-154z" />
    <glyph glyph-name="l" unicode="l" horiz-adv-x="348" 
d="M37 598v102h213v-598h61v-102h-274v102h61v496h-61z" />
    <glyph glyph-name="m" unicode="m" horiz-adv-x="990" 
d="M363 0l-0.000976562 102.001h56v197c0 41.333 -5.66699 72.666 -17 93.999s-31.333 32 -60 32c-23.333 0 -44.5 -10.833 -63.5 -32.5s-28.5 -55.167 -28.5 -100.5v-190h56v-102h-269v102h61v304h-61v102h203v-74c43.333 62 95.333 93 156 93c74 0 123.667 -34 149 -102
c46 68 104 102 174 102c115.333 0 173 -72.667 173 -218v-207h61v-102h-269v102h56v197c0 84 -25.333 126 -76 126c-25.333 0 -47.166 -10.667 -65.499 -32s-27.5 -55 -27.5 -101v-190h56v-102h-264z" />
    <glyph glyph-name="n" unicode="n" horiz-adv-x="688" 
d="M37 406v102.002h207v-61c39.333 53.333 98 80 176 80c20.667 0 39.334 -2.16699 56.001 -6.5s34.5 -13 53.5 -26s33.833 -34.333 44.5 -64s16 -66.834 16 -111.501v-217h61v-102h-271v102h58v192c0 87.333 -28.667 131 -86 131c-16 0 -30.167 -2.83301 -42.5 -8.5
s-21.833 -13.334 -28.5 -23.001s-12.334 -19.5 -17.001 -29.5s-8 -21 -10 -33s-3.16699 -21 -3.5 -27s-0.5 -12 -0.5 -18v-184h58v-102h-271v102h61v304h-61z" />
    <glyph glyph-name="o" unicode="o" horiz-adv-x="626" 
d="M313 -19c-83.333 0 -150.5 23.168 -201.5 69.501s-76.5 114.5 -76.5 204.5c0 48 7.66699 90.167 23 126.5s36.5 64.666 63.5 84.999s56.5 35.5 88.5 45.5s66.333 15 103 15c83.333 0 150.5 -23 201.5 -69s76.5 -113.667 76.5 -203c0 -90 -25.5 -158.167 -76.5 -204.5
s-118.167 -69.5 -201.5 -69.5zM313 83.001c80 0 120 57.333 120 172c0 113.333 -40 170 -120 170s-120 -56.667 -120 -170c0 -114.667 40 -172 120 -172z" />
    <glyph glyph-name="p" unicode="p" horiz-adv-x="673" 
d="M37 406l-0.000976562 102h203v-61h3c43.333 53.333 98 80 164 80c71.333 0 127.666 -24.667 168.999 -74s62 -116 62 -200c0 -81.333 -21.167 -147 -63.5 -197s-99.166 -75 -170.499 -75c-11.333 0 -24.166 1 -38.499 3s-33.333 8.83301 -57 20.5
s-43.167 27.5 -58.5 47.5v-135h61v-102h-274v102h61v489h-61zM242.999 255c0 -49.333 9.49902 -90.333 28.499 -123s49.167 -49 90.5 -49c40.667 0 70.5 16.333 89.5 49s28.5 73.667 28.5 123c0 33.333 -3.83301 62 -11.5 86s-18 41.667 -31 53s-25.667 19.333 -38 24
s-24.833 7 -37.5 7c-13.333 0 -26.166 -2.33301 -38.499 -7s-25 -12.667 -38 -24s-23.333 -29 -31 -53s-11.5 -52.667 -11.5 -86z" />
    <glyph glyph-name="q" unicode="q" horiz-adv-x="674" 
d="M637 -83l-0.000976562 -102h-274v102h61v135c-36.667 -47.333 -87.667 -71 -153 -71c-66 0 -121.833 22.833 -167.5 68.5s-68.5 113.5 -68.5 203.5c0 92 22.333 160.667 67 206s100.334 68 167.001 68c32 0 63.667 -7.66699 95 -23s52 -34.333 62 -57h6v61h205v-102h-61
v-489h61zM431.999 255c0 33.333 -3.83398 62.001 -11.501 86.001s-18 41.667 -31 53s-25.667 19.333 -38 24s-25.166 7 -38.499 7c-30.667 0 -55.5 -10.5 -74.5 -31.5s-31.333 -43.167 -37 -66.5s-8.5 -47.333 -8.5 -72c0 -18 1.83301 -36 5.5 -54s9.5 -36.333 17.5 -55
s20.333 -33.834 37 -45.501s36.667 -17.5 60 -17.5c31.333 0 56.5 10.5 75.5 31.5s31 43 36 66s7.5 47.833 7.5 74.5z" />
    <glyph glyph-name="r" unicode="r" horiz-adv-x="461" 
d="M37 406v102h213v-83c32.667 68 92.334 102 179.001 102h18v-102c-4.66699 0.666992 -11.334 1 -20.001 1h-20c-49.333 0 -87.833 -15.667 -115.5 -47s-41.5 -88.333 -41.5 -171v-106h61v-102h-274v102h61v304h-61z" />
    <glyph glyph-name="s" unicode="s" horiz-adv-x="563" 
d="M394 508l109.002 -0.00292969v-150h-131c0 20.667 -9.83301 37 -29.5 49s-40.167 18 -61.5 18c-52.667 0 -79 -15.667 -79 -47c0 -10 2.83301 -18.667 8.5 -26s12.167 -13.166 19.5 -17.499s17.833 -8.5 31.5 -12.5s24.5 -6.66699 32.5 -8s19.667 -3 35 -5
c21.333 -3.33301 39.666 -6.66602 54.999 -9.99902s32.666 -8.83301 51.999 -16.5s35.166 -16.667 47.499 -27s22.833 -24.166 31.5 -41.499s13 -37.333 13 -60c0 -115.333 -79.667 -173 -239 -173c-62.667 0 -111 18.667 -145 56v-37h-109v160h149
c2.66699 -51.333 37.334 -77 104.001 -77c20.667 0 39.5 4.5 56.5 13.5s25.5 22.5 25.5 40.5c0 6.66699 -0.666992 12.667 -2 18s-4 10 -8 14s-7.5 7.66699 -10.5 11s-8.16699 6.33301 -15.5 9l-17.5 6.5c-4.33301 1.66699 -11.333 3.5 -21 5.5l-22 4.5
c-5 1 -13.333 2.5 -25 4.5s-19.834 3.33301 -24.501 4c-19.333 3.33301 -35.5 6.5 -48.5 9.5s-28.5 8.5 -46.5 16.5s-32.667 17.167 -44 27.5s-21 24.333 -29 42s-12 38.167 -12 61.5c0 104 69 156 207 156c64.667 0 112.334 -17.667 143.001 -53v34z" />
    <glyph glyph-name="t" unicode="t" horiz-adv-x="386" 
d="M13 406l-0.000976562 102h92v152h152v-152h108v-102h-108v-268c0 -30 20 -45 60 -45c16 0 32 3 48 9v-102c-45.333 -9.33301 -86.666 -14 -123.999 -14c-50 0 -85.167 11.5 -105.5 34.5s-30.5 60.833 -30.5 113.5v272h-92z" />
    <glyph glyph-name="u" unicode="u" horiz-adv-x="688" 
d="M651 102l-0.000976562 -101.998h-213v61c-47.333 -53.333 -104 -80 -170 -80c-113.333 0 -170 69.667 -170 209v216h-61v102h213v-294c0 -48 6.83301 -81.833 20.5 -101.5s35.167 -29.5 64.5 -29.5c18 0 33.833 3.83301 47.5 11.5s23.834 16.667 30.501 27
s12 22.666 16 36.999s6.5 26.166 7.5 35.499s1.5 19 1.5 29v183h-61v102h213v-406h61z" />
    <glyph glyph-name="v" unicode="v" horiz-adv-x="585" 
d="M0 406v102h268v-102h-54l80 -273l80 273h-49v102h260v-102h-64l-148 -406h-168l-149 406h-56z" />
    <glyph glyph-name="w" unicode="w" horiz-adv-x="865" 
d="M616 406v102h249v-102h-58l-132 -406h-146l-97 344l-97 -344h-146l-133 406h-56v102h257v-102h-50l66 -256l94 358h138l94 -358l66 256h-49z" />
    <glyph glyph-name="x" unicode="x" horiz-adv-x="564" 
d="M304 0v92h37l-63 84l-66 -84h34v-92h-241v102h59l133 161l-116 143h-59v102h248v-92h-35l53 -76l55 76h-33v92h240v-102h-61l-119 -143l131 -161h58v-102h-255z" />
    <glyph glyph-name="y" unicode="y" horiz-adv-x="595" 
d="M0 406v102h278v-102h-48l88 -229l63 229h-49v102h263v-102h-58l-214 -591h-196v102h93l28 85l-192 404h-56z" />
    <glyph glyph-name="z" unicode="z" horiz-adv-x="523" 
d="M391 196h102v-196h-463v102l273 304h-153v-79h-102v181h432v-101l-268 -305h179v94z" />
    <glyph glyph-name="braceleft" unicode="{" horiz-adv-x="503" 
d="M132 249l0.00195312 92.9951c24.667 0 45.667 10.5 63 31.5s26 53.833 26 98.5c0 10 -0.666992 27.667 -2 53c-1.33301 22.667 -2 39.334 -2 50.001c0 34.667 5.66699 63.667 17 87s26.666 40.333 45.999 51s38.5 17.834 57.5 21.501s39.5 5.16699 61.5 4.5v-73
c-46.667 -12.667 -70 -43 -70 -91c0 -5.33301 0.166992 -11.166 0.5 -17.499s0.833008 -13 1.5 -20s1 -12.833 1 -17.5c1.33301 -14.667 2 -25 2 -31v-31c0 -76.667 -38 -129.667 -114 -159v-7c43.333 -18.667 73.166 -40.5 89.499 -65.5s24.5 -56.167 24.5 -93.5v-31
c0 -6 -0.666992 -16.333 -2 -31c0 -4 -0.333008 -9.83301 -1 -17.5s-1.16699 -14.667 -1.5 -21s-0.5 -12.166 -0.5 -17.499c0 -26.667 7.33301 -47.5 22 -62.5s30.667 -24.167 48 -27.5v-73c-64.667 -4 -111.167 9.66699 -139.5 41s-42.5 72 -42.5 122
c0 11.333 0.666992 26.333 2 45s2 38.334 2 59.001c0 80.667 -29.667 124 -89 130z" />
    <glyph glyph-name="bar" unicode="|" horiz-adv-x="498" 
d="M208 -224v1053h82v-1053h-82z" />
    <glyph glyph-name="braceright" unicode="}" horiz-adv-x="503" 
d="M371 342l0.000976562 -92.9941c-20 -2 -36.5 -8.16699 -49.5 -18.5s-22 -23.5 -27 -39.5s-8.33301 -29.167 -10 -39.5s-2.5 -21.166 -2.5 -32.499c0 -22.667 0.666992 -44.167 2 -64.5s2 -33.5 2 -39.5c0 -30.667 -5 -57.334 -15 -80.001s-22.5 -39 -37.5 -49
s-31 -18.333 -48 -25s-32.667 -9.66699 -47 -9s-25.833 0.666992 -34.5 0v73c18 4 34.167 13.167 48.5 27.5s21.5 35.166 21.5 62.499c0 5.33301 -0.166992 11.166 -0.5 17.499s-0.833008 13.333 -1.5 21s-1 13.5 -1 17.5c-1.33301 14.667 -2 25 -2 31v31
c0 36.667 8.16699 67.667 24.5 93s46.166 47.333 89.499 66v7c-76 29.333 -114 82.333 -114 159v31c0 6 0.666992 16.333 2 31c0 1.33301 0.5 9 1.5 23s1.5 24.667 1.5 32c0 48 -23.333 78.333 -70 91v73c20 0.666992 39.333 -0.833008 58 -4.5s38 -10.834 58 -21.501
s36 -27.834 48 -51.501s18 -52.5 18 -86.5c0 -4.66699 -0.666992 -17.334 -2 -38.001s-2 -42.334 -2 -65.001c0 -44.667 8.66699 -77.5 26 -98.5s38.333 -31.5 63 -31.5z" />
    <glyph glyph-name="asciitilde" unicode="~" horiz-adv-x="664" 
d="M121 268l-69 36c8.66699 22.667 19.334 44.167 32.001 64.5s30.834 39.333 54.501 57s49.167 26.5 76.5 26.5c30 0 59 -7.66699 87 -23l103 -55c16 -8.66699 33.333 -13 52 -13c34.667 0 63.334 27 86.001 81l69 -36c-14.667 -37.333 -35.834 -71.333 -63.501 -102
s-60.834 -46 -99.501 -46c-30 0 -59 7.66699 -87 23l-103 55c-14.667 8.66699 -32.334 13 -53.001 13c-40 0 -68.333 -27 -85 -81z" />
    <glyph glyph-name="Zcaron" horiz-adv-x="652" 
d="M483 265h136v-265h-589v146l364 418h-219v-99h-136v235h563v-127l-371 -437h252v129zM323 792l92 92h135l-113 -132h-228l-113 132h135z" />
    <glyph glyph-name="Zcaron" unicode="&#x17d;" horiz-adv-x="652" 
d="M483 265h136v-265h-589v146l364 418h-219v-99h-136v235h563v-127l-371 -437h252v129zM323 792l92 92h135l-113 -132h-228l-113 132h135z" />
    <glyph glyph-name="zcaron" horiz-adv-x="523" 
d="M391 196h102v-196h-463v102l273 304h-153v-79h-102v181h432v-101l-268 -305h179v94zM258 608l92 92h119l-111 -132h-200l-111 132h119z" />
    <glyph glyph-name="zcaron" unicode="&#x17e;" horiz-adv-x="523" 
d="M391 196h102v-196h-463v102l273 304h-153v-79h-102v181h432v-101l-268 -305h179v94zM258 608l92 92h119l-111 -132h-200l-111 132h119z" />
    <glyph glyph-name="uni00A0" unicode="&#xa0;" horiz-adv-x="233" 
 />
    <glyph glyph-name="exclamdown" unicode="&#xa1;" horiz-adv-x="384" 
d="M278 -192h-172v183l43 292h86l43 -292v-183zM109 350v158h166v-158h-166z" />
    <glyph glyph-name="cent" unicode="&#xa2;" 
d="M471 508h101.999v-181h-133c-8.66699 65.333 -41.667 98 -99 98c-78.667 0 -118 -53.667 -118 -161c0 -32 3 -59.833 9 -83.5s13.167 -41.5 21.5 -53.5s18.333 -21.5 30 -28.5s21.5 -11.333 29.5 -13s16 -2.5 24 -2.5c35.333 0 60.833 12 76.5 36s23.5 48.333 23.5 73
h150c-1.33301 -21.333 -5.66602 -42.166 -12.999 -62.499s-18.5 -41.333 -33.5 -63s-36.667 -40 -65 -55s-61.833 -24.5 -100.5 -28.5v-115h-79v115c-73.333 7.33301 -130.166 34 -170.499 80s-60.5 109.333 -60.5 190c0 78 19.167 141.667 57.5 191
s96.166 76.666 173.499 81.999v108h79v-114c40.667 -10 72.667 -30.667 96 -62v50z" />
    <glyph glyph-name="sterling" unicode="&#xa3;" 
d="M537 169l70.002 -109c-40.667 -36 -70.334 -58.667 -89.001 -68c-20.667 -10 -42.667 -15 -66 -15c-33.333 0 -70.833 9.83301 -112.5 29.5s-76.5 29.5 -104.5 29.5c-32.667 0 -64.334 -13 -95.001 -39l-75 113c58 43.333 87 87.666 87 132.999c0 18 -3 34 -9 48h-102v79
h65c-24.667 38 -37 79 -37 123c0 70.667 21.333 126.167 64 166.5s103.667 60.5 183 60.5c32 0 63 -7.16699 93 -21.5s49 -32.5 57 -54.5v56h136v-242h-152c1.33301 94 -37.334 141 -116.001 141c-38 0 -65.333 -11.333 -82 -34s-25 -50 -25 -82
c0 -28 14.333 -65.667 43 -113h135v-79h-115c1.33301 -9.33301 2 -16 2 -20c0 -51.333 -16 -89.666 -48 -114.999l2 -4c15.333 6.66699 36 10 62 10c20 0 44.5 -6.33301 73.5 -19s53.167 -19 72.5 -19c30.667 0 58.334 15 83.001 45z" />
    <glyph glyph-name="currency" unicode="&#xa4;" 
d="M36 325c0 61.333 16.668 116.334 50.001 165.001l-110 111l74 74l110 -110c49.333 34.667 104.666 52 165.999 52c59.333 0 114 -17 164 -51l109 109l74 -74l-109 -109c34.667 -50.667 52 -106.334 52 -167.001s-17 -116 -51 -166l108 -108l-74 -74l-108 107
c-49.333 -34.667 -104.333 -52 -165 -52c-62 0 -117.667 17.333 -167 52l-109 -107l-74 74l109 109c-32.667 49.333 -49 104.333 -49 165zM134.001 323.001c0 -52 18.833 -96.833 56.5 -134.5s82.834 -56.5 135.501 -56.5c52 0 97 18.833 135 56.5s57 82.5 57 134.5
c0 52.667 -19 98.167 -57 136.5s-83 57.5 -135 57.5c-52.667 0 -97.834 -19.167 -135.501 -57.5s-56.5 -83.833 -56.5 -136.5z" />
    <glyph glyph-name="yen" unicode="&#xa5;" 
d="M514 226h-103v-29h103v-57h-103v-34h67v-106h-299v106h67v34h-103v57h103v29h-103v56h92l-171 282h-67v136h294v-136h-45l89 -177l88 177h-42v136h271v-136h-65l-166 -282h93v-56z" />
    <glyph glyph-name="brokenbar" unicode="&#xa6;" horiz-adv-x="498" 
d="M208 206h82v-430h-82v430zM290 399h-82v430h82v-430z" />
    <glyph glyph-name="section" unicode="&#xa7;" horiz-adv-x="620" 
d="M529 529l-133.997 -0.00292969c-2 27.333 -11 48.5 -27 63.5s-35.667 22.5 -59 22.5c-21.333 0 -38 -5.33301 -50 -16s-18 -25 -18 -43c0 -10.667 1.66699 -19.334 5 -26.001s10.166 -12.667 20.499 -18s20.166 -9.5 29.499 -12.5s25.166 -7.83301 47.499 -14.5l58.5 -18
c54.667 -17.333 95.5 -39.666 122.5 -66.999s40.5 -66.666 40.5 -117.999c0 -74.667 -33.667 -129.334 -101 -164.001c18.667 -16.667 32 -32.334 40 -47.001s12 -34 12 -58c0 -50 -15.667 -92 -47 -126s-80.666 -51 -147.999 -51c-25.333 0 -50.333 5.33301 -75 16
s-42.334 27.667 -53.001 51v-47h-116v189h136c0.666992 -21.333 5 -39.166 13 -53.499s18 -24.166 30 -29.499s21.833 -8.83301 29.5 -10.5s15.5 -2.5 23.5 -2.5c50 0 75 20.333 75 61c0 16 -6 29.5 -18 40.5s-24.667 18.833 -38 23.5s-35.666 11 -66.999 19
c-4.66699 1.33301 -8.33398 2.33301 -11.001 3c-20 5.33301 -36.333 10 -49 14s-29.334 11.333 -50.001 22s-37.167 22.5 -49.5 35.5s-23.333 30.667 -33 53s-14.5 47.5 -14.5 75.5c0 37.333 9.66699 69 29 95s44 45 74 57c-32 24.667 -48 61.334 -48 110.001
c0 50.667 16.333 90.334 49 119.001s78 43 136 43c19.333 0 40.833 -4 64.5 -12s41.834 -22.333 54.501 -43v35h116v-171zM267.003 223.997l119 -34.998c14 3.33301 27.5 11.166 40.5 23.499s19.5 29.166 19.5 50.499c0 36.667 -30.667 64.667 -92 84l-118 36
c-18 -4 -32.5 -12.833 -43.5 -26.5s-16.5 -29.167 -16.5 -46.5c0 -39.333 30.333 -68 91 -86z" />
    <glyph glyph-name="dieresis" unicode="&#xa8;" horiz-adv-x="540" 
d="M50 581v119h152v-119h-152zM332 581v119h152v-119h-152z" />
    <glyph glyph-name="copyright" unicode="&#xa9;" horiz-adv-x="806" 
d="M53 350c0 96.667 34 179.167 102 247.5s150.667 102.5 248 102.5s180 -34.167 248 -102.5s102 -150.833 102 -247.5s-34 -179.167 -102 -247.5s-150.667 -102.5 -248 -102.5s-180 34.167 -248 102.5s-102 150.833 -102 247.5zM137 350c0 -78 25.833 -143.833 77.5 -197.5
s114.5 -80.5 188.5 -80.5s136.833 26.833 188.5 80.5s77.5 119.5 77.5 197.5s-25.833 143.833 -77.5 197.5s-114.5 80.5 -188.5 80.5s-136.833 -26.833 -188.5 -80.5s-77.5 -119.5 -77.5 -197.5zM544 405h-77.001c0 44 -21.333 66 -64 66c-49.333 0 -74 -40.667 -74 -122
c0 -41.333 7.83301 -70.5 23.5 -87.5s34.167 -25.5 55.5 -25.5c20 0 34.667 6 44 18s15 25.667 17 41h82c-14.667 -83.333 -62.667 -125 -144 -125c-32 0 -59.667 6 -83 18s-40.666 27.667 -51.999 47s-19.333 38.333 -24 57s-7 37.667 -7 57c0 68 16 116.333 48 145
s69 43 111 43c32.667 0 57 -10 73 -30v23h71v-125z" />
    <glyph glyph-name="ordfeminine" unicode="&#xaa;" horiz-adv-x="461" 
d="M175 610l-87.001 0.000976562c0 28 10.667 53.333 32 76s58.333 34 111 34c26.667 0 49.334 -3 68.001 -9s32.5 -12.833 41.5 -20.5s16 -17.667 21 -30s7.83301 -21.833 8.5 -28.5s1 -15.334 1 -26.001v-141h32v-61h-119v30h-2c-26 -27.333 -60 -41 -102 -41
c-37.333 0 -64.333 8.33301 -81 25s-25 37.667 -25 63c0 53.333 37.333 85 112 95c8 1.33301 18.5 2.5 31.5 3.5s22 2 27 3s10.833 2.5 17.5 4.5s11.167 4.83301 13.5 8.5s3.83301 8.5 4.5 14.5v9c0 26.667 -16.333 40 -49 40c-37.333 0 -56 -16.333 -56 -49z
M280.999 530.001l-0.000976562 18.9971c-12 -7.33301 -32 -12.666 -60 -15.999c-21.333 -3.33301 -35.666 -8.66602 -42.999 -15.999s-11 -16.666 -11 -27.999c0 -12 4.83301 -20.833 14.5 -26.5s20.5 -8.5 32.5 -8.5c14.667 0 27 3.33301 37 10s16.833 15 20.5 25
s6.16699 18.167 7.5 24.5s2 11.833 2 16.5zM77.998 282.998v61h325v-61h-325z" />
    <glyph glyph-name="guillemotleft" unicode="&#xab;" horiz-adv-x="470" 
d="M125 268l82 -70v-138l-150 138v140l150 138v-138zM314 268l82 -70v-138l-150 138v140l150 138v-138z" />
    <glyph glyph-name="logicalnot" unicode="&#xac;" horiz-adv-x="672" 
d="M53 390h566v-224h-85v144h-481v80z" />
    <glyph glyph-name="uni00AD" unicode="&#xad;" horiz-adv-x="442" 
d="M75 205v125h292v-125h-292z" />
    <glyph glyph-name="registered" unicode="&#xae;" horiz-adv-x="640" 
d="M53 433c0 73.333 26.167 136.166 78.5 188.499s115.166 78.5 188.499 78.5s136.166 -26.167 188.499 -78.5s78.5 -115.166 78.5 -188.499s-26.167 -136.166 -78.5 -188.499s-115.166 -78.5 -188.499 -78.5s-136.166 26.167 -188.499 78.5s-78.5 115.166 -78.5 188.499z
M373 311l-54 96.999h-30v-48h21v-49h-115v49h26v157h-26v49h167c21.333 0 41.333 -6.83301 60 -20.5s28 -32.834 28 -57.501c0 -15.333 -5.33301 -29.666 -16 -42.999s-25.667 -22.666 -45 -27.999l38 -57h27v-49h-81zM289 516.999v-62h33c32.667 0 49 10.667 49 32
c0 20 -15.333 30 -46 30h-36zM127 431.999c0 -56 18.167 -102.499 54.5 -139.499s82.166 -55.5 137.499 -55.5s101.333 18.667 138 56s55 83.666 55 138.999c0 56 -18.333 102.833 -55 140.5s-82.667 56.5 -138 56.5s-101.166 -18.833 -137.499 -56.5
s-54.5 -84.5 -54.5 -140.5z" />
    <glyph glyph-name="overscore" unicode="&#xaf;" horiz-adv-x="484" 
d="M50 600v86h384v-86h-384z" />
    <glyph glyph-name="degree" unicode="&#xb0;" horiz-adv-x="300" 
d="M38 608c0 30.667 11 57 33 79s48.333 33 79 33s57 -11 79 -33s33 -48.333 33 -79s-11 -57 -33 -79s-48.333 -33 -79 -33s-57 11 -79 33s-33 48.333 -33 79zM96 608c0 -15.333 5.16699 -28.166 15.5 -38.499s23.166 -15.5 38.499 -15.5s28.166 5.16699 38.499 15.5
s15.5 23.166 15.5 38.499s-5.16699 28.166 -15.5 38.499s-23.166 15.5 -38.499 15.5s-28.166 -5.16699 -38.499 -15.5s-15.5 -23.166 -15.5 -38.499z" />
    <glyph glyph-name="plusminus" unicode="&#xb1;" horiz-adv-x="672" 
d="M53 450h243v220h80v-220h243v-80h-243v-180h-80v180h-243v80zM53 140h566v-80h-566v80z" />
    <glyph glyph-name="twosuperior" unicode="&#xb2;" horiz-adv-x="472" 
d="M334 418l77.998 -0.00292969v-138h-336v17c0 29.333 7 55 21 77s42.667 47.333 86 76l35 24l30 20.5c5.33301 3.66699 12.333 8.83398 21 15.501s14.334 11.667 17.001 15s5.83398 8 9.50098 14s6 11.833 7 17.5s1.5 12.167 1.5 19.5c0 18.667 -6 33.834 -18 45.501
s-28.333 17.5 -49 17.5c-22 0 -39.333 -6.16699 -52 -18.5s-19 -29.166 -19 -50.499v-15h-92v12c0 27.333 5.33301 50.833 16 70.5s22.5 34 35.5 43s28.833 16.167 47.5 21.5s32.334 8.33301 41.001 9s17.667 1 27 1c8 0 16.333 -0.333008 25 -1s21.667 -3.5 39 -8.5
s32.166 -11.667 44.499 -20s23.5 -21.333 33.5 -39s15 -38.834 15 -63.501c0 -18 -1.83301 -33.5 -5.5 -46.5s-14.5 -29.167 -32.5 -48.5s-43.667 -38.666 -77 -57.999c-18 -10 -30.833 -17.5 -38.5 -22.5s-16.5 -11.833 -26.5 -20.5s-18.667 -19 -26 -31h142v65z" />
    <glyph glyph-name="threesuperior" unicode="&#xb3;" horiz-adv-x="484" 
d="M74 433l92.999 -0.00390625c0 -21.333 6.16699 -40.666 18.5 -57.999s31.833 -26 58.5 -26c20 0 37 5 51 15s21 26.333 21 49c0 38.667 -22 58 -66 58h-42v69h32c45.333 0 68 17.667 68 53c0 36 -22.333 54 -67 54c-24.667 0 -41.834 -6 -51.501 -18
s-15.167 -32 -16.5 -60h-88c-0.666992 16.667 1.16602 33 5.49902 49s11.833 32 22.5 48s27.5 29 50.5 39s50.5 15 82.5 15c56 0 95 -11.667 117 -35s33 -51.333 33 -84c0 -26 -7.16699 -46.667 -21.5 -62s-32.166 -25.666 -53.499 -30.999v-2c59.333 -8 89 -42 89 -102
c0 -35.333 -12.667 -65.5 -38 -90.5s-66.666 -37.5 -123.999 -37.5c-9.33301 0 -18.166 0.166992 -26.499 0.5s-23 3.33301 -44 9s-38.333 13.334 -52 23.001s-26 25.334 -37 47.001s-15.833 47.5 -14.5 77.5z" />
    <glyph glyph-name="acute" unicode="&#xb4;" horiz-adv-x="345" 
d="M167 700h160l-106 -132h-123z" />
    <glyph glyph-name="mu" unicode="&#xb5;" horiz-adv-x="688" 
d="M250 -185l-152.003 -0.000976562v591h-61v102h213v-266c0 -54 8.83301 -94 26.5 -120s40.5 -39 68.5 -39s50.5 12.833 67.5 38.5s25.5 65.834 25.5 120.501v164h-61v102h213v-406h61v-102h-213v75c-6 -29.333 -18.167 -52.333 -36.5 -69s-37.166 -25 -56.499 -25
s-38.666 8.5 -57.999 25.5s-31.666 39.833 -36.999 68.5v-260z" />
    <glyph glyph-name="mu" unicode="&#x3bc;" horiz-adv-x="688" 
d="M250 -185l-152.003 -0.000976562v591h-61v102h213v-266c0 -54 8.83301 -94 26.5 -120s40.5 -39 68.5 -39s50.5 12.833 67.5 38.5s25.5 65.834 25.5 120.501v164h-61v102h213v-406h61v-102h-213v75c-6 -29.333 -18.167 -52.333 -36.5 -69s-37.166 -25 -56.499 -25
s-38.666 8.5 -57.999 25.5s-31.666 39.833 -36.999 68.5v-260z" />
    <glyph glyph-name="paragraph" unicode="&#xb6;" horiz-adv-x="552" 
d="M386 -185v813h-100v-813h-90v525c-60 0 -104.833 16.5 -134.5 49.5s-44.5 74.833 -44.5 125.5c0 56 16.5 100.833 49.5 134.5s76.167 50.5 129.5 50.5h341v-72h-61v-813h-90z" />
    <glyph glyph-name="middot" unicode="&#xb7;" horiz-adv-x="250" 
d="M43 189v158h165v-158h-165z" />
    <glyph glyph-name="cedilla" unicode="&#xb8;" horiz-adv-x="299" 
d="M30 -240l17.999 64.0029c15.333 -6 35 -9 59 -9c35.333 0 53 11.667 53 35c0 13.333 -5.33301 22.166 -16 26.499s-26.667 6.83301 -48 7.5h-17h-14l16 60c4.66699 0.666992 10.334 1 17.001 1h19c15.333 0 30.666 -1.33301 45.999 -4s31 -7.33398 47 -14.001
s29 -16.834 39 -30.501s15 -30.167 15 -49.5c0 -32 -11.667 -56.667 -35 -74s-56.666 -26 -99.999 -26c-33.333 0 -66.333 4.33301 -99 13z" />
    <glyph glyph-name="onesuperior" unicode="&#xb9;" horiz-adv-x="346" 
d="M67 627v73h184v-347h85v-73h-269v73h85v274h-85z" />
    <glyph glyph-name="ordmasculine" unicode="&#xba;" horiz-adv-x="424" 
d="M212 393c-50.667 0 -91.167 13.834 -121.5 41.501s-45.5 68.5 -45.5 122.5s15.167 94.667 45.5 122s70.833 41 121.5 41c31.333 0 58.5 -5 81.5 -15s40.333 -23.333 52 -40s20.167 -33.834 25.5 -51.501s8 -36.5 8 -56.5s-2.66699 -38.833 -8 -56.5
s-13.833 -35 -25.5 -52s-29 -30.5 -52 -40.5s-50.167 -15 -81.5 -15zM212 454.001c48 0 72 34.333 72 103c0 68 -24 102 -72 102s-72 -34 -72 -102c0 -68.667 24 -103 72 -103zM64 283.001v61h298v-61h-298z" />
    <glyph glyph-name="guillemotright" unicode="&#xbb;" horiz-adv-x="470" 
d="M156 268l-82 70v138l150 -138v-140l-150 -138v138zM345 268l-82 70v138l150 -138v-140l-150 -138v138z" />
    <glyph glyph-name="onequarter" unicode="&#xbc;" horiz-adv-x="886" 
d="M631 0v58h55v43h-199v69l198 250h96v-253h55v-66h-55v-43h55v-58h-205zM562 167h124v159zM140 0l600 700h86l-600 -700h-86zM67 627v73h184v-347h85v-73h-269v73h85v274h-85z" />
    <glyph glyph-name="onehalf" unicode="&#xbd;" horiz-adv-x="989" 
d="M851 138l77.998 -0.00292969v-138h-336v17c0 29.333 7 55 21 77s42.667 47.333 86 76l35 24l30 20.5c5.33301 3.66699 12.333 8.83398 21 15.501s14.334 11.667 17.001 15s5.83398 8 9.50098 14s6 11.833 7 17.5s1.5 12.167 1.5 19.5c0 18.667 -6 33.834 -18 45.501
s-28.333 17.5 -49 17.5c-22 0 -39.333 -6.16699 -52 -18.5s-19 -29.166 -19 -50.499v-15h-92v12c0 27.333 5.33301 50.833 16 70.5s22.5 34 35.5 43s28.833 16.167 47.5 21.5s32.334 8.33301 41.001 9s17.667 1 27 1c8 0 16.333 -0.333008 25 -1s21.667 -3.5 39 -8.5
s32.166 -11.667 44.499 -20s23.5 -21.333 33.5 -39s15 -38.834 15 -63.501c0 -18 -1.83301 -33.5 -5.5 -46.5s-14.5 -29.167 -32.5 -48.5s-43.667 -38.666 -77 -57.999c-18 -10 -30.833 -17.5 -38.5 -22.5s-16.5 -11.833 -26.5 -20.5s-18.667 -19 -26 -31h142v65z
M66.998 626.997v73h184v-347h85v-73h-269v73h85v274h-85zM139.998 -0.00292969l600 700h86l-600 -700h-86z" />
    <glyph glyph-name="threequarters" unicode="&#xbe;" horiz-adv-x="906" 
d="M651 0v58h55v43h-199v69l198 250h96v-253h55v-66h-55v-43h55v-58h-205zM582 167h124v159zM160 0l600 700h86l-600 -700h-86zM74 433l92.999 -0.00390625c0 -21.333 6.16699 -40.666 18.5 -57.999s31.833 -26 58.5 -26c20 0 37 5 51 15s21 26.333 21 49
c0 38.667 -22 58 -66 58h-42v69h32c45.333 0 68 17.667 68 53c0 36 -22.333 54 -67 54c-24.667 0 -41.834 -6 -51.501 -18s-15.167 -32 -16.5 -60h-88c-0.666992 16.667 1.16602 33 5.49902 49s11.833 32 22.5 48s27.5 29 50.5 39s50.5 15 82.5 15c56 0 95 -11.667 117 -35
s33 -51.333 33 -84c0 -26 -7.16699 -46.667 -21.5 -62s-32.166 -25.666 -53.499 -30.999v-2c59.333 -8 89 -42 89 -102c0 -35.333 -12.667 -65.5 -38 -90.5s-66.666 -37.5 -123.999 -37.5c-9.33301 0 -18.166 0.166992 -26.499 0.5s-23 3.33301 -44 9
s-38.333 13.334 -52 23.001s-26 25.334 -37 47.001s-15.833 47.5 -14.5 77.5z" />
    <glyph glyph-name="questiondown" unicode="&#xbf;" horiz-adv-x="584" 
d="M385 508v-158h-166v158h166zM390 31l153.997 -0.000976562c0.666992 -39.333 -4.5 -73.833 -15.5 -103.5s-25 -52.667 -42 -69s-37.667 -29.333 -62 -39s-46.833 -16 -67.5 -19s-43 -4.5 -67 -4.5c-76.667 0 -137.167 15.5 -181.5 46.5s-66.5 76.833 -66.5 137.5
c0 23.333 3.33301 44.666 10 63.999s16.5 36.333 29.5 51s24.5 26 34.5 34s23 17.333 39 28c15.333 9.33301 26.833 16.833 34.5 22.5s16.334 13.667 26.001 24s16.334 22 20.001 35s4.83398 27.833 3.50098 44.5h126v-27c0 -36 -6 -64.667 -18 -86
s-28.333 -40.666 -49 -57.999l-29.5 -21.5c-17 -12.333 -28.833 -21.666 -35.5 -27.999s-14 -16.5 -22 -30.5s-12 -28.667 -12 -44c0 -24 8 -42.833 24 -56.5s39 -20.5 69 -20.5c6.66699 0 13 0.333008 19 1s14.5 3.16699 25.5 7.5s20.333 10.333 28 18
s14.167 19.667 19.5 36s7.33301 35.5 6 57.5z" />
    <glyph glyph-name="Agrave" unicode="&#xc0;" horiz-adv-x="711" 
d="M170 577v123h269l215 -574h67v-126h-292v123h47l-15 45h-228l-16 -45h44v-123h-271v126h67l173 451h-60zM347 516l-82 -234h161zM360 886l69 -132h-123l-106 132h160z" />
    <glyph glyph-name="Aacute" unicode="&#xc1;" horiz-adv-x="711" 
d="M170 577v123h269l215 -574h67v-126h-292v123h47l-15 45h-228l-16 -45h44v-123h-271v126h67l173 451h-60zM347 516l-82 -234h161zM370 885h160l-106 -132h-123z" />
    <glyph glyph-name="Acircumflex" unicode="&#xc2;" horiz-adv-x="711" 
d="M170 577v123h269l215 -574h67v-126h-292v123h47l-15 45h-228l-16 -45h44v-123h-271v126h67l173 451h-60zM347 516l-82 -234h161zM335 858l-92 -92h-135l113 132h228l113 -132h-135z" />
    <glyph glyph-name="Atilde" unicode="&#xc3;" horiz-adv-x="711" 
d="M170 577v123h269l215 -574h67v-126h-292v123h47l-15 45h-228l-16 -45h44v-123h-271v126h67l173 451h-60zM347 516l-82 -234h161zM454 894h96c-8.66699 -50 -25 -85.167 -49 -105.5s-49.667 -30.5 -77 -30.5c-10 0 -19.5 0.833008 -28.5 2.5s-15.667 3.16699 -20 4.5
s-12.333 4.5 -24 9.5s-20.167 8.5 -25.5 10.5s-12.833 5 -22.5 9s-16.834 6.83301 -21.501 8.5s-10.667 3.16699 -18 4.5s-14.666 2 -21.999 2c-28.667 0 -43.667 -13.667 -45 -41h-96c5.33301 32.667 18.333 63 39 91s49.667 42 87 42c28.667 0 61.667 -9.33301 99 -28
c32.667 -16.667 60.667 -25 84 -25c12 0 22.667 4.66699 32 14s13.333 20 12 32z" />
    <glyph glyph-name="Adieresis" unicode="&#xc4;" horiz-adv-x="711" 
d="M170 577v123h269l215 -574h67v-126h-292v123h47l-15 45h-228l-16 -45h44v-123h-271v126h67l173 451h-60zM347 516l-82 -234h161zM138 766v106h142v-106h-142zM386 766v106h142v-106h-142z" />
    <glyph glyph-name="Aring" unicode="&#xc5;" horiz-adv-x="711" 
d="M170 577v123h269l215 -574h67v-126h-292v123h47l-15 45h-228l-16 -45h44v-123h-271v126h67l173 451h-60zM347 516l-82 -234h161zM235 820c0 28 9.66699 51.667 29 71s43 29 71 29s51.667 -9.66699 71 -29s29 -43 29 -71s-9.66699 -51.667 -29 -71s-43 -29 -71 -29
s-51.667 9.66699 -71 29s-29 43 -29 71zM293 820c0 -12 4 -22 12 -30s18 -12 30 -12s22 4 30 12s12 18 12 30s-4 22 -12 30s-18 12 -30 12s-22 -4 -30 -12s-12 -18 -12 -30z" />
    <glyph glyph-name="AE" unicode="&#xc6;" horiz-adv-x="1100" 
d="M-10 136h71l245 428h-59v136h809v-235h-136v99h-253v-142h214v-129h-214v-157h267v135h136v-271h-625v123h57v45h-239l-24 -45h53v-123h-302v136zM502 564h-26l-152 -282h178v282z" />
    <glyph glyph-name="Ccedilla" unicode="&#xc7;" horiz-adv-x="731" 
d="M685 465l-152 0.00292969c-10.667 79.333 -62.667 119 -156 119c-8.66699 0 -17 -0.666992 -25 -2s-18.833 -4.16602 -32.5 -8.49902s-25.834 -11.833 -36.501 -22.5s-21.167 -24.334 -31.5 -41.001s-18.5 -39.334 -24.5 -68.001s-9 -61.667 -9 -99
c0 -68 15 -122.833 45 -164.5s72.333 -62.5 127 -62.5c26 0 48.5 4.16699 67.5 12.5s33.833 19.666 44.5 33.999s18.5 28.166 23.5 41.499s8.83301 27.666 11.5 42.999h164c-2.66699 -24 -7.16699 -46.833 -13.5 -68.5s-17 -45.167 -32 -70.5s-33.667 -47 -56 -65
s-52.166 -33 -89.499 -45s-79.666 -18 -126.999 -18s-90.5 6 -129.5 18s-75 31.333 -108 58s-58.833 64.167 -77.5 112.5s-28 105.833 -28 172.5c0 50 4.66699 95.167 14 135.5s21 73.333 35 99s31.333 48 52 67s40.167 33.333 58.5 43s38.666 17.334 60.999 23.001
s40 9 53 10s26.5 1.5 40.5 1.5c92 0 157 -26.667 195 -80v60h136v-235zM223 -270.997l20.999 77c18 -7.33301 41.667 -11 71 -11c21.333 0 37.5 2.5 48.5 7.5s16.5 15.833 16.5 32.5c0 15.333 -5.5 25.333 -16.5 30s-28.833 7.66699 -53.5 9h-7h-22h-15l18 70
c5.33301 0.666992 12.333 1 21 1h23c19.333 0 38 -1.5 56 -4.5s36.833 -8.16699 56.5 -15.5s35.334 -19 47.001 -35s17.5 -35.667 17.5 -59c0 -78 -54.333 -117 -163 -117c-44 0 -83.667 5 -119 15z" />
    <glyph glyph-name="Egrave" unicode="&#xc8;" horiz-adv-x="715" 
d="M671 465h-136v99h-253v-142h214v-129h-214v-157h267v135h136v-271h-635v136h67v428h-67v136h621v-235zM398 886l69 -132h-123l-106 132h160z" />
    <glyph glyph-name="Eacute" unicode="&#xc9;" horiz-adv-x="715" 
d="M671 465h-136v99h-253v-142h214v-129h-214v-157h267v135h136v-271h-635v136h67v428h-67v136h621v-235zM384 885h160l-106 -132h-123z" />
    <glyph glyph-name="Ecircumflex" unicode="&#xca;" horiz-adv-x="715" 
d="M671 465h-136v99h-253v-142h214v-129h-214v-157h267v135h136v-271h-635v136h67v428h-67v136h621v-235zM373 858l-92 -92h-135l113 132h228l113 -132h-135z" />
    <glyph glyph-name="Edieresis" unicode="&#xcb;" horiz-adv-x="715" 
d="M671 465h-136v99h-253v-142h214v-129h-214v-157h267v135h136v-271h-635v136h67v428h-67v136h621v-235zM176 766v106h142v-106h-142zM424 766v106h142v-106h-142z" />
    <glyph glyph-name="Igrave" unicode="&#xcc;" horiz-adv-x="399" 
d="M50 564v136h299v-136h-67v-428h67v-136h-299v136h67v428h-67zM198 886l69 -132h-123l-106 132h160z" />
    <glyph glyph-name="Iacute" unicode="&#xcd;" horiz-adv-x="399" 
d="M50 564v136h299v-136h-67v-428h67v-136h-299v136h67v428h-67zM196 885h160l-106 -132h-123z" />
    <glyph glyph-name="Icircumflex" unicode="&#xce;" horiz-adv-x="399" 
d="M50 564v136h299v-136h-67v-428h67v-136h-299v136h67v428h-67zM201 858l-92 -92h-135l113 132h228l113 -132h-135z" />
    <glyph glyph-name="Idieresis" unicode="&#xcf;" horiz-adv-x="399" 
d="M50 564v136h299v-136h-67v-428h67v-136h-299v136h67v428h-67zM6 766v106h142v-106h-142zM254 766v106h142v-106h-142z" />
    <glyph glyph-name="Eth" unicode="&#xd0;" horiz-adv-x="800" 
d="M50 564l-0.000976562 136h363c14.667 0 28.334 -0.333008 41.001 -1s31.5 -3.33398 56.5 -8.00098s47.5 -11.167 67.5 -19.5s42 -21.166 66 -38.499s43.833 -37.666 59.5 -60.999s29 -53.833 40 -91.5s16.5 -79.834 16.5 -126.501c0 -45.333 -4.83301 -86.5 -14.5 -123.5
s-22 -67.5 -37 -91.5s-33.5 -45 -55.5 -63s-43.5 -31.667 -64.5 -41s-44.333 -16.833 -70 -22.5s-47.167 -9.16699 -64.5 -10.5s-36 -2 -56 -2h-348v136h67v187h-89v86h89v155h-67zM281.999 564v-155h168v-86h-168v-187h100c133.333 0 200 71.667 200 215
c0 142 -63.333 213 -190 213h-110z" />
    <glyph glyph-name="Ntilde" unicode="&#xd1;" horiz-adv-x="845" 
d="M502 564v136h293v-136h-67v-564h-168l-276 441h-2v-305h61v-136h-293v136h67v428h-67v136h234l276 -438h3v302h-61zM553 894h96c-8.66699 -50 -25 -85.167 -49 -105.5s-49.667 -30.5 -77 -30.5c-10 0 -19.5 0.833008 -28.5 2.5s-15.667 3.16699 -20 4.5
s-12.333 4.5 -24 9.5s-20.167 8.5 -25.5 10.5s-12.833 5 -22.5 9s-16.834 6.83301 -21.501 8.5s-10.667 3.16699 -18 4.5s-14.666 2 -21.999 2c-28.667 0 -43.667 -13.667 -45 -41h-96c5.33301 32.667 18.333 63 39 91s49.667 42 87 42c28.667 0 61.667 -9.33301 99 -28
c32.667 -16.667 60.667 -25 84 -25c12.667 0 23.5 4.66699 32.5 14s12.833 20 11.5 32z" />
    <glyph glyph-name="Ograve" unicode="&#xd2;" horiz-adv-x="788" 
d="M394 -20c-53.333 0 -100.833 7.66699 -142.5 23s-75.5 35.333 -101.5 60s-47.5 53.5 -64.5 86.5s-28.833 66 -35.5 99s-10 66.833 -10 101.5s3.33301 68.5 10 101.5s18.5 66 35.5 99s38.5 61.833 64.5 86.5s59.833 44.667 101.5 60s89.167 23 142.5 23
c116 0 204 -33.833 264 -101.5s90 -157.167 90 -268.5s-30 -200.833 -90 -268.5s-148 -101.5 -264 -101.5zM394 116c32 0 59.5 6.50195 82.5 19.502s40.333 28 52 45s20.834 37.667 27.501 62s10.667 44.166 12 59.499s2 31.333 2 48c0 18 -0.666992 34.667 -2 50
s-5.33301 35.166 -12 59.499s-15.834 44.833 -27.501 61.5s-29 31.334 -52 44.001s-50.5 19 -82.5 19c-116.667 0 -175 -78 -175 -234c0 -84.667 16.167 -144.834 48.5 -180.501s74.5 -53.5 126.5 -53.5zM401 886.002l69 -132h-123l-106 132h160z" />
    <glyph glyph-name="Oacute" unicode="&#xd3;" horiz-adv-x="788" 
d="M394 -20c-53.333 0 -100.833 7.66699 -142.5 23s-75.5 35.333 -101.5 60s-47.5 53.5 -64.5 86.5s-28.833 66 -35.5 99s-10 66.833 -10 101.5s3.33301 68.5 10 101.5s18.5 66 35.5 99s38.5 61.833 64.5 86.5s59.833 44.667 101.5 60s89.167 23 142.5 23
c116 0 204 -33.833 264 -101.5s90 -157.167 90 -268.5s-30 -200.833 -90 -268.5s-148 -101.5 -264 -101.5zM394 116c32 0 59.5 6.50195 82.5 19.502s40.333 28 52 45s20.834 37.667 27.501 62s10.667 44.166 12 59.499s2 31.333 2 48c0 18 -0.666992 34.667 -2 50
s-5.33301 35.166 -12 59.499s-15.834 44.833 -27.501 61.5s-29 31.334 -52 44.001s-50.5 19 -82.5 19c-116.667 0 -175 -78 -175 -234c0 -84.667 16.167 -144.834 48.5 -180.501s74.5 -53.5 126.5 -53.5zM390 885.002h160l-106 -132h-123z" />
    <glyph glyph-name="Ocircumflex" unicode="&#xd4;" horiz-adv-x="788" 
d="M394 -20c-53.333 0 -100.833 7.66699 -142.5 23s-75.5 35.333 -101.5 60s-47.5 53.5 -64.5 86.5s-28.833 66 -35.5 99s-10 66.833 -10 101.5s3.33301 68.5 10 101.5s18.5 66 35.5 99s38.5 61.833 64.5 86.5s59.833 44.667 101.5 60s89.167 23 142.5 23
c116 0 204 -33.833 264 -101.5s90 -157.167 90 -268.5s-30 -200.833 -90 -268.5s-148 -101.5 -264 -101.5zM394 116c32 0 59.5 6.50195 82.5 19.502s40.333 28 52 45s20.834 37.667 27.501 62s10.667 44.166 12 59.499s2 31.333 2 48c0 18 -0.666992 34.667 -2 50
s-5.33301 35.166 -12 59.499s-15.834 44.833 -27.501 61.5s-29 31.334 -52 44.001s-50.5 19 -82.5 19c-116.667 0 -175 -78 -175 -234c0 -84.667 16.167 -144.834 48.5 -180.501s74.5 -53.5 126.5 -53.5zM395 858.002l-92 -92h-135l113 132h228l113 -132h-135z" />
    <glyph glyph-name="Otilde" unicode="&#xd5;" horiz-adv-x="788" 
d="M394 -20c-53.333 0 -100.833 7.66699 -142.5 23s-75.5 35.333 -101.5 60s-47.5 53.5 -64.5 86.5s-28.833 66 -35.5 99s-10 66.833 -10 101.5s3.33301 68.5 10 101.5s18.5 66 35.5 99s38.5 61.833 64.5 86.5s59.833 44.667 101.5 60s89.167 23 142.5 23
c116 0 204 -33.833 264 -101.5s90 -157.167 90 -268.5s-30 -200.833 -90 -268.5s-148 -101.5 -264 -101.5zM394 116c32 0 59.5 6.50195 82.5 19.502s40.333 28 52 45s20.834 37.667 27.501 62s10.667 44.166 12 59.499s2 31.333 2 48c0 18 -0.666992 34.667 -2 50
s-5.33301 35.166 -12 59.499s-15.834 44.833 -27.501 61.5s-29 31.334 -52 44.001s-50.5 19 -82.5 19c-116.667 0 -175 -78 -175 -234c0 -84.667 16.167 -144.834 48.5 -180.501s74.5 -53.5 126.5 -53.5zM524 894.002h96c-8.66699 -50 -25 -85.167 -49 -105.5
s-49.667 -30.5 -77 -30.5c-10 0 -19.5 0.833008 -28.5 2.5s-15.667 3.16699 -20 4.5s-12.333 4.5 -24 9.5s-20.167 8.5 -25.5 10.5s-12.833 5 -22.5 9s-16.834 6.83301 -21.501 8.5s-10.667 3.16699 -18 4.5s-14.666 2 -21.999 2c-28.667 0 -43.667 -13.667 -45 -41h-96
c5.33301 32.667 18.333 63 39 91s49.667 42 87 42c28.667 0 61.667 -9.33301 99 -28c32.667 -16.667 60.667 -25 84 -25c12 0 22.667 4.66699 32 14s13.333 20 12 32z" />
    <glyph glyph-name="Odieresis" unicode="&#xd6;" horiz-adv-x="788" 
d="M394 -20c-53.333 0 -100.833 7.66699 -142.5 23s-75.5 35.333 -101.5 60s-47.5 53.5 -64.5 86.5s-28.833 66 -35.5 99s-10 66.833 -10 101.5s3.33301 68.5 10 101.5s18.5 66 35.5 99s38.5 61.833 64.5 86.5s59.833 44.667 101.5 60s89.167 23 142.5 23
c116 0 204 -33.833 264 -101.5s90 -157.167 90 -268.5s-30 -200.833 -90 -268.5s-148 -101.5 -264 -101.5zM394 116c32 0 59.5 6.50195 82.5 19.502s40.333 28 52 45s20.834 37.667 27.501 62s10.667 44.166 12 59.499s2 31.333 2 48c0 18 -0.666992 34.667 -2 50
s-5.33301 35.166 -12 59.499s-15.834 44.833 -27.501 61.5s-29 31.334 -52 44.001s-50.5 19 -82.5 19c-116.667 0 -175 -78 -175 -234c0 -84.667 16.167 -144.834 48.5 -180.501s74.5 -53.5 126.5 -53.5zM198 766.002v106h142v-106h-142zM446 766.002v106h142v-106h-142z
" />
    <glyph glyph-name="multiply" unicode="&#xd7;" horiz-adv-x="672" 
d="M98 168l182 182l-182 182l56 56l182 -182l182 182l56 -56l-182 -182l182 -182l-56 -56l-182 182l-182 -182z" />
    <glyph glyph-name="Oslash" unicode="&#xd8;" horiz-adv-x="794" 
d="M55 0l72.999 87.999c-57.333 68.667 -86 156 -86 262c0 34.667 3.33301 68.334 10 101.001s18.5 65.5 35.5 98.5s38.333 61.833 64 86.5s59.5 44.834 101.5 60.501s89.333 23.5 142 23.5c98.667 0 170.334 -20.333 215.001 -61l81 99l51 -42l-84 -99
c60.667 -67.333 91 -156.333 91 -267c0 -34.667 -3.16699 -68.334 -9.5 -101.001s-17.833 -65.667 -34.5 -99s-38 -62.333 -64 -87s-60 -44.667 -102 -60s-90 -23 -144 -23c-96 0 -169 20.667 -219 62l-70 -84zM547.999 484.999l-272.002 -322.999
c28.667 -30.667 68.334 -46 119.001 -46c32 0 59.5 6.5 82.5 19.5s40.333 28 52 45s20.834 37.667 27.501 62s10.667 44.166 12 59.499s2 31.333 2 48c0 61.333 -7.66699 106.333 -23 135zM240.997 222l268.999 320.001c-23.333 28 -61.666 42 -114.999 42
c-116.667 0 -175 -78 -175 -234c0 -54.667 7 -97.334 21 -128.001z" />
    <glyph glyph-name="Ugrave" unicode="&#xd9;" horiz-adv-x="820" 
d="M481 564v135.996h299v-136h-67v-299c0 -13.333 -0.5 -26.166 -1.5 -38.499s-3.66699 -28.666 -8 -48.999s-10.333 -38.666 -18 -54.999s-19 -33.833 -34 -52.5s-32.833 -34.167 -53.5 -46.5s-47.167 -22.666 -79.5 -30.999s-68.5 -12.5 -108.5 -12.5
c-56 0 -104.167 7.83301 -144.5 23.5s-70.333 33.667 -90 54s-35.167 45.5 -46.5 75.5s-17.833 54 -19.5 72s-2.5 38 -2.5 60v299h-67v136h299v-136h-67v-272c0 -60 10.5 -104.333 31.5 -133s56.5 -43 106.5 -43s85.5 14 106.5 42s31.5 72.667 31.5 134v272h-67z
M417 885.996l69 -132h-123l-106 132h160z" />
    <glyph glyph-name="Uacute" unicode="&#xda;" horiz-adv-x="820" 
d="M481 564v135.996h299v-136h-67v-299c0 -13.333 -0.5 -26.166 -1.5 -38.499s-3.66699 -28.666 -8 -48.999s-10.333 -38.666 -18 -54.999s-19 -33.833 -34 -52.5s-32.833 -34.167 -53.5 -46.5s-47.167 -22.666 -79.5 -30.999s-68.5 -12.5 -108.5 -12.5
c-56 0 -104.167 7.83301 -144.5 23.5s-70.333 33.667 -90 54s-35.167 45.5 -46.5 75.5s-17.833 54 -19.5 72s-2.5 38 -2.5 60v299h-67v136h299v-136h-67v-272c0 -60 10.5 -104.333 31.5 -133s56.5 -43 106.5 -43s85.5 14 106.5 42s31.5 72.667 31.5 134v272h-67z
M426 884.996h160l-106 -132h-123z" />
    <glyph glyph-name="Ucircumflex" unicode="&#xdb;" horiz-adv-x="820" 
d="M481 564v135.996h299v-136h-67v-299c0 -13.333 -0.5 -26.166 -1.5 -38.499s-3.66699 -28.666 -8 -48.999s-10.333 -38.666 -18 -54.999s-19 -33.833 -34 -52.5s-32.833 -34.167 -53.5 -46.5s-47.167 -22.666 -79.5 -30.999s-68.5 -12.5 -108.5 -12.5
c-56 0 -104.167 7.83301 -144.5 23.5s-70.333 33.667 -90 54s-35.167 45.5 -46.5 75.5s-17.833 54 -19.5 72s-2.5 38 -2.5 60v299h-67v136h299v-136h-67v-272c0 -60 10.5 -104.333 31.5 -133s56.5 -43 106.5 -43s85.5 14 106.5 42s31.5 72.667 31.5 134v272h-67z
M412 857.996l-92 -92h-135l113 132h228l113 -132h-135z" />
    <glyph glyph-name="Udieresis" unicode="&#xdc;" horiz-adv-x="820" 
d="M481 564v135.996h299v-136h-67v-299c0 -13.333 -0.5 -26.166 -1.5 -38.499s-3.66699 -28.666 -8 -48.999s-10.333 -38.666 -18 -54.999s-19 -33.833 -34 -52.5s-32.833 -34.167 -53.5 -46.5s-47.167 -22.666 -79.5 -30.999s-68.5 -12.5 -108.5 -12.5
c-56 0 -104.167 7.83301 -144.5 23.5s-70.333 33.667 -90 54s-35.167 45.5 -46.5 75.5s-17.833 54 -19.5 72s-2.5 38 -2.5 60v299h-67v136h299v-136h-67v-272c0 -60 10.5 -104.333 31.5 -133s56.5 -43 106.5 -43s85.5 14 106.5 42s31.5 72.667 31.5 134v272h-67z
M215 765.996v106h142v-106h-142zM463 765.996v106h142v-106h-142z" />
    <glyph glyph-name="Yacute" unicode="&#xdd;" horiz-adv-x="641" 
d="M-10 564v136h294v-136h-45l92 -167l91 167h-42v136h271v-136h-65l-179 -300v-128h67v-136h-299v136h67v128l-185 300h-67zM315 885h160l-106 -132h-123z" />
    <glyph glyph-name="Thorn" unicode="&#xde;" horiz-adv-x="724" 
d="M117 136l0.000976562 427.999h-67v136h299v-96h-67v-37h147c40 0 75.333 -2.83301 106 -8.5s59.667 -15.5 87 -29.5s48.333 -35 63 -63s22 -62.333 22 -103c0 -36.667 -7.16699 -69 -21.5 -97s-31.833 -49.5 -52.5 -64.5s-44.834 -27.167 -72.501 -36.5
s-52 -15.166 -73 -17.499s-41.833 -3.5 -62.5 -3.5h-143v-48h67v-96h-299v136h67zM282.001 438.999l0.000976562 -167h117c86.667 0 130 29.333 130 88c0 15.333 -3.5 28.333 -10.5 39s-14.833 18.5 -23.5 23.5s-20.334 8.83301 -35.001 11.5s-25.5 4.16699 -32.5 4.5
s-16.5 0.5 -28.5 0.5h-117z" />
    <glyph glyph-name="germandbls" unicode="&#xdf;" 
d="M37 102h61.001v397c0 70.667 21.333 123.667 64 159s100.667 53 174 53c72 0 126.167 -16.167 162.5 -48.5s54.5 -73.166 54.5 -122.499c0 -30 -7.5 -55.833 -22.5 -77.5s-34.833 -37.5 -59.5 -47.5v-2c98 -20.667 147 -87 147 -199c0 -30 -3.83301 -57.167 -11.5 -81.5
s-17.167 -44 -28.5 -59s-25.333 -28 -42 -39s-31.667 -19 -45 -24s-28.166 -9 -44.499 -12s-27.833 -4.66699 -34.5 -5s-13.667 -0.5 -21 -0.5c-34.667 0 -61 2.33301 -79 7v102c14 -4.66699 26.667 -7 38 -7c35.333 0 62.666 11.167 81.999 33.5s29 52.166 29 89.499
c0 44 -11.333 74.667 -34 92s-56.667 26 -102 26h-18v102h16c59.333 0 89 30 89 90c0 20 -5.33301 38.5 -16 55.5s-30.334 25.5 -59.001 25.5c-30 0 -52 -9.5 -66 -28.5s-21 -57.167 -21 -114.5v-466h-213v102z" />
    <glyph glyph-name="agrave" unicode="&#xe0;" horiz-adv-x="632" 
d="M395 0l-0.00195312 49.9912h-3c-36 -46 -92.667 -69 -170 -69c-30.667 0 -57.5 3.83301 -80.5 11.5s-40.333 16.834 -52 27.501s-21.167 23.334 -28.5 38.001s-11.833 27.334 -13.5 38.001s-2.5 21.334 -2.5 32.001c0 22.667 3.83301 42.667 11.5 60s17 31.166 28 41.499
s25.5 19.666 43.5 27.999s34.833 14.333 50.5 18s34.167 7.5 55.5 11.5c12.667 2 27 3.83301 43 5.5s28.167 3 36.5 4s17.5 2.5 27.5 4.5s17.167 3.83301 21.5 5.5s8.83301 4.33398 13.5 8.00098s7.83398 7.83398 9.50098 12.501s2.83398 10.334 3.50098 17.001v14
c-2 44.667 -29.333 67 -82 67c-62 0 -93 -27 -93 -81h-145c1.33301 28 6.66602 52.833 15.999 74.5s21.833 38.834 37.5 51.501s31.5 23.167 47.5 31.5s33.833 14.166 53.5 17.499s35.5 5.5 47.5 6.5s24.333 1.5 37 1.5c31.333 0 59.666 -2.66699 84.999 -8
s45.833 -11.666 61.5 -18.999s29.334 -17.166 41.001 -29.499s20.334 -23.5 26.001 -33.5s10 -22.167 13 -36.5s4.83301 -25.666 5.5 -33.999s1 -18.166 1 -29.499v-235h61v-102h-207zM389.998 209.991l0.000976562 32c-7.33301 -4 -15.666 -7.5 -24.999 -10.5
s-17 -5.16699 -23 -6.5s-15.167 -3.16602 -27.5 -5.49902s-20.5 -3.83301 -24.5 -4.5c-59.333 -9.33301 -89 -33.666 -89 -72.999c0 -21.333 8.16699 -36.5 24.5 -45.5s34.166 -13.5 53.499 -13.5c15.333 0 30.666 3.16699 45.999 9.5s30 19.666 44 39.999
s21 46.166 21 77.499zM315.999 699.991l69 -132h-123l-106 132h160z" />
    <glyph glyph-name="aacute" unicode="&#xe1;" horiz-adv-x="632" 
d="M395 0l-0.00195312 49.9912h-3c-36 -46 -92.667 -69 -170 -69c-30.667 0 -57.5 3.83301 -80.5 11.5s-40.333 16.834 -52 27.501s-21.167 23.334 -28.5 38.001s-11.833 27.334 -13.5 38.001s-2.5 21.334 -2.5 32.001c0 22.667 3.83301 42.667 11.5 60s17 31.166 28 41.499
s25.5 19.666 43.5 27.999s34.833 14.333 50.5 18s34.167 7.5 55.5 11.5c12.667 2 27 3.83301 43 5.5s28.167 3 36.5 4s17.5 2.5 27.5 4.5s17.167 3.83301 21.5 5.5s8.83301 4.33398 13.5 8.00098s7.83398 7.83398 9.50098 12.501s2.83398 10.334 3.50098 17.001v14
c-2 44.667 -29.333 67 -82 67c-62 0 -93 -27 -93 -81h-145c1.33301 28 6.66602 52.833 15.999 74.5s21.833 38.834 37.5 51.501s31.5 23.167 47.5 31.5s33.833 14.166 53.5 17.499s35.5 5.5 47.5 6.5s24.333 1.5 37 1.5c31.333 0 59.666 -2.66699 84.999 -8
s45.833 -11.666 61.5 -18.999s29.334 -17.166 41.001 -29.499s20.334 -23.5 26.001 -33.5s10 -22.167 13 -36.5s4.83301 -25.666 5.5 -33.999s1 -18.166 1 -29.499v-235h61v-102h-207zM389.998 209.991l0.000976562 32c-7.33301 -4 -15.666 -7.5 -24.999 -10.5
s-17 -5.16699 -23 -6.5s-15.167 -3.16602 -27.5 -5.49902s-20.5 -3.83301 -24.5 -4.5c-59.333 -9.33301 -89 -33.666 -89 -72.999c0 -21.333 8.16699 -36.5 24.5 -45.5s34.166 -13.5 53.499 -13.5c15.333 0 30.666 3.16699 45.999 9.5s30 19.666 44 39.999
s21 46.166 21 77.499zM297.999 699.991h160l-106 -132h-123z" />
    <glyph glyph-name="acircumflex" unicode="&#xe2;" horiz-adv-x="632" 
d="M395 0l-0.00195312 49.9912h-3c-36 -46 -92.667 -69 -170 -69c-30.667 0 -57.5 3.83301 -80.5 11.5s-40.333 16.834 -52 27.501s-21.167 23.334 -28.5 38.001s-11.833 27.334 -13.5 38.001s-2.5 21.334 -2.5 32.001c0 22.667 3.83301 42.667 11.5 60s17 31.166 28 41.499
s25.5 19.666 43.5 27.999s34.833 14.333 50.5 18s34.167 7.5 55.5 11.5c12.667 2 27 3.83301 43 5.5s28.167 3 36.5 4s17.5 2.5 27.5 4.5s17.167 3.83301 21.5 5.5s8.83301 4.33398 13.5 8.00098s7.83398 7.83398 9.50098 12.501s2.83398 10.334 3.50098 17.001v14
c-2 44.667 -29.333 67 -82 67c-62 0 -93 -27 -93 -81h-145c1.33301 28 6.66602 52.833 15.999 74.5s21.833 38.834 37.5 51.501s31.5 23.167 47.5 31.5s33.833 14.166 53.5 17.499s35.5 5.5 47.5 6.5s24.333 1.5 37 1.5c31.333 0 59.666 -2.66699 84.999 -8
s45.833 -11.666 61.5 -18.999s29.334 -17.166 41.001 -29.499s20.334 -23.5 26.001 -33.5s10 -22.167 13 -36.5s4.83301 -25.666 5.5 -33.999s1 -18.166 1 -29.499v-235h61v-102h-207zM389.998 209.991l0.000976562 32c-7.33301 -4 -15.666 -7.5 -24.999 -10.5
s-17 -5.16699 -23 -6.5s-15.167 -3.16602 -27.5 -5.49902s-20.5 -3.83301 -24.5 -4.5c-59.333 -9.33301 -89 -33.666 -89 -72.999c0 -21.333 8.16699 -36.5 24.5 -45.5s34.166 -13.5 53.499 -13.5c15.333 0 30.666 3.16699 45.999 9.5s30 19.666 44 39.999
s21 46.166 21 77.499zM311.999 659.991l-92 -92h-119l111 132h200l111 -132h-119z" />
    <glyph glyph-name="atilde" unicode="&#xe3;" horiz-adv-x="632" 
d="M395 0l-0.00195312 49.9912h-3c-36 -46 -92.667 -69 -170 -69c-30.667 0 -57.5 3.83301 -80.5 11.5s-40.333 16.834 -52 27.501s-21.167 23.334 -28.5 38.001s-11.833 27.334 -13.5 38.001s-2.5 21.334 -2.5 32.001c0 22.667 3.83301 42.667 11.5 60s17 31.166 28 41.499
s25.5 19.666 43.5 27.999s34.833 14.333 50.5 18s34.167 7.5 55.5 11.5c12.667 2 27 3.83301 43 5.5s28.167 3 36.5 4s17.5 2.5 27.5 4.5s17.167 3.83301 21.5 5.5s8.83301 4.33398 13.5 8.00098s7.83398 7.83398 9.50098 12.501s2.83398 10.334 3.50098 17.001v14
c-2 44.667 -29.333 67 -82 67c-62 0 -93 -27 -93 -81h-145c1.33301 28 6.66602 52.833 15.999 74.5s21.833 38.834 37.5 51.501s31.5 23.167 47.5 31.5s33.833 14.166 53.5 17.499s35.5 5.5 47.5 6.5s24.333 1.5 37 1.5c31.333 0 59.666 -2.66699 84.999 -8
s45.833 -11.666 61.5 -18.999s29.334 -17.166 41.001 -29.499s20.334 -23.5 26.001 -33.5s10 -22.167 13 -36.5s4.83301 -25.666 5.5 -33.999s1 -18.166 1 -29.499v-235h61v-102h-207zM389.998 209.991l0.000976562 32c-7.33301 -4 -15.666 -7.5 -24.999 -10.5
s-17 -5.16699 -23 -6.5s-15.167 -3.16602 -27.5 -5.49902s-20.5 -3.83301 -24.5 -4.5c-59.333 -9.33301 -89 -33.666 -89 -72.999c0 -21.333 8.16699 -36.5 24.5 -45.5s34.166 -13.5 53.499 -13.5c15.333 0 30.666 3.16699 45.999 9.5s30 19.666 44 39.999
s21 46.166 21 77.499zM436.999 699.991h92.002c-18.667 -85.333 -59.334 -128 -122.001 -128c-7.33301 0 -14 0.333008 -20 1s-11 1.16699 -15 1.5s-8.83301 1.66602 -14.5 3.99902s-9.83398 4 -12.501 5s-8 3.33301 -16 7s-14 6.5 -18 8.5c-37.333 16 -64.333 24 -81 24
c-25.333 0 -40 -13.667 -44 -41h-93c6 38.667 20.5 69.334 43.5 92.001s49.167 34 78.5 34s61.333 -9 96 -27c32.667 -16 60 -24 82 -24c26 0 40.667 14.333 44 43z" />
    <glyph glyph-name="adieresis" unicode="&#xe4;" horiz-adv-x="632" 
d="M395 0l-0.00195312 49.9912h-3c-36 -46 -92.667 -69 -170 -69c-30.667 0 -57.5 3.83301 -80.5 11.5s-40.333 16.834 -52 27.501s-21.167 23.334 -28.5 38.001s-11.833 27.334 -13.5 38.001s-2.5 21.334 -2.5 32.001c0 22.667 3.83301 42.667 11.5 60s17 31.166 28 41.499
s25.5 19.666 43.5 27.999s34.833 14.333 50.5 18s34.167 7.5 55.5 11.5c12.667 2 27 3.83301 43 5.5s28.167 3 36.5 4s17.5 2.5 27.5 4.5s17.167 3.83301 21.5 5.5s8.83301 4.33398 13.5 8.00098s7.83398 7.83398 9.50098 12.501s2.83398 10.334 3.50098 17.001v14
c-2 44.667 -29.333 67 -82 67c-62 0 -93 -27 -93 -81h-145c1.33301 28 6.66602 52.833 15.999 74.5s21.833 38.834 37.5 51.501s31.5 23.167 47.5 31.5s33.833 14.166 53.5 17.499s35.5 5.5 47.5 6.5s24.333 1.5 37 1.5c31.333 0 59.666 -2.66699 84.999 -8
s45.833 -11.666 61.5 -18.999s29.334 -17.166 41.001 -29.499s20.334 -23.5 26.001 -33.5s10 -22.167 13 -36.5s4.83301 -25.666 5.5 -33.999s1 -18.166 1 -29.499v-235h61v-102h-207zM389.998 209.991l0.000976562 32c-7.33301 -4 -15.666 -7.5 -24.999 -10.5
s-17 -5.16699 -23 -6.5s-15.167 -3.16602 -27.5 -5.49902s-20.5 -3.83301 -24.5 -4.5c-59.333 -9.33301 -89 -33.666 -89 -72.999c0 -21.333 8.16699 -36.5 24.5 -45.5s34.166 -13.5 53.499 -13.5c15.333 0 30.666 3.16699 45.999 9.5s30 19.666 44 39.999
s21 46.166 21 77.499zM90.999 580.991v119h152v-119h-152zM372.999 580.991v119h152v-119h-152z" />
    <glyph glyph-name="aring" unicode="&#xe5;" horiz-adv-x="632" 
d="M395 0l-0.00195312 49.9912h-3c-36 -46 -92.667 -69 -170 -69c-30.667 0 -57.5 3.83301 -80.5 11.5s-40.333 16.834 -52 27.501s-21.167 23.334 -28.5 38.001s-11.833 27.334 -13.5 38.001s-2.5 21.334 -2.5 32.001c0 22.667 3.83301 42.667 11.5 60s17 31.166 28 41.499
s25.5 19.666 43.5 27.999s34.833 14.333 50.5 18s34.167 7.5 55.5 11.5c12.667 2 27 3.83301 43 5.5s28.167 3 36.5 4s17.5 2.5 27.5 4.5s17.167 3.83301 21.5 5.5s8.83301 4.33398 13.5 8.00098s7.83398 7.83398 9.50098 12.501s2.83398 10.334 3.50098 17.001v14
c-2 44.667 -29.333 67 -82 67c-62 0 -93 -27 -93 -81h-145c1.33301 28 6.66602 52.833 15.999 74.5s21.833 38.834 37.5 51.501s31.5 23.167 47.5 31.5s33.833 14.166 53.5 17.499s35.5 5.5 47.5 6.5s24.333 1.5 37 1.5c31.333 0 59.666 -2.66699 84.999 -8
s45.833 -11.666 61.5 -18.999s29.334 -17.166 41.001 -29.499s20.334 -23.5 26.001 -33.5s10 -22.167 13 -36.5s4.83301 -25.666 5.5 -33.999s1 -18.166 1 -29.499v-235h61v-102h-207zM389.998 209.991l0.000976562 32c-7.33301 -4 -15.666 -7.5 -24.999 -10.5
s-17 -5.16699 -23 -6.5s-15.167 -3.16602 -27.5 -5.49902s-20.5 -3.83301 -24.5 -4.5c-59.333 -9.33301 -89 -33.666 -89 -72.999c0 -21.333 8.16699 -36.5 24.5 -45.5s34.166 -13.5 53.499 -13.5c15.333 0 30.666 3.16699 45.999 9.5s30 19.666 44 39.999
s21 46.166 21 77.499zM201.999 638.991c0 28 9.5 51.5 28.5 70.5s42.5 28.5 70.5 28.5s51.5 -9.5 70.5 -28.5s28.5 -42.5 28.5 -70.5s-9.5 -51.5 -28.5 -70.5s-42.5 -28.5 -70.5 -28.5s-51.5 9.5 -70.5 28.5s-28.5 42.5 -28.5 70.5zM258.999 638.991c0 -12 4 -22 12 -30
s18 -12 30 -12s22 4 30 12s12 18 12 30s-4 22 -12 30s-18 12 -30 12s-22 -4 -30 -12s-12 -18 -12 -30z" />
    <glyph glyph-name="ae" unicode="&#xe6;" horiz-adv-x="958" 
d="M205 344l-139 0.000976562c8.66699 122 90.667 183 246 183c16 0 30.167 -0.666992 42.5 -2s26.5 -4.5 42.5 -9.5s30.833 -13.167 44.5 -24.5s25.5 -25.666 35.5 -42.999c14 22 34.333 39.5 61 52.5s48.334 20.667 65.001 23s32.334 3.5 47.001 3.5
c82.667 0 148.167 -24.5 196.5 -73.5s72.5 -118.5 72.5 -208.5v-22h-389c0 -15.333 1.83301 -30.333 5.5 -45s9.66699 -29.5 18 -44.5s21 -27.167 38 -36.5s37.167 -14 60.5 -14c55.333 0 89.666 21.333 102.999 64h153c-10 -40.667 -28.667 -73.834 -56 -99.501
s-56.833 -43.167 -88.5 -52.5s-66.5 -14 -104.5 -14c-48 0 -86.833 6 -116.5 18s-55.5 33.667 -77.5 65c-36 -55.333 -101 -83 -195 -83c-80 0 -137.167 14.333 -171.5 43s-51.5 65.667 -51.5 111c0 24.667 5.16699 46.5 15.5 65.5s22.333 33.5 36 43.5s31.667 18.5 54 25.5
s41.5 11.833 57.5 14.5s35.333 5.33398 58 8.00098c4 0.666992 7.33301 1.16699 10 1.5s5.33398 0.5 8.00098 0.5c47.333 5.33301 76.833 11 88.5 17s17.5 17 17.5 33v15c0 4 -0.166992 7.66699 -0.5 11s-2 8.66602 -5 15.999s-7.33301 13.666 -13 18.999
s-14.334 10 -26.001 14s-25.834 6 -42.501 6c-66.667 0 -100 -27 -100 -81zM394 189.001l-0.000976562 52.998c-19.333 -10 -53 -19 -101 -27c-58.667 -9.33301 -88 -33.666 -88 -72.999s27 -59 81 -59c10.667 0 21.667 1.5 33 4.5s22.833 8.16699 34.5 15.5
s21.334 18.333 29.001 33s11.5 32.334 11.5 53.001zM529.999 301.999h230.998c-2 82 -37.333 123 -106 123c-23.333 0 -43.666 -4.66699 -60.999 -14s-30.166 -21.5 -38.499 -36.5s-14.333 -28.167 -18 -39.5s-6.16699 -22.333 -7.5 -33z" />
    <glyph glyph-name="ccedilla" unicode="&#xe7;" horiz-adv-x="597" 
d="M441 508h101.999v-181h-133c-8.66699 65.333 -41.667 98 -99 98c-78.667 0 -118 -53.667 -118 -161c0 -32 3 -59.833 9 -83.5s13.167 -41.5 21.5 -53.5s18.333 -21.5 30 -28.5s21.5 -11.333 29.5 -13s16 -2.5 24 -2.5c35.333 0 60.833 12 76.5 36s23.5 48.333 23.5 73
h150c-1.33301 -22.667 -6.16602 -45 -14.499 -67s-21.333 -44.5 -39 -67.5s-43.5 -41.5 -77.5 -55.5s-74 -21 -120 -21c-84 0 -150.167 23.5 -198.5 70.5s-72.5 114.167 -72.5 201.5c0 82.667 21.333 149 64 199s106.667 75 192 75c66.667 0 116.667 -23 150 -69v50z
M175.999 -240l17.999 64.0029c15.333 -6 35 -9 59 -9c35.333 0 53 11.667 53 35c0 13.333 -5.33301 22.166 -16 26.499s-26.667 6.83301 -48 7.5h-17h-14l16 60c4.66699 0.666992 10.334 1 17.001 1h19c15.333 0 30.666 -1.33301 45.999 -4s31 -7.33398 47 -14.001
s29 -16.834 39 -30.501s15 -30.167 15 -49.5c0 -32 -11.667 -56.667 -35 -74s-56.666 -26 -99.999 -26c-33.333 0 -66.333 4.33301 -99 13z" />
    <glyph glyph-name="egrave" unicode="&#xe8;" horiz-adv-x="616" 
d="M418 147h154.001c-30.667 -110.667 -118.667 -166 -264 -166c-18.667 0 -37 1 -55 3s-41.167 8.33301 -69.5 19s-52.5 25 -72.5 43s-37.667 45 -53 81s-23 78.667 -23 128c0 86.667 25.667 153.667 77 201s119.666 71 204.999 71c72 0 128 -17 168 -51
s67 -76.667 81 -128c9.33301 -32 14 -75.667 14 -131h-387c0 -32.667 9.5 -63.167 28.5 -91.5s50.167 -42.5 93.5 -42.5c24 0 45.667 5.33301 65 16s32 26.667 38 48zM193.001 302l231.999 -0.00195312c-0.666992 25.333 -4.66699 46.833 -12 64.5s-17 30.334 -29 38.001
s-23.167 13 -33.5 16s-21.166 4.5 -32.499 4.5c-40.667 0 -71.167 -12.667 -91.5 -38s-31.5 -53.666 -33.5 -84.999zM314 699.998l69 -132h-123l-106 132h160z" />
    <glyph glyph-name="eacute" unicode="&#xe9;" horiz-adv-x="616" 
d="M418 147h154.001c-30.667 -110.667 -118.667 -166 -264 -166c-18.667 0 -37 1 -55 3s-41.167 8.33301 -69.5 19s-52.5 25 -72.5 43s-37.667 45 -53 81s-23 78.667 -23 128c0 86.667 25.667 153.667 77 201s119.666 71 204.999 71c72 0 128 -17 168 -51
s67 -76.667 81 -128c9.33301 -32 14 -75.667 14 -131h-387c0 -32.667 9.5 -63.167 28.5 -91.5s50.167 -42.5 93.5 -42.5c24 0 45.667 5.33301 65 16s32 26.667 38 48zM193.001 302l231.999 -0.00195312c-0.666992 25.333 -4.66699 46.833 -12 64.5s-17 30.334 -29 38.001
s-23.167 13 -33.5 16s-21.166 4.5 -32.499 4.5c-40.667 0 -71.167 -12.667 -91.5 -38s-31.5 -53.666 -33.5 -84.999zM314 699.998h160l-106 -132h-123z" />
    <glyph glyph-name="ecircumflex" unicode="&#xea;" horiz-adv-x="616" 
d="M418 147h154.001c-30.667 -110.667 -118.667 -166 -264 -166c-18.667 0 -37 1 -55 3s-41.167 8.33301 -69.5 19s-52.5 25 -72.5 43s-37.667 45 -53 81s-23 78.667 -23 128c0 86.667 25.667 153.667 77 201s119.666 71 204.999 71c72 0 128 -17 168 -51
s67 -76.667 81 -128c9.33301 -32 14 -75.667 14 -131h-387c0 -32.667 9.5 -63.167 28.5 -91.5s50.167 -42.5 93.5 -42.5c24 0 45.667 5.33301 65 16s32 26.667 38 48zM193.001 302l231.999 -0.00195312c-0.666992 25.333 -4.66699 46.833 -12 64.5s-17 30.334 -29 38.001
s-23.167 13 -33.5 16s-21.166 4.5 -32.499 4.5c-40.667 0 -71.167 -12.667 -91.5 -38s-31.5 -53.666 -33.5 -84.999zM310 659.998l-92 -92h-119l111 132h200l111 -132h-119z" />
    <glyph glyph-name="edieresis" unicode="&#xeb;" horiz-adv-x="616" 
d="M99 581v119h152v-119h-152zM363 581v119h152v-119h-152zM418 147h154.001c-30.667 -110.667 -118.667 -166 -264 -166c-18.667 0 -37 1 -55 3s-41.167 8.33301 -69.5 19s-52.5 25 -72.5 43s-37.667 45 -53 81s-23 78.667 -23 128c0 86.667 25.667 153.667 77 201
s119.666 71 204.999 71c72 0 128 -17 168 -51s67 -76.667 81 -128c9.33301 -32 14 -75.667 14 -131h-387c0 -32.667 9.5 -63.167 28.5 -91.5s50.167 -42.5 93.5 -42.5c24 0 45.667 5.33301 65 16s32 26.667 38 48zM193.001 302l231.999 -0.00195312
c-0.666992 25.333 -4.66699 46.833 -12 64.5s-17 30.334 -29 38.001s-23.167 13 -33.5 16s-21.166 4.5 -32.499 4.5c-40.667 0 -71.167 -12.667 -91.5 -38s-31.5 -53.666 -33.5 -84.999z" />
    <glyph glyph-name="igrave" unicode="&#xec;" horiz-adv-x="348" 
d="M37 406v102h213v-406h61v-102h-274v102h61v304h-61zM145 700l69 -132h-123l-106 132h160z" />
    <glyph glyph-name="iacute" unicode="&#xed;" horiz-adv-x="348" 
d="M37 406v102h213v-406h61v-102h-274v102h61v304h-61zM174 700h160l-106 -132h-123z" />
    <glyph glyph-name="icircumflex" unicode="&#xee;" horiz-adv-x="348" 
d="M37 406v102h213v-406h61v-102h-274v102h61v304h-61zM155 660l-92 -92h-119l111 132h200l111 -132h-119z" />
    <glyph glyph-name="idieresis" unicode="&#xef;" horiz-adv-x="348" 
d="M37 406v102h213v-406h61v-102h-274v102h61v304h-61zM-70 581v119h152v-119h-152zM212 581v119h152v-119h-152z" />
    <glyph glyph-name="eth" unicode="&#xf0;" horiz-adv-x="621" 
d="M143 652l20.001 103c77.333 -10 145.333 -27 204 -51l85 52l33 -49l-61 -38c108 -76.667 162 -192 162 -346c0 -46 -4.16699 -87.667 -12.5 -125s-18.5 -67.666 -30.5 -90.999s-27.333 -43.5 -46 -60.5s-35.834 -29.5 -51.501 -37.5s-33.667 -14.333 -54 -19
s-35.833 -7.33398 -46.5 -8.00098s-22.667 -1 -36 -1c-83.333 0 -149.833 23.667 -199.5 71s-74.5 113.333 -74.5 198c0 82.667 25 144.334 75 185.001s113 61 189 61c18 0 36.833 -2.5 56.5 -7.5s41.5 -16 65.5 -33s41.667 -39.167 53 -66.5h7
c-8 41.333 -27.5 81.166 -58.5 119.499s-68.5 68.833 -112.5 91.5l-122 -75l-34 50l88 53c-36.667 11.333 -69.667 19.333 -99 24zM310.001 394c-24.667 0 -45.3311 -5.16309 -61.998 -15.4961s-28.667 -24.333 -36 -42s-12.333 -33.834 -15 -48.501s-4 -30.334 -4 -47.001
c0 -14.667 1.5 -29.834 4.5 -45.501s8.16699 -32.5 15.5 -50.5s19.333 -32.833 36 -44.5s36.667 -17.5 60 -17.5c36 0 64.667 14.167 86 42.5s32 67.5 32 117.5c0 32 -3.66699 58.833 -11 80.5s-17.333 37.167 -30 46.5s-24.834 15.666 -36.501 18.999s-24.834 5 -39.501 5z
" />
    <glyph glyph-name="ntilde" unicode="&#xf1;" horiz-adv-x="688" 
d="M37 406v102.002h207v-61c39.333 53.333 98 80 176 80c20.667 0 39.334 -2.16699 56.001 -6.5s34.5 -13 53.5 -26s33.833 -34.333 44.5 -64s16 -66.834 16 -111.501v-217h61v-102h-271v102h58v192c0 87.333 -28.667 131 -86 131c-16 0 -30.167 -2.83301 -42.5 -8.5
s-21.833 -13.334 -28.5 -23.001s-12.334 -19.5 -17.001 -29.5s-8 -21 -10 -33s-3.16699 -21 -3.5 -27s-0.5 -12 -0.5 -18v-184h58v-102h-271v102h61v304h-61zM470 700.002h92.002c-18.667 -85.333 -59.334 -128 -122.001 -128c-7.33301 0 -14 0.333008 -20 1
s-11 1.16699 -15 1.5s-8.83301 1.66602 -14.5 3.99902s-9.83398 4 -12.501 5s-8 3.33301 -16 7s-14 6.5 -18 8.5c-37.333 16 -64.333 24 -81 24c-25.333 0 -40 -13.667 -44 -41h-93c6 38.667 20.5 69.334 43.5 92.001s49.167 34 78.5 34s61.333 -9 96 -27
c32.667 -16 60 -24 82 -24c26 0 40.667 14.333 44 43z" />
    <glyph glyph-name="ograve" unicode="&#xf2;" horiz-adv-x="626" 
d="M313 -19c-83.333 0 -150.5 23.168 -201.5 69.501s-76.5 114.5 -76.5 204.5c0 48 7.66699 90.167 23 126.5s36.5 64.666 63.5 84.999s56.5 35.5 88.5 45.5s66.333 15 103 15c83.333 0 150.5 -23 201.5 -69s76.5 -113.667 76.5 -203c0 -90 -25.5 -158.167 -76.5 -204.5
s-118.167 -69.5 -201.5 -69.5zM313 83.001c80 0 120 57.333 120 172c0 113.333 -40 170 -120 170s-120 -56.667 -120 -170c0 -114.667 40 -172 120 -172zM318 700.001l69 -132h-123l-106 132h160z" />
    <glyph glyph-name="oacute" unicode="&#xf3;" horiz-adv-x="626" 
d="M313 -19c-83.333 0 -150.5 23.168 -201.5 69.501s-76.5 114.5 -76.5 204.5c0 48 7.66699 90.167 23 126.5s36.5 64.666 63.5 84.999s56.5 35.5 88.5 45.5s66.333 15 103 15c83.333 0 150.5 -23 201.5 -69s76.5 -113.667 76.5 -203c0 -90 -25.5 -158.167 -76.5 -204.5
s-118.167 -69.5 -201.5 -69.5zM313 83.001c80 0 120 57.333 120 172c0 113.333 -40 170 -120 170s-120 -56.667 -120 -170c0 -114.667 40 -172 120 -172zM308 700.001h160l-106 -132h-123z" />
    <glyph glyph-name="ocircumflex" unicode="&#xf4;" horiz-adv-x="626" 
d="M313 -19c-83.333 0 -150.5 23.168 -201.5 69.501s-76.5 114.5 -76.5 204.5c0 48 7.66699 90.167 23 126.5s36.5 64.666 63.5 84.999s56.5 35.5 88.5 45.5s66.333 15 103 15c83.333 0 150.5 -23 201.5 -69s76.5 -113.667 76.5 -203c0 -90 -25.5 -158.167 -76.5 -204.5
s-118.167 -69.5 -201.5 -69.5zM313 83.001c80 0 120 57.333 120 172c0 113.333 -40 170 -120 170s-120 -56.667 -120 -170c0 -114.667 40 -172 120 -172zM314 660.001l-92 -92h-119l111 132h200l111 -132h-119z" />
    <glyph glyph-name="otilde" unicode="&#xf5;" horiz-adv-x="626" 
d="M313 -19c-83.333 0 -150.5 23.168 -201.5 69.501s-76.5 114.5 -76.5 204.5c0 48 7.66699 90.167 23 126.5s36.5 64.666 63.5 84.999s56.5 35.5 88.5 45.5s66.333 15 103 15c83.333 0 150.5 -23 201.5 -69s76.5 -113.667 76.5 -203c0 -90 -25.5 -158.167 -76.5 -204.5
s-118.167 -69.5 -201.5 -69.5zM313 83.001c80 0 120 57.333 120 172c0 113.333 -40 170 -120 170s-120 -56.667 -120 -170c0 -114.667 40 -172 120 -172zM440 700.001h92.002c-18.667 -85.333 -59.334 -128 -122.001 -128c-7.33301 0 -14 0.333008 -20 1
s-11 1.16699 -15 1.5s-8.83301 1.66602 -14.5 3.99902s-9.83398 4 -12.501 5s-8 3.33301 -16 7s-14 6.5 -18 8.5c-37.333 16 -64.333 24 -81 24c-25.333 0 -40 -13.667 -44 -41h-93c6 38.667 20.5 69.334 43.5 92.001s49.167 34 78.5 34s61.333 -9 96 -27
c32.667 -16 60 -24 82 -24c26 0 40.667 14.333 44 43z" />
    <glyph glyph-name="odieresis" unicode="&#xf6;" horiz-adv-x="626" 
d="M313 -19c-83.333 0 -150.5 23.168 -201.5 69.501s-76.5 114.5 -76.5 204.5c0 48 7.66699 90.167 23 126.5s36.5 64.666 63.5 84.999s56.5 35.5 88.5 45.5s66.333 15 103 15c83.333 0 150.5 -23 201.5 -69s76.5 -113.667 76.5 -203c0 -90 -25.5 -158.167 -76.5 -204.5
s-118.167 -69.5 -201.5 -69.5zM313 83.001c80 0 120 57.333 120 172c0 113.333 -40 170 -120 170s-120 -56.667 -120 -170c0 -114.667 40 -172 120 -172zM94 581.001v119h152v-119h-152zM376 581.001v119h152v-119h-152z" />
    <glyph glyph-name="divide" unicode="&#xf7;" horiz-adv-x="672" 
d="M53 390h566v-80h-566v80zM266 560c0 19.333 6.83301 35.833 20.5 49.5s30.167 20.5 49.5 20.5s35.833 -6.83301 49.5 -20.5s20.5 -30.167 20.5 -49.5s-6.83301 -35.833 -20.5 -49.5s-30.167 -20.5 -49.5 -20.5s-35.833 6.83301 -49.5 20.5s-20.5 30.167 -20.5 49.5z
M266 140c0 19.333 6.83301 35.833 20.5 49.5s30.167 20.5 49.5 20.5s35.833 -6.83301 49.5 -20.5s20.5 -30.167 20.5 -49.5s-6.83301 -35.833 -20.5 -49.5s-30.167 -20.5 -49.5 -20.5s-35.833 6.83301 -49.5 20.5s-20.5 30.167 -20.5 49.5z" />
    <glyph glyph-name="oslash" unicode="&#xf8;" horiz-adv-x="626" 
d="M63 0l44.999 55c-48.667 50.667 -73 117.334 -73 200.001c0 90.667 24.833 158.667 74.5 204s117.167 68 202.5 68c63.333 0 117.333 -13 162 -39l49 58l44 -38l-47 -55c47.333 -45.333 71 -111.333 71 -198c0 -32.667 -4.33301 -63.834 -13 -93.501
s-22.667 -58.667 -42 -87s-48.166 -51 -86.499 -68s-83.833 -25.5 -136.5 -25.5c-74 0 -126 13 -156 39l-50 -58zM204.999 168l189 225c-18 21.333 -45 32 -81 32c-24.667 0 -45.5 -5.66699 -62.5 -17s-29.333 -26.333 -37 -45s-13 -36.5 -16 -53.5s-4.5 -35.167 -4.5 -54.5
c0 -34 4 -63 12 -87zM422.999 338l-188 -225c20 -20 46 -30 78 -30c42 0 72.5 14.333 91.5 43s28.5 71.667 28.5 129c0 26 -3.33301 53.667 -10 83z" />
    <glyph glyph-name="ugrave" unicode="&#xf9;" horiz-adv-x="688" 
d="M651 102l-0.000976562 -101.998h-213v61c-47.333 -53.333 -104 -80 -170 -80c-113.333 0 -170 69.667 -170 209v216h-61v102h213v-294c0 -48 6.83301 -81.833 20.5 -101.5s35.167 -29.5 64.5 -29.5c18 0 33.833 3.83301 47.5 11.5s23.834 16.667 30.501 27
s12 22.666 16 36.999s6.5 26.166 7.5 35.499s1.5 19 1.5 29v183h-61v102h213v-406h61zM351.999 700.002l69 -132h-123l-106 132h160z" />
    <glyph glyph-name="uacute" unicode="&#xfa;" horiz-adv-x="688" 
d="M651 102l-0.000976562 -101.998h-213v61c-47.333 -53.333 -104 -80 -170 -80c-113.333 0 -170 69.667 -170 209v216h-61v102h213v-294c0 -48 6.83301 -81.833 20.5 -101.5s35.167 -29.5 64.5 -29.5c18 0 33.833 3.83301 47.5 11.5s23.834 16.667 30.501 27
s12 22.666 16 36.999s6.5 26.166 7.5 35.499s1.5 19 1.5 29v183h-61v102h213v-406h61zM341.999 700.002h160l-106 -132h-123z" />
    <glyph glyph-name="ucircumflex" unicode="&#xfb;" horiz-adv-x="688" 
d="M651 102l-0.000976562 -101.998h-213v61c-47.333 -53.333 -104 -80 -170 -80c-113.333 0 -170 69.667 -170 209v216h-61v102h213v-294c0 -48 6.83301 -81.833 20.5 -101.5s35.167 -29.5 64.5 -29.5c18 0 33.833 3.83301 47.5 11.5s23.834 16.667 30.501 27
s12 22.666 16 36.999s6.5 26.166 7.5 35.499s1.5 19 1.5 29v183h-61v102h213v-406h61zM346.999 660.002l-92 -92h-119l111 132h200l111 -132h-119z" />
    <glyph glyph-name="udieresis" unicode="&#xfc;" horiz-adv-x="688" 
d="M651 102l-0.000976562 -101.998h-213v61c-47.333 -53.333 -104 -80 -170 -80c-113.333 0 -170 69.667 -170 209v216h-61v102h213v-294c0 -48 6.83301 -81.833 20.5 -101.5s35.167 -29.5 64.5 -29.5c18 0 33.833 3.83301 47.5 11.5s23.834 16.667 30.501 27
s12 22.666 16 36.999s6.5 26.166 7.5 35.499s1.5 19 1.5 29v183h-61v102h213v-406h61zM126.999 581.002v119h152v-119h-152zM408.999 581.002v119h152v-119h-152z" />
    <glyph glyph-name="yacute" unicode="&#xfd;" horiz-adv-x="595" 
d="M0 406v102h278v-102h-48l88 -229l63 229h-49v102h263v-102h-58l-214 -591h-196v102h93l28 85l-192 404h-56zM306 700h160l-106 -132h-123z" />
    <glyph glyph-name="thorn" unicode="&#xfe;" horiz-adv-x="673" 
d="M37 -83h61v681h-61v102h213v-250h3c31.333 51.333 82.666 77 153.999 77s127.666 -24.667 168.999 -74s62 -116 62 -200c0 -81.333 -21.167 -147 -63.5 -197s-99.166 -75 -170.499 -75c-11.333 0 -24.166 1 -38.499 3s-33.333 8.83301 -57 20.5s-43.167 27.5 -58.5 47.5
v-135h61v-102h-274v102zM243 255c0 -49.333 9.49902 -90.333 28.499 -123s49.167 -49 90.5 -49c40.667 0 70.5 16.333 89.5 49s28.5 73.667 28.5 123c0 33.333 -3.83301 62 -11.5 86s-18 41.667 -31 53s-25.667 19.333 -38 24s-24.833 7 -37.5 7
c-13.333 0 -26.166 -2.33301 -38.499 -7s-25 -12.667 -38 -24s-23.333 -29 -31 -53s-11.5 -52.667 -11.5 -86z" />
    <glyph glyph-name="ydieresis" unicode="&#xff;" horiz-adv-x="595" 
d="M0 406v102h278v-102h-48l88 -229l63 229h-49v102h263v-102h-58l-214 -591h-196v102h93l28 85l-192 404h-56zM88 581v119h152v-119h-152zM370 581v119h152v-119h-152z" />
    <glyph glyph-name="Amacron" unicode="&#x100;" horiz-adv-x="711" 
d="M170 577v123h269l215 -574h67v-126h-292v123h47l-15 45h-228l-16 -45h44v-123h-271v126h67l173 451h-60zM347 516l-82 -234h161zM133 760v86h384v-86h-384z" />
    <glyph glyph-name="amacron" unicode="&#x101;" horiz-adv-x="632" 
d="M395 0l-0.00195312 49.9912h-3c-36 -46 -92.667 -69 -170 -69c-30.667 0 -57.5 3.83301 -80.5 11.5s-40.333 16.834 -52 27.501s-21.167 23.334 -28.5 38.001s-11.833 27.334 -13.5 38.001s-2.5 21.334 -2.5 32.001c0 22.667 3.83301 42.667 11.5 60s17 31.166 28 41.499
s25.5 19.666 43.5 27.999s34.833 14.333 50.5 18s34.167 7.5 55.5 11.5c12.667 2 27 3.83301 43 5.5s28.167 3 36.5 4s17.5 2.5 27.5 4.5s17.167 3.83301 21.5 5.5s8.83301 4.33398 13.5 8.00098s7.83398 7.83398 9.50098 12.501s2.83398 10.334 3.50098 17.001v14
c-2 44.667 -29.333 67 -82 67c-62 0 -93 -27 -93 -81h-145c1.33301 28 6.66602 52.833 15.999 74.5s21.833 38.834 37.5 51.501s31.5 23.167 47.5 31.5s33.833 14.166 53.5 17.499s35.5 5.5 47.5 6.5s24.333 1.5 37 1.5c31.333 0 59.666 -2.66699 84.999 -8
s45.833 -11.666 61.5 -18.999s29.334 -17.166 41.001 -29.499s20.334 -23.5 26.001 -33.5s10 -22.167 13 -36.5s4.83301 -25.666 5.5 -33.999s1 -18.166 1 -29.499v-235h61v-102h-207zM389.998 209.991l0.000976562 32c-7.33301 -4 -15.666 -7.5 -24.999 -10.5
s-17 -5.16699 -23 -6.5s-15.167 -3.16602 -27.5 -5.49902s-20.5 -3.83301 -24.5 -4.5c-59.333 -9.33301 -89 -33.666 -89 -72.999c0 -21.333 8.16699 -36.5 24.5 -45.5s34.166 -13.5 53.499 -13.5c15.333 0 30.666 3.16699 45.999 9.5s30 19.666 44 39.999
s21 46.166 21 77.499zM114.999 599.991v86h384v-86h-384z" />
    <glyph glyph-name="Abreve" unicode="&#x102;" horiz-adv-x="711" 
d="M170 577v123h269l215 -574h67v-126h-292v123h47l-15 45h-228l-16 -45h44v-123h-271v126h67l173 451h-60zM347 516l-82 -234h161zM95 911l144.002 -0.00292969c0 -18 6.66699 -33.333 20 -46s35.333 -19 66 -19c30 0 51.833 6.33301 65.5 19s20.5 28 20.5 46h144
c-0.666992 -26 -7.33398 -48.667 -20.001 -68s-27.334 -34 -44.001 -44s-36.334 -18.167 -59.001 -24.5s-42.167 -10.333 -58.5 -12s-32.5 -2.5 -48.5 -2.5c-19.333 0 -38 1 -56 3s-37.5 6.33301 -58.5 13s-39.5 15.334 -55.5 26.001s-29.667 25.334 -41 44.001
s-17.666 40.334 -18.999 65.001z" />
    <glyph glyph-name="abreve" unicode="&#x103;" horiz-adv-x="632" 
d="M395 0l-0.00195312 49.9912h-3c-36 -46 -92.667 -69 -170 -69c-30.667 0 -57.5 3.83301 -80.5 11.5s-40.333 16.834 -52 27.501s-21.167 23.334 -28.5 38.001s-11.833 27.334 -13.5 38.001s-2.5 21.334 -2.5 32.001c0 22.667 3.83301 42.667 11.5 60s17 31.166 28 41.499
s25.5 19.666 43.5 27.999s34.833 14.333 50.5 18s34.167 7.5 55.5 11.5c12.667 2 27 3.83301 43 5.5s28.167 3 36.5 4s17.5 2.5 27.5 4.5s17.167 3.83301 21.5 5.5s8.83301 4.33398 13.5 8.00098s7.83398 7.83398 9.50098 12.501s2.83398 10.334 3.50098 17.001v14
c-2 44.667 -29.333 67 -82 67c-62 0 -93 -27 -93 -81h-145c1.33301 28 6.66602 52.833 15.999 74.5s21.833 38.834 37.5 51.501s31.5 23.167 47.5 31.5s33.833 14.166 53.5 17.499s35.5 5.5 47.5 6.5s24.333 1.5 37 1.5c31.333 0 59.666 -2.66699 84.999 -8
s45.833 -11.666 61.5 -18.999s29.334 -17.166 41.001 -29.499s20.334 -23.5 26.001 -33.5s10 -22.167 13 -36.5s4.83301 -25.666 5.5 -33.999s1 -18.166 1 -29.499v-235h61v-102h-207zM389.998 209.991l0.000976562 32c-7.33301 -4 -15.666 -7.5 -24.999 -10.5
s-17 -5.16699 -23 -6.5s-15.167 -3.16602 -27.5 -5.49902s-20.5 -3.83301 -24.5 -4.5c-59.333 -9.33301 -89 -33.666 -89 -72.999c0 -21.333 8.16699 -36.5 24.5 -45.5s34.166 -13.5 53.499 -13.5c15.333 0 30.666 3.16699 45.999 9.5s30 19.666 44 39.999
s21 46.166 21 77.499zM101.999 699.991l127.002 -0.00195312c0 -14.667 5 -26.667 15 -36s20.167 -15.166 30.5 -17.499s20.833 -3.5 31.5 -3.5c21.333 0 39.666 5.33301 54.999 16s22.333 24.334 21 41.001h128c-3.33301 -37.333 -21 -70.5 -53 -99.5
s-82.333 -43.5 -151 -43.5s-119.834 14.833 -153.501 44.5s-50.5 62.5 -50.5 98.5z" />
    <glyph glyph-name="Aogonek" unicode="&#x104;" horiz-adv-x="711" 
d="M593 0h-163.999v123h47l-15 45h-228l-16 -45h44v-123h-271v126h67l173 451h-60v123h269l215 -574h67v-126h-25c-50.667 -40 -76 -84 -76 -132c0 -22 4.83301 -40 14.5 -54s24.167 -21 43.5 -21c15.333 0 27.5 4.66699 36.5 14s14.667 18.333 17 27s3.5 17 3.5 25h95
c-2.66699 -44 -18.334 -79.333 -47.001 -106s-65.667 -40 -111 -40c-48.667 0 -88.667 11.833 -120 35.5s-47 55.5 -47 95.5c0 60 29.333 112 88 156zM347.001 516l-82 -234h161z" />
    <glyph glyph-name="aogonek" unicode="&#x105;" horiz-adv-x="632" 
d="M395 0l-0.00195312 49.9922h-3c-36 -46 -92.667 -69 -170 -69c-30.667 0 -57.5 3.83301 -80.5 11.5s-40.333 16.834 -52 27.501s-21.167 23.334 -28.5 38.001s-11.833 27.334 -13.5 38.001s-2.5 21.334 -2.5 32.001c0 22.667 3.83301 42.667 11.5 60s17 31.166 28 41.499
s25.5 19.666 43.5 27.999s34.833 14.333 50.5 18s34.167 7.5 55.5 11.5c12.667 2 27 3.83301 43 5.5s28.167 3 36.5 4s17.5 2.5 27.5 4.5s17.167 3.83301 21.5 5.5s8.83301 4.33398 13.5 8.00098s7.83398 7.83398 9.50098 12.501s2.83398 10.334 3.50098 17.001v14
c-2 44.667 -29.333 67 -82 67c-62 0 -93 -27 -93 -81h-145c1.33301 28 6.66602 52.833 15.999 74.5s21.833 38.834 37.5 51.501s31.5 23.167 47.5 31.5s33.833 14.166 53.5 17.499s35.5 5.5 47.5 6.5s24.333 1.5 37 1.5c31.333 0 59.666 -2.66699 84.999 -8
s45.833 -11.666 61.5 -18.999s29.334 -17.166 41.001 -29.499s20.334 -23.5 26.001 -33.5s10 -22.167 13 -36.5s4.83301 -25.666 5.5 -33.999s1 -18.166 1 -29.499v-235h61v-102h-33c-47.333 -38.667 -71 -80 -71 -124c0 -20 4.5 -36.667 13.5 -50s22.833 -20 41.5 -20
c19.333 0 33 7.16699 41 21.5s12 27.833 12 40.5h89c-2.66699 -40.667 -17.5 -73.667 -44.5 -99s-61.5 -38 -103.5 -38c-46 0 -83.667 11.167 -113 33.5s-44 52.166 -44 89.499c0 56 27.667 104.667 83 146h-78zM389.998 209.992l0.000976562 32
c-7.33301 -4 -15.666 -7.5 -24.999 -10.5s-17 -5.16699 -23 -6.5s-15.167 -3.16602 -27.5 -5.49902s-20.5 -3.83301 -24.5 -4.5c-59.333 -9.33301 -89 -33.666 -89 -72.999c0 -21.333 8.16699 -36.5 24.5 -45.5s34.166 -13.5 53.499 -13.5
c15.333 0 30.666 3.16699 45.999 9.5s30 19.666 44 39.999s21 46.166 21 77.499z" />
    <glyph glyph-name="Cacute" unicode="&#x106;" horiz-adv-x="731" 
d="M685 465l-152 0.00292969c-10.667 79.333 -62.667 119 -156 119c-8.66699 0 -17 -0.666992 -25 -2s-18.833 -4.16602 -32.5 -8.49902s-25.834 -11.833 -36.501 -22.5s-21.167 -24.334 -31.5 -41.001s-18.5 -39.334 -24.5 -68.001s-9 -61.667 -9 -99
c0 -68 15 -122.833 45 -164.5s72.333 -62.5 127 -62.5c26 0 48.5 4.16699 67.5 12.5s33.833 19.666 44.5 33.999s18.5 28.166 23.5 41.499s8.83301 27.666 11.5 42.999h164c-2.66699 -24 -7.16699 -46.833 -13.5 -68.5s-17 -45.167 -32 -70.5s-33.667 -47 -56 -65
s-52.166 -33 -89.499 -45s-79.666 -18 -126.999 -18s-90.5 6 -129.5 18s-75 31.333 -108 58s-58.833 64.167 -77.5 112.5s-28 105.833 -28 172.5c0 50 4.66699 95.167 14 135.5s21 73.333 35 99s31.333 48 52 67s40.167 33.333 58.5 43s38.666 17.334 60.999 23.001
s40 9 53 10s26.5 1.5 40.5 1.5c92 0 157 -26.667 195 -80v60h136v-235zM389 885.003h160l-106 -132h-123z" />
    <glyph glyph-name="cacute" unicode="&#x107;" horiz-adv-x="597" 
d="M441 508h101.999v-181h-133c-8.66699 65.333 -41.667 98 -99 98c-78.667 0 -118 -53.667 -118 -161c0 -32 3 -59.833 9 -83.5s13.167 -41.5 21.5 -53.5s18.333 -21.5 30 -28.5s21.5 -11.333 29.5 -13s16 -2.5 24 -2.5c35.333 0 60.833 12 76.5 36s23.5 48.333 23.5 73
h150c-1.33301 -22.667 -6.16602 -45 -14.499 -67s-21.333 -44.5 -39 -67.5s-43.5 -41.5 -77.5 -55.5s-74 -21 -120 -21c-84 0 -150.167 23.5 -198.5 70.5s-72.5 114.167 -72.5 201.5c0 82.667 21.333 149 64 199s106.667 75 192 75c66.667 0 116.667 -23 150 -69v50z
M289.999 700h160l-106 -132h-123z" />
    <glyph glyph-name="Ccircumflex" unicode="&#x108;" horiz-adv-x="731" 
d="M685 465l-152 0.00292969c-10.667 79.333 -62.667 119 -156 119c-8.66699 0 -17 -0.666992 -25 -2s-18.833 -4.16602 -32.5 -8.49902s-25.834 -11.833 -36.501 -22.5s-21.167 -24.334 -31.5 -41.001s-18.5 -39.334 -24.5 -68.001s-9 -61.667 -9 -99
c0 -68 15 -122.833 45 -164.5s72.333 -62.5 127 -62.5c26 0 48.5 4.16699 67.5 12.5s33.833 19.666 44.5 33.999s18.5 28.166 23.5 41.499s8.83301 27.666 11.5 42.999h164c-2.66699 -24 -7.16699 -46.833 -13.5 -68.5s-17 -45.167 -32 -70.5s-33.667 -47 -56 -65
s-52.166 -33 -89.499 -45s-79.666 -18 -126.999 -18s-90.5 6 -129.5 18s-75 31.333 -108 58s-58.833 64.167 -77.5 112.5s-28 105.833 -28 172.5c0 50 4.66699 95.167 14 135.5s21 73.333 35 99s31.333 48 52 67s40.167 33.333 58.5 43s38.666 17.334 60.999 23.001
s40 9 53 10s26.5 1.5 40.5 1.5c92 0 157 -26.667 195 -80v60h136v-235zM363 858.003l-92 -92h-135l113 132h228l113 -132h-135z" />
    <glyph glyph-name="ccircumflex" unicode="&#x109;" horiz-adv-x="597" 
d="M441 508h101.999v-181h-133c-8.66699 65.333 -41.667 98 -99 98c-78.667 0 -118 -53.667 -118 -161c0 -32 3 -59.833 9 -83.5s13.167 -41.5 21.5 -53.5s18.333 -21.5 30 -28.5s21.5 -11.333 29.5 -13s16 -2.5 24 -2.5c35.333 0 60.833 12 76.5 36s23.5 48.333 23.5 73
h150c-1.33301 -22.667 -6.16602 -45 -14.499 -67s-21.333 -44.5 -39 -67.5s-43.5 -41.5 -77.5 -55.5s-74 -21 -120 -21c-84 0 -150.167 23.5 -198.5 70.5s-72.5 114.167 -72.5 201.5c0 82.667 21.333 149 64 199s106.667 75 192 75c66.667 0 116.667 -23 150 -69v50z
M294.999 660l-92 -92h-119l111 132h200l111 -132h-119z" />
    <glyph glyph-name="Cdotaccent" unicode="&#x10a;" horiz-adv-x="731" 
d="M685 465l-152 0.00292969c-10.667 79.333 -62.667 119 -156 119c-8.66699 0 -17 -0.666992 -25 -2s-18.833 -4.16602 -32.5 -8.49902s-25.834 -11.833 -36.501 -22.5s-21.167 -24.334 -31.5 -41.001s-18.5 -39.334 -24.5 -68.001s-9 -61.667 -9 -99
c0 -68 15 -122.833 45 -164.5s72.333 -62.5 127 -62.5c26 0 48.5 4.16699 67.5 12.5s33.833 19.666 44.5 33.999s18.5 28.166 23.5 41.499s8.83301 27.666 11.5 42.999h164c-2.66699 -24 -7.16699 -46.833 -13.5 -68.5s-17 -45.167 -32 -70.5s-33.667 -47 -56 -65
s-52.166 -33 -89.499 -45s-79.666 -18 -126.999 -18s-90.5 6 -129.5 18s-75 31.333 -108 58s-58.833 64.167 -77.5 112.5s-28 105.833 -28 172.5c0 50 4.66699 95.167 14 135.5s21 73.333 35 99s31.333 48 52 67s40.167 33.333 58.5 43s38.666 17.334 60.999 23.001
s40 9 53 10s26.5 1.5 40.5 1.5c92 0 157 -26.667 195 -80v60h136v-235zM284 766.003v106h165v-106h-165z" />
    <glyph glyph-name="cdotaccent" unicode="&#x10b;" horiz-adv-x="597" 
d="M441 508h101.999v-181h-133c-8.66699 65.333 -41.667 98 -99 98c-78.667 0 -118 -53.667 -118 -161c0 -32 3 -59.833 9 -83.5s13.167 -41.5 21.5 -53.5s18.333 -21.5 30 -28.5s21.5 -11.333 29.5 -13s16 -2.5 24 -2.5c35.333 0 60.833 12 76.5 36s23.5 48.333 23.5 73
h150c-1.33301 -22.667 -6.16602 -45 -14.499 -67s-21.333 -44.5 -39 -67.5s-43.5 -41.5 -77.5 -55.5s-74 -21 -120 -21c-84 0 -150.167 23.5 -198.5 70.5s-72.5 114.167 -72.5 201.5c0 82.667 21.333 149 64 199s106.667 75 192 75c66.667 0 116.667 -23 150 -69v50z
M218.999 581v119h158v-119h-158z" />
    <glyph glyph-name="Ccaron" unicode="&#x10c;" horiz-adv-x="731" 
d="M685 465l-152 0.00292969c-10.667 79.333 -62.667 119 -156 119c-8.66699 0 -17 -0.666992 -25 -2s-18.833 -4.16602 -32.5 -8.49902s-25.834 -11.833 -36.501 -22.5s-21.167 -24.334 -31.5 -41.001s-18.5 -39.334 -24.5 -68.001s-9 -61.667 -9 -99
c0 -68 15 -122.833 45 -164.5s72.333 -62.5 127 -62.5c26 0 48.5 4.16699 67.5 12.5s33.833 19.666 44.5 33.999s18.5 28.166 23.5 41.499s8.83301 27.666 11.5 42.999h164c-2.66699 -24 -7.16699 -46.833 -13.5 -68.5s-17 -45.167 -32 -70.5s-33.667 -47 -56 -65
s-52.166 -33 -89.499 -45s-79.666 -18 -126.999 -18s-90.5 6 -129.5 18s-75 31.333 -108 58s-58.833 64.167 -77.5 112.5s-28 105.833 -28 172.5c0 50 4.66699 95.167 14 135.5s21 73.333 35 99s31.333 48 52 67s40.167 33.333 58.5 43s38.666 17.334 60.999 23.001
s40 9 53 10s26.5 1.5 40.5 1.5c92 0 157 -26.667 195 -80v60h136v-235zM366 792.003l92 92h135l-113 -132h-228l-113 132h135z" />
    <glyph glyph-name="ccaron" unicode="&#x10d;" horiz-adv-x="597" 
d="M441 508h101.999v-181h-133c-8.66699 65.333 -41.667 98 -99 98c-78.667 0 -118 -53.667 -118 -161c0 -32 3 -59.833 9 -83.5s13.167 -41.5 21.5 -53.5s18.333 -21.5 30 -28.5s21.5 -11.333 29.5 -13s16 -2.5 24 -2.5c35.333 0 60.833 12 76.5 36s23.5 48.333 23.5 73
h150c-1.33301 -22.667 -6.16602 -45 -14.499 -67s-21.333 -44.5 -39 -67.5s-43.5 -41.5 -77.5 -55.5s-74 -21 -120 -21c-84 0 -150.167 23.5 -198.5 70.5s-72.5 114.167 -72.5 201.5c0 82.667 21.333 149 64 199s106.667 75 192 75c66.667 0 116.667 -23 150 -69v50z
M294.999 608l92 92h119l-111 -132h-200l-111 132h119z" />
    <glyph glyph-name="Dcaron" unicode="&#x10e;" horiz-adv-x="800" 
d="M50 564l-0.000976562 136h363c14.667 0 28.334 -0.333008 41.001 -1s31.5 -3.33398 56.5 -8.00098s47.5 -11.167 67.5 -19.5s42 -21.166 66 -38.499s43.833 -37.666 59.5 -60.999s29 -53.833 40 -91.5s16.5 -79.834 16.5 -126.501c0 -45.333 -4.83301 -86.5 -14.5 -123.5
s-22 -67.5 -37 -91.5s-33.5 -45 -55.5 -63s-43.5 -31.667 -64.5 -41s-44.333 -16.833 -70 -22.5s-47.167 -9.16699 -64.5 -10.5s-36 -2 -56 -2h-348v136h67v428h-67zM281.999 564v-428h100c133.333 0 200 71.667 200 215c0 142 -63.333 213 -190 213h-110zM371.999 792
l92 92h135l-113 -132h-228l-113 132h135z" />
    <glyph glyph-name="dcaron" unicode="&#x10f;" horiz-adv-x="801" 
d="M361 598v102h213v-598h61v-102h-213v61h-2c-26.667 -28.667 -51.167 -49.167 -73.5 -61.5s-49.166 -18.5 -80.499 -18.5c-70.667 0 -126.834 25.167 -168.501 75.5s-62.5 116.833 -62.5 199.5c0 80.667 21 146 63 196s99 75 171 75c27.333 0 55.5 -6.33301 84.5 -19
s51.833 -29.667 68.5 -51v141h-61zM430 254c0 55.333 -10.333 97.666 -31 126.999s-50 44 -88 44c-40 0 -69.667 -16.333 -89 -49s-29 -73.334 -29 -122.001c0 -53.333 10.667 -95.166 32 -125.499s50 -45.5 86 -45.5c34 0 62.333 13.833 85 41.5s34 70.834 34 129.501z
M631 553l-0.00195312 147h154v-147c0 -12.667 -0.166992 -23 -0.5 -31s-3.16602 -20.833 -8.49902 -38.5s-12.833 -32.167 -22.5 -43.5s-25.167 -22.333 -46.5 -33s-46.666 -17 -75.999 -19v73c22 0 40.833 7.33301 56.5 22s23.5 36 23.5 64v6h-80z" />
    <glyph glyph-name="Dcroat" unicode="&#x110;" horiz-adv-x="800" 
d="M50 564l-0.000976562 136h363c14.667 0 28.334 -0.333008 41.001 -1s31.5 -3.33398 56.5 -8.00098s47.5 -11.167 67.5 -19.5s42 -21.166 66 -38.499s43.833 -37.666 59.5 -60.999s29 -53.833 40 -91.5s16.5 -79.834 16.5 -126.501c0 -45.333 -4.83301 -86.5 -14.5 -123.5
s-22 -67.5 -37 -91.5s-33.5 -45 -55.5 -63s-43.5 -31.667 -64.5 -41s-44.333 -16.833 -70 -22.5s-47.167 -9.16699 -64.5 -10.5s-36 -2 -56 -2h-348v136h67v187h-89v86h89v155h-67zM281.999 564v-155h168v-86h-168v-187h100c133.333 0 200 71.667 200 215
c0 142 -63.333 213 -190 213h-110z" />
    <glyph glyph-name="dslash" unicode="&#x111;" horiz-adv-x="672" 
d="M361 628l-0.00195312 72h213v-102h86v-58h-86v-438h61v-102h-213v61h-2c-26.667 -28.667 -51.167 -49.167 -73.5 -61.5s-49.166 -18.5 -80.499 -18.5c-71.333 0 -127.666 23.833 -168.999 71.5s-62 112.167 -62 193.5c0 80 21 143.5 63 190.5s99 70.5 171 70.5
c27.333 0 55.5 -6.33301 84.5 -19s51.833 -29.667 68.5 -51v103h-196v58h196v30h-61zM429.998 244c0 107.333 -39.667 161 -119 161c-40 0 -69.667 -15 -89 -45s-29 -68.667 -29 -116c0 -52.667 10.5 -92.667 31.5 -120s49.833 -41 86.5 -41c34.667 0 63.167 12.333 85.5 37
s33.5 66 33.5 124z" />
    <glyph glyph-name="Emacron" unicode="&#x112;" horiz-adv-x="715" 
d="M671 465h-136v99h-253v-142h214v-129h-214v-157h267v135h136v-271h-635v136h67v428h-67v136h621v-235zM181 760v86h384v-86h-384z" />
    <glyph glyph-name="emacron" unicode="&#x113;" horiz-adv-x="616" 
d="M418 147h154.001c-30.667 -110.667 -118.667 -166 -264 -166c-18.667 0 -37 1 -55 3s-41.167 8.33301 -69.5 19s-52.5 25 -72.5 43s-37.667 45 -53 81s-23 78.667 -23 128c0 86.667 25.667 153.667 77 201s119.666 71 204.999 71c72 0 128 -17 168 -51
s67 -76.667 81 -128c9.33301 -32 14 -75.667 14 -131h-387c0 -32.667 9.5 -63.167 28.5 -91.5s50.167 -42.5 93.5 -42.5c24 0 45.667 5.33301 65 16s32 26.667 38 48zM193.001 302l231.999 -0.00195312c-0.666992 25.333 -4.66699 46.833 -12 64.5s-17 30.334 -29 38.001
s-23.167 13 -33.5 16s-21.166 4.5 -32.499 4.5c-40.667 0 -71.167 -12.667 -91.5 -38s-31.5 -53.666 -33.5 -84.999zM118 599.998v86h384v-86h-384z" />
    <glyph glyph-name="Edotaccent" unicode="&#x116;" horiz-adv-x="715" 
d="M671 465h-136v99h-253v-142h214v-129h-214v-157h267v135h136v-271h-635v136h67v428h-67v136h621v-235zM288 766v106h165v-106h-165z" />
    <glyph glyph-name="edotaccent" unicode="&#x117;" horiz-adv-x="616" 
d="M418 147h154.001c-30.667 -110.667 -118.667 -166 -264 -166c-18.667 0 -37 1 -55 3s-41.167 8.33301 -69.5 19s-52.5 25 -72.5 43s-37.667 45 -53 81s-23 78.667 -23 128c0 86.667 25.667 153.667 77 201s119.666 71 204.999 71c72 0 128 -17 168 -51
s67 -76.667 81 -128c9.33301 -32 14 -75.667 14 -131h-387c0 -32.667 9.5 -63.167 28.5 -91.5s50.167 -42.5 93.5 -42.5c24 0 45.667 5.33301 65 16s32 26.667 38 48zM193.001 302l231.999 -0.00195312c-0.666992 25.333 -4.66699 46.833 -12 64.5s-17 30.334 -29 38.001
s-23.167 13 -33.5 16s-21.166 4.5 -32.499 4.5c-40.667 0 -71.167 -12.667 -91.5 -38s-31.5 -53.666 -33.5 -84.999zM230 580.998v119h158v-119h-158z" />
    <glyph glyph-name="Eogonek" unicode="&#x118;" horiz-adv-x="715" 
d="M535 0h-484.999v136h67v428h-67v136h621v-235h-136v99h-253v-142h214v-129h-214v-157h267v135h136v-271h-47c-50.667 -40 -76 -84 -76 -132c0 -22 4.83301 -40 14.5 -54s24.167 -21 43.5 -21c15.333 0 27.5 4.66699 36.5 14s14.667 18.333 17 27s3.5 17 3.5 25h95
c-2.66699 -44 -18.334 -79.333 -47.001 -106s-65.667 -40 -111 -40c-48.667 0 -88.667 11.833 -120 35.5s-47 55.5 -47 95.5c0 60 29.333 112 88 156z" />
    <glyph glyph-name="eogonek" unicode="&#x119;" horiz-adv-x="616" 
d="M418 147l154.001 0.00195312c-28 -98.667 -102 -153.334 -222 -164.001c-34 -34 -51 -69.667 -51 -107c0 -20 4.5 -36.667 13.5 -50s22.833 -20 41.5 -20c19.333 0 33 7.16699 41 21.5s12 27.833 12 40.5h89c-2.66699 -40.667 -17.5 -73.667 -44.5 -99
s-61.5 -38 -103.5 -38c-46 0 -83.667 11.167 -113 33.5s-44 52.166 -44 89.499c0 47.333 21.333 91 64 131c-26 3.33301 -50.167 9.5 -72.5 18.5s-45.5 23 -69.5 42s-43 46.333 -57 82s-21 78.167 -21 127.5c0 86.667 25.667 153.667 77 201s119.666 71 204.999 71
c72 0 128 -17 168 -51s67 -76.667 81 -128c9.33301 -32 14 -75.667 14 -131h-387c0 -32.667 9.5 -63.167 28.5 -91.5s50.167 -42.5 93.5 -42.5c24 0 45.667 5.33301 65 16s32 26.667 38 48zM193.001 302.002l231.999 -0.00195312c-0.666992 25.333 -4.66699 46.833 -12 64.5
s-17 30.334 -29 38.001s-23.167 13 -33.5 16s-21.166 4.5 -32.499 4.5c-40.667 0 -71.167 -12.667 -91.5 -38s-31.5 -53.666 -33.5 -84.999z" />
    <glyph glyph-name="Ecaron" unicode="&#x11a;" horiz-adv-x="715" 
d="M671 465h-136v99h-253v-142h214v-129h-214v-157h267v135h136v-271h-635v136h67v428h-67v136h621v-235zM373 792l92 92h135l-113 -132h-228l-113 132h135z" />
    <glyph glyph-name="ecaron" unicode="&#x11b;" horiz-adv-x="616" 
d="M418 147h154.001c-30.667 -110.667 -118.667 -166 -264 -166c-18.667 0 -37 1 -55 3s-41.167 8.33301 -69.5 19s-52.5 25 -72.5 43s-37.667 45 -53 81s-23 78.667 -23 128c0 86.667 25.667 153.667 77 201s119.666 71 204.999 71c72 0 128 -17 168 -51
s67 -76.667 81 -128c9.33301 -32 14 -75.667 14 -131h-387c0 -32.667 9.5 -63.167 28.5 -91.5s50.167 -42.5 93.5 -42.5c24 0 45.667 5.33301 65 16s32 26.667 38 48zM193.001 302l231.999 -0.00195312c-0.666992 25.333 -4.66699 46.833 -12 64.5s-17 30.334 -29 38.001
s-23.167 13 -33.5 16s-21.166 4.5 -32.499 4.5c-40.667 0 -71.167 -12.667 -91.5 -38s-31.5 -53.666 -33.5 -84.999zM310 607.998l92 92h119l-111 -132h-200l-111 132h119z" />
    <glyph glyph-name="Gcircumflex" unicode="&#x11c;" horiz-adv-x="801" 
d="M714 465l-146.003 -0.00195312c-2.66699 23.333 -17.5 49 -44.5 77s-65.5 42 -115.5 42c-26 0 -49.5 -3.83301 -70.5 -11.5s-38 -17 -51 -28s-24.167 -25 -33.5 -42s-16.166 -32 -20.499 -45s-7.66602 -28.5 -9.99902 -46.5s-3.66602 -30.5 -3.99902 -37.5
s-0.5 -15.833 -0.5 -26.5c0 -14 0.5 -27.667 1.5 -41s5 -32.5 12 -57.5s16.333 -46.333 28 -64s30 -33.5 55 -47.5s54.5 -21 88.5 -21c40 0 75.833 11.667 107.5 35s49.5 57.333 53.5 102h-138v127h355v-127h-59v-253h-123v75h-2c-43.333 -63.333 -115 -95 -215 -95
c-57.333 0 -107.666 8.83301 -150.999 26.5s-76.833 39.5 -100.5 65.5s-42.667 56.833 -57 92.5s-23.5 68 -27.5 97s-6 59.167 -6 90.5s2.83301 62.5 8.5 93.5s16.5 63.333 32.5 97s36.167 63.334 60.5 89.001s57.166 46.834 98.499 63.501s88.333 25 141 25
c89.333 0 155.333 -27 198 -81v61h135v-235zM391.997 857.998l-92 -92h-135l113 132h228l113 -132h-135z" />
    <glyph glyph-name="gcircumflex" unicode="&#x11d;" horiz-adv-x="673" 
d="M72 -40l148 0.000976562c9.33301 -38 42.333 -57 99 -57c22 0 40.667 4.33301 56 13s26 20.167 32 34.5s10.167 27.166 12.5 38.499s3.5 23 3.5 35v50h-4c-41.333 -41.333 -92 -62 -152 -62c-65.333 0 -120.333 20.5 -165 61.5s-67 102.5 -67 184.5
c0 84 20.833 149.833 62.5 197.5s98.834 71.5 171.501 71.5c67.333 0 117.666 -25 150.999 -75h3v56h213v-102h-61v-359c0 -164 -85.667 -246 -257 -246c-146 0 -228 53 -246 159zM310 114.001c14.667 0 27.8311 1.6709 39.498 5.00391s23.834 9.66602 36.501 18.999
s22.667 24.833 30 46.5s11 48.5 11 80.5c0 50 -10.667 89.167 -32 117.5s-50 42.5 -86 42.5c-23.333 0 -43.333 -5.83301 -60 -17.5s-28.667 -26.5 -36 -44.5s-12.5 -34.833 -15.5 -50.5s-4.5 -30.834 -4.5 -45.501c0 -16.667 1.33301 -32.334 4 -47.001
s7.66699 -30.834 15 -48.501s19.333 -31.667 36 -42s37.334 -15.5 62.001 -15.5zM316.997 660.005l-92 -92h-119l111 132h200l111 -132h-119z" />
    <glyph glyph-name="Gbreve" unicode="&#x11e;" horiz-adv-x="801" 
d="M714 465l-146.003 -0.00195312c-2.66699 23.333 -17.5 49 -44.5 77s-65.5 42 -115.5 42c-26 0 -49.5 -3.83301 -70.5 -11.5s-38 -17 -51 -28s-24.167 -25 -33.5 -42s-16.166 -32 -20.499 -45s-7.66602 -28.5 -9.99902 -46.5s-3.66602 -30.5 -3.99902 -37.5
s-0.5 -15.833 -0.5 -26.5c0 -14 0.5 -27.667 1.5 -41s5 -32.5 12 -57.5s16.333 -46.333 28 -64s30 -33.5 55 -47.5s54.5 -21 88.5 -21c40 0 75.833 11.667 107.5 35s49.5 57.333 53.5 102h-138v127h355v-127h-59v-253h-123v75h-2c-43.333 -63.333 -115 -95 -215 -95
c-57.333 0 -107.666 8.83301 -150.999 26.5s-76.833 39.5 -100.5 65.5s-42.667 56.833 -57 92.5s-23.5 68 -27.5 97s-6 59.167 -6 90.5s2.83301 62.5 8.5 93.5s16.5 63.333 32.5 97s36.167 63.334 60.5 89.001s57.166 46.834 98.499 63.501s88.333 25 141 25
c89.333 0 155.333 -27 198 -81v61h135v-235zM149.997 910.998l144.002 -0.00292969c0 -18 6.66699 -33.333 20 -46s35.333 -19 66 -19c30 0 51.833 6.33301 65.5 19s20.5 28 20.5 46h144c-0.666992 -26 -7.33398 -48.667 -20.001 -68s-27.334 -34 -44.001 -44
s-36.334 -18.167 -59.001 -24.5s-42.167 -10.333 -58.5 -12s-32.5 -2.5 -48.5 -2.5c-19.333 0 -38 1 -56 3s-37.5 6.33301 -58.5 13s-39.5 15.334 -55.5 26.001s-29.667 25.334 -41 44.001s-17.666 40.334 -18.999 65.001z" />
    <glyph glyph-name="gbreve" unicode="&#x11f;" horiz-adv-x="673" 
d="M72 -40l148 0.000976562c9.33301 -38 42.333 -57 99 -57c22 0 40.667 4.33301 56 13s26 20.167 32 34.5s10.167 27.166 12.5 38.499s3.5 23 3.5 35v50h-4c-41.333 -41.333 -92 -62 -152 -62c-65.333 0 -120.333 20.5 -165 61.5s-67 102.5 -67 184.5
c0 84 20.833 149.833 62.5 197.5s98.834 71.5 171.501 71.5c67.333 0 117.666 -25 150.999 -75h3v56h213v-102h-61v-359c0 -164 -85.667 -246 -257 -246c-146 0 -228 53 -246 159zM310 114.001c14.667 0 27.8311 1.6709 39.498 5.00391s23.834 9.66602 36.501 18.999
s22.667 24.833 30 46.5s11 48.5 11 80.5c0 50 -10.667 89.167 -32 117.5s-50 42.5 -86 42.5c-23.333 0 -43.333 -5.83301 -60 -17.5s-28.667 -26.5 -36 -44.5s-12.5 -34.833 -15.5 -50.5s-4.5 -30.834 -4.5 -45.501c0 -16.667 1.33301 -32.334 4 -47.001
s7.66699 -30.834 15 -48.501s19.333 -31.667 36 -42s37.334 -15.5 62.001 -15.5zM93.9971 700.005l127.002 -0.00195312c0 -14.667 5 -26.667 15 -36s20.167 -15.166 30.5 -17.499s20.833 -3.5 31.5 -3.5c21.333 0 39.666 5.33301 54.999 16s22.333 24.334 21 41.001h128
c-3.33301 -37.333 -21 -70.5 -53 -99.5s-82.333 -43.5 -151 -43.5s-119.834 14.833 -153.501 44.5s-50.5 62.5 -50.5 98.5z" />
    <glyph glyph-name="Gdotaccent" unicode="&#x120;" horiz-adv-x="801" 
d="M714 465l-146.003 -0.00195312c-2.66699 23.333 -17.5 49 -44.5 77s-65.5 42 -115.5 42c-26 0 -49.5 -3.83301 -70.5 -11.5s-38 -17 -51 -28s-24.167 -25 -33.5 -42s-16.166 -32 -20.499 -45s-7.66602 -28.5 -9.99902 -46.5s-3.66602 -30.5 -3.99902 -37.5
s-0.5 -15.833 -0.5 -26.5c0 -14 0.5 -27.667 1.5 -41s5 -32.5 12 -57.5s16.333 -46.333 28 -64s30 -33.5 55 -47.5s54.5 -21 88.5 -21c40 0 75.833 11.667 107.5 35s49.5 57.333 53.5 102h-138v127h355v-127h-59v-253h-123v75h-2c-43.333 -63.333 -115 -95 -215 -95
c-57.333 0 -107.666 8.83301 -150.999 26.5s-76.833 39.5 -100.5 65.5s-42.667 56.833 -57 92.5s-23.5 68 -27.5 97s-6 59.167 -6 90.5s2.83301 62.5 8.5 93.5s16.5 63.333 32.5 97s36.167 63.334 60.5 89.001s57.166 46.834 98.499 63.501s88.333 25 141 25
c89.333 0 155.333 -27 198 -81v61h135v-235zM313.997 765.998v106h165v-106h-165z" />
    <glyph glyph-name="gdotaccent" unicode="&#x121;" horiz-adv-x="673" 
d="M72 -40l148 0.000976562c9.33301 -38 42.333 -57 99 -57c22 0 40.667 4.33301 56 13s26 20.167 32 34.5s10.167 27.166 12.5 38.499s3.5 23 3.5 35v50h-4c-41.333 -41.333 -92 -62 -152 -62c-65.333 0 -120.333 20.5 -165 61.5s-67 102.5 -67 184.5
c0 84 20.833 149.833 62.5 197.5s98.834 71.5 171.501 71.5c67.333 0 117.666 -25 150.999 -75h3v56h213v-102h-61v-359c0 -164 -85.667 -246 -257 -246c-146 0 -228 53 -246 159zM310 114.001c14.667 0 27.8311 1.6709 39.498 5.00391s23.834 9.66602 36.501 18.999
s22.667 24.833 30 46.5s11 48.5 11 80.5c0 50 -10.667 89.167 -32 117.5s-50 42.5 -86 42.5c-23.333 0 -43.333 -5.83301 -60 -17.5s-28.667 -26.5 -36 -44.5s-12.5 -34.833 -15.5 -50.5s-4.5 -30.834 -4.5 -45.501c0 -16.667 1.33301 -32.334 4 -47.001
s7.66699 -30.834 15 -48.501s19.333 -31.667 36 -42s37.334 -15.5 62.001 -15.5zM256.997 581.005v119h158v-119h-158z" />
    <glyph glyph-name="Gcommaaccent" unicode="&#x122;" horiz-adv-x="801" 
d="M714 465l-146.003 -0.00195312c-2.66699 23.333 -17.5 49 -44.5 77s-65.5 42 -115.5 42c-26 0 -49.5 -3.83301 -70.5 -11.5s-38 -17 -51 -28s-24.167 -25 -33.5 -42s-16.166 -32 -20.499 -45s-7.66602 -28.5 -9.99902 -46.5s-3.66602 -30.5 -3.99902 -37.5
s-0.5 -15.833 -0.5 -26.5c0 -14 0.5 -27.667 1.5 -41s5 -32.5 12 -57.5s16.333 -46.333 28 -64s30 -33.5 55 -47.5s54.5 -21 88.5 -21c40 0 75.833 11.667 107.5 35s49.5 57.333 53.5 102h-138v127h355v-127h-59v-253h-123v75h-2c-43.333 -63.333 -115 -95 -215 -95
c-57.333 0 -107.666 8.83301 -150.999 26.5s-76.833 39.5 -100.5 65.5s-42.667 56.833 -57 92.5s-23.5 68 -27.5 97s-6 59.167 -6 90.5s2.83301 62.5 8.5 93.5s16.5 63.333 32.5 97s36.167 63.334 60.5 89.001s57.166 46.834 98.499 63.501s88.333 25 141 25
c89.333 0 155.333 -27 198 -81v61h135v-235zM321.997 -176.002v119h181v-96c0 -52.667 -19 -92 -57 -118c-27.333 -19.333 -68.666 -29 -123.999 -29v78c25.333 0 43.666 2.66699 54.999 8c18 8 27 19.333 27 34v4h-82z" />
    <glyph glyph-name="gcommaaccent" unicode="&#x123;" horiz-adv-x="673" 
d="M72 -40l148 0.000976562c9.33301 -38 42.333 -57 99 -57c22 0 40.667 4.33301 56 13s26 20.167 32 34.5s10.167 27.166 12.5 38.499s3.5 23 3.5 35v50h-4c-41.333 -41.333 -92 -62 -152 -62c-65.333 0 -120.333 20.5 -165 61.5s-67 102.5 -67 184.5
c0 84 20.833 149.833 62.5 197.5s98.834 71.5 171.501 71.5c67.333 0 117.666 -25 150.999 -75h3v56h213v-102h-61v-359c0 -164 -85.667 -246 -257 -246c-146 0 -228 53 -246 159zM310 114.001c14.667 0 27.8311 1.6709 39.498 5.00391s23.834 9.66602 36.501 18.999
s22.667 24.833 30 46.5s11 48.5 11 80.5c0 50 -10.667 89.167 -32 117.5s-50 42.5 -86 42.5c-23.333 0 -43.333 -5.83301 -60 -17.5s-28.667 -26.5 -36 -44.5s-12.5 -34.833 -15.5 -50.5s-4.5 -30.834 -4.5 -45.501c0 -16.667 1.33301 -32.334 4 -47.001
s7.66699 -30.834 15 -48.501s19.333 -31.667 36 -42s37.334 -15.5 62.001 -15.5zM401.997 713.005v-109h-155v99c0 40.667 13.667 74 41 100c22.667 20 60.667 31.333 114 34v-65c-52 0 -78 -18.333 -78 -55v-4h78z" />
    <glyph glyph-name="Hcircumflex" unicode="&#x124;" horiz-adv-x="832" 
d="M485 0v136h65v168h-268v-168h65v-136h-297v136h67v428h-67v136h297v-136h-65v-132h268v132h-65v136h297v-136h-67v-428h67v-136h-297zM411 858l-92 -92h-135l113 132h228l113 -132h-135z" />
    <glyph glyph-name="hcircumflex" unicode="&#x125;" horiz-adv-x="688" 
d="M37 598l-0.00195312 102.001h213v-247c42 49.333 99.333 74 172 74c112 0 168 -69.333 168 -208v-217h61v-102h-271v102h58v192c0 87.333 -28.667 131 -86 131c-23.333 0 -42.666 -6 -57.999 -18s-25.666 -27.333 -30.999 -46s-8.83301 -33.334 -10.5 -44.001
s-2.5 -21 -2.5 -31v-184h58v-102h-271v102h61v496h-61zM168.998 874.001l-92 -92h-119l111 132h200l111 -132h-119z" />
    <glyph glyph-name="Hbar" unicode="&#x126;" horiz-adv-x="842" 
d="M490 0v136h65v157h-268v-157h65v-136h-297v136h67v322h-67v70h67v56h-67v116h297v-116h-65v-56h268v56h-65v116h297v-116h-67v-56h67v-70h-67v-322h67v-136h-297zM287 398h268v60h-268v-60z" />
    <glyph glyph-name="hbar" unicode="&#x127;" horiz-adv-x="688" 
d="M37 628l-0.00195312 72.001h213v-117h218v-60h-218v-110c42 49.333 99.333 74 172 74c112 0 168 -69.333 168 -208v-177h61v-102h-271v102h58v152c0 87.333 -28.667 131 -86 131c-23.333 0 -42.666 -6 -57.999 -18s-25.666 -27.333 -30.999 -46
s-8.83301 -33.334 -10.5 -44.001s-2.5 -21 -2.5 -31v-144h58v-102h-271v102h61v421h-79v60h79v45h-61z" />
    <glyph glyph-name="Imacron" unicode="&#x12a;" horiz-adv-x="399" 
d="M50 564v136h299v-136h-67v-428h67v-136h-299v136h67v428h-67zM9 760v86h384v-86h-384z" />
    <glyph glyph-name="imacron" unicode="&#x12b;" horiz-adv-x="348" 
d="M37 406v102h213v-406h61v-102h-274v102h61v304h-61zM-33 600v86h384v-86h-384z" />
    <glyph glyph-name="Iogonek" unicode="&#x12e;" horiz-adv-x="399" 
d="M161 0h-110.999v136h67v428h-67v136h299v-136h-67v-428h67v-136h-85c-50.667 -40 -76 -84 -76 -132c0 -22 4.83301 -40 14.5 -54s24.167 -21 43.5 -21c15.333 0 27.5 4.66699 36.5 14s14.667 18.333 17 27s3.5 17 3.5 25h95c-2.66699 -44 -18.334 -79.333 -47.001 -106
s-65.667 -40 -111 -40c-48.667 0 -88.667 11.833 -120 35.5s-47 55.5 -47 95.5c0 60 29.333 112 88 156z" />
    <glyph glyph-name="iogonek" unicode="&#x12f;" horiz-adv-x="348" 
d="M133 0l-96 0.000976562v102h61v304h-61v102h213v-406h61v-102h-82c-47.333 -38.667 -71 -80 -71 -124c0 -20 4.5 -36.667 13.5 -50s22.833 -20 41.5 -20c19.333 0 33 7.16699 41 21.5s12 27.833 12 40.5h89c-2.66699 -40.667 -17.5 -73.667 -44.5 -99
s-61.5 -38 -103.5 -38c-46 0 -83.667 11.167 -113 33.5s-44 52.166 -44 89.499c0 56 27.667 104.667 83 146zM61 581.001v119h189v-119h-189z" />
    <glyph glyph-name="Idot" unicode="&#x130;" horiz-adv-x="399" 
d="M50 564v136h299v-136h-67v-428h67v-136h-299v136h67v428h-67zM117 766v106h165v-106h-165z" />
    <glyph glyph-name="dotlessi" unicode="&#x131;" horiz-adv-x="348" 
d="M37 406v102h213v-406h61v-102h-274v102h61v304h-61z" />
    <glyph glyph-name="Jcircumflex" unicode="&#x134;" horiz-adv-x="625" 
d="M280 564l0.000976562 135.998h305v-136h-67v-311c0 -57.333 -7 -105.166 -21 -143.499s-33.667 -66.333 -59 -84s-50.333 -29.667 -75 -36s-53.334 -9.5 -86.001 -9.5c-50.667 0 -93.834 8 -129.501 24s-61.667 37 -78 63s-27.666 50.833 -33.999 74.5
s-9.5 47.834 -9.5 72.501v44h165v-28c0 -39.333 6.33301 -68.166 19 -86.499s34.667 -27.5 66 -27.5c30 0 50.333 9.16699 61 27.5s16 47.166 16 86.499v334h-73zM425.001 857.998l-92 -92h-135l113 132h228l113 -132h-135z" />
    <glyph glyph-name="jcircumflex" unicode="&#x135;" horiz-adv-x="331" 
d="M53 406l-0.00195312 102.002h213v-533c0 -25.333 -2.33301 -47.833 -7 -67.5s-11.334 -35.334 -20.001 -47.001s-17.5 -21.334 -26.5 -29.001s-19.667 -13 -32 -16s-22.666 -5 -30.999 -6s-18.166 -1.5 -29.499 -1.5c-42 0 -73.667 2.33301 -95 7v102
c6.66699 -1.33301 11.334 -2 14.001 -2c17.333 0 31.5 2 42.5 6s18.667 10.167 23 18.5s7 15.833 8 22.5s1.5 16 1.5 28v416h-61zM170.998 660.002l-92 -92h-119l111 132h200l111 -132h-119z" />
    <glyph glyph-name="Kcommaaccent" unicode="&#x136;" horiz-adv-x="725" 
d="M302 352l161 217h-51v131h290v-136h-60l-164 -199l192 -229h55v-136h-311v131h58zM282 569v-438h57v-131h-289v136h67v428h-67v136h289v-131h-57zM294 -176v119h181v-96c0 -52.667 -19 -92 -57 -118c-27.333 -19.333 -68.666 -29 -123.999 -29v78
c25.333 0 43.666 2.66699 54.999 8c18 8 27 19.333 27 34v4h-82z" />
    <glyph glyph-name="kcommaaccent" unicode="&#x137;" horiz-adv-x="598" 
d="M37 598v102h213v-603h61v-97h-274v102h61v496h-61zM265 254l106 157h-26v97h230v-102h-57l-111 -137l123 -167h63v-102h-154zM255 -169v109h155v-99c0 -40.667 -13.667 -74 -41 -100c-22.667 -20 -60.667 -31.333 -114 -34v65c52 0 78 18.333 78 55v4h-78z" />
    <glyph glyph-name="Lacute" unicode="&#x139;" horiz-adv-x="625" 
d="M50 564v136h299v-136h-67v-428h192v138h136v-274h-560v136h67v428h-67zM216 885h160l-106 -132h-123z" />
    <glyph glyph-name="lacute" unicode="&#x13a;" horiz-adv-x="348" 
d="M37 598v102h213v-598h61v-102h-274v102h61v496h-61zM178 892h160l-106 -132h-123z" />
    <glyph glyph-name="Lcommaaccent" unicode="&#x13b;" horiz-adv-x="625" 
d="M50 564v136h299v-136h-67v-428h192v138h136v-274h-560v136h67v428h-67zM241 -176v119h181v-96c0 -52.667 -19 -92 -57 -118c-27.333 -19.333 -68.666 -29 -123.999 -29v78c25.333 0 43.666 2.66699 54.999 8c18 8 27 19.333 27 34v4h-82z" />
    <glyph glyph-name="lcommaaccent" unicode="&#x13c;" horiz-adv-x="348" 
d="M37 598v102h213v-598h61v-102h-274v102h61v496h-61zM97 -169v109h155v-99c0 -40.667 -13.667 -74 -41 -100c-22.667 -20 -60.667 -31.333 -114 -34v65c52 0 78 18.333 78 55v4h-78z" />
    <glyph glyph-name="Lcaron" unicode="&#x13d;" horiz-adv-x="625" 
d="M50 564v136h299v-136h-67v-428h192v138h136v-274h-560v136h67v428h-67zM433 542v157.996h165v-158c0 -13.333 -0.166992 -24.166 -0.5 -32.499s-3.33301 -22.166 -9 -41.499s-13.667 -35.166 -24 -47.499s-26.833 -24.166 -49.5 -35.499s-50 -18 -82 -20v79
c23.333 0 43.5 8 60.5 24s25.5 38.667 25.5 68v6h-86z" />
    <glyph glyph-name="lcaron" unicode="&#x13e;" horiz-adv-x="477" 
d="M37 598v102h213v-598h61v-102h-274v102h61v496h-61zM307 553l-0.00195312 147h154v-147c0 -12.667 -0.166992 -23 -0.5 -31s-3.16602 -20.833 -8.49902 -38.5s-12.833 -32.167 -22.5 -43.5s-25.167 -22.333 -46.5 -33s-46.666 -17 -75.999 -19v73
c22 0 40.833 7.33301 56.5 22s23.5 36 23.5 64v6h-80z" />
    <glyph glyph-name="Ldot" unicode="&#x13f;" horiz-adv-x="625" 
d="M50 564v136h299v-136h-67v-428h192v138h136v-274h-560v136h67v428h-67zM449 357v137h144v-137h-144z" />
    <glyph glyph-name="ldot" unicode="&#x140;" horiz-adv-x="507" 
d="M37 598v102h213v-598h61v-102h-274v102h61v496h-61zM352 325v130h137v-130h-137z" />
    <glyph glyph-name="Lslash" unicode="&#x141;" horiz-adv-x="625" 
d="M50 564v136h299v-136h-67v-86l133 92v-120l-133 -92v-222h192v138h136v-274h-560v136h67v109l-117 -80v120l117 80v199h-67z" />
    <glyph glyph-name="lslash" unicode="&#x142;" horiz-adv-x="348" 
d="M37 598v102h213v-254l128 82v-80l-128 -82v-264h61v-102h-274v102h61v167l-128 -81v80l128 81v249h-61z" />
    <glyph glyph-name="Nacute" unicode="&#x143;" horiz-adv-x="845" 
d="M502 564v136h293v-136h-67v-564h-168l-276 441h-2v-305h61v-136h-293v136h67v428h-67v136h234l276 -438h3v302h-61zM399 885h160l-106 -132h-123z" />
    <glyph glyph-name="nacute" unicode="&#x144;" horiz-adv-x="688" 
d="M37 406v102.002h207v-61c39.333 53.333 98 80 176 80c20.667 0 39.334 -2.16699 56.001 -6.5s34.5 -13 53.5 -26s33.833 -34.333 44.5 -64s16 -66.834 16 -111.501v-217h61v-102h-271v102h58v192c0 87.333 -28.667 131 -86 131c-16 0 -30.167 -2.83301 -42.5 -8.5
s-21.833 -13.334 -28.5 -23.001s-12.334 -19.5 -17.001 -29.5s-8 -21 -10 -33s-3.16699 -21 -3.5 -27s-0.5 -12 -0.5 -18v-184h58v-102h-271v102h61v304h-61zM339 700.002h160l-106 -132h-123z" />
    <glyph glyph-name="Ncommaaccent" unicode="&#x145;" horiz-adv-x="845" 
d="M502 564v136h293v-136h-67v-564h-168l-276 441h-2v-305h61v-136h-293v136h67v428h-67v136h234l276 -438h3v302h-61zM334 -176v119h181v-96c0 -52.667 -19 -92 -57 -118c-27.333 -19.333 -68.666 -29 -123.999 -29v78c25.333 0 43.666 2.66699 54.999 8
c18 8 27 19.333 27 34v4h-82z" />
    <glyph glyph-name="ncommaaccent" unicode="&#x146;" horiz-adv-x="688" 
d="M37 406v102.002h207v-61c39.333 53.333 98 80 176 80c20.667 0 39.334 -2.16699 56.001 -6.5s34.5 -13 53.5 -26s33.833 -34.333 44.5 -64s16 -66.834 16 -111.501v-217h61v-102h-271v102h58v192c0 87.333 -28.667 131 -86 131c-16 0 -30.167 -2.83301 -42.5 -8.5
s-21.833 -13.334 -28.5 -23.001s-12.334 -19.5 -17.001 -29.5s-8 -21 -10 -33s-3.16699 -21 -3.5 -27s-0.5 -12 -0.5 -18v-184h58v-102h-271v102h61v304h-61zM264 -168.998v109h155v-99c0 -40.667 -13.667 -74 -41 -100c-22.667 -20 -60.667 -31.333 -114 -34v65
c52 0 78 18.333 78 55v4h-78z" />
    <glyph glyph-name="Ncaron" unicode="&#x147;" horiz-adv-x="845" 
d="M502 564v136h293v-136h-67v-564h-168l-276 441h-2v-305h61v-136h-293v136h67v428h-67v136h234l276 -438h3v302h-61zM424 792l92 92h135l-113 -132h-228l-113 132h135z" />
    <glyph glyph-name="ncaron" unicode="&#x148;" horiz-adv-x="688" 
d="M37 406v102.002h207v-61c39.333 53.333 98 80 176 80c20.667 0 39.334 -2.16699 56.001 -6.5s34.5 -13 53.5 -26s33.833 -34.333 44.5 -64s16 -66.834 16 -111.501v-217h61v-102h-271v102h58v192c0 87.333 -28.667 131 -86 131c-16 0 -30.167 -2.83301 -42.5 -8.5
s-21.833 -13.334 -28.5 -23.001s-12.334 -19.5 -17.001 -29.5s-8 -21 -10 -33s-3.16699 -21 -3.5 -27s-0.5 -12 -0.5 -18v-184h58v-102h-271v102h61v304h-61zM344 608.002l92 92h119l-111 -132h-200l-111 132h119z" />
    <glyph glyph-name="Omacron" unicode="&#x14c;" horiz-adv-x="788" 
d="M394 -20c-53.333 0 -100.833 7.66699 -142.5 23s-75.5 35.333 -101.5 60s-47.5 53.5 -64.5 86.5s-28.833 66 -35.5 99s-10 66.833 -10 101.5s3.33301 68.5 10 101.5s18.5 66 35.5 99s38.5 61.833 64.5 86.5s59.833 44.667 101.5 60s89.167 23 142.5 23
c116 0 204 -33.833 264 -101.5s90 -157.167 90 -268.5s-30 -200.833 -90 -268.5s-148 -101.5 -264 -101.5zM394 116c32 0 59.5 6.50195 82.5 19.502s40.333 28 52 45s20.834 37.667 27.501 62s10.667 44.166 12 59.499s2 31.333 2 48c0 18 -0.666992 34.667 -2 50
s-5.33301 35.166 -12 59.499s-15.834 44.833 -27.501 61.5s-29 31.334 -52 44.001s-50.5 19 -82.5 19c-116.667 0 -175 -78 -175 -234c0 -84.667 16.167 -144.834 48.5 -180.501s74.5 -53.5 126.5 -53.5zM203 760.002v86h384v-86h-384z" />
    <glyph glyph-name="omacron" unicode="&#x14d;" horiz-adv-x="626" 
d="M313 -19c-83.333 0 -150.5 23.168 -201.5 69.501s-76.5 114.5 -76.5 204.5c0 48 7.66699 90.167 23 126.5s36.5 64.666 63.5 84.999s56.5 35.5 88.5 45.5s66.333 15 103 15c83.333 0 150.5 -23 201.5 -69s76.5 -113.667 76.5 -203c0 -90 -25.5 -158.167 -76.5 -204.5
s-118.167 -69.5 -201.5 -69.5zM313 83.001c80 0 120 57.333 120 172c0 113.333 -40 170 -120 170s-120 -56.667 -120 -170c0 -114.667 40 -172 120 -172zM122 600.001v86h384v-86h-384z" />
    <glyph glyph-name="Ohungarumlaut" unicode="&#x150;" horiz-adv-x="788" 
d="M394 -20c-53.333 0 -100.833 7.66699 -142.5 23s-75.5 35.333 -101.5 60s-47.5 53.5 -64.5 86.5s-28.833 66 -35.5 99s-10 66.833 -10 101.5s3.33301 68.5 10 101.5s18.5 66 35.5 99s38.5 61.833 64.5 86.5s59.833 44.667 101.5 60s89.167 23 142.5 23
c116 0 204 -33.833 264 -101.5s90 -157.167 90 -268.5s-30 -200.833 -90 -268.5s-148 -101.5 -264 -101.5zM394 116c32 0 59.5 6.50195 82.5 19.502s40.333 28 52 45s20.834 37.667 27.501 62s10.667 44.166 12 59.499s2 31.333 2 48c0 18 -0.666992 34.667 -2 50
s-5.33301 35.166 -12 59.499s-15.834 44.833 -27.501 61.5s-29 31.334 -52 44.001s-50.5 19 -82.5 19c-116.667 0 -175 -78 -175 -234c0 -84.667 16.167 -144.834 48.5 -180.501s74.5 -53.5 126.5 -53.5zM276 886.002h160l-106 -132h-123zM506 886.002h160l-106 -132h-123z
" />
    <glyph glyph-name="ohungarumlaut" unicode="&#x151;" horiz-adv-x="626" 
d="M313 -19c-83.333 0 -150.5 23.168 -201.5 69.501s-76.5 114.5 -76.5 204.5c0 48 7.66699 90.167 23 126.5s36.5 64.666 63.5 84.999s56.5 35.5 88.5 45.5s66.333 15 103 15c83.333 0 150.5 -23 201.5 -69s76.5 -113.667 76.5 -203c0 -90 -25.5 -158.167 -76.5 -204.5
s-118.167 -69.5 -201.5 -69.5zM313 83.001c80 0 120 57.333 120 172c0 113.333 -40 170 -120 170s-120 -56.667 -120 -170c0 -114.667 40 -172 120 -172zM209 700.001h160l-106 -132h-123zM425 700.001h160l-106 -132h-123z" />
    <glyph glyph-name="OE" unicode="&#x152;" horiz-adv-x="1131" 
d="M1087 465h-136v99h-253v-142h214v-129h-214v-157h267v135h136v-271h-558c-38 -13.333 -87.667 -20 -149 -20c-53.333 0 -100.833 7.66699 -142.5 23s-75.5 35.333 -101.5 60s-47.5 53.5 -64.5 86.5s-28.833 66 -35.5 99s-10 66.833 -10 101.5s3.33301 68.5 10 101.5
s18.5 66 35.5 99s38.5 61.833 64.5 86.5s59.833 44.667 101.5 60s89.167 23 142.5 23c54 0 103.667 -6.66699 149 -20h544v-235zM394 106c65.333 0 114.999 9.33496 148.999 28.002v432c-2.66699 0.666992 -10.167 3.16699 -22.5 7.5s-23 7.66602 -32 9.99902
s-22.167 4.66602 -39.5 6.99902s-35.666 3.5 -54.999 3.5c-51.333 0 -93.333 -19.167 -126 -57.5s-49 -100.5 -49 -186.5c0 -85.333 16.5 -147.333 49.5 -186s74.833 -58 125.5 -58z" />
    <glyph glyph-name="oe" unicode="&#x153;" horiz-adv-x="1014" 
d="M810 147l154.002 0.000976562c-5.33301 -35.333 -21.166 -66 -47.499 -92s-57.333 -44.833 -93 -56.5s-73.167 -17.5 -112.5 -17.5c-92 0 -158.667 29.333 -200 88c-38.667 -58.667 -104 -88 -196 -88c-83.333 0 -150.5 23.167 -201.5 69.5s-76.5 114.5 -76.5 204.5
c0 86 24.167 152.833 72.5 200.5s116.5 71.5 204.5 71.5c45.333 0 85.833 -8.5 121.5 -25.5s61.167 -41.167 76.5 -72.5c26 38.667 55.333 64.667 88 78s70 20 112 20c46 0 87 -8.66699 123 -26s64.167 -40.333 84.5 -69s35.166 -60.834 44.499 -96.501
s12.666 -73.167 9.99902 -112.5h-389c0 -15.333 1.83301 -30.333 5.5 -45s9.66699 -29.5 18 -44.5s21 -27.167 38 -36.5s37.167 -14 60.5 -14c55.333 0 89.666 21.333 102.999 64zM195.002 255.001c0 -114.667 40 -172 120 -172s120 57.333 120 172
c0 113.333 -40 170 -120 170s-120 -56.667 -120 -170zM585.002 302.001h232.001c2 30 -5.16699 58 -21.5 84s-44.833 39 -85.5 39c-72.667 0 -114.334 -41 -125.001 -123z" />
    <glyph glyph-name="Racute" unicode="&#x154;" horiz-adv-x="782" 
d="M546 0l-139.002 258h-125v-122h67v-136h-299v136h67v428h-67v136h399c30.667 0 60.334 -3.33301 89.001 -10s56.667 -17.5 84 -32.5s49.333 -37.167 66 -66.5s25 -64 25 -104c0 -41.333 -11.667 -81.5 -35 -120.5s-59.666 -67.167 -108.999 -84.5l85 -146h83v-136h-191z
M281.998 564l0.000976562 -178h140c41.333 0 71.166 9.33301 89.499 28s27.5 38.667 27.5 60c0 60 -41 90 -123 90h-134zM373.999 885h160l-106 -132h-123z" />
    <glyph glyph-name="racute" unicode="&#x155;" horiz-adv-x="461" 
d="M37 406v102h213v-83c32.667 68 92.334 102 179.001 102h18v-102c-4.66699 0.666992 -11.334 1 -20.001 1h-20c-49.333 0 -87.833 -15.667 -115.5 -47s-41.5 -88.333 -41.5 -171v-106h61v-102h-274v102h61v304h-61zM243 700h160l-106 -132h-123z" />
    <glyph glyph-name="Rcommaaccent" unicode="&#x156;" horiz-adv-x="782" 
d="M546 0l-139.002 258h-125v-122h67v-136h-299v136h67v428h-67v136h399c30.667 0 60.334 -3.33301 89.001 -10s56.667 -17.5 84 -32.5s49.333 -37.167 66 -66.5s25 -64 25 -104c0 -41.333 -11.667 -81.5 -35 -120.5s-59.666 -67.167 -108.999 -84.5l85 -146h83v-136h-191z
M281.998 564l0.000976562 -178h140c41.333 0 71.166 9.33301 89.499 28s27.5 38.667 27.5 60c0 60 -41 90 -123 90h-134zM328.999 -176v119h181v-96c0 -52.667 -19 -92 -57 -118c-27.333 -19.333 -68.666 -29 -123.999 -29v78c25.333 0 43.666 2.66699 54.999 8
c18 8 27 19.333 27 34v4h-82z" />
    <glyph glyph-name="rcommaaccent" unicode="&#x157;" horiz-adv-x="461" 
d="M37 406v102h213v-83c32.667 68 92.334 102 179.001 102h18v-102c-4.66699 0.666992 -11.334 1 -20.001 1h-20c-49.333 0 -87.833 -15.667 -115.5 -47s-41.5 -88.333 -41.5 -171v-106h61v-102h-274v102h61v304h-61zM97 -169v109h155v-99c0 -40.667 -13.667 -74 -41 -100
c-22.667 -20 -60.667 -31.333 -114 -34v65c52 0 78 18.333 78 55v4h-78z" />
    <glyph glyph-name="Rcaron" unicode="&#x158;" horiz-adv-x="782" 
d="M546 0l-139.002 258h-125v-122h67v-136h-299v136h67v428h-67v136h399c30.667 0 60.334 -3.33301 89.001 -10s56.667 -17.5 84 -32.5s49.333 -37.167 66 -66.5s25 -64 25 -104c0 -41.333 -11.667 -81.5 -35 -120.5s-59.666 -67.167 -108.999 -84.5l85 -146h83v-136h-191z
M281.998 564l0.000976562 -178h140c41.333 0 71.166 9.33301 89.499 28s27.5 38.667 27.5 60c0 60 -41 90 -123 90h-134zM359.999 792l92 92h135l-113 -132h-228l-113 132h135z" />
    <glyph glyph-name="rcaron" unicode="&#x159;" horiz-adv-x="461" 
d="M37 406v102h213v-83c32.667 68 92.334 102 179.001 102h18v-102c-4.66699 0.666992 -11.334 1 -20.001 1h-20c-49.333 0 -87.833 -15.667 -115.5 -47s-41.5 -88.333 -41.5 -171v-106h61v-102h-274v102h61v304h-61zM250 608l92 92h119l-111 -132h-200l-111 132h119z" />
    <glyph glyph-name="Sacute" unicode="&#x15a;" horiz-adv-x="675" 
d="M606 485h-148.002c-3.33301 25.333 -14.666 48.166 -33.999 68.499s-49.333 30.5 -90 30.5c-72 0 -108 -22.333 -108 -67c0 -14 4 -26.333 12 -37s19.833 -19.167 35.5 -25.5s29.834 -11 42.501 -14s28.667 -6.16699 48 -9.5c43.333 -8 78.833 -16.167 106.5 -24.5
s55.334 -20.333 83.001 -36s48.167 -36.5 61.5 -62.5s20 -57.667 20 -95c0 -11.333 -0.333008 -21.666 -1 -30.999s-2.83398 -22.5 -6.50098 -39.5s-8.83398 -32.167 -15.501 -45.5s-17 -27.666 -31 -42.999s-30.5 -28 -49.5 -38s-43.667 -18.5 -74 -25.5
s-64.166 -10.5 -101.499 -10.5s-73.333 6.5 -108 19.5s-62 32.5 -82 58.5v-58h-122v235h158c0 -12.667 1.83301 -25 5.5 -37s10.167 -24.667 19.5 -38s23.666 -24 42.999 -32s43 -12 71 -12c83.333 0 125 25 125 75c0 9.33301 -1.5 17.833 -4.5 25.5
s-6.5 14.334 -10.5 20.001s-10.5 11.167 -19.5 16.5s-16.5 9.5 -22.5 12.5s-15.5 6.33301 -28.5 10s-22.667 6.16699 -29 7.5l-32.5 7c-15.333 3.33301 -25.666 5.66602 -30.999 6.99902c-29.333 6 -53.666 12 -72.999 18s-39.833 14.5 -61.5 25.5
s-38.834 23.667 -51.501 38s-23.334 33.166 -32.001 56.499s-13 50 -13 80c0 38 9.16699 72.333 27.5 103s44.833 54.667 79.5 72c41.333 20 92 30 152 30c32.667 0 65.334 -6.66699 98.001 -20s56 -31 70 -53v53h122v-215zM309.998 885h160l-106 -132h-123z" />
    <glyph glyph-name="sacute" unicode="&#x15b;" horiz-adv-x="563" 
d="M394 508l109.002 -0.00292969v-150h-131c0 20.667 -9.83301 37 -29.5 49s-40.167 18 -61.5 18c-52.667 0 -79 -15.667 -79 -47c0 -10 2.83301 -18.667 8.5 -26s12.167 -13.166 19.5 -17.499s17.833 -8.5 31.5 -12.5s24.5 -6.66699 32.5 -8s19.667 -3 35 -5
c21.333 -3.33301 39.666 -6.66602 54.999 -9.99902s32.666 -8.83301 51.999 -16.5s35.166 -16.667 47.499 -27s22.833 -24.166 31.5 -41.499s13 -37.333 13 -60c0 -115.333 -79.667 -173 -239 -173c-62.667 0 -111 18.667 -145 56v-37h-109v160h149
c2.66699 -51.333 37.334 -77 104.001 -77c20.667 0 39.5 4.5 56.5 13.5s25.5 22.5 25.5 40.5c0 6.66699 -0.666992 12.667 -2 18s-4 10 -8 14s-7.5 7.66699 -10.5 11s-8.16699 6.33301 -15.5 9l-17.5 6.5c-4.33301 1.66699 -11.333 3.5 -21 5.5l-22 4.5
c-5 1 -13.333 2.5 -25 4.5s-19.834 3.33301 -24.501 4c-19.333 3.33301 -35.5 6.5 -48.5 9.5s-28.5 8.5 -46.5 16.5s-32.667 17.167 -44 27.5s-21 24.333 -29 42s-12 38.167 -12 61.5c0 104 69 156 207 156c64.667 0 112.334 -17.667 143.001 -53v34zM275.002 699.997h160
l-106 -132h-123z" />
    <glyph glyph-name="Scircumflex" unicode="&#x15c;" horiz-adv-x="675" 
d="M606 485h-148.002c-3.33301 25.333 -14.666 48.166 -33.999 68.499s-49.333 30.5 -90 30.5c-72 0 -108 -22.333 -108 -67c0 -14 4 -26.333 12 -37s19.833 -19.167 35.5 -25.5s29.834 -11 42.501 -14s28.667 -6.16699 48 -9.5c43.333 -8 78.833 -16.167 106.5 -24.5
s55.334 -20.333 83.001 -36s48.167 -36.5 61.5 -62.5s20 -57.667 20 -95c0 -11.333 -0.333008 -21.666 -1 -30.999s-2.83398 -22.5 -6.50098 -39.5s-8.83398 -32.167 -15.501 -45.5s-17 -27.666 -31 -42.999s-30.5 -28 -49.5 -38s-43.667 -18.5 -74 -25.5
s-64.166 -10.5 -101.499 -10.5s-73.333 6.5 -108 19.5s-62 32.5 -82 58.5v-58h-122v235h158c0 -12.667 1.83301 -25 5.5 -37s10.167 -24.667 19.5 -38s23.666 -24 42.999 -32s43 -12 71 -12c83.333 0 125 25 125 75c0 9.33301 -1.5 17.833 -4.5 25.5
s-6.5 14.334 -10.5 20.001s-10.5 11.167 -19.5 16.5s-16.5 9.5 -22.5 12.5s-15.5 6.33301 -28.5 10s-22.667 6.16699 -29 7.5l-32.5 7c-15.333 3.33301 -25.666 5.66602 -30.999 6.99902c-29.333 6 -53.666 12 -72.999 18s-39.833 14.5 -61.5 25.5
s-38.834 23.667 -51.501 38s-23.334 33.166 -32.001 56.499s-13 50 -13 80c0 38 9.16699 72.333 27.5 103s44.833 54.667 79.5 72c41.333 20 92 30 152 30c32.667 0 65.334 -6.66699 98.001 -20s56 -31 70 -53v53h122v-215zM334.998 858l-92 -92h-135l113 132h228l113 -132
h-135z" />
    <glyph glyph-name="scircumflex" unicode="&#x15d;" horiz-adv-x="563" 
d="M394 508l109.002 -0.00292969v-150h-131c0 20.667 -9.83301 37 -29.5 49s-40.167 18 -61.5 18c-52.667 0 -79 -15.667 -79 -47c0 -10 2.83301 -18.667 8.5 -26s12.167 -13.166 19.5 -17.499s17.833 -8.5 31.5 -12.5s24.5 -6.66699 32.5 -8s19.667 -3 35 -5
c21.333 -3.33301 39.666 -6.66602 54.999 -9.99902s32.666 -8.83301 51.999 -16.5s35.166 -16.667 47.499 -27s22.833 -24.166 31.5 -41.499s13 -37.333 13 -60c0 -115.333 -79.667 -173 -239 -173c-62.667 0 -111 18.667 -145 56v-37h-109v160h149
c2.66699 -51.333 37.334 -77 104.001 -77c20.667 0 39.5 4.5 56.5 13.5s25.5 22.5 25.5 40.5c0 6.66699 -0.666992 12.667 -2 18s-4 10 -8 14s-7.5 7.66699 -10.5 11s-8.16699 6.33301 -15.5 9l-17.5 6.5c-4.33301 1.66699 -11.333 3.5 -21 5.5l-22 4.5
c-5 1 -13.333 2.5 -25 4.5s-19.834 3.33301 -24.501 4c-19.333 3.33301 -35.5 6.5 -48.5 9.5s-28.5 8.5 -46.5 16.5s-32.667 17.167 -44 27.5s-21 24.333 -29 42s-12 38.167 -12 61.5c0 104 69 156 207 156c64.667 0 112.334 -17.667 143.001 -53v34zM281.002 659.997
l-92 -92h-119l111 132h200l111 -132h-119z" />
    <glyph glyph-name="Scedilla" unicode="&#x15e;" horiz-adv-x="675" 
d="M606 485h-148.002c-3.33301 25.333 -14.666 48.166 -33.999 68.499s-49.333 30.5 -90 30.5c-72 0 -108 -22.333 -108 -67c0 -14 4 -26.333 12 -37s19.833 -19.167 35.5 -25.5s29.834 -11 42.501 -14s28.667 -6.16699 48 -9.5c43.333 -8 78.833 -16.167 106.5 -24.5
s55.334 -20.333 83.001 -36s48.167 -36.5 61.5 -62.5s20 -57.667 20 -95c0 -11.333 -0.333008 -21.666 -1 -30.999s-2.83398 -22.5 -6.50098 -39.5s-8.83398 -32.167 -15.501 -45.5s-17 -27.666 -31 -42.999s-30.5 -28 -49.5 -38s-43.667 -18.5 -74 -25.5
s-64.166 -10.5 -101.499 -10.5s-73.333 6.5 -108 19.5s-62 32.5 -82 58.5v-58h-122v235h158c0 -12.667 1.83301 -25 5.5 -37s10.167 -24.667 19.5 -38s23.666 -24 42.999 -32s43 -12 71 -12c83.333 0 125 25 125 75c0 9.33301 -1.5 17.833 -4.5 25.5
s-6.5 14.334 -10.5 20.001s-10.5 11.167 -19.5 16.5s-16.5 9.5 -22.5 12.5s-15.5 6.33301 -28.5 10s-22.667 6.16699 -29 7.5l-32.5 7c-15.333 3.33301 -25.666 5.66602 -30.999 6.99902c-29.333 6 -53.666 12 -72.999 18s-39.833 14.5 -61.5 25.5
s-38.834 23.667 -51.501 38s-23.334 33.166 -32.001 56.499s-13 50 -13 80c0 38 9.16699 72.333 27.5 103s44.833 54.667 79.5 72c41.333 20 92 30 152 30c32.667 0 65.334 -6.66699 98.001 -20s56 -31 70 -53v53h122v-215zM194.998 -271l20.999 77
c18 -7.33301 41.667 -11 71 -11c21.333 0 37.5 2.5 48.5 7.5s16.5 15.833 16.5 32.5c0 15.333 -5.5 25.333 -16.5 30s-28.833 7.66699 -53.5 9h-7h-22h-15l18 70c5.33301 0.666992 12.333 1 21 1h23c19.333 0 38 -1.5 56 -4.5s36.833 -8.16699 56.5 -15.5
s35.334 -19 47.001 -35s17.5 -35.667 17.5 -59c0 -78 -54.333 -117 -163 -117c-44 0 -83.667 5 -119 15z" />
    <glyph glyph-name="scedilla" unicode="&#x15f;" horiz-adv-x="563" 
d="M394 508l109.002 -0.00292969v-150h-131c0 20.667 -9.83301 37 -29.5 49s-40.167 18 -61.5 18c-52.667 0 -79 -15.667 -79 -47c0 -10 2.83301 -18.667 8.5 -26s12.167 -13.166 19.5 -17.499s17.833 -8.5 31.5 -12.5s24.5 -6.66699 32.5 -8s19.667 -3 35 -5
c21.333 -3.33301 39.666 -6.66602 54.999 -9.99902s32.666 -8.83301 51.999 -16.5s35.166 -16.667 47.499 -27s22.833 -24.166 31.5 -41.499s13 -37.333 13 -60c0 -115.333 -79.667 -173 -239 -173c-62.667 0 -111 18.667 -145 56v-37h-109v160h149
c2.66699 -51.333 37.334 -77 104.001 -77c20.667 0 39.5 4.5 56.5 13.5s25.5 22.5 25.5 40.5c0 6.66699 -0.666992 12.667 -2 18s-4 10 -8 14s-7.5 7.66699 -10.5 11s-8.16699 6.33301 -15.5 9l-17.5 6.5c-4.33301 1.66699 -11.333 3.5 -21 5.5l-22 4.5
c-5 1 -13.333 2.5 -25 4.5s-19.834 3.33301 -24.501 4c-19.333 3.33301 -35.5 6.5 -48.5 9.5s-28.5 8.5 -46.5 16.5s-32.667 17.167 -44 27.5s-21 24.333 -29 42s-12 38.167 -12 61.5c0 104 69 156 207 156c64.667 0 112.334 -17.667 143.001 -53v34zM161.002 -240.003
l17.999 64.0029c15.333 -6 35 -9 59 -9c35.333 0 53 11.667 53 35c0 13.333 -5.33301 22.166 -16 26.499s-26.667 6.83301 -48 7.5h-17h-14l16 60c4.66699 0.666992 10.334 1 17.001 1h19c15.333 0 30.666 -1.33301 45.999 -4s31 -7.33398 47 -14.001s29 -16.834 39 -30.501
s15 -30.167 15 -49.5c0 -32 -11.667 -56.667 -35 -74s-56.666 -26 -99.999 -26c-33.333 0 -66.333 4.33301 -99 13z" />
    <glyph glyph-name="Scaron" unicode="&#x160;" horiz-adv-x="675" 
d="M606 485h-148.002c-3.33301 25.333 -14.666 48.166 -33.999 68.499s-49.333 30.5 -90 30.5c-72 0 -108 -22.333 -108 -67c0 -14 4 -26.333 12 -37s19.833 -19.167 35.5 -25.5s29.834 -11 42.501 -14s28.667 -6.16699 48 -9.5c43.333 -8 78.833 -16.167 106.5 -24.5
s55.334 -20.333 83.001 -36s48.167 -36.5 61.5 -62.5s20 -57.667 20 -95c0 -11.333 -0.333008 -21.666 -1 -30.999s-2.83398 -22.5 -6.50098 -39.5s-8.83398 -32.167 -15.501 -45.5s-17 -27.666 -31 -42.999s-30.5 -28 -49.5 -38s-43.667 -18.5 -74 -25.5
s-64.166 -10.5 -101.499 -10.5s-73.333 6.5 -108 19.5s-62 32.5 -82 58.5v-58h-122v235h158c0 -12.667 1.83301 -25 5.5 -37s10.167 -24.667 19.5 -38s23.666 -24 42.999 -32s43 -12 71 -12c83.333 0 125 25 125 75c0 9.33301 -1.5 17.833 -4.5 25.5
s-6.5 14.334 -10.5 20.001s-10.5 11.167 -19.5 16.5s-16.5 9.5 -22.5 12.5s-15.5 6.33301 -28.5 10s-22.667 6.16699 -29 7.5l-32.5 7c-15.333 3.33301 -25.666 5.66602 -30.999 6.99902c-29.333 6 -53.666 12 -72.999 18s-39.833 14.5 -61.5 25.5
s-38.834 23.667 -51.501 38s-23.334 33.166 -32.001 56.499s-13 50 -13 80c0 38 9.16699 72.333 27.5 103s44.833 54.667 79.5 72c41.333 20 92 30 152 30c32.667 0 65.334 -6.66699 98.001 -20s56 -31 70 -53v53h122v-215zM334.998 792l92 92h135l-113 -132h-228l-113 132
h135z" />
    <glyph glyph-name="scaron" unicode="&#x161;" horiz-adv-x="563" 
d="M394 508l109.002 -0.00292969v-150h-131c0 20.667 -9.83301 37 -29.5 49s-40.167 18 -61.5 18c-52.667 0 -79 -15.667 -79 -47c0 -10 2.83301 -18.667 8.5 -26s12.167 -13.166 19.5 -17.499s17.833 -8.5 31.5 -12.5s24.5 -6.66699 32.5 -8s19.667 -3 35 -5
c21.333 -3.33301 39.666 -6.66602 54.999 -9.99902s32.666 -8.83301 51.999 -16.5s35.166 -16.667 47.499 -27s22.833 -24.166 31.5 -41.499s13 -37.333 13 -60c0 -115.333 -79.667 -173 -239 -173c-62.667 0 -111 18.667 -145 56v-37h-109v160h149
c2.66699 -51.333 37.334 -77 104.001 -77c20.667 0 39.5 4.5 56.5 13.5s25.5 22.5 25.5 40.5c0 6.66699 -0.666992 12.667 -2 18s-4 10 -8 14s-7.5 7.66699 -10.5 11s-8.16699 6.33301 -15.5 9l-17.5 6.5c-4.33301 1.66699 -11.333 3.5 -21 5.5l-22 4.5
c-5 1 -13.333 2.5 -25 4.5s-19.834 3.33301 -24.501 4c-19.333 3.33301 -35.5 6.5 -48.5 9.5s-28.5 8.5 -46.5 16.5s-32.667 17.167 -44 27.5s-21 24.333 -29 42s-12 38.167 -12 61.5c0 104 69 156 207 156c64.667 0 112.334 -17.667 143.001 -53v34zM268.002 607.997l92 92
h119l-111 -132h-200l-111 132h119z" />
    <glyph glyph-name="Tcedilla" unicode="&#x162;" horiz-adv-x="725" 
d="M213 0v136h67v428h-129v-131h-136v267h695v-267h-136v131h-129v-428h67v-136h-299zM223 -271l20.999 77c18 -7.33301 41.667 -11 71 -11c21.333 0 37.5 2.5 48.5 7.5s16.5 15.833 16.5 32.5c0 15.333 -5.5 25.333 -16.5 30s-28.833 7.66699 -53.5 9h-7h-22h-15l18 70
c5.33301 0.666992 12.333 1 21 1h23c19.333 0 38 -1.5 56 -4.5s36.833 -8.16699 56.5 -15.5s35.334 -19 47.001 -35s17.5 -35.667 17.5 -59c0 -78 -54.333 -117 -163 -117c-44 0 -83.667 5 -119 15z" />
    <glyph glyph-name="tcedilla" unicode="&#x163;" horiz-adv-x="386" 
d="M13 406l-0.000976562 102h92v152h152v-152h108v-102h-108v-268c0 -30 20 -45 60 -45c16 0 32 3 48 9v-102c-45.333 -9.33301 -86.666 -14 -123.999 -14c-50 0 -85.167 11.5 -105.5 34.5s-30.5 60.833 -30.5 113.5v272h-92zM119.999 -240l17.999 64.0029
c15.333 -6 35 -9 59 -9c35.333 0 53 11.667 53 35c0 13.333 -5.33301 22.166 -16 26.499s-26.667 6.83301 -48 7.5h-17h-14l16 60c4.66699 0.666992 10.334 1 17.001 1h19c15.333 0 30.666 -1.33301 45.999 -4s31 -7.33398 47 -14.001s29 -16.834 39 -30.501
s15 -30.167 15 -49.5c0 -32 -11.667 -56.667 -35 -74s-56.666 -26 -99.999 -26c-33.333 0 -66.333 4.33301 -99 13z" />
    <glyph glyph-name="Tcaron" unicode="&#x164;" horiz-adv-x="725" 
d="M213 0v136h67v428h-129v-131h-136v267h695v-267h-136v131h-129v-428h67v-136h-299zM362 792l92 92h135l-113 -132h-228l-113 132h135z" />
    <glyph glyph-name="tcaron" unicode="&#x165;" horiz-adv-x="550" 
d="M13 406l-0.000976562 102h92v152h152v-152h108v-102h-108v-268c0 -30 20 -45 60 -45c16 0 32 3 48 9v-102c-45.333 -9.33301 -86.666 -14 -123.999 -14c-50 0 -85.167 11.5 -105.5 34.5s-30.5 60.833 -30.5 113.5v272h-92zM404.999 553l-0.00195312 147h154v-147
c0 -12.667 -0.166992 -23 -0.5 -31s-3.16602 -20.833 -8.49902 -38.5s-12.833 -32.167 -22.5 -43.5s-25.167 -22.333 -46.5 -33s-46.666 -17 -75.999 -19v73c22 0 40.833 7.33301 56.5 22s23.5 36 23.5 64v6h-80z" />
    <glyph glyph-name="Umacron" unicode="&#x16a;" horiz-adv-x="820" 
d="M481 564v135.996h299v-136h-67v-299c0 -13.333 -0.5 -26.166 -1.5 -38.499s-3.66699 -28.666 -8 -48.999s-10.333 -38.666 -18 -54.999s-19 -33.833 -34 -52.5s-32.833 -34.167 -53.5 -46.5s-47.167 -22.666 -79.5 -30.999s-68.5 -12.5 -108.5 -12.5
c-56 0 -104.167 7.83301 -144.5 23.5s-70.333 33.667 -90 54s-35.167 45.5 -46.5 75.5s-17.833 54 -19.5 72s-2.5 38 -2.5 60v299h-67v136h299v-136h-67v-272c0 -60 10.5 -104.333 31.5 -133s56.5 -43 106.5 -43s85.5 14 106.5 42s31.5 72.667 31.5 134v272h-67z
M220 759.996v86h384v-86h-384z" />
    <glyph glyph-name="umacron" unicode="&#x16b;" horiz-adv-x="688" 
d="M651 102l-0.000976562 -101.998h-213v61c-47.333 -53.333 -104 -80 -170 -80c-113.333 0 -170 69.667 -170 209v216h-61v102h213v-294c0 -48 6.83301 -81.833 20.5 -101.5s35.167 -29.5 64.5 -29.5c18 0 33.833 3.83301 47.5 11.5s23.834 16.667 30.501 27
s12 22.666 16 36.999s6.5 26.166 7.5 35.499s1.5 19 1.5 29v183h-61v102h213v-406h61zM134.999 600.002v86h384v-86h-384z" />
    <glyph glyph-name="Ubreve" unicode="&#x16c;" horiz-adv-x="820" 
d="M481 564v135.996h299v-136h-67v-299c0 -13.333 -0.5 -26.166 -1.5 -38.499s-3.66699 -28.666 -8 -48.999s-10.333 -38.666 -18 -54.999s-19 -33.833 -34 -52.5s-32.833 -34.167 -53.5 -46.5s-47.167 -22.666 -79.5 -30.999s-68.5 -12.5 -108.5 -12.5
c-56 0 -104.167 7.83301 -144.5 23.5s-70.333 33.667 -90 54s-35.167 45.5 -46.5 75.5s-17.833 54 -19.5 72s-2.5 38 -2.5 60v299h-67v136h299v-136h-67v-272c0 -60 10.5 -104.333 31.5 -133s56.5 -43 106.5 -43s85.5 14 106.5 42s31.5 72.667 31.5 134v272h-67z
M182 910.996l144.002 -0.00292969c0 -18 6.66699 -33.333 20 -46s35.333 -19 66 -19c30 0 51.833 6.33301 65.5 19s20.5 28 20.5 46h144c-0.666992 -26 -7.33398 -48.667 -20.001 -68s-27.334 -34 -44.001 -44s-36.334 -18.167 -59.001 -24.5s-42.167 -10.333 -58.5 -12
s-32.5 -2.5 -48.5 -2.5c-19.333 0 -38 1 -56 3s-37.5 6.33301 -58.5 13s-39.5 15.334 -55.5 26.001s-29.667 25.334 -41 44.001s-17.666 40.334 -18.999 65.001z" />
    <glyph glyph-name="ubreve" unicode="&#x16d;" horiz-adv-x="688" 
d="M651 102l-0.000976562 -101.998h-213v61c-47.333 -53.333 -104 -80 -170 -80c-113.333 0 -170 69.667 -170 209v216h-61v102h213v-294c0 -48 6.83301 -81.833 20.5 -101.5s35.167 -29.5 64.5 -29.5c18 0 33.833 3.83301 47.5 11.5s23.834 16.667 30.501 27
s12 22.666 16 36.999s6.5 26.166 7.5 35.499s1.5 19 1.5 29v183h-61v102h213v-406h61zM122.999 700.002l127.002 -0.00195312c0 -14.667 5 -26.667 15 -36s20.167 -15.166 30.5 -17.499s20.833 -3.5 31.5 -3.5c21.333 0 39.666 5.33301 54.999 16s22.333 24.334 21 41.001
h128c-3.33301 -37.333 -21 -70.5 -53 -99.5s-82.333 -43.5 -151 -43.5s-119.834 14.833 -153.501 44.5s-50.5 62.5 -50.5 98.5z" />
    <glyph glyph-name="Uring" unicode="&#x16e;" horiz-adv-x="820" 
d="M481 564v135.996h299v-136h-67v-299c0 -13.333 -0.5 -26.166 -1.5 -38.499s-3.66699 -28.666 -8 -48.999s-10.333 -38.666 -18 -54.999s-19 -33.833 -34 -52.5s-32.833 -34.167 -53.5 -46.5s-47.167 -22.666 -79.5 -30.999s-68.5 -12.5 -108.5 -12.5
c-56 0 -104.167 7.83301 -144.5 23.5s-70.333 33.667 -90 54s-35.167 45.5 -46.5 75.5s-17.833 54 -19.5 72s-2.5 38 -2.5 60v299h-67v136h299v-136h-67v-272c0 -60 10.5 -104.333 31.5 -133s56.5 -43 106.5 -43s85.5 14 106.5 42s31.5 72.667 31.5 134v272h-67z
M312 819.996c0 28 9.66699 51.667 29 71s43 29 71 29s51.667 -9.66699 71 -29s29 -43 29 -71s-9.66699 -51.667 -29 -71s-43 -29 -71 -29s-51.667 9.66699 -71 29s-29 43 -29 71zM370 819.996c0 -12 4 -22 12 -30s18 -12 30 -12s22 4 30 12s12 18 12 30s-4 22 -12 30
s-18 12 -30 12s-22 -4 -30 -12s-12 -18 -12 -30z" />
    <glyph glyph-name="uring" unicode="&#x16f;" horiz-adv-x="688" 
d="M651 102l-0.000976562 -101.998h-213v61c-47.333 -53.333 -104 -80 -170 -80c-113.333 0 -170 69.667 -170 209v216h-61v102h213v-294c0 -48 6.83301 -81.833 20.5 -101.5s35.167 -29.5 64.5 -29.5c18 0 33.833 3.83301 47.5 11.5s23.834 16.667 30.501 27
s12 22.666 16 36.999s6.5 26.166 7.5 35.499s1.5 19 1.5 29v183h-61v102h213v-406h61zM227.999 639.002c0 28 9.5 51.5 28.5 70.5s42.5 28.5 70.5 28.5s51.5 -9.5 70.5 -28.5s28.5 -42.5 28.5 -70.5s-9.5 -51.5 -28.5 -70.5s-42.5 -28.5 -70.5 -28.5s-51.5 9.5 -70.5 28.5
s-28.5 42.5 -28.5 70.5zM284.999 639.002c0 -12 4 -22 12 -30s18 -12 30 -12s22 4 30 12s12 18 12 30s-4 22 -12 30s-18 12 -30 12s-22 -4 -30 -12s-12 -18 -12 -30z" />
    <glyph glyph-name="Uhungarumlaut" unicode="&#x170;" horiz-adv-x="820" 
d="M481 564v135.996h299v-136h-67v-299c0 -13.333 -0.5 -26.166 -1.5 -38.499s-3.66699 -28.666 -8 -48.999s-10.333 -38.666 -18 -54.999s-19 -33.833 -34 -52.5s-32.833 -34.167 -53.5 -46.5s-47.167 -22.666 -79.5 -30.999s-68.5 -12.5 -108.5 -12.5
c-56 0 -104.167 7.83301 -144.5 23.5s-70.333 33.667 -90 54s-35.167 45.5 -46.5 75.5s-17.833 54 -19.5 72s-2.5 38 -2.5 60v299h-67v136h299v-136h-67v-272c0 -60 10.5 -104.333 31.5 -133s56.5 -43 106.5 -43s85.5 14 106.5 42s31.5 72.667 31.5 134v272h-67z
M283 885.996h160l-106 -132h-123zM513 885.996h160l-106 -132h-123z" />
    <glyph glyph-name="uhungarumlaut" unicode="&#x171;" horiz-adv-x="688" 
d="M651 102l-0.000976562 -101.998h-213v61c-47.333 -53.333 -104 -80 -170 -80c-113.333 0 -170 69.667 -170 209v216h-61v102h213v-294c0 -48 6.83301 -81.833 20.5 -101.5s35.167 -29.5 64.5 -29.5c18 0 33.833 3.83301 47.5 11.5s23.834 16.667 30.501 27
s12 22.666 16 36.999s6.5 26.166 7.5 35.499s1.5 19 1.5 29v183h-61v102h213v-406h61zM222.999 700.002h160l-106 -132h-123zM438.999 700.002h160l-106 -132h-123z" />
    <glyph glyph-name="Uogonek" unicode="&#x172;" horiz-adv-x="820" 
d="M481 564v136.001h299v-136h-67v-299c0 -18.667 -0.833008 -36.334 -2.5 -53.001s-7 -38.5 -16 -65.5s-21.5 -50.667 -37.5 -71s-39.667 -39.333 -71 -57s-68.666 -29.167 -111.999 -34.5c-38.667 -37.333 -58 -76 -58 -116c0 -22 4.83301 -40 14.5 -54
s24.167 -21 43.5 -21c15.333 0 27.5 4.66699 36.5 14s14.667 18.333 17 27s3.5 17 3.5 25h95c-2.66699 -44 -18.334 -79.333 -47.001 -106s-65.667 -40 -111 -40c-48.667 0 -88.667 11.833 -120 35.5s-47 55.5 -47 95.5c0 50.667 22 96.667 66 138
c-173.333 14 -260 108.333 -260 283v299h-67v136h299v-136h-67v-272c0 -60 10.5 -104.333 31.5 -133s56.5 -43 106.5 -43s85.5 14 106.5 42s31.5 72.667 31.5 134v272h-67z" />
    <glyph glyph-name="uogonek" unicode="&#x173;" horiz-adv-x="688" 
d="M488 0l-50.001 0.00292969v61c-47.333 -53.333 -104 -80 -170 -80c-113.333 0 -170 69.667 -170 209v216h-61v102h213v-294c0 -48 6.83301 -81.833 20.5 -101.5s35.167 -29.5 64.5 -29.5c18 0 33.833 3.83301 47.5 11.5s23.834 16.667 30.501 27s12 22.666 16 36.999
s6.5 26.166 7.5 35.499s1.5 19 1.5 29v183h-61v102h213v-406h61v-102h-67c-47.333 -38.667 -71 -80 -71 -124c0 -20 4.5 -36.667 13.5 -50s22.833 -20 41.5 -20c19.333 0 33 7.16699 41 21.5s12 27.833 12 40.5h89c-2.66699 -40.667 -17.5 -73.667 -44.5 -99
s-61.5 -38 -103.5 -38c-46 0 -83.667 11.167 -113 33.5s-44 52.166 -44 89.499c0 56 27.667 104.667 83 146z" />
    <glyph glyph-name="Ydieresis" unicode="&#x178;" horiz-adv-x="641" 
d="M-10 564v136h294v-136h-45l92 -167l91 167h-42v136h271v-136h-65l-179 -300v-128h67v-136h-299v136h67v128l-185 300h-67zM123 766v106h142v-106h-142zM371 766v106h142v-106h-142z" />
    <glyph glyph-name="Zacute" unicode="&#x179;" horiz-adv-x="652" 
d="M483 265h136v-265h-589v146l364 418h-219v-99h-136v235h563v-127l-371 -437h252v129zM328 885h160l-106 -132h-123z" />
    <glyph glyph-name="zacute" unicode="&#x17a;" horiz-adv-x="523" 
d="M391 196h102v-196h-463v102l273 304h-153v-79h-102v181h432v-101l-268 -305h179v94zM246 700h160l-106 -132h-123z" />
    <glyph glyph-name="Zdotaccent" unicode="&#x17b;" horiz-adv-x="652" 
d="M483 265h136v-265h-589v146l364 418h-219v-99h-136v235h563v-127l-371 -437h252v129zM239 766v106h165v-106h-165z" />
    <glyph glyph-name="zdotaccent" unicode="&#x17c;" horiz-adv-x="523" 
d="M391 196h102v-196h-463v102l273 304h-153v-79h-102v181h432v-101l-268 -305h179v94zM172 581v119h158v-119h-158z" />
    <glyph glyph-name="uni018F" unicode="&#x18f;" horiz-adv-x="789" 
d="M381 592c-10.667 0 -21.167 -0.663086 -31.5 -1.99609s-19.5 -3 -27.5 -5s-16 -5 -24 -9l-20.5 -10.5c-5.66699 -3 -11.5 -7 -17.5 -12s-10.667 -9.16699 -14 -12.5s-7.33301 -7.83301 -12 -13.5s-7.83398 -9.66699 -9.50098 -12l-8 -11.5
c-3.66699 -5.33301 -5.83398 -8.33301 -6.50098 -9h-148v205h136v-59c25.333 25.333 57.333 44.833 96 58.5s74.334 20.5 107.001 20.5c48 0 91 -6 129 -18s68.833 -26.5 92.5 -43.5s44.167 -38.667 61.5 -65s29.833 -49.833 37.5 -70.5s13.834 -45 18.501 -73
s7.16699 -47.833 7.5 -59.5s0.5 -25.5 0.5 -41.5c0 -116 -34.167 -206.5 -102.5 -271.5s-156.5 -97.5 -264.5 -97.5c-44 0 -84 5.66699 -120 17s-65.5 25.666 -88.5 42.999s-43.167 38.166 -60.5 62.499s-30.5 47.833 -39.5 70.5s-16 47 -21 73s-8.16699 47 -9.5 63
s-2 32 -2 48v36h505c0 20.667 -2.66699 41.667 -8 63s-13.666 42.666 -24.999 63.999s-28.333 38.666 -51 51.999s-49.334 20 -80.001 20zM545 265.004h-304.999c1.33301 -26 5.66602 -49.833 12.999 -71.5s22.166 -41.334 44.499 -59.001s50.833 -26.5 85.5 -26.5
c28 0 52.833 5 74.5 15s38.334 23.333 50.001 40s20.5 33.334 26.5 50.001s9.66699 34 11 52z" />
    <glyph glyph-name="florin" unicode="&#x192;" 
d="M448 508l112.998 -0.000976562l-20 -102h-115l-91 -431c-6 -29.333 -14.833 -54.666 -26.5 -75.999s-23.667 -37.666 -36 -48.999s-26.666 -20.333 -42.999 -27s-30.666 -10.834 -42.999 -12.501s-25.833 -2.5 -40.5 -2.5c-34 0 -63.667 2.33301 -89 7l21 102
c9.33301 -1.33301 14.333 -2 15 -2c30 0 51.667 5.5 65 16.5s22.666 30.5 27.999 58.5l88 416h-93l21 102h94l9 44c6.66699 33.333 16.334 60.833 29.001 82.5s28.667 37.667 48 48s38.833 17.333 58.5 21s43.5 5.5 71.5 5.5c36 0 66 -3 90 -9l-20 -99
c-20 4 -40.333 6 -61 6c-35.333 0 -57 -20.333 -65 -61z" />
    <glyph glyph-name="uni01DD" unicode="&#x1dd;" horiz-adv-x="625" 
d="M307 431c-64 0 -107.002 -23.667 -129.002 -71h-130v148h102v-49c41.333 45.333 97.333 68 168 68c88 0 154.5 -24.167 199.5 -72.5s67.5 -115.5 67.5 -201.5s-26 -152.5 -78 -199.5s-120.333 -70.5 -205 -70.5c-9.33301 0 -19 0.333008 -29 1s-24.167 3 -42.5 7
s-35.333 9.5 -51 16.5s-32.5 17.5 -50.5 31.5s-33.167 30.333 -45.5 49s-22.666 43 -30.999 73s-12.5 63.667 -12.5 101v23h388c1.33301 40.667 -8.66699 75.167 -30 103.5s-51.666 42.5 -90.999 42.5zM427.998 200h-232c4 -80.667 40.667 -121 110 -121
c71.333 0 112 40.333 122 121z" />
    <glyph glyph-name="Scommaaccent" unicode="&#x218;" horiz-adv-x="675" 
d="M606 485h-148.002c-3.33301 25.333 -14.666 48.166 -33.999 68.499s-49.333 30.5 -90 30.5c-72 0 -108 -22.333 -108 -67c0 -14 4 -26.333 12 -37s19.833 -19.167 35.5 -25.5s29.834 -11 42.501 -14s28.667 -6.16699 48 -9.5c43.333 -8 78.833 -16.167 106.5 -24.5
s55.334 -20.333 83.001 -36s48.167 -36.5 61.5 -62.5s20 -57.667 20 -95c0 -11.333 -0.333008 -21.666 -1 -30.999s-2.83398 -22.5 -6.50098 -39.5s-8.83398 -32.167 -15.501 -45.5s-17 -27.666 -31 -42.999s-30.5 -28 -49.5 -38s-43.667 -18.5 -74 -25.5
s-64.166 -10.5 -101.499 -10.5s-73.333 6.5 -108 19.5s-62 32.5 -82 58.5v-58h-122v235h158c0 -12.667 1.83301 -25 5.5 -37s10.167 -24.667 19.5 -38s23.666 -24 42.999 -32s43 -12 71 -12c83.333 0 125 25 125 75c0 9.33301 -1.5 17.833 -4.5 25.5
s-6.5 14.334 -10.5 20.001s-10.5 11.167 -19.5 16.5s-16.5 9.5 -22.5 12.5s-15.5 6.33301 -28.5 10s-22.667 6.16699 -29 7.5l-32.5 7c-15.333 3.33301 -25.666 5.66602 -30.999 6.99902c-29.333 6 -53.666 12 -72.999 18s-39.833 14.5 -61.5 25.5
s-38.834 23.667 -51.501 38s-23.334 33.166 -32.001 56.499s-13 50 -13 80c0 38 9.16699 72.333 27.5 103s44.833 54.667 79.5 72c41.333 20 92 30 152 30c32.667 0 65.334 -6.66699 98.001 -20s56 -31 70 -53v53h122v-215zM244.998 -176v119h181v-96
c0 -52.667 -19 -92 -57 -118c-27.333 -19.333 -68.666 -29 -123.999 -29v78c25.333 0 43.666 2.66699 54.999 8c18 8 27 19.333 27 34v4h-82z" />
    <glyph glyph-name="scommaaccent" unicode="&#x219;" horiz-adv-x="563" 
d="M394 508l109.002 -0.00292969v-150h-131c0 20.667 -9.83301 37 -29.5 49s-40.167 18 -61.5 18c-52.667 0 -79 -15.667 -79 -47c0 -10 2.83301 -18.667 8.5 -26s12.167 -13.166 19.5 -17.499s17.833 -8.5 31.5 -12.5s24.5 -6.66699 32.5 -8s19.667 -3 35 -5
c21.333 -3.33301 39.666 -6.66602 54.999 -9.99902s32.666 -8.83301 51.999 -16.5s35.166 -16.667 47.499 -27s22.833 -24.166 31.5 -41.499s13 -37.333 13 -60c0 -115.333 -79.667 -173 -239 -173c-62.667 0 -111 18.667 -145 56v-37h-109v160h149
c2.66699 -51.333 37.334 -77 104.001 -77c20.667 0 39.5 4.5 56.5 13.5s25.5 22.5 25.5 40.5c0 6.66699 -0.666992 12.667 -2 18s-4 10 -8 14s-7.5 7.66699 -10.5 11s-8.16699 6.33301 -15.5 9l-17.5 6.5c-4.33301 1.66699 -11.333 3.5 -21 5.5l-22 4.5
c-5 1 -13.333 2.5 -25 4.5s-19.834 3.33301 -24.501 4c-19.333 3.33301 -35.5 6.5 -48.5 9.5s-28.5 8.5 -46.5 16.5s-32.667 17.167 -44 27.5s-21 24.333 -29 42s-12 38.167 -12 61.5c0 104 69 156 207 156c64.667 0 112.334 -17.667 143.001 -53v34zM200.002 -169.003v109
h155v-99c0 -40.667 -13.667 -74 -41 -100c-22.667 -20 -60.667 -31.333 -114 -34v65c52 0 78 18.333 78 55v4h-78z" />
    <glyph glyph-name="Tcommaaccent" unicode="&#x21a;" horiz-adv-x="725" 
d="M213 0v136h67v428h-129v-131h-136v267h695v-267h-136v131h-129v-428h67v-136h-299zM272 -176v119h181v-96c0 -52.667 -19 -92 -57 -118c-27.333 -19.333 -68.666 -29 -123.999 -29v78c25.333 0 43.666 2.66699 54.999 8c18 8 27 19.333 27 34v4h-82z" />
    <glyph glyph-name="tcommaaccent" unicode="&#x21b;" horiz-adv-x="386" 
d="M13 406l-0.000976562 102h92v152h152v-152h108v-102h-108v-268c0 -30 20 -45 60 -45c16 0 32 3 48 9v-102c-45.333 -9.33301 -86.666 -14 -123.999 -14c-50 0 -85.167 11.5 -105.5 34.5s-30.5 60.833 -30.5 113.5v272h-92zM157.999 -169v109h155v-99
c0 -40.667 -13.667 -74 -41 -100c-22.667 -20 -60.667 -31.333 -114 -34v65c52 0 78 18.333 78 55v4h-78z" />
    <glyph glyph-name="uni0259" unicode="&#x259;" horiz-adv-x="625" 
d="M307 431c-64 0 -107.002 -23.667 -129.002 -71h-130v148h102v-49c41.333 45.333 97.333 68 168 68c88 0 154.5 -24.167 199.5 -72.5s67.5 -115.5 67.5 -201.5s-26 -152.5 -78 -199.5s-120.333 -70.5 -205 -70.5c-9.33301 0 -19 0.333008 -29 1s-24.167 3 -42.5 7
s-35.333 9.5 -51 16.5s-32.5 17.5 -50.5 31.5s-33.167 30.333 -45.5 49s-22.666 43 -30.999 73s-12.5 63.667 -12.5 101v23h388c1.33301 40.667 -8.66699 75.167 -30 103.5s-51.666 42.5 -90.999 42.5zM427.998 200h-232c4 -80.667 40.667 -121 110 -121
c71.333 0 112 40.333 122 121z" />
    <glyph glyph-name="afii57929" unicode="&#x2bc;" horiz-adv-x="383" 
d="M113 553l-0.00195312 147h154v-147c0 -12.667 -0.166992 -23 -0.5 -31s-3.16602 -20.833 -8.49902 -38.5s-12.833 -32.167 -22.5 -43.5s-25.167 -22.333 -46.5 -33s-46.666 -17 -75.999 -19v73c22 0 40.833 7.33301 56.5 22s23.5 36 23.5 64v6h-80z" />
    <glyph glyph-name="circumflex" unicode="&#x2c6;" horiz-adv-x="522" 
d="M261 660l-92 -92h-119l111 132h200l111 -132h-119z" />
    <glyph glyph-name="caron" unicode="&#x2c7;" horiz-adv-x="522" 
d="M261 608l92 92h119l-111 -132h-200l-111 132h119z" />
    <glyph glyph-name="breve" unicode="&#x2d8;" horiz-adv-x="496" 
d="M44 700l127.002 -0.00195312c0 -14.667 5 -26.667 15 -36s20.167 -15.166 30.5 -17.499s20.833 -3.5 31.5 -3.5c21.333 0 39.666 5.33301 54.999 16s22.333 24.334 21 41.001h128c-3.33301 -37.333 -21 -70.5 -53 -99.5s-82.333 -43.5 -151 -43.5
s-119.834 14.833 -153.501 44.5s-50.5 62.5 -50.5 98.5z" />
    <glyph glyph-name="dotaccent" unicode="&#x2d9;" horiz-adv-x="212" 
d="M26 581v119h158v-119h-158z" />
    <glyph glyph-name="ring" unicode="&#x2da;" horiz-adv-x="296" 
d="M49 639c0 28 9.5 51.5 28.5 70.5s42.5 28.5 70.5 28.5s51.5 -9.5 70.5 -28.5s28.5 -42.5 28.5 -70.5s-9.5 -51.5 -28.5 -70.5s-42.5 -28.5 -70.5 -28.5s-51.5 9.5 -70.5 28.5s-28.5 42.5 -28.5 70.5zM106 639c0 -12 4 -22 12 -30s18 -12 30 -12s22 4 30 12s12 18 12 30
s-4 22 -12 30s-18 12 -30 12s-22 -4 -30 -12s-12 -18 -12 -30z" />
    <glyph glyph-name="ogonek" unicode="&#x2db;" horiz-adv-x="404" 
d="M158 0l96 0.000976562c-47.333 -38.667 -71 -80 -71 -124c0 -20 4.5 -36.667 13.5 -50s22.833 -20 41.5 -20c19.333 0 33 7.16699 41 21.5s12 27.833 12 40.5h89c-2.66699 -40.667 -17.5 -73.667 -44.5 -99s-61.5 -38 -103.5 -38c-46 0 -83.667 11.167 -113 33.5
s-44 52.166 -44 89.499c0 56 27.667 104.667 83 146z" />
    <glyph glyph-name="tilde" unicode="&#x2dc;" horiz-adv-x="536" 
d="M394 700h92.002c-18.667 -85.333 -59.334 -128 -122.001 -128c-7.33301 0 -14 0.333008 -20 1s-11 1.16699 -15 1.5s-8.83301 1.66602 -14.5 3.99902s-9.83398 4 -12.501 5s-8 3.33301 -16 7s-14 6.5 -18 8.5c-37.333 16 -64.333 24 -81 24
c-25.333 0 -40 -13.667 -44 -41h-93c6 38.667 20.5 69.334 43.5 92.001s49.167 34 78.5 34s61.333 -9 96 -27c32.667 -16 60 -24 82 -24c26 0 40.667 14.333 44 43z" />
    <glyph glyph-name="hungarumlaut" unicode="&#x2dd;" horiz-adv-x="521" 
d="M106 700h160l-106 -132h-123zM322 700h160l-106 -132h-123z" />
    <glyph glyph-name="gravecomb" unicode="&#x300;" horiz-adv-x="2" 
d="M-301 700l69 -132h-123l-106 132h160z" />
    <glyph glyph-name="acutecomb" unicode="&#x301;" horiz-adv-x="2" 
d="M-308 700h160l-106 -132h-123z" />
    <glyph glyph-name="uni0394" unicode="&#x394;" horiz-adv-x="691" 
d="M261 700h167l263 -700h-691zM473 136l-128 381l-131 -381h259z" />
    <glyph glyph-name="uni0394" unicode="&#x2206;" horiz-adv-x="691" 
d="M261 700h167l263 -700h-691zM473 136l-128 381l-131 -381h259z" />
    <glyph glyph-name="uni03A9" unicode="&#x3a9;" horiz-adv-x="892" 
d="M40 0l-0.00195312 191h116v-74h104v58c-116 33.333 -174 114 -174 242c0 95.333 31.333 169.833 94 223.5s151.334 80.5 266.001 80.5s203.334 -26.833 266.001 -80.5s94 -128.167 94 -223.5c0 -128 -58 -208.667 -174 -242v-58h104v74h116v-191h-346v253
c38.667 5.33301 69.667 21.666 93 48.999s35 62.666 35 105.999c0 54.667 -16.167 97.834 -48.5 129.501s-78.833 47.5 -139.5 47.5s-107.167 -15.833 -139.5 -47.5s-48.5 -74.834 -48.5 -129.501c0 -43.333 11.667 -78.666 35 -105.999s54.333 -43.666 93 -48.999v-253
h-346z" />
    <glyph glyph-name="uni03A9" unicode="&#x2126;" horiz-adv-x="892" 
d="M40 0l-0.00195312 191h116v-74h104v58c-116 33.333 -174 114 -174 242c0 95.333 31.333 169.833 94 223.5s151.334 80.5 266.001 80.5s203.334 -26.833 266.001 -80.5s94 -128.167 94 -223.5c0 -128 -58 -208.667 -174 -242v-58h104v74h116v-191h-346v253
c38.667 5.33301 69.667 21.666 93 48.999s35 62.666 35 105.999c0 54.667 -16.167 97.834 -48.5 129.501s-78.833 47.5 -139.5 47.5s-107.167 -15.833 -139.5 -47.5s-48.5 -74.834 -48.5 -129.501c0 -43.333 11.667 -78.666 35 -105.999s54.333 -43.666 93 -48.999v-253
h-346z" />
    <glyph glyph-name="pi" unicode="&#x3c0;" horiz-adv-x="693" 
d="M68 0l-0.000976562 102h61v304c-42.667 0.666992 -75.667 -6.33301 -99 -21v102c26.667 14 66.334 21 119.001 21h507v-102h-61v-406h-152v406h-162v-406h-213z" />
    <glyph glyph-name="afii10023" unicode="&#x401;" horiz-adv-x="715" 
d="M671 465h-136v99h-253v-142h214v-129h-214v-157h267v135h136v-271h-635v136h67v428h-67v136h621v-235zM176 766v106h142v-106h-142zM424 766v106h142v-106h-142z" />
    <glyph glyph-name="afii10051" unicode="&#x402;" horiz-adv-x="905" 
d="M213 0l0.000976562 136.002h67v428h-129v-131h-136v267h695v-237h-136v101h-129v-167c57.333 6.66699 109.666 10 156.999 10c49.333 0 91.833 -6.5 127.5 -19.5s62.5 -30.5 80.5 -52.5s30.833 -45.167 38.5 -69.5s11.5 -50.5 11.5 -78.5
c0 -64.667 -20 -115.334 -60 -152.001s-97.667 -55 -173 -55c-24.667 0 -54.667 5 -90 15v124c18.667 -4.66699 34 -7 46 -7c66 0 99 27.333 99 82c0 27.333 -9 48.666 -27 63.999s-51 23 -99 23c-31.333 0 -68.333 -2.66699 -111 -8v-137h47v-136h-279z" />
    <glyph glyph-name="afii10052" unicode="&#x403;" horiz-adv-x="621" 
d="M606 433h-136v131h-188v-428h67v-136h-299v136h67v428h-67v136h556v-267zM335 885h160l-106 -132h-123z" />
    <glyph glyph-name="afii10053" unicode="&#x404;" horiz-adv-x="741" 
d="M685 487l-152 -0.000976562c-4.66699 20.667 -13 37.834 -25 51.501s-26 23.5 -42 29.5s-30 10.167 -42 12.5s-24.333 3.5 -37 3.5c-11.333 0 -21.666 -0.5 -30.999 -1.5s-21.833 -4.66699 -37.5 -11s-29 -15 -40 -26s-21.833 -27.667 -32.5 -50
s-18.334 -48.833 -23.001 -79.5h302v-128h-303c8 -53.333 26.333 -95.333 55 -126s66.334 -46 113.001 -46c42 0 76 9.5 102 28.5s41 42.5 45 70.5h164c-2.66699 -27.333 -11.167 -54.333 -25.5 -81s-34 -51.834 -59 -75.501s-57.833 -42.667 -98.5 -57
s-85.667 -21.5 -135 -21.5c-47.333 0 -90.5 6 -129.5 18s-75 31.333 -108 58s-58.833 64.167 -77.5 112.5s-28 105.833 -28 172.5c0 50 4.66699 95.167 14 135.5s21 73.333 35 99s31.333 48 52 67s40.167 33.333 58.5 43s38.666 17.334 60.999 23.001s40 9 53 10
s26.5 1.5 40.5 1.5c92 0 157 -26.667 195 -80v60h136v-213z" />
    <glyph glyph-name="afii10054" unicode="&#x405;" horiz-adv-x="675" 
d="M606 485h-148.002c-3.33301 25.333 -14.666 48.166 -33.999 68.499s-49.333 30.5 -90 30.5c-72 0 -108 -22.333 -108 -67c0 -14 4 -26.333 12 -37s19.833 -19.167 35.5 -25.5s29.834 -11 42.501 -14s28.667 -6.16699 48 -9.5c43.333 -8 78.833 -16.167 106.5 -24.5
s55.334 -20.333 83.001 -36s48.167 -36.5 61.5 -62.5s20 -57.667 20 -95c0 -11.333 -0.333008 -21.666 -1 -30.999s-2.83398 -22.5 -6.50098 -39.5s-8.83398 -32.167 -15.501 -45.5s-17 -27.666 -31 -42.999s-30.5 -28 -49.5 -38s-43.667 -18.5 -74 -25.5
s-64.166 -10.5 -101.499 -10.5s-73.333 6.5 -108 19.5s-62 32.5 -82 58.5v-58h-122v235h158c0 -12.667 1.83301 -25 5.5 -37s10.167 -24.667 19.5 -38s23.666 -24 42.999 -32s43 -12 71 -12c83.333 0 125 25 125 75c0 9.33301 -1.5 17.833 -4.5 25.5
s-6.5 14.334 -10.5 20.001s-10.5 11.167 -19.5 16.5s-16.5 9.5 -22.5 12.5s-15.5 6.33301 -28.5 10s-22.667 6.16699 -29 7.5l-32.5 7c-15.333 3.33301 -25.666 5.66602 -30.999 6.99902c-29.333 6 -53.666 12 -72.999 18s-39.833 14.5 -61.5 25.5
s-38.834 23.667 -51.501 38s-23.334 33.166 -32.001 56.499s-13 50 -13 80c0 38 9.16699 72.333 27.5 103s44.833 54.667 79.5 72c41.333 20 92 30 152 30c32.667 0 65.334 -6.66699 98.001 -20s56 -31 70 -53v53h122v-215z" />
    <glyph glyph-name="afii10055" unicode="&#x406;" horiz-adv-x="399" 
d="M50 564v136h299v-136h-67v-428h67v-136h-299v136h67v428h-67z" />
    <glyph glyph-name="afii10056" unicode="&#x407;" horiz-adv-x="399" 
d="M26 766v106h139v-106h-139zM234 766v106h139v-106h-139zM50 564v136h299v-136h-67v-428h67v-136h-299v136h67v428h-67z" />
    <glyph glyph-name="afii10057" unicode="&#x408;" horiz-adv-x="625" 
d="M280 564l0.000976562 135.998h305v-136h-67v-311c0 -57.333 -7 -105.166 -21 -143.499s-33.667 -66.333 -59 -84s-50.333 -29.667 -75 -36s-53.334 -9.5 -86.001 -9.5c-50.667 0 -93.834 8 -129.501 24s-61.667 37 -78 63s-27.666 50.833 -33.999 74.5
s-9.5 47.834 -9.5 72.501v44h165v-28c0 -39.333 6.33301 -68.166 19 -86.499s34.667 -27.5 66 -27.5c30 0 50.333 9.16699 61 27.5s16 47.166 16 86.499v334h-73z" />
    <glyph glyph-name="afii10058" unicode="&#x409;" horiz-adv-x="1114" 
d="M324 564l-4.99902 -180c-0.666992 -26 -1.66699 -48.333 -3 -67s-4.5 -43.667 -9.5 -75s-11.5 -58 -19.5 -80s-20 -45.333 -36 -70s-34.5 -44 -55.5 -58s-47.833 -24.5 -80.5 -31.5s-69.334 -7.83301 -110.001 -2.5v136c21.333 -2.66699 40.666 -1 57.999 5
s31.666 13.833 42.999 23.5s21 24 29 43s14.167 35.667 18.5 50s7.83301 34.5 10.5 60.5s4.33398 45 5.00098 57s1.33398 30.333 2.00098 55l3 134h-70v136h633v-136h-67v-118h163c25.333 0 49.5 -1.83301 72.5 -5.5s46.5 -10.667 70.5 -21s44.667 -23.5 62 -39.5
s31.5 -37.167 42.5 -63.5s16.5 -56.5 16.5 -90.5c0 -71.333 -25.667 -126.833 -77 -166.5s-118.333 -59.5 -201 -59.5h-381v136h67v428h-181zM670.001 310v-174h128c80.667 0 121 30 121 90c0 56 -41 84 -123 84h-126z" />
    <glyph glyph-name="afii10059" unicode="&#x40a;" horiz-adv-x="1159" 
d="M485 564l0.000976562 135.999h297v-136h-67v-123h163c25.333 0 49.333 -1.66699 72 -5s46.167 -9.83301 70.5 -19.5s45.166 -22 62.499 -37s31.5 -35.5 42.5 -61.5s16.5 -56 16.5 -90c0 -71.333 -25.667 -127.166 -77 -167.499s-118.333 -60.5 -201 -60.5h-379v136h65
v179h-268v-179h65v-136h-297v136h67v428h-67v136h297v-136h-65v-123h268v123h-65zM715.001 314.999v-179h128c37.333 0 66.833 7.66699 88.5 23s32.5 38.333 32.5 69c0 58 -41 87 -123 87h-126z" />
    <glyph glyph-name="afii10060" unicode="&#x40b;" horiz-adv-x="926" 
d="M710 700v-237h-136v101h-129v-167c42.667 6.66699 89 10 139 10c91.333 0 155 -20 191 -60s54 -96 54 -168v-43h67v-136h-232v163c0 38.667 -8.5 68 -25.5 88s-49.5 30 -97.5 30c-32 0 -64 -3 -96 -9v-136h62v-136h-294v136h67v428h-129v-131h-136v267h695z" />
    <glyph glyph-name="afii10061" unicode="&#x40c;" horiz-adv-x="725" 
d="M302 352l161 217h-51v131h290v-136h-60l-164 -199l192 -229h55v-136h-311v131h58zM282 569v-438h57v-131h-289v136h67v428h-67v136h289v-131h-57zM385 885h160l-106 -132h-123z" />
    <glyph glyph-name="afii10062" unicode="&#x40e;" horiz-adv-x="665" 
d="M0 564v136h301v-136h-45l104 -209l77 209h-45v136h283v-136h-66l-251 -564h-220v136h119l22 57l-212 371h-67zM114 911l144.002 -0.00292969c0 -18 6.66699 -33.333 20 -46s35.333 -19 66 -19c30 0 51.833 6.33301 65.5 19s20.5 28 20.5 46h144
c-0.666992 -26 -7.33398 -48.667 -20.001 -68s-27.334 -34 -44.001 -44s-36.334 -18.167 -59.001 -24.5s-42.167 -10.333 -58.5 -12s-32.5 -2.5 -48.5 -2.5c-19.333 0 -38 1 -56 3s-37.5 6.33301 -58.5 13s-39.5 15.334 -55.5 26.001s-29.667 25.334 -41 44.001
s-17.666 40.334 -18.999 65.001z" />
    <glyph glyph-name="afii10145" unicode="&#x40f;" horiz-adv-x="825" 
d="M479 564v136h296v-136h-67v-428h67v-136h-290v-226h-145v226h-290v136h67v428h-67v136h296v-136h-64v-428h261v428h-64z" />
    <glyph glyph-name="afii10017" unicode="&#x410;" horiz-adv-x="711" 
d="M170 577v123h269l215 -574h67v-126h-292v123h47l-15 45h-228l-16 -45h44v-123h-271v126h67l173 451h-60zM347 516l-82 -234h161z" />
    <glyph glyph-name="afii10018" unicode="&#x411;" horiz-adv-x="759" 
d="M50 564v135.999h615v-235h-136v106h-247v-153h155h11h38c10 0 25.333 -1.16699 46 -3.5s38.167 -5.83301 52.5 -10.5s30.5 -12 48.5 -22s32.667 -22.167 44 -36.5s20.833 -32.666 28.5 -54.999s11.5 -47.833 11.5 -76.5c0 -68 -24.667 -120.667 -74 -158
s-116 -56 -200 -56h-393v136h67v428h-67zM282 296.999v-161h124c88.667 0 133 27 133 81c0 13.333 -1.83301 24.833 -5.5 34.5s-9.66699 17.334 -18 23.001s-15.666 10.167 -21.999 13.5s-16.333 5.66602 -30 6.99902s-22.834 2 -27.501 2h-27h-127z" />
    <glyph glyph-name="afii10019" unicode="&#x412;" horiz-adv-x="758" 
d="M50 564l0.00195312 136.001h418c43.333 0 80.166 -5.5 110.499 -16.5s52.666 -25.833 66.999 -44.5s24.333 -37.334 30 -56.001s8.5 -39 8.5 -61c0 -71.333 -38.333 -120 -115 -146v-1c16 -3.33301 31.5 -8.5 46.5 -15.5s30.833 -17 47.5 -30s30 -31 40 -54
s15 -49.5 15 -79.5c0 -130.667 -89.333 -196 -268 -196h-400v136h67v428h-67zM282.002 295.001v-159h171c20.667 0 41 6.16699 61 18.5s30 32.5 30 60.5c0 30.667 -10 51.667 -30 63s-47.333 17 -82 17h-150zM282.002 564.001v-140h152c30 0 51.167 7.5 63.5 22.5
s18.5 31.5 18.5 49.5s-6.66699 33.833 -20 47.5s-36.333 20.5 -69 20.5h-145z" />
    <glyph glyph-name="afii10020" unicode="&#x413;" horiz-adv-x="621" 
d="M606 433h-136v131h-188v-428h67v-136h-299v136h67v428h-67v136h556v-267z" />
    <glyph glyph-name="afii10021" unicode="&#x414;" horiz-adv-x="799" 
d="M675 136h99l-8 -294h-146v158h-461v-158h-146l-8 294h69c70.667 105.333 106 239.333 106 402v26h-78v136h640v-136h-67v-428zM327 564l-1 -83c-2.66699 -150.667 -29.667 -265.667 -81 -345h265v428h-183z" />
    <glyph glyph-name="afii10022" unicode="&#x415;" horiz-adv-x="715" 
d="M671 465h-136v99h-253v-142h214v-129h-214v-157h267v135h136v-271h-635v136h67v428h-67v136h621v-235z" />
    <glyph glyph-name="afii10024" unicode="&#x416;" horiz-adv-x="1001" 
d="M579 579v-458h57v-121h-271v121h57v458h-58v121h277v-121h-62zM599 362l155 217h-44v121h266v-136h-63l-152 -188l162 -240h78v-136h-185zM247 579l155 -217l-217 -362h-185v136h78l162 240l-152 188h-63v136h266v-121h-44z" />
    <glyph glyph-name="afii10025" unicode="&#x417;" horiz-adv-x="731" 
d="M35 241l160.001 -0.000976562c3.33301 -83.333 58.333 -125 165 -125c52.667 0 89.5 9.16699 110.5 27.5s31.5 39.833 31.5 64.5c0 56.667 -40 85 -120 85h-99v129h82c76.667 0 115 26 115 78c0 56 -40.667 84 -122 84c-35.333 0 -66 -10 -92 -30
c-18.667 -14.667 -31.667 -37.667 -39 -69h-151v215h131v-57c22 26.667 51.167 46.167 87.5 58.5s71.833 18.5 106.5 18.5c171.333 0 257 -65 257 -195c0 -24 -4.83301 -45.833 -14.5 -65.5s-21.834 -35.5 -36.501 -47.5s-29 -21.667 -43 -29s-27 -12 -39 -14v-2
c52 -10.667 90.833 -29.834 116.5 -57.501s38.5 -67.5 38.5 -119.5c0 -38 -9.5 -71.167 -28.5 -99.5s-44.833 -50.166 -77.5 -65.499s-67.167 -26.666 -103.5 -33.999s-74.833 -11 -115.5 -11c-32.667 0 -62 1.66699 -88 5s-53.5 10.5 -82.5 21.5s-53.5 25.5 -73.5 43.5
s-37.167 43.333 -51.5 76s-22.5 71 -24.5 115z" />
    <glyph glyph-name="afii10026" unicode="&#x418;" horiz-adv-x="843" 
d="M50 564v136h297v-136h-65v-316l279 452h232v-136h-67v-428h67v-136h-297v136h65v321l-279 -457h-232v136h67v428h-67z" />
    <glyph glyph-name="afii10027" unicode="&#x419;" horiz-adv-x="843" 
d="M50 564v136h297v-136h-65v-316l279 452h232v-136h-67v-428h67v-136h-297v136h65v321l-279 -457h-232v136h67v428h-67zM187 911l144.002 -0.00292969c0 -18 6.66699 -33.333 20 -46s35.333 -19 66 -19c30 0 51.833 6.33301 65.5 19s20.5 28 20.5 46h144
c-0.666992 -26 -7.33398 -48.667 -20.001 -68s-27.334 -34 -44.001 -44s-36.334 -18.167 -59.001 -24.5s-42.167 -10.333 -58.5 -12s-32.5 -2.5 -48.5 -2.5c-19.333 0 -38 1 -56 3s-37.5 6.33301 -58.5 13s-39.5 15.334 -55.5 26.001s-29.667 25.334 -41 44.001
s-17.666 40.334 -18.999 65.001z" />
    <glyph glyph-name="afii10028" unicode="&#x41a;" horiz-adv-x="725" 
d="M302 352l161 217h-51v131h290v-136h-60l-164 -199l192 -229h55v-136h-311v131h58zM282 569v-438h57v-131h-289v136h67v428h-67v136h289v-131h-57z" />
    <glyph glyph-name="afii10029" unicode="&#x41b;" horiz-adv-x="787" 
d="M324 564l-4.99902 -180c-0.666992 -26 -1.66699 -48.333 -3 -67s-4.5 -43.667 -9.5 -75s-11.5 -58 -19.5 -80s-20 -45.333 -36 -70s-34.5 -44 -55.5 -58s-47.833 -24.5 -80.5 -31.5s-69.334 -7.83301 -110.001 -2.5v136c21.333 -2.66699 40.666 -1 57.999 5
s31.666 13.833 42.999 23.5s21 24 29 43s14.167 35.667 18.5 50s7.83301 34.5 10.5 60.5s4.33398 45 5.00098 57s1.33398 30.333 2.00098 55l3 134h-70v136h633v-136h-67v-428h67v-136h-299v136h67v428h-181z" />
    <glyph glyph-name="afii10030" unicode="&#x41c;" horiz-adv-x="1068" 
d="M726 0v136h60v372h-3l-193 -508h-112l-193 508h-3v-372h60v-136h-292v136h67v428h-67v136h306l185 -481l185 481h292v-136h-67v-428h67v-136h-292z" />
    <glyph glyph-name="afii10031" unicode="&#x41d;" horiz-adv-x="832" 
d="M485 0v136h65v168h-268v-168h65v-136h-297v136h67v428h-67v136h297v-136h-65v-132h268v132h-65v136h297v-136h-67v-428h67v-136h-297z" />
    <glyph glyph-name="afii10032" unicode="&#x41e;" horiz-adv-x="788" 
d="M394 -20c-53.333 0 -100.833 7.66699 -142.5 23s-75.5 35.333 -101.5 60s-47.5 53.5 -64.5 86.5s-28.833 66 -35.5 99s-10 66.833 -10 101.5s3.33301 68.5 10 101.5s18.5 66 35.5 99s38.5 61.833 64.5 86.5s59.833 44.667 101.5 60s89.167 23 142.5 23
c116 0 204 -33.833 264 -101.5s90 -157.167 90 -268.5s-30 -200.833 -90 -268.5s-148 -101.5 -264 -101.5zM394 116c32 0 59.5 6.50195 82.5 19.502s40.333 28 52 45s20.834 37.667 27.501 62s10.667 44.166 12 59.499s2 31.333 2 48c0 18 -0.666992 34.667 -2 50
s-5.33301 35.166 -12 59.499s-15.834 44.833 -27.501 61.5s-29 31.334 -52 44.001s-50.5 19 -82.5 19c-116.667 0 -175 -78 -175 -234c0 -84.667 16.167 -144.834 48.5 -180.501s74.5 -53.5 126.5 -53.5z" />
    <glyph glyph-name="afii10033" unicode="&#x41f;" horiz-adv-x="825" 
d="M479 0v136h64v428h-261v-428h64v-136h-296v136h67v428h-67v136h725v-136h-67v-428h67v-136h-296z" />
    <glyph glyph-name="afii10034" unicode="&#x420;" horiz-adv-x="724" 
d="M50 564l-0.000976562 135.999h379c81.333 0 148 -18 200 -54s78 -93.333 78 -172c0 -40 -7.33301 -75 -22 -105s-32.167 -53 -52.5 -69s-44.5 -28.667 -72.5 -38s-52.167 -15.166 -72.5 -17.499s-41.166 -3.5 -62.499 -3.5h-143v-105h70v-136h-302v136h67v428h-67z
M281.999 563.999v-186.999h117c40.667 0 72.5 8.16699 95.5 24.5s34.5 40.166 34.5 71.499c0 60.667 -43.333 91 -130 91h-117z" />
    <glyph glyph-name="afii10035" unicode="&#x421;" horiz-adv-x="731" 
d="M685 465l-152 0.00292969c-10.667 79.333 -62.667 119 -156 119c-8.66699 0 -17 -0.666992 -25 -2s-18.833 -4.16602 -32.5 -8.49902s-25.834 -11.833 -36.501 -22.5s-21.167 -24.334 -31.5 -41.001s-18.5 -39.334 -24.5 -68.001s-9 -61.667 -9 -99
c0 -68 15 -122.833 45 -164.5s72.333 -62.5 127 -62.5c26 0 48.5 4.16699 67.5 12.5s33.833 19.666 44.5 33.999s18.5 28.166 23.5 41.499s8.83301 27.666 11.5 42.999h164c-2.66699 -24 -7.16699 -46.833 -13.5 -68.5s-17 -45.167 -32 -70.5s-33.667 -47 -56 -65
s-52.166 -33 -89.499 -45s-79.666 -18 -126.999 -18s-90.5 6 -129.5 18s-75 31.333 -108 58s-58.833 64.167 -77.5 112.5s-28 105.833 -28 172.5c0 50 4.66699 95.167 14 135.5s21 73.333 35 99s31.333 48 52 67s40.167 33.333 58.5 43s38.666 17.334 60.999 23.001
s40 9 53 10s26.5 1.5 40.5 1.5c92 0 157 -26.667 195 -80v60h136v-235z" />
    <glyph glyph-name="afii10036" unicode="&#x422;" horiz-adv-x="725" 
d="M213 0v136h67v428h-129v-131h-136v267h695v-267h-136v131h-129v-428h67v-136h-299z" />
    <glyph glyph-name="afii10037" unicode="&#x423;" horiz-adv-x="665" 
d="M0 564v136h301v-136h-45l104 -209l77 209h-45v136h283v-136h-66l-251 -564h-220v136h119l22 57l-212 371h-67z" />
    <glyph glyph-name="afii10038" unicode="&#x424;" horiz-adv-x="947" 
d="M324 634l-0.000976562 105.998h299v-106h-67v-39h26c220 0 330 -78.667 330 -236s-110 -236 -330 -236h-26v-43h67v-106h-299v106h67v43l-27 -1c-219.333 0 -329 79 -329 237c0 31.333 4.83301 59.833 14.5 85.5s25.834 50.334 48.501 74.001s56.667 42.334 102 56.001
s100 20.5 164 20.5h27v39h-67zM540.999 232.998h13.001c64 0 111 9 141 27s45 52.667 45 104c0 14.667 -1.66699 28 -5 40s-8.33301 22 -15 30s-13.5 15.167 -20.5 21.5s-15.833 11.333 -26.5 15s-19.834 6.66699 -27.501 9s-17.167 3.83301 -28.5 4.5l-25.5 1.5
c-5.66699 0.333008 -13.167 0.333008 -22.5 0s-14.333 -0.5 -15 -0.5h-13v-252zM406 232.998l0.000976562 252h-13c-48.667 0 -84.334 -3.66699 -107.001 -11c-52.667 -18 -79 -55.667 -79 -113c0 -41.333 13 -73 39 -95s75 -33 147 -33h13z" />
    <glyph glyph-name="afii10039" unicode="&#x425;" horiz-adv-x="716" 
d="M406 574v126h293v-136h-67l-168 -200l185 -228h67v-136h-308v126h48l-98 138l-98 -138h50v-126h-310v136h67l185 228l-167 200h-67v136h302v-126h-50l93 -127l93 127h-50z" />
    <glyph glyph-name="afii10040" unicode="&#x426;" horiz-adv-x="834" 
d="M50 564v136h297v-136h-65v-428h263v428h-65v136h297v-136h-67v-428h99l-7 -294h-145v158h-607v136h67v428h-67z" />
    <glyph glyph-name="afii10041" unicode="&#x427;" horiz-adv-x="767" 
d="M418 0v136h67v147c-37.333 -6.66699 -90 -10 -158 -10c-91.333 0 -155 20 -191 60s-54 96 -54 168v63h-67v136h294v-136h-62v-37c0 -38.667 8.5 -68 25.5 -88s49.5 -30 97.5 -30c44.667 0 83 3 115 9v146h-62v136h294v-136h-67v-428h67v-136h-299z" />
    <glyph glyph-name="afii10042" unicode="&#x428;" horiz-adv-x="1175" 
d="M50 564v136h294v-136h-62v-428h223v428h-62v136h289v-136h-62v-428h223v428h-62v136h294v-136h-67v-428h67v-136h-1075v136h67v428h-67z" />
    <glyph glyph-name="afii10043" unicode="&#x429;" horiz-adv-x="1182" 
d="M831 564v136h294v-136h-67v-428h99l-8 -288h-145v152h-954v136h67v428h-67v136h294v-136h-62v-428h223v428h-62v136h289v-136h-62v-428h223v428h-62z" />
    <glyph glyph-name="afii10044" unicode="&#x42a;" horiz-adv-x="874" 
d="M198 0v136h67v431h-114v-134h-136v267h482v-136h-67v-118h163c25.333 0 49.5 -1.83301 72.5 -5.5s46.5 -10.667 70.5 -21s44.667 -23.5 62 -39.5s31.5 -37.167 42.5 -63.5s16.5 -56.5 16.5 -90.5c0 -71.333 -25.667 -126.833 -77 -166.5s-118.333 -59.5 -201 -59.5h-381z
M430 310v-174h128c80.667 0 121 30 121 90c0 56 -41 84 -123 84h-126z" />
    <glyph glyph-name="afii10045" unicode="&#x42b;" horiz-adv-x="1079" 
d="M730 564v136h299v-136h-67v-428h67v-136h-284v136h52v428h-67zM50 564v136h299v-136h-67v-118h153c25.333 0 49.5 -1.83301 72.5 -5.5s46.5 -10.667 70.5 -21s44.667 -23.5 62 -39.5s31.5 -37.167 42.5 -63.5s16.5 -56.5 16.5 -90.5
c0 -71.333 -25.667 -126.833 -77 -166.5s-118.333 -59.5 -201 -59.5h-371v136h67v428h-67zM282 310v-174h118c80.667 0 121 30 121 90c0 56 -41 84 -123 84h-116z" />
    <glyph glyph-name="afii10046" unicode="&#x42c;" horiz-adv-x="726" 
d="M50 564v136h299v-136h-67v-118h163c25.333 0 49.5 -1.83301 72.5 -5.5s46.5 -10.667 70.5 -21s44.667 -23.5 62 -39.5s31.5 -37.167 42.5 -63.5s16.5 -56.5 16.5 -90.5c0 -71.333 -25.667 -126.833 -77 -166.5s-118.333 -59.5 -201 -59.5h-381v136h67v428h-67zM282 310
v-174h128c80.667 0 121 30 121 90c0 56 -41 84 -123 84h-126z" />
    <glyph glyph-name="afii10047" unicode="&#x42d;" horiz-adv-x="770" 
d="M552 288l-267.007 0.00195312v128h267c-3.33301 30.667 -10.166 57.167 -20.499 79.5s-21.5 39 -33.5 50s-26.5 19.667 -43.5 26s-31 10 -42 11s-23.5 1.5 -37.5 1.5c-54 0 -95.5 -12.833 -124.5 -38.5s-45.167 -52.5 -48.5 -80.5h-148v235h136v-59
c24 24.667 54.5 44 91.5 58s74.167 21 111.5 21c56 0 104.833 -7.5 146.5 -22.5s74.334 -33.833 98.001 -56.5s42.667 -50.667 57 -84s23.833 -65.5 28.5 -96.5s7 -64.833 7 -101.5c0 -49.333 -5 -94 -15 -134s-22.667 -72.833 -38 -98.5s-34.166 -48.167 -56.499 -67.5
s-43.666 -33.833 -63.999 -43.5s-42.833 -17.334 -67.5 -23.001s-45 -9.16699 -61 -10.5s-32.667 -2 -50 -2c-102.667 0 -183.167 25.333 -241.5 76s-90.5 116 -96.5 196h168c2 -36.667 17.333 -68.5 46 -95.5s69.334 -40.5 122.001 -40.5c20 0 38.833 2.16699 56.5 6.5
s35.834 12 54.501 23s33.834 28.667 45.501 53s18.167 54.166 19.5 89.499z" />
    </font>
</defs>
</svg>
