<?xml version="1.0" standalone="no"?>
<!DOCTYPE svg PUBLIC "-//W3C//DTD SVG 1.1//EN" "http://www.w3.org/Graphics/SVG/1.1/DTD/svg11.dtd" >
<svg>
<metadata>
Created by FontForge 20090914 at Wed Jan  5 19:43:54 2022
 By www-data
Copyright &#194;&#169; 2011 ParaType Inc., ParaType Ltd. All rights reserved.
</metadata>
<defs>
<font id="PragmaticaSlab-Light" horiz-adv-x="576" >
  <font-face 
    font-family="Pragmatica Slabserif"
    font-weight="300"
    font-stretch="normal"
    units-per-em="1000"
    panose-1="2 6 4 3 2 2 6 2 4 4"
    ascent="800"
    descent="-200"
    x-height="508"
    cap-height="700"
    bbox="-498 -253.002 1224 932.001"
    underline-thickness="50"
    underline-position="-150"
    unicode-range="U+0020-U+FB02"
  />
<missing-glyph horiz-adv-x="500" 
d="M58 8h384v496h-384v-496zM50 0v512h400v-512h-400z" />
    <glyph glyph-name="afii10017.var.accented" unicode="&#x410;`" horiz-adv-x="719" 
d="M500 0v63h61l-51 138h-305l-52 -138h63v-63h-211v63h71l218 574h-80v63h187l242 -637h71v-63h-214zM226 264h262l-131 370zM383 900h94l-99 -140h-67z" />
    <glyph glyph-name="afii10022.var.accented" unicode="&#x415;`" horiz-adv-x="658" 
d="M60 637v63h556v-210h-63v147h-346v-243h294v-63h-294v-268h358v177h63v-240h-568v63h73v574h-73zM390 900h94l-99 -140h-67z" />
    <glyph glyph-name="afii10026.var.accented" unicode="&#x418;`" horiz-adv-x="813" 
d="M60 637v63h220v-63h-73v-531l397 594h149v-63h-73v-574h73v-63h-220v63h73v534l-397 -597h-149v63h73v574h-73zM420 900h94l-99 -140h-67z" />
    <glyph glyph-name="afii10032.var.accented" unicode="&#x41e;`" horiz-adv-x="790" 
d="M66 350c0 124 34 219.998 102 287.998c55.333 55.333 130 83 224 83c93.333 0 168.666 -26.667 225.999 -80c70.667 -66 106 -163 106 -291c0 -129.333 -34.667 -226.666 -104 -291.999c-55.333 -52.667 -129.666 -79 -222.999 -79c-100 0 -177 27 -231 81
c-8 6.66699 -16.5 16.334 -25.5 29.001s-19.667 30.5 -32 53.5s-22.5 52.833 -30.5 89.5s-12 76 -12 118zM144 345.998c0 -104.667 26 -184.001 78 -238.001c44 -44 102 -66 174 -66c69.333 0 126.333 22.333 171 67c52.667 52.667 79 132.334 79 239.001
c0 113.333 -30 198 -90 254c-40.667 37.333 -94 56 -160 56s-120.333 -19 -163 -57c-59.333 -54 -89 -139 -89 -255zM407 899.997h94l-99 -140h-67z" />
    <glyph glyph-name="afii10037.var.accented" unicode="&#x423;`" horiz-adv-x="644" 
d="M5 637v63h210v-63h-58l184 -383l153 383h-59v63h204v-63h-66l-265 -637h-158v63h112l42 105l-237 469h-62zM338 900h94l-99 -140h-67z" />
    <glyph glyph-name="afii10045.var.accented" unicode="&#x42b;`" horiz-adv-x="956" 
d="M676 637v63h220v-63h-73v-574h73v-63h-220v63h73v574h-73zM60 637l-0.000976562 63h220v-63h-73v-230h170c91.333 0 155.333 -16.667 192 -50c42 -38 63 -87.333 63 -148s-22.667 -112 -68 -154c-43.333 -36.667 -108.666 -55 -195.999 -55h-308v63h73v574h-73z
M206.999 344v-281.001h176c52.667 0 94 11 124 33c32.667 24 49 60.333 49 109c0 50.667 -17.333 87.334 -52 110.001c-29.333 19.333 -72.333 29 -129 29h-168zM475.999 899.999h94l-99 -140h-67z" />
    <glyph glyph-name="afii10047.var.accented" unicode="&#x42d;`" horiz-adv-x="733" 
d="M77 700l61.0039 -0.000976562v-93c22.667 38.667 54.667 67.334 96 86.001s84.333 28 129 28c76 0 139.333 -19.333 190 -58c37.333 -30 65.666 -72.167 84.999 -126.5s29 -115.5 29 -183.5c0 -66 -10.833 -127.833 -32.5 -185.5s-51.834 -102.167 -90.501 -133.5
c-47.333 -38.667 -112.333 -58 -195 -58c-91.333 0 -163 26 -215 78c-46 46 -74 106 -84 180h75c6.66699 -56.667 28.667 -103 66 -139c38 -37.333 89.667 -56 155 -56c58 0 105.667 14 143 42c27.333 20 49.166 48.333 65.499 85s26.166 67.667 29.499 93
s5 49.666 5 72.999h-349v62h349c-4 98.667 -29.333 169.334 -76 212.001c-40 34.667 -91.333 52 -154 52c-54 0 -100 -13.667 -138 -41c-15.333 -10 -31.833 -27.167 -49.5 -51.5s-28.167 -49.5 -31.5 -75.5h-63v210zM380.004 899.999h94l-99 -140h-67z" />
    <glyph glyph-name="afii10048.var.accented" unicode="&#x42e;`" horiz-adv-x="1036" 
d="M207 401l124.999 0.000976562c7.33301 102.667 40.333 182 99 238c56 54.667 129.333 82 220 82c88.667 0 160.334 -26 215.001 -78c69.333 -66 104 -165.667 104 -299c0 -126.667 -34 -222.334 -102 -287.001c-54 -52 -126.667 -78 -218 -78
c-45.333 0 -85.5 5.66699 -120.5 17s-68.5 32 -100.5 62c-66 64 -99 157.333 -99 280h-123v-275h73v-63h-220v63h73v574h-73v63h220v-63h-73v-236zM648.999 42.001c69.333 0 126.001 22.667 170.001 68c48.667 49.333 73 127.333 73 234c0 114 -27.333 198.333 -82 253
c-42.667 40.667 -97.334 61 -164.001 61c-63.333 0 -116.333 -20.667 -159 -62c-54 -52 -81 -134 -81 -246c0 -114 27.333 -196.333 82 -247c42 -40.667 95.667 -61 161 -61zM564 900.001h94l-99 -140h-67z" />
    <glyph glyph-name="afii10049.var.accented" unicode="&#x42f;`" horiz-adv-x="722" 
d="M662 63v-63.001h-220v63h69v225h-185l-156 -288h-140v63h86l133 232c-58 5.33301 -102.333 23.333 -133 54c-36 34.667 -54 82.667 -54 144c0 58.667 21.667 108.334 65 149.001c43.333 38.667 107.333 58 192 58h343v-63h-77v-574h77zM511 636.999
l-195.999 -0.000976562c-61.333 0 -105.333 -12.667 -132 -38c-30 -26.667 -45 -61.667 -45 -105s11.667 -76.666 35 -99.999c27.333 -28.667 77.666 -43 150.999 -43h187v286zM381.001 899.998h94l-99 -140h-67z" />
    <glyph glyph-name="afii10023.var.accented" unicode="&#x401;`" horiz-adv-x="658" 
d="M60 637v63h556v-210h-63v147h-346v-243h294v-63h-294v-268h358v177h63v-240h-568v63h73v574h-73zM185 781v77h77v-77h-77zM449 781v77h77v-77h-77zM356 900h94l-99 -140h-67z" />
    <glyph glyph-name="afii10065.var.accented" unicode="&#x430;`" horiz-adv-x="564" 
d="M397 0l0.00195312 82.999c-15.333 -29.333 -37 -51.666 -65 -66.999c-32.667 -18.667 -72.334 -28 -119.001 -28c-55.333 0 -97 13.667 -125 41c-28 26 -42 61.667 -42 107c0 39.333 12.333 71.333 37 96c28 28 81.667 46.333 161 55l101 12
c20 3.33301 33.333 8.33301 40 15c8 8.66699 12 25 12 49c0 38.667 -10.333 67.667 -31 87c-21.333 18.667 -53.333 28 -96 28c-48.667 0 -83.334 -10.333 -104.001 -31c-20 -20 -30.667 -48.333 -32 -85h-67c0 56 22 99.667 66 131c33.333 23.333 81 35 143 35
c68 0 117.667 -15.667 149 -47c27.333 -27.333 41 -67 41 -119v-312h68v-50h-137zM397.002 218.999l0.000976562 50.001c-7.33301 -6 -16 -10.333 -26 -13c-10 -3.33301 -21.333 -6 -34 -8s-29.334 -3.83301 -50.001 -5.5s-34.667 -2.83398 -42 -3.50098
c-50.667 -6 -85 -17.667 -103 -35c-16 -16 -24 -39 -24 -69c0 -28 8.66699 -50.667 26 -68c17.333 -19.333 44 -29 80 -29c44 0 80.333 11.667 109 35c42.667 35.333 64 84 64 146zM299.003 700h86l-95 -132h-61z" />
    <glyph glyph-name="afii10070.var.accented" unicode="&#x435;`" 
d="M451 147h66c-8.66699 -41.333 -27 -77.333 -55 -108c-38 -39.333 -92 -59 -162 -59c-73.333 0 -130.666 19.667 -171.999 59c-50 48.667 -75 121 -75 217c0 92 23.333 161.333 70 208c42.667 42.667 100 64 172 64c69.333 0 123.333 -20 162 -60
c25.333 -26 42.166 -56.667 50.499 -92s13.5 -80.333 15.5 -135h-398c2.66699 -72 20.667 -125.667 54 -161c30 -33.333 71.333 -50 124 -50c43.333 0 78.333 12.667 105 38c18 16 32.333 42.333 43 79zM125 291l325 0.00195312c0 23.333 -4.33301 49.666 -13 78.999
s-20.667 51.666 -36 66.999c-26 27.333 -61.667 41 -107 41c-52 0 -92.667 -16.333 -122 -49c-31.333 -36 -47 -82 -47 -138zM319 700.002h86l-95 -132h-61z" />
    <glyph glyph-name="afii10074.var.accented" unicode="&#x438;`" horiz-adv-x="644" 
d="M45 0v50h68v408h-68v50h205v-50h-68v-378l271 428h146v-50h-68v-408h68v-50h-205v50h68v379l-270 -429h-147zM345 700h86l-95 -132h-61z" />
    <glyph glyph-name="afii10080.var.accented" unicode="&#x43e;`" horiz-adv-x="592" 
d="M53 254c0 92 25.6699 163.667 77.0029 215c39.333 39.333 94.666 59 165.999 59c68.667 0 124 -19.667 166 -59c51.333 -48.667 77 -120.334 77 -215.001c0 -95.333 -27 -168 -81 -218c-40.667 -37.333 -94.334 -56 -161.001 -56c-70.667 0 -125.334 18.667 -164.001 56
c-22 18.667 -40.833 46.334 -56.5 83.001s-23.5 81.667 -23.5 135zM126.003 255c0 -85.333 20.333 -147.333 61 -186c28.667 -26 65 -39 109 -39c45.333 0 81.333 12.667 108 38c41.333 38 62 100.333 62 187c0 79.333 -17.333 138 -52 176c-30 31.333 -69 47 -117 47
c-47.333 0 -85 -14 -113 -42c-38.667 -38.667 -58 -99 -58 -181zM324.003 700h86l-95 -132h-61z" />
    <glyph glyph-name="afii10085.var.accented" unicode="&#x443;`" horiz-adv-x="534" 
d="M-10 458v50h203v-50h-58l149 -381l129 381h-60v50h191v-50h-63l-232 -643h-138v50h91l45 135l-193 458h-64zM294 700h86l-95 -132h-61z" />
    <glyph glyph-name="afii10093.var.accented" unicode="&#x44b;`" horiz-adv-x="780" 
d="M530 458v50h205v-50h-68v-408h68v-50h-192v50h55v408h-68zM45 458v50h205v-50h-68v-154h146c64 0 110.667 -14.667 140 -44c27.333 -27.333 41 -62.333 41 -105c0 -44 -14.333 -80.333 -43 -109c-30.667 -30.667 -79 -46 -145 -46h-276v50h68v408h-68zM182 254
l-0.000976562 -204h123c50.667 0 85.334 10.333 104.001 31c19.333 20.667 29 45.667 29 75c0 28.667 -9.66699 52 -29 70c-20 18.667 -52.667 28 -98 28h-129zM397.999 700h86l-95 -132h-61z" />
    <glyph glyph-name="afii10095.var.accented" unicode="&#x44d;`" horiz-adv-x="546" 
d="M189 241v50.001h232c0 47.333 -7.66699 85 -23 113c-28.667 49.333 -73.667 74 -135 74c-46.667 0 -83.334 -14 -110.001 -42c-24 -25.333 -37.333 -53 -40 -83h-50v155h50v-56c18.667 23.333 38.667 41 60 53c28.667 15.333 63.334 23 104.001 23
c63.333 0 115 -19.333 155 -58c40.667 -40.667 61 -110.667 61 -210c0 -91.333 -17.333 -159 -52 -203c-38.667 -51.333 -98 -77 -178 -77c-72 0 -126 18 -162 54c-36 34.667 -56.333 81 -61 139h68c1.33301 -32.667 10 -60.334 26 -83.001c26.667 -40 71 -60 133 -60
c61.333 0 105.333 28 132 84c16 32.667 23.333 75 22 127h-232zM291 700.001h86l-95 -132h-61z" />
    <glyph glyph-name="afii10096.var.accented" unicode="&#x44e;`" horiz-adv-x="796" 
d="M45 458l0.000976562 50h200v-50h-63v-166h99c4.66699 76.667 27.667 134.667 69 174c43.333 41.333 97 62 161 62c63.333 0 116.333 -20 159 -60c48.667 -48.667 73 -119.667 73 -213c0 -96.667 -25.667 -169.667 -77 -219c-38.667 -37.333 -89.667 -56 -153 -56
c-66.667 0 -119.334 19 -158.001 57c-48.667 48.667 -73.667 117 -75 205h-98v-192h63v-50h-200v50h68v408h-68zM351.001 255c0 -85.333 17.6689 -145.667 53.002 -181c29.333 -29.333 65.666 -44 108.999 -44c37.333 0 69.666 12.333 96.999 37c40 37.333 60 100 60 188
s-19.667 150 -59 186c-26.667 24.667 -60 37 -100 37c-42.667 0 -78 -14 -106 -42c-36 -36 -54 -96.333 -54 -181zM436.003 699.999h86l-95 -132h-61z" />
    <glyph glyph-name="afii10097.var.accented" unicode="&#x44f;`" horiz-adv-x="567" 
d="M317 0v50h68v157h-135l-117 -207h-113v50h67l93 161c-28 4.66699 -52.667 14.667 -74 30c-35.333 26 -53 64 -53 114c0 43.333 15 80 45 110c28.667 28.667 73 43 133 43h291v-50h-68v-408h68v-50h-205zM385 458h-128.997c-16.667 0 -29.334 -0.333008 -38.001 -1
s-19.334 -3 -32.001 -7s-23.334 -10.333 -32.001 -19c-20 -18 -30 -42.667 -30 -74c0 -28.667 10 -52 30 -70c20 -20 55.667 -30 107 -30h124v201zM314.003 700h86l-95 -132h-61z" />
    <glyph glyph-name="afii10071.var.accented" unicode="&#x451;`" 
d="M451 147h66c-8.66699 -41.333 -27 -77.333 -55 -108c-38 -39.333 -92 -59 -162 -59c-73.333 0 -130.666 19.667 -171.999 59c-50 48.667 -75 121 -75 217c0 92 23.333 161.333 70 208c42.667 42.667 100 64 172 64c69.333 0 123.333 -20 162 -60
c25.333 -26 42.166 -56.667 50.499 -92s13.5 -80.333 15.5 -135h-398c2.66699 -72 20.667 -125.667 54 -161c30 -33.333 71.333 -50 124 -50c43.333 0 78.333 12.667 105 38c18 16 32.333 42.333 43 79zM125 291l325 0.00195312c0 23.333 -4.33301 49.666 -13 78.999
s-20.667 51.666 -36 66.999c-26 27.333 -61.667 41 -107 41c-52 0 -92.667 -16.333 -122 -49c-31.333 -36 -47 -82 -47 -138zM123 596.002v84h72v-84h-72zM377 596.002v84h71v-84h-71zM280 700.002h86l-95 -132h-61z" />
    <glyph glyph-name="fi" unicode="fi" horiz-adv-x="538" 
d="M298 50l56 0.000976562v408h-183v-408h62v-50h-203v50h72v408h-94v50h94v63c0 44.667 10 77.667 30 99c22 22 59.667 33 113 33c24 0 41.667 -1 53 -3v-50c-9.33301 1.33301 -20.333 2 -33 2c-34 0 -58.333 -6.33301 -73 -19c-14 -12.667 -21 -34.334 -21 -65.001v-60
h252v-458h70v-50h-195v50zM353 616.001v84h71v-84h-71z" />
    <glyph glyph-name="fl" unicode="fl" horiz-adv-x="538" 
d="M30 0v50h72v408h-94v50h94v63c0 44.667 10 77.667 30 99c22 22 59.667 33 113 33c24 0 41.667 -1 53 -3h125v-650h70v-50h-195v50h56v408h-183v-408h62v-50h-203zM171 508l183 0.000976562v142h-56c-9.33301 1.33301 -20.333 2 -33 2c-34 0 -58.333 -6.33301 -73 -19
c-14 -12.667 -21 -34.334 -21 -65.001v-60z" />
    <glyph glyph-name=".notdef" horiz-adv-x="500" 
d="M58 8h384v496h-384v-496zM50 0v512h400v-512h-400z" />
    <glyph glyph-name="space" unicode=" " horiz-adv-x="233" 
 />
    <glyph glyph-name="exclam" unicode="!" horiz-adv-x="300" 
d="M111 700h79v-286l-20 -224h-40l-19 224v286zM110 0v94h80v-94h-80z" />
    <glyph glyph-name="quotedbl" unicode="&#x22;" horiz-adv-x="372" 
d="M160 700l-34 -192h-42l-34 192h110zM322 700l-33 -192h-43l-33 192h109z" />
    <glyph glyph-name="numbersign" unicode="#" 
d="M118 32l27 173h-140l7 48h140l31 201h-139l7 48h140l26 170h48l-26 -170h149l26 170h48l-26 -170h134l-7 -48h-135l-31 -201h134l-6 -48h-135l-27 -173h-48l27 173h-149l-27 -173h-48zM231 454l-31 -201h149l31 201h-149z" />
    <glyph glyph-name="dollar" unicode="$" 
d="M517 539l-68.999 -0.000976562c-7.33301 76.667 -48.666 117.334 -123.999 122.001v-269c82.667 -19.333 137.667 -43.666 165 -72.999c32.667 -32.667 49 -76.667 49 -132c0 -61.333 -18 -109.333 -54 -144c-38 -38 -91.333 -57 -160 -57v-79h-60v79
c-74.667 0 -129 29.333 -163 88v-74h-63v213h72c0 -55.333 16.333 -98 49 -128c27.333 -24 62.333 -37.667 105 -41v289c-41.333 11.333 -73.333 21.666 -96 30.999s-42.334 22.333 -59.001 39c-33.333 32.667 -50 75.667 -50 129s16 96 48 128
c37.333 37.333 89.666 56 156.999 56v61h60v-61c22.667 0 46.5 -5.5 71.5 -16.5s44.5 -25.833 58.5 -44.5v45h63v-161zM324.001 324.999v-282c44 0 78.667 12.667 104 38c25.333 23.333 38 56.333 38 99c0 43.333 -12.667 76.333 -38 99c-27.333 24 -62 39.333 -104 46z
M264.001 400.999v260.002c-40 3.33301 -73.667 -8.33398 -101 -35.001c-22.667 -22.667 -34 -53.334 -34 -92.001c0 -36 11 -64.333 33 -85c20 -20 54 -36 102 -48z" />
    <glyph glyph-name="percent" unicode="%" horiz-adv-x="893" 
d="M515 192c0 64.667 17.998 116.332 53.998 154.999c28.667 30 64.334 45 107.001 45c42 0 78.333 -14.333 109 -43c36.667 -36.667 55 -87 55 -151c0 -71.333 -18.667 -125.666 -56 -162.999c-28.667 -28.667 -63.667 -43 -105 -43c-43.333 0 -79.666 14.667 -108.999 44
c-36.667 36.667 -55 88.667 -55 156zM571.998 193.998c0 -58.667 12.334 -101.332 37.001 -127.999c17.333 -19.333 40 -29 68 -29c25.333 0 47.666 9.66699 66.999 29c26.667 29.333 40 72.333 40 129c0 55.333 -13.667 96.666 -41 123.999
c-18.667 18.667 -41.667 28 -69 28c-24 0 -44.333 -8.33301 -61 -25c-27.333 -27.333 -41 -70 -41 -128zM52.999 513c0 64.667 17.998 116.332 53.998 154.999c28.667 30 64.334 45 107.001 45c42 0 78.333 -14.333 109 -43c36.667 -36.667 55 -87 55 -151
c0 -71.333 -18.667 -125.666 -56 -162.999c-28.667 -28.667 -63.667 -43 -105 -43c-43.333 0 -79.666 14.667 -108.999 44c-36.667 36.667 -55 88.667 -55 156zM109.997 514.998c0 -58.667 12.334 -101.332 37.001 -127.999c17.333 -19.333 40 -29 68 -29
c25.333 0 47.666 9.66699 66.999 29c26.667 29.333 40 72.333 40 129c0 55.333 -13.667 96.666 -41 123.999c-18.667 18.667 -41.667 28 -69 28c-24 0 -44.333 -8.33301 -61 -25c-27.333 -27.333 -41 -70 -41 -128zM189.998 0l453 700h51l-453 -700h-51z" />
    <glyph glyph-name="ampersand" unicode="&#x26;" horiz-adv-x="684" 
d="M444 281l-0.000976562 63h192v-63h-71c-6.66699 -48 -22.334 -94 -47.001 -138l66 -80h80v-63h-112l-72 86c-22 -31.333 -51.333 -57.333 -88 -78c-33.333 -19.333 -76 -29 -128 -29c-75.333 0 -132.666 19.667 -171.999 59c-38 38 -57 87.667 -57 149
c0 59.333 20 109 60 149c35.333 35.333 75.666 62.666 120.999 81.999c-25.333 25.333 -44.666 49.833 -57.999 73.5s-20 50.834 -20 81.501c0 44.667 15 80.5 45 107.5s66.667 40.5 110 40.5c48.667 0 85.834 -13.333 111.501 -40s38.5 -62 38.5 -106
c0 -44.667 -16.667 -83 -50 -115c-18 -18 -45.667 -37 -83 -57l165 -209c12 24.667 20.667 53.667 26 87h-57zM439.999 135l-187.001 237.999c-31.333 -13.333 -62.666 -35.666 -93.999 -66.999c-30.667 -30.667 -46 -69 -46 -115c0 -44 14.333 -80.333 43 -109
c26.667 -26.667 64.334 -40 113.001 -40c42 0 78.667 9.66699 110 29c25.333 16.667 45.666 38 60.999 64zM274.998 445.999c29.333 13.333 52.002 28.001 68.002 44.001c22.667 22.667 34 50 34 82c0 26 -7.5 46.833 -22.5 62.5s-35.167 23.5 -60.5 23.5
c-24 0 -43.833 -7.16699 -59.5 -21.5s-23.5 -34.5 -23.5 -60.5c0 -6 0.666992 -12.333 2 -19l3.5 -17c1 -4.66699 3.33301 -10.334 7 -17.001s6.16699 -11.667 7.5 -15s4.66602 -8.83301 9.99902 -16.5s8.83301 -12.5 10.5 -14.5s5.66699 -7.33301 12 -16
s10.166 -13.667 11.499 -15z" />
    <glyph glyph-name="quotesingle" unicode="'" horiz-adv-x="209" 
d="M159 700l-33 -192h-43l-33 192h109z" />
    <glyph glyph-name="parenleft" unicode="(" horiz-adv-x="351" 
d="M218 700l50 0.00195312c-33.333 -60.667 -61.333 -126 -84 -196c-27.333 -85.333 -41 -167.333 -41 -246s13.667 -160.667 41 -246c22.667 -70 50.667 -135.333 84 -196h-50c-41.333 67.333 -73.666 129.666 -96.999 186.999c-33.333 85.333 -50 170.333 -50 255
s16.667 169.667 50 255c23.333 57.333 55.666 119.666 96.999 186.999z" />
    <glyph glyph-name="parenright" unicode=")" horiz-adv-x="351" 
d="M83 700l50 -0.00195312c41.333 -67.333 73.666 -129.666 96.999 -186.999c33.333 -85.333 50 -170.333 50 -255s-16.667 -169.667 -50 -255c-23.333 -57.333 -55.666 -119.666 -96.999 -186.999h-50c33.333 60.667 61.333 126 84 196c27.333 85.333 41 167.333 41 246
s-13.667 160.667 -41 246c-22.667 70 -50.667 135.333 -84 196z" />
    <glyph glyph-name="asterisk" unicode="*" horiz-adv-x="489" 
d="M245 508l-82 -112l-35 26l81 112l-130 41l14 41l131 -41v136h43v-136l129 41l14 -41l-129 -41l81 -112l-35 -26z" />
    <glyph glyph-name="plus" unicode="+" horiz-adv-x="600" 
d="M50 379h226v226h48v-226h226v-48h-226v-226h-48v226h-226v48z" />
    <glyph glyph-name="comma" unicode="," horiz-adv-x="300" 
d="M110 94l80 -0.00195312v-115c0 -43.333 -9.66699 -74.666 -29 -93.999c-12.667 -12.667 -29.667 -21.667 -51 -27v46c14 4.66699 24 12.334 30 23.001c6.66699 12 10 29 10 51v22h-40v94z" />
    <glyph glyph-name="hyphen" unicode="-" horiz-adv-x="404" 
d="M65 232v68h274v-68h-274z" />
    <glyph glyph-name="period" unicode="." horiz-adv-x="300" 
d="M110 0v94h80v-94h-80z" />
    <glyph glyph-name="slash" unicode="/" horiz-adv-x="408" 
d="M0 -185l357 885h51l-357 -885h-51z" />
    <glyph glyph-name="zero" unicode="0" 
d="M288 -21c-62.667 0 -112.668 19.665 -150.001 58.998c-32.667 34 -56.167 79.833 -70.5 137.5s-21.5 117.5 -21.5 179.5c0 60.667 7.33301 118.834 22 174.501s38.667 100.167 72 133.5c38.667 38.667 87.334 58 146.001 58c61.333 0 111.333 -19.333 150 -58
c62.667 -63.333 94 -165.666 94 -306.999c0 -151.333 -31.667 -258.333 -95 -321c-37.333 -37.333 -86.333 -56 -147 -56zM287.999 41.998c36 0 67.333 13.001 94 39.001c49.333 49.333 74 139 74 269c0 127.333 -24.667 217 -74 269c-26 26 -57.333 39 -94 39
c-38 0 -70 -13 -96 -39s-44.5 -64.667 -55.5 -116s-16.5 -102.333 -16.5 -153c0 -132.667 24.667 -222.334 74 -269.001c26 -26 57.333 -39 94 -39z" />
    <glyph glyph-name="one" unicode="1" 
d="M148 637v63h215v-637h133v-63h-348v63h141v574h-141z" />
    <glyph glyph-name="two" unicode="2" 
d="M468 226h62.9961v-226h-464v10c0 35.333 5.83301 67.833 17.5 97.5s29.834 57.334 54.501 83.001s48.834 47.5 72.501 65.5s54.834 39 93.501 63c44.667 28 79.334 56.5 104.001 85.5s37 65.167 37 108.5c0 42 -13.833 76.667 -41.5 104s-63.5 41 -107.5 41
c-48 0 -85.333 -13.333 -112 -40c-28 -26.667 -42 -68 -42 -124v-11h-72v18c0 66 21 120 63 162c38.667 38.667 93.667 58 165 58c66.667 0 120.167 -18.167 160.5 -54.5s60.5 -88.5 60.5 -156.5c0 -37.333 -8.66699 -71.5 -26 -102.5s-37.666 -56.333 -60.999 -76
s-54.333 -41.834 -93 -66.501c-66.667 -40.667 -115.667 -78 -147 -112c-24.667 -28 -38.334 -58 -41.001 -90h316v163z" />
    <glyph glyph-name="three" unicode="3" 
d="M46 206l71 -0.00292969c0 -50 15 -90 45 -120c28.667 -29.333 68.667 -44 120 -44c49.333 0 88.333 13 117 39c30 27.333 45 68 45 122c0 40.667 -13 72.667 -39 96c-29.333 25.333 -69 38 -119 38h-49v61h28c54 0 93.333 11.333 118 34c25.333 22 38 53 38 93
c0 39.333 -13 72 -39 98c-24.667 23.333 -57.667 35 -99 35c-48.667 0 -85.334 -12.333 -110.001 -37c-27.333 -27.333 -41 -66.333 -41 -117v-12h-70v11c0 68 20.667 122.667 62 164c37.333 36 90 54 158 54c67.333 0 120 -17.667 158 -53
c36.667 -35.333 55 -81.666 55 -138.999c0 -49.333 -16 -89 -48 -119c-15.333 -15.333 -37.666 -27.333 -66.999 -36v-2c33.333 -4.66699 62 -18.667 86 -42c34.667 -34 52 -78.667 52 -134c0 -62.667 -18.667 -113 -56 -151c-44 -44 -104.667 -66 -182 -66
c-37.333 0 -70.333 5.33301 -99 16s-51.167 23.834 -67.5 39.501s-29.666 34.334 -39.999 56.001s-17.333 41.5 -21 59.5s-5.83398 36.667 -6.50098 56z" />
    <glyph glyph-name="four" unicode="4" 
d="M106 230h252v370zM277 0v63h81v104h-326v63l324 470h76v-470h112v-63h-112v-104h73v-63h-228z" />
    <glyph glyph-name="five" unicode="5" 
d="M60 173h73.9951c4.66699 -38 19.334 -68.667 44.001 -92c26 -26 63.667 -39 113 -39c48 0 86.333 13 115 39c34.667 30 52 77.333 52 142c0 56.667 -15 100 -45 130c-28.667 28.667 -68.334 43 -119.001 43c-6 0 -13.167 -0.5 -21.5 -1.5s-20.166 -3.33301 -35.499 -7
s-30.666 -10.167 -45.999 -19.5s-28.666 -21 -39.999 -35h-69l50 367h367v-162h-63v99h-248l-33 -234c40.667 37.333 90 56 148 56c67.333 0 121 -19 161 -57c45.333 -42.667 68 -102 68 -178c0 -76.667 -22.667 -137.667 -68 -183
c-41.333 -41.333 -100.666 -62 -177.999 -62c-72 0 -128 20.667 -168 62c-31.333 33.333 -50.666 77.333 -57.999 132z" />
    <glyph glyph-name="six" unicode="6" 
d="M514 549h-68.999c-4.66699 28.667 -17.334 53.334 -38.001 74.001c-23.333 23.333 -57 35 -101 35c-47.333 0 -84.666 -14.667 -111.999 -44c-46 -48 -69 -133 -69 -255h2c31.333 64 90.333 96 177 96c64 0 115.667 -18.333 155 -55c44.667 -40.667 67 -100 67 -178
c0 -74.667 -21.167 -133.834 -63.5 -177.501s-97.5 -65.5 -165.5 -65.5c-74.667 0 -130.667 21 -168 63c-52 54 -78 151.667 -78 293c0 154 32 262.333 96 325c41.333 40.667 95.666 61 162.999 61c61.333 0 110 -18 146 -54c32 -30 51.333 -69.333 58 -118zM136.001 222
c0 -59.333 16.001 -105.333 48.001 -138c28 -28 66 -42 114 -42c43.333 0 78.333 13.333 105 40c32.667 32.667 49 79 49 139c0 55.333 -15.333 98.333 -46 129c-28 28 -65 42 -111 42c-46.667 0 -84.334 -14.333 -113.001 -43c-30.667 -30.667 -46 -73 -46 -127z" />
    <glyph glyph-name="seven" unicode="7" 
d="M123 0v63.001h73c16 96 42 186 78 270c49.333 116 111.333 217.333 186 304h-349v-130h-63v193h489v-50c-76.667 -86.667 -140.667 -194.334 -192 -323.001c-32.667 -84 -56 -172 -70 -264h76v-63h-228z" />
    <glyph glyph-name="eight" unicode="8" 
d="M191 381c-34 12 -59.6641 31 -76.9971 57c-20.667 28.667 -31 61.667 -31 99c0 50 16.667 92.667 50 128c37.333 37.333 88.333 56 153 56c63.333 0 113.666 -16.667 150.999 -50c37.333 -34 56 -78.333 56 -133c0 -40.667 -12.333 -77 -37 -109
c-16.667 -21.333 -40.334 -37.333 -71.001 -48c32 -7.33301 59 -22 81 -44c36.667 -33.333 55 -80.666 55 -141.999c0 -64.667 -19.333 -116.334 -58 -155.001c-40.667 -40.667 -98.667 -61 -174 -61c-76.667 0 -136.334 21.333 -179.001 64c-37.333 38.667 -56 89 -56 151
c0 48 13 89.167 39 123.5s58.667 55.5 98 63.5zM288.003 408c41.333 0 74 11.333 98 34c24.667 22.667 37 53.667 37 93s-12.667 70.333 -38 93c-24.667 21.333 -57 32 -97 32c-42.667 0 -75.667 -11.667 -99 -35c-24 -24 -36 -54.333 -36 -91c0 -37.333 12 -68 36 -92
c25.333 -22.667 58.333 -34 99 -34zM292.003 40c44 0 80.334 13.667 109.001 41c30.667 30.667 46 70 46 118c0 50 -16.667 89 -50 117c-26 22 -62.333 33 -109 33c-52.667 0 -92.334 -14 -119.001 -42c-27.333 -27.333 -41 -63.333 -41 -108c0 -48.667 14.667 -87 44 -115
c29.333 -29.333 69.333 -44 120 -44z" />
    <glyph glyph-name="nine" unicode="9" 
d="M62 151h68.999c4.66699 -28.667 17.334 -53.334 38.001 -74.001c23.333 -23.333 57 -35 101 -35c47.333 0 84.666 14.667 111.999 44c46 48 69 133 69 255h-2c-31.333 -64 -90.333 -96 -177 -96c-64 0 -115.667 18.333 -155 55c-44.667 40.667 -67 100 -67 178
c0 74.667 21.167 133.834 63.5 177.501s97.5 65.5 165.5 65.5c71.333 0 127.333 -21 168 -63c52 -54 78 -151.667 78 -293c0 -154 -32 -262.333 -96 -325c-41.333 -40.667 -95.666 -61 -162.999 -61c-61.333 0 -110 18 -146 54c-32 30 -51.333 69.333 -58 118zM439.999 478
c0 59.333 -16.001 105.333 -48.001 138c-28 28 -66 42 -114 42c-43.333 0 -78.333 -13.333 -105 -40c-32.667 -32.667 -49 -79 -49 -139c0 -55.333 15.333 -98.333 46 -129c28 -28 65 -42 111 -42c46.667 0 84.334 14.333 113.001 43c30.667 30.667 46 73 46 127z" />
    <glyph glyph-name="colon" unicode=":" horiz-adv-x="300" 
d="M110 414v94h80v-94h-80zM110 0v94h80v-94h-80z" />
    <glyph glyph-name="semicolon" unicode=";" horiz-adv-x="300" 
d="M110 414v94h80v-94h-80zM110 94l80 -0.00195312v-115c0 -43.333 -9.66699 -74.666 -29 -93.999c-12.667 -12.667 -29.667 -21.667 -51 -27v46c14 4.66699 24 12.334 30 23.001c6.66699 12 10 29 10 51v22h-40v94z" />
    <glyph glyph-name="less" unicode="&#x3c;" horiz-adv-x="600" 
d="M40 362l495 289l24 -44l-459 -265l459 -265l-24 -44l-495 289v40z" />
    <glyph glyph-name="equal" unicode="=" horiz-adv-x="600" 
d="M50 469h500v-48h-500v48zM50 269h500v-48h-500v48z" />
    <glyph glyph-name="greater" unicode="&#x3e;" horiz-adv-x="600" 
d="M560 322l-495 -289l-24 44l459 265l-459 265l24 44l495 -289v-40z" />
    <glyph glyph-name="question" unicode="?" horiz-adv-x="558" 
d="M236 0v94h80v-94h-80zM137 492l-70.998 0.00195312c-2.66699 74.667 16.666 132.667 57.999 174c38 36.667 90.333 55 157 55c69.333 0 122.666 -17.667 159.999 -53c34 -32 51 -75.333 51 -130c0 -58 -22 -106.667 -66 -146l-42 -38c-32.667 -30 -53 -51.667 -61 -65
c-12 -20 -18 -44.333 -18 -73v-20h-58v17c0 41.333 6.33301 73.666 19 96.999c12 21.333 30 43.333 54 66l39 36c41.333 36.667 62 79.667 62 129c0 33.333 -11.667 61.666 -35 84.999c-24 24 -58.667 36 -104 36c-44 0 -77.667 -11.333 -101 -34
c-32 -26.667 -46.667 -72 -44 -136z" />
    <glyph glyph-name="at" unicode="@" horiz-adv-x="862" 
d="M592 71l25 -42.002c-57.333 -33.333 -124 -50 -200 -50c-104 0 -188 32 -252 96c-70 67.333 -105 159.333 -105 276c0 104.667 33.667 191.334 101 260.001c72 73.333 162 110 270 110c112 0 201.667 -32 269 -96c68 -64 102 -146 102 -246
c0 -80 -22.667 -142.667 -68 -188c-29.333 -29.333 -64 -44 -104 -44c-26 0 -46.667 5.33301 -62 16c-13.333 9.33301 -22.333 23 -27 41c-10 -21.333 -27 -37.333 -51 -48c-24 -10 -50 -15 -78 -15c-52 0 -93.333 16.333 -124 49c-34 34 -51 82 -51 144
c0 64 19.667 115.667 59 155c30.667 30.667 71 46 121 46c32 0 58.667 -7 80 -21c16 -10.667 28.333 -25 37 -43h2v50h62v-261c0 -25.333 4.33301 -42.333 13 -51c6 -7.33301 16.333 -11 31 -11c22 0 41.667 8.66699 59 26c32 32 48 81 48 147
c0 94.667 -31 170.334 -93 227.001c-56 52 -131 78 -225 78c-44 0 -83.667 -6.83301 -119 -20.5s-70.333 -37.167 -105 -70.5c-33.333 -32.667 -57.333 -67.667 -72 -105s-22 -80.333 -22 -129c0 -96.667 29 -175 87 -235c28 -28.667 62.667 -51.167 104 -67.5
s83.333 -24.5 126 -24.5c54.667 0 108.667 15.667 162 47zM532 342.998c0 53.333 -11.999 90.667 -35.999 112c-18.667 18 -44.334 27 -77.001 27c-30 0 -54 -9 -72 -27c-25.333 -25.333 -38 -64.333 -38 -117c0 -52 13.667 -91.667 41 -119c18 -17.333 40.667 -26 68 -26
c30 0 55.333 9.33301 76 28c25.333 24 38 64.667 38 122z" />
    <glyph glyph-name="A" unicode="A" horiz-adv-x="719" 
d="M500 0v63h61l-51 138h-305l-52 -138h63v-63h-211v63h71l218 574h-80v63h187l242 -637h71v-63h-214zM226 264h262l-131 370z" />
    <glyph glyph-name="B" unicode="B" horiz-adv-x="713" 
d="M60 637v63h345c78 0 137.333 -17.667 178 -53c33.333 -29.333 50 -69 50 -119c0 -44.667 -14.667 -82.667 -44 -114c-23.333 -23.333 -48 -37.666 -74 -42.999v-2c40.667 -6 74.667 -22.667 102 -50c30.667 -30.667 46 -72 46 -124c0 -24.667 -5 -49.334 -15 -74.001
s-23.667 -45 -41 -61c-42 -40 -113.667 -60 -215 -60h-332v63h73v574h-73zM207 332v-269.001h191c64 0 111.333 11.667 142 35c31.333 26.667 47 60.334 47 101.001c0 48.667 -15.333 83.667 -46 105c-25.333 18.667 -72.333 28 -141 28h-193zM207 636.999
l-0.000976562 -242h189c62.667 0 105.334 11.333 128.001 34s34 52.667 34 90c0 32 -11.667 59.667 -35 83c-25.333 23.333 -66 35 -122 35h-194z" />
    <glyph glyph-name="C" unicode="C" horiz-adv-x="733" 
d="M600 700l63.001 -0.000976562v-210h-63c-3.33301 42 -20.333 79.333 -51 112c-36 37.333 -87.667 56 -155 56c-70 0 -125.667 -20.333 -167 -61c-54.667 -54 -82 -132.333 -82 -235c0 -116 28.667 -201.667 86 -257c42 -42 97 -63 165 -63
c61.333 0 111.666 18.333 150.999 55c37.333 37.333 57.666 81 60.999 131h75c-8.66699 -71.333 -35.667 -129.666 -81 -174.999c-49.333 -49.333 -119.666 -74 -210.999 -74c-96 0 -172 29 -228 87c-64.667 67.333 -97 162.333 -97 285c0 128 32.333 223 97 285
c59.333 56.667 133.333 85 222 85c95.333 0 167 -33 215 -99v78z" />
    <glyph glyph-name="D" unicode="D" horiz-adv-x="755" 
d="M60 637l0.00195312 63h300c111.333 0 194.666 -25.333 249.999 -76c66.667 -66.667 100 -156.667 100 -270c0 -124 -34 -217 -102 -279c-54.667 -50 -141.334 -75 -260.001 -75h-288v63h73v574h-73zM207.002 637v-574h119c109.333 0 186 22 230 66
c50.667 50.667 76 125 76 223s-26.667 172.667 -80 224c-40.667 40.667 -105 61 -193 61h-152z" />
    <glyph glyph-name="E" unicode="E" horiz-adv-x="658" 
d="M60 637v63h556v-210h-63v147h-346v-243h294v-63h-294v-268h358v177h63v-240h-568v63h73v574h-73z" />
    <glyph glyph-name="F" unicode="F" horiz-adv-x="604" 
d="M60 637v63h529v-210h-63v147h-319v-249h271v-63h-271v-262h73v-63h-220v63h73v574h-73z" />
    <glyph glyph-name="G" unicode="G" horiz-adv-x="809" 
d="M611 700l60.999 0.000976562v-210h-64c-7.33301 44.667 -23.333 79.334 -48 104.001c-42.667 44 -96 66 -160 66c-80 0 -140.333 -22.667 -181 -68c-50 -52 -75 -131.667 -75 -239c0 -103.333 26.667 -183.333 80 -240c42.667 -47.333 100.334 -71 173.001 -71
c64.667 0 117 20 157 60c47.333 45.333 71 110 71 194h-201v63h348v-63h-78v-296h-62v123h-2c-20.667 -42 -48.334 -75.667 -83.001 -101c-40 -28.667 -94 -43 -162 -43c-95.333 0 -169.333 28 -222 84c-9.33301 9.33301 -18.5 20.5 -27.5 33.5s-19.167 31.167 -30.5 54.5
s-20.666 52.666 -27.999 87.999s-11 73.666 -11 114.999c0 124.667 32.667 219.667 98 285c56 56 133 84 231 84c45.333 0 87 -9.33301 125 -28s68.333 -46 91 -82v87z" />
    <glyph glyph-name="H" unicode="H" horiz-adv-x="795" 
d="M515 0v63h73v275h-381v-275h73v-63h-220v63h73v574h-73v63h220v-63h-73v-236h381v236h-73v63h220v-63h-73v-574h73v-63h-220z" />
    <glyph glyph-name="I" unicode="I" horiz-adv-x="340" 
d="M60 637v63h220v-63h-73v-574h73v-63h-220v63h73v574h-73z" />
    <glyph glyph-name="J" unicode="J" horiz-adv-x="550" 
d="M290 637l0.00195312 63h220v-63h-73v-409c0 -90.667 -18.667 -155.667 -56 -195c-34.667 -36 -84.334 -54 -149.001 -54c-62.667 0 -110.334 16 -143.001 48c-39.333 39.333 -59 104 -59 194v4h74v-6c0 -72 14.667 -121 44 -147c20 -20 49.333 -30 88 -30
c35.333 0 64 10.333 86 31c27.333 26.667 41 75 41 145v419h-73z" />
    <glyph glyph-name="K" unicode="K" horiz-adv-x="668" 
d="M232 358l265 279h-53v63h207v-63h-63l-266 -274l272 -300h69v-63h-228v63h66zM207 637v-574h73v-63h-220v63h73v574h-73v63h220v-63h-73z" />
    <glyph glyph-name="L" unicode="L" horiz-adv-x="601" 
d="M60 637v63h220v-63h-73v-574h301v187h63v-250h-511v63h73v574h-73z" />
    <glyph glyph-name="M" unicode="M" horiz-adv-x="990" 
d="M710 0v63h73v523l2 27h-3l-255 -613h-64l-256 613h-2l2 -27v-523h73v-63h-220v63h73v574h-73v63h187l250 -603l251 603h182v-63h-73v-574h73v-63h-220z" />
    <glyph glyph-name="N" unicode="N" horiz-adv-x="814" 
d="M534 637v63h220v-63h-73v-637h-84l-390 592v-529h73v-63h-220v63h73v574h-73v63h158l389 -592v529h-73z" />
    <glyph glyph-name="O" unicode="O" horiz-adv-x="790" 
d="M66 350c0 124 34 219.998 102 287.998c55.333 55.333 130 83 224 83c93.333 0 168.666 -26.667 225.999 -80c70.667 -66 106 -163 106 -291c0 -129.333 -34.667 -226.666 -104 -291.999c-55.333 -52.667 -129.666 -79 -222.999 -79c-100 0 -177 27 -231 81
c-8 6.66699 -16.5 16.334 -25.5 29.001s-19.667 30.5 -32 53.5s-22.5 52.833 -30.5 89.5s-12 76 -12 118zM144 345.998c0 -104.667 26 -184.001 78 -238.001c44 -44 102 -66 174 -66c69.333 0 126.333 22.333 171 67c52.667 52.667 79 132.334 79 239.001
c0 113.333 -30 198 -90 254c-40.667 37.333 -94 56 -160 56s-120.333 -19 -163 -57c-59.333 -54 -89 -139 -89 -255z" />
    <glyph glyph-name="P" unicode="P" horiz-adv-x="668" 
d="M60 637l-0.000976562 63.002h322c93.333 0 159 -18 197 -54c39.333 -34.667 59 -83.334 59 -146.001c0 -58.667 -19.333 -107.334 -58 -146.001c-39.333 -41.333 -106.666 -62 -201.999 -62h-171v-229h73v-63h-220v63h73v574h-73zM206.999 637.002v-281.998h166
c70 0 118 12.333 144 37c30 27.333 45 62.666 45 105.999c0 39.333 -13.667 72.666 -41 99.999c-28 26 -77.333 39 -148 39h-166z" />
    <glyph glyph-name="Q" unicode="Q" horiz-adv-x="790" 
d="M620 59l85 -86l-41 -41l-90 90c-41.333 -28.667 -99.333 -43 -174 -43c-104.667 0 -183.667 28.667 -237 86c-28.667 30 -52 69.833 -70 119.5s-27 105.167 -27 166.5c0 122.667 33 217 99 283c58 58 135 87 231 87c94.667 0 170 -27.333 226 -82
c68 -68 102 -163.667 102 -287c0 -67.333 -9.33301 -126 -28 -176c-18.667 -48.667 -44 -87.667 -76 -117zM488 194l82 -83c22.667 25.333 40.667 55.333 54 90c14.667 43.333 22 93 22 149c0 110.667 -27.333 192 -82 244c-42 42 -98 63 -168 63
c-72.667 0 -130 -21.667 -172 -65c-53.333 -53.333 -80 -133.333 -80 -240c0 -112 28 -195 84 -249c40.667 -40.667 95.667 -61 165 -61c57.333 0 101 10.667 131 32l-79 80z" />
    <glyph glyph-name="R" unicode="R" horiz-adv-x="733" 
d="M436 298h-229v-235h73v-63h-220v63h73v574h-73v63h345c99.333 0 167.333 -18.333 204 -55c35.333 -35.333 53 -80 53 -134c0 -51.333 -14.667 -95.333 -44 -132c-25.333 -32 -60.333 -54.667 -105 -68l94 -248h86v-63h-140zM207 637v-276h204c54.667 0 97 12 127 36
c30 26 45 62.667 45 110c0 43.333 -14 76 -42 98c-24.667 21.333 -71 32 -139 32h-195z" />
    <glyph glyph-name="S" unicode="S" horiz-adv-x="643" 
d="M497 700l63.0029 -0.00195312v-190h-63c-2.66699 42.667 -23.334 79 -62.001 109c-35.333 26.667 -76 40 -122 40c-49.333 0 -88.333 -9 -117 -27c-38.667 -24 -58 -58.667 -58 -104c0 -27.333 9 -50.666 27 -69.999c22 -22.667 63.333 -39.667 124 -51l66 -13
c89.333 -17.333 150.666 -41.666 183.999 -72.999c34 -31.333 51 -74.333 51 -129c0 -62.667 -20 -113 -60 -151c-44 -40 -109.333 -60 -196 -60c-104.667 0 -177.334 33.667 -218.001 101v-82h-63v250h63c0 -26 5.16699 -51.833 15.5 -77.5s21.5 -46.167 33.5 -61.5
c37.333 -44.667 90.666 -67 159.999 -67c66.667 0 116 15.667 148 47c26 26 39 57.333 39 94c0 32 -10.333 59.667 -31 83c-23.333 25.333 -68 44 -134 56l-70 13c-87.333 16.667 -146 41.667 -176 75c-27.333 31.333 -41 68.333 -41 111c0 70 27 122.333 81 157
c43.333 28 97.333 42 162 42c90.667 0 155.334 -28.667 194.001 -86v64z" />
    <glyph glyph-name="T" unicode="T" horiz-adv-x="621" 
d="M200 0v63h73v574h-200v-177h-63v240h601v-240h-63v177h-201v-574h73v-63h-220z" />
    <glyph glyph-name="U" unicode="U" horiz-adv-x="773" 
d="M508 637l-0.00292969 63.001h220v-63h-73v-365c0 -30 -1.16699 -55.5 -3.5 -76.5s-9.16602 -45.833 -20.499 -74.5s-27.666 -53.334 -48.999 -74.001c-45.333 -43.333 -110.666 -65 -195.999 -65c-86.667 0 -152.667 21 -198 63c-46.667 44 -70 119.667 -70 227v365h-73
v63h220v-63h-73v-357c0 -26 0.666992 -47.667 2 -65s5.5 -37.166 12.5 -59.499s17.167 -40.5 30.5 -54.5c34 -37.333 84 -56 150 -56s115.333 18 148 54c30.667 33.333 46 93.666 46 180.999v357h-73z" />
    <glyph glyph-name="V" unicode="V" horiz-adv-x="689" 
d="M5 637v63h218v-63h-67l191 -561l189 561h-64v63h212v-63h-70l-225 -637h-91l-225 637h-68z" />
    <glyph glyph-name="W" unicode="W" horiz-adv-x="981" 
d="M760 637v63h216v-63h-68l-167 -637h-95l-157 612l-158 -612h-95l-167 637h-64v63h215v-63h-69l137 -546l158 609h87l157 -609l136 546h-66z" />
    <glyph glyph-name="X" unicode="X" horiz-adv-x="668" 
d="M28 637v63h200v-63h-52l158 -220l157 220h-49v63h200v-63h-62l-198 -274l215 -300h66v-63h-218v63h59l-170 246l-170 -246h56v-63h-215v63h66l214 300l-199 274h-58z" />
    <glyph glyph-name="Y" unicode="Y" horiz-adv-x="656" 
d="M5 637v63h216v-63h-59l170 -271l169 271h-58v63h208v-63h-66l-219 -338v-236h73v-63h-220v63h73v236l-220 338h-67z" />
    <glyph glyph-name="Z" unicode="Z" horiz-adv-x="590" 
d="M497 250h63v-250h-530v69l426 568h-341v-147h-63v210h488v-62l-422 -575h379v187z" />
    <glyph glyph-name="bracketleft" unicode="[" horiz-adv-x="358" 
d="M106 700h199v-50h-129v-785h129v-50h-199v885z" />
    <glyph glyph-name="backslash" unicode="\" horiz-adv-x="408" 
d="M408 -185h-51l-357 885h51z" />
    <glyph glyph-name="bracketright" unicode="]" horiz-adv-x="358" 
d="M53 700h199v-885h-199v50h128v785h-128v50z" />
    <glyph glyph-name="asciicircum" unicode="^" horiz-adv-x="413" 
d="M172 700h69l116 -218h-55l-95 181l-95 -181h-56z" />
    <glyph glyph-name="underscore" unicode="_" horiz-adv-x="498" 
d="M0 -185v68h498v-68h-498z" />
    <glyph glyph-name="grave" unicode="`" horiz-adv-x="292" 
d="M128 700l70 -132h-60l-96 132h86z" />
    <glyph glyph-name="a" unicode="a" horiz-adv-x="564" 
d="M397 0l0.00195312 82.999c-15.333 -29.333 -37 -51.666 -65 -66.999c-32.667 -18.667 -72.334 -28 -119.001 -28c-55.333 0 -97 13.667 -125 41c-28 26 -42 61.667 -42 107c0 39.333 12.333 71.333 37 96c28 28 81.667 46.333 161 55l101 12
c20 3.33301 33.333 8.33301 40 15c8 8.66699 12 25 12 49c0 38.667 -10.333 67.667 -31 87c-21.333 18.667 -53.333 28 -96 28c-48.667 0 -83.334 -10.333 -104.001 -31c-20 -20 -30.667 -48.333 -32 -85h-67c0 56 22 99.667 66 131c33.333 23.333 81 35 143 35
c68 0 117.667 -15.667 149 -47c27.333 -27.333 41 -67 41 -119v-312h68v-50h-137zM397.002 218.999l0.000976562 50.001c-7.33301 -6 -16 -10.333 -26 -13c-10 -3.33301 -21.333 -6 -34 -8s-29.334 -3.83301 -50.001 -5.5s-34.667 -2.83398 -42 -3.50098
c-50.667 -6 -85 -17.667 -103 -35c-16 -16 -24 -39 -24 -69c0 -28 8.66699 -50.667 26 -68c17.333 -19.333 44 -29 80 -29c44 0 80.333 11.667 109 35c42.667 35.333 64 84 64 146z" />
    <glyph glyph-name="b" unicode="b" horiz-adv-x="631" 
d="M45 650v49.998h137v-266c14 26.667 32.333 47.334 55 62.001c30.667 21.333 69.334 32 116.001 32c65.333 0 116.666 -18.667 153.999 -56c47.333 -47.333 71 -117.666 71 -210.999c0 -99.333 -24.333 -173.333 -73 -222c-36.667 -39.333 -87.667 -59 -153 -59
c-46.667 0 -86.667 11.667 -120 35c-22.667 18 -39.667 38 -51 60h-2v-75h-134v50h68v600h-68zM178 253.998c0 -81.333 19.667 -141.666 59 -180.999c28.667 -28.667 64 -43 106 -43c46.667 0 82.667 14.667 108 44c36.667 38.667 55 100 55 184
c0 83.333 -20 143.666 -60 180.999c-27.333 26 -61 39 -101 39c-46 0 -82.667 -15 -110 -45c-38 -39.333 -57 -99 -57 -179z" />
    <glyph glyph-name="c" unicode="c" horiz-adv-x="547" 
d="M486 353l-49.999 -0.000976562c-3.33301 31.333 -15 58 -35 80c-26.667 30 -62.667 45 -108 45c-46 0 -84 -15 -114 -45c-35.333 -35.333 -53 -92.666 -53 -171.999c0 -84.667 20.333 -147.334 61 -188.001c28.667 -28.667 64.667 -43 108 -43s77 12.667 101 38
c26.667 28.667 41.667 65.334 45 110.001h66c-6 -60.667 -28 -110 -66 -148c-20.667 -20.667 -42.5 -34.167 -65.5 -40.5s-50.167 -9.5 -81.5 -9.5c-70.667 0 -125.334 18.667 -164.001 56c-51.333 49.333 -77 123.666 -77 222.999c0 88.667 21.667 156.334 65 203.001
c38.667 44 95 66 169 66c42 0 78.333 -11 109 -33c14.667 -10 28 -23.333 40 -40v53h50v-155z" />
    <glyph glyph-name="d" unicode="d" horiz-adv-x="630" 
d="M451 0l-0.00195312 75h-2c-12.667 -28 -32.667 -50.667 -60 -68c-28.667 -18 -65.667 -27 -111 -27c-63.333 0 -113.333 18.333 -150 55c-50 48.667 -75 122.667 -75 222c0 94 23.667 164.667 71 212c39.333 39.333 91 59 155 59c42.667 0 79.334 -9.66699 110.001 -29
c24.667 -15.333 44.334 -37 59.001 -65v216h-68v50h137v-650h68v-50h-134zM125.998 258c0 -84 18 -144.668 54 -182.001c28 -30.667 63.667 -46 107 -46c42 0 76.667 13.667 104 41c40.667 40.667 61 101.667 61 183c0 83.333 -21 145 -63 185c-28 26 -62.333 39 -103 39
c-38.667 0 -71.667 -12 -99 -36c-40.667 -37.333 -61 -98.666 -61 -183.999z" />
    <glyph glyph-name="e" unicode="e" 
d="M451 147h66c-8.66699 -41.333 -27 -77.333 -55 -108c-38 -39.333 -92 -59 -162 -59c-73.333 0 -130.666 19.667 -171.999 59c-50 48.667 -75 121 -75 217c0 92 23.333 161.333 70 208c42.667 42.667 100 64 172 64c69.333 0 123.333 -20 162 -60
c25.333 -26 42.166 -56.667 50.499 -92s13.5 -80.333 15.5 -135h-398c2.66699 -72 20.667 -125.667 54 -161c30 -33.333 71.333 -50 124 -50c43.333 0 78.333 12.667 105 38c18 16 32.333 42.333 43 79zM125 291l325 0.00195312c0 23.333 -4.33301 49.666 -13 78.999
s-20.667 51.666 -36 66.999c-26 27.333 -61.667 41 -107 41c-52 0 -92.667 -16.333 -122 -49c-31.333 -36 -47 -82 -47 -138z" />
    <glyph glyph-name="f" unicode="f" horiz-adv-x="281" 
d="M16 0l0.00195312 50.002h72v408h-72v50h72v72c0 41.333 9 71.666 27 90.999c21.333 21.333 55.666 32 102.999 32c28 0 47.333 -1 58 -3v-50c-12.667 0.666992 -26 1 -40 1c-30.667 0 -52.334 -6.33301 -65.001 -19c-9.33301 -10.667 -14 -28.334 -14 -53.001v-71h85v-50
h-85v-408h72v-50h-213z" />
    <glyph glyph-name="g" unicode="g" horiz-adv-x="626" 
d="M84 -62h68.998c6.66699 -20 19.667 -38.333 39 -55c22.667 -16.667 54.667 -25 96 -25c48.667 0 85 11.333 109 34c31.333 28 47 74 47 138v59c-16 -32.667 -37.667 -57.334 -65 -74.001c-25.333 -15.333 -58 -23 -98 -23c-69.333 0 -123 21.333 -161 64
c-44.667 48.667 -67 116.667 -67 204c0 92.667 22.333 162.334 67 209.001c38.667 39.333 90.667 59 156 59c43.333 0 79.333 -9.33301 108 -28c26.667 -16.667 47.334 -39 62.001 -67h2v75h133v-50h-68v-434c0 -71.333 -18.667 -125.333 -56 -162s-91.666 -55 -162.999 -55
c-77.333 0 -133.333 17.333 -168 52c-22 22 -36 48.333 -42 79zM290.998 42c39.333 0 72.335 13.332 99.002 39.999c17.333 16 30.666 39.333 39.999 70s14.666 53.834 15.999 69.501s2 30.167 2 43.5c0 76 -17 132 -51 168c-30 30 -68.333 45 -115 45
c-43.333 0 -78.333 -14 -105 -42c-34 -34 -51 -90 -51 -168c0 -82 18 -142 54 -180c30.667 -30.667 67.667 -46 111 -46z" />
    <glyph glyph-name="h" unicode="h" horiz-adv-x="634" 
d="M384 0l0.000976562 50.002h68v266v16.5v19.5c0 4 -0.166992 10.167 -0.5 18.5s-1.16602 15.166 -2.49902 20.499s-3 11.5 -5 18.5s-4.83301 13.333 -8.5 19s-7.83398 11.167 -12.501 16.5c-20 22 -47.667 33 -83 33c-44.667 0 -81.667 -15.333 -111 -46
c-31.333 -33.333 -47 -82.666 -47 -147.999v-234h68v-50h-205v50h68v600h-68v50h137v-266c14 25.333 34.667 46.666 62 63.999c31.333 20 67.666 30 108.999 30c54 0 95.667 -14.667 125 -44c13.333 -13.333 23.333 -28.833 30 -46.5s10.5 -32.834 11.5 -45.501
s1.5 -29 1.5 -49v-293h68v-50h-205z" />
    <glyph glyph-name="i" unicode="i" horiz-adv-x="295" 
d="M45 458v50h135v-458h70v-50h-205v50h66v408h-66zM110 616v84h71v-84h-71z" />
    <glyph glyph-name="j" unicode="j" horiz-adv-x="228" 
d="M30 458l0.00195312 49.999h137v-556c0 -55.333 -9.66699 -92.666 -29 -111.999c-18.667 -18.667 -48.667 -28 -90 -28c-12.667 0 -25.334 1 -38.001 3v51h4c29.333 0 50.666 5.33301 63.999 16c13.333 12 20 36.333 20 73v503h-68zM96.002 615.999v84h72v-84h-72z" />
    <glyph glyph-name="k" unicode="k" horiz-adv-x="537" 
d="M45 650v50h137v-650h68v-50h-205v50h68v600h-68zM202 263l169 195h-45v50h179v-50h-56l-168 -189l183 -219h73v-50h-113z" />
    <glyph glyph-name="l" unicode="l" horiz-adv-x="295" 
d="M45 650v50h137v-650h68v-50h-205v50h68v600h-68z" />
    <glyph glyph-name="m" unicode="m" horiz-adv-x="927" 
d="M364 0l-0.000976562 50.001h65v277c0 57.333 -12 98.666 -36 123.999c-18 18 -41.333 27 -70 27c-34 0 -63.667 -12 -89 -36c-34.667 -32 -52 -77.333 -52 -136v-256h65v-50h-202v50h68v408h-68v50h137v-73c14 25.333 33 46.666 57 63.999c27.333 19.333 60.333 29 99 29
c37.333 0 69 -9.66699 95 -29c24 -19.333 40.333 -45 49 -77c12 26.667 31.333 50.334 58 71.001c31.333 23.333 68.333 35 111 35c48.667 0 87.334 -14.333 116.001 -43c31.333 -31.333 47 -79 47 -143v-292h68v-50h-202v50h65v278c0 60 -12.333 101.333 -37 124
c-20.667 17.333 -45 26 -73 26c-37.333 0 -68.333 -12.333 -93 -37c-29.333 -29.333 -44 -73.333 -44 -132v-259h65v-50h-199z" />
    <glyph glyph-name="n" unicode="n" horiz-adv-x="635" 
d="M385 0l0.00195312 49.999h68v283c0 58.667 -12.333 98.334 -37 119.001c-20.667 17.333 -46.667 26 -78 26c-40 0 -74.667 -13.667 -104 -41c-34.667 -34.667 -52 -85.667 -52 -153v-234h68v-50h-205v50h68v408h-68v50h137v-74c16.667 26.667 40 49 70 67
c31.333 18 64.666 27 99.999 27c53.333 0 94.666 -14.667 123.999 -44c30.667 -30.667 46 -77.667 46 -141v-293h68v-50h-205z" />
    <glyph glyph-name="o" unicode="o" horiz-adv-x="592" 
d="M53 254c0 92 25.6699 163.667 77.0029 215c39.333 39.333 94.666 59 165.999 59c68.667 0 124 -19.667 166 -59c51.333 -48.667 77 -120.334 77 -215.001c0 -95.333 -27 -168 -81 -218c-40.667 -37.333 -94.334 -56 -161.001 -56c-70.667 0 -125.334 18.667 -164.001 56
c-22 18.667 -40.833 46.334 -56.5 83.001s-23.5 81.667 -23.5 135zM126.003 255c0 -85.333 20.333 -147.333 61 -186c28.667 -26 65 -39 109 -39c45.333 0 81.333 12.667 108 38c41.333 38 62 100.333 62 187c0 79.333 -17.333 138 -52 176c-30 31.333 -69 47 -117 47
c-47.333 0 -85 -14 -113 -42c-38.667 -38.667 -58 -99 -58 -181z" />
    <glyph glyph-name="p" unicode="p" horiz-adv-x="629" 
d="M45 458l0.00292969 50h134v-75h2c16 24 37 45.667 63 65c30.667 20 66.667 30 108 30c60.667 0 110.667 -18.333 150 -55c49.333 -49.333 74 -120.666 74 -213.999c0 -84.667 -18.833 -152.334 -56.5 -203.001s-90.834 -76 -159.501 -76
c-44.667 0 -82.334 9.33301 -113.001 28c-26.667 16.667 -48.334 40 -65.001 70v-213h68v-50h-205v50h68v593h-68zM178.003 252c0 -78 19.333 -136.333 58 -175c30 -31.333 67.667 -47 113 -47c38 0 70.667 13.667 98 41c38 40 57 102 57 186c0 81.333 -20 142 -60 182
c-26 26 -60 39 -102 39c-38.667 0 -73 -13.333 -103 -40c-40.667 -36.667 -61 -98.667 -61 -186z" />
    <glyph glyph-name="q" unicode="q" horiz-adv-x="629" 
d="M379 -185l-0.00292969 50h68v213c-17.333 -32 -40 -56 -68 -72c-29.333 -17.333 -64.666 -26 -105.999 -26c-61.333 0 -110.666 19.333 -147.999 58c-48 50 -72 125 -72 225c0 90 24.333 159.333 73 208c39.333 38 89 57 149 57c44.667 0 81.334 -9.33301 110.001 -28
c27.333 -18 48.333 -40.333 63 -67h3v75h133v-50h-68v-593h68v-50h-205zM124.997 252c0 -83.333 20.333 -144.667 61 -184c26.667 -25.333 60 -38 100 -38c36.667 0 70 13.333 100 40c44 42 66 105.667 66 191c0 81.333 -19.667 141 -59 179c-28 25.333 -64 38 -108 38
c-38 0 -71 -12.667 -99 -38c-40.667 -38 -61 -100.667 -61 -188z" />
    <glyph glyph-name="r" unicode="r" horiz-adv-x="377" 
d="M45 458v50h137v-101h2c12.667 32 33.667 58.333 63 79c31.333 21.333 71 32 119 32h11v-56h-10c-60 0 -105 -16 -135 -48c-20 -20 -33.333 -41.833 -40 -65.5s-10 -52.5 -10 -86.5v-212h68v-50h-205v50h68v408h-68z" />
    <glyph glyph-name="s" unicode="s" horiz-adv-x="506" 
d="M425 373l-50.002 0.999023c-4 24.667 -13.333 44.667 -28 60c-26 29.333 -60 44 -102 44c-40 0 -70 -10 -90 -30c-15.333 -15.333 -23 -36 -23 -62c0 -23.333 8.66699 -42.666 26 -57.999c14.667 -12 41.667 -23 81 -33l53 -12
c60.667 -15.333 100.334 -30.333 119.001 -45c30 -22 45 -54 45 -96c0 -57.333 -18.667 -99.333 -56 -126c-31.333 -24 -77.333 -36 -138 -36c-42 0 -77.333 7.33301 -106 22c-19.333 10.667 -36.333 25.667 -51 45v-47h-50v175h50c2.66699 -38.667 16.667 -73 42 -103
c25.333 -28 61.333 -42 108 -42c42 0 74 9 96 27c22.667 18.667 34 45 34 79c0 24 -9 43.667 -27 59c-14 12.667 -42 23.667 -84 33l-56 12c-63.333 14.667 -104.666 31.667 -123.999 51c-22.667 22.667 -34 52 -34 88c0 50 21 89.667 63 119c30.667 20 70 30 118 30
c59.333 0 104 -20 134 -60v40h50v-135z" />
    <glyph glyph-name="t" unicode="t" horiz-adv-x="310" 
d="M16 508h88.999v152h69v-152h109v-50h-109v-368c0 -17.333 3.33301 -30 10 -38c8 -8.66699 21.333 -13 40 -13c18 0 37.667 3.66699 59 11v-50c-24 -9.33301 -50.667 -14 -80 -14c-37.333 0 -62.666 8.33301 -75.999 25c-14.667 16.667 -22 42.667 -22 78v369h-89v50z" />
    <glyph glyph-name="u" unicode="u" horiz-adv-x="635" 
d="M45 458v49.999h137v-316c0 -33.333 2 -60.166 6 -80.499s13 -37.5 27 -51.5c20 -20 46.667 -30 80 -30c44 0 81.667 16 113 48c30 32 45 80.667 45 146v234h-68v50h137v-458h68v-50h-137v73h-2c-18.667 -30.667 -40.667 -53 -66 -67c-28 -17.333 -64.667 -26 -110 -26
c-50 0 -89.333 14.333 -118 43c-29.333 28.667 -44 76 -44 142v293h-68z" />
    <glyph glyph-name="v" unicode="v" horiz-adv-x="527" 
d="M-10 458v50h202v-50h-61l137 -388l135 388h-56v50h190v-50h-62l-170 -458h-80l-171 458h-64z" />
    <glyph glyph-name="w" unicode="w" horiz-adv-x="779" 
d="M591 458v50h198v-50h-64l-142 -458h-77l-115 428l-115 -428h-77l-142 458h-67v50h207v-50h-67l112 -378l115 428h71l116 -428l112 378h-65z" />
    <glyph glyph-name="x" unicode="x" horiz-adv-x="529" 
d="M337 0v50h51l-121 171l-125 -171h53v-50h-195v50h64l163 215l-136 193h-57v50h184v-50h-51l100 -148l102 148h-53v50h192v-50h-61l-139 -193l158 -215h63v-50h-192z" />
    <glyph glyph-name="y" unicode="y" horiz-adv-x="534" 
d="M-10 458v50h203v-50h-58l149 -381l129 381h-60v50h191v-50h-63l-232 -643h-138v50h91l45 135l-193 458h-64z" />
    <glyph glyph-name="z" unicode="z" horiz-adv-x="488" 
d="M398 175h50v-175h-408v49l315 409h-247v-105h-50v155h371v-52l-305 -406h274v125z" />
    <glyph glyph-name="braceleft" unicode="{" horiz-adv-x="366" 
d="M75 229v55.9971c22.667 2.66699 41 10.334 55 23.001c22.667 20 34 57.333 34 112c0 12.667 -0.666992 32.334 -2 59.001c-1.33301 25.333 -2 43 -2 53c0 54.667 14.667 96.667 44 126c24 24 61.333 38 112 42v-45c-25.333 -3.33301 -45.333 -12.333 -60 -27
c-18 -18 -27 -45.667 -27 -83c0 -3.33301 0.666992 -19 2 -47c2 -18.667 3 -40 3 -64c0 -46 -10 -84.333 -30 -115c-18 -28 -43.667 -48.333 -77 -61v-2c33.333 -12.667 59 -33 77 -61c20 -29.333 30 -67.333 30 -114c0 -24.667 -1 -46.334 -3 -65.001
c-1.33301 -28 -2 -43.667 -2 -47c0 -37.333 9 -65 27 -83c14.667 -14.667 34.667 -23.667 60 -27v-45c-50.667 4 -88 18 -112 42c-29.333 29.333 -44 71.333 -44 126c0 10 0.666992 27.667 2 53c1.33301 26.667 2 46.334 2 59.001c0 54.667 -11.333 92 -34 112
c-14 12.667 -32.333 20.334 -55 23.001z" />
    <glyph glyph-name="bar" unicode="|" horiz-adv-x="466" 
d="M208 -224v1053h50v-1053h-50z" />
    <glyph glyph-name="braceright" unicode="}" horiz-adv-x="366" 
d="M291 285v-55.9971c-22.667 -2.66699 -41 -10.334 -55 -23.001c-22.667 -20 -34 -57.333 -34 -112c0 -12.667 0.666992 -32.334 2 -59.001c1.33301 -25.333 2 -43 2 -53c0 -54.667 -14.667 -96.667 -44 -126c-24 -24 -61.333 -38 -112 -42v45
c25.333 3.33301 45.333 12.333 60 27c18 18 27 45.667 27 83c0 3.33301 -0.666992 19 -2 47c-2 18.667 -3 40.334 -3 65.001c0 46.667 10 84.667 30 114c18 28 43.667 48.333 77 61v2c-33.333 12.667 -59 33 -77 61c-20 30.667 -30 69 -30 115c0 24 1 45.333 3 64
c1.33301 28 2 43.667 2 47c0 37.333 -9 65 -27 83c-14.667 14.667 -34.667 23.667 -60 27v45c50.667 -4 88 -18 112 -42c29.333 -29.333 44 -71.333 44 -126c0 -10 -0.666992 -27.667 -2 -53c-1.33301 -26.667 -2 -46.334 -2 -59.001c0 -54.667 11.333 -92 34 -112
c14 -12.667 32.333 -20.334 55 -23.001z" />
    <glyph glyph-name="asciitilde" unicode="~" horiz-adv-x="591" 
d="M84 294l-33.9971 13.999c11.333 34.667 27.333 62.334 48 83.001c24.667 24.667 53.667 37 87 37c23.333 0 49.666 -7.66699 78.999 -23l96 -51c21.333 -11.333 40 -17 56 -17c27.333 0 49 11 65 33c13.333 16.667 21.666 32 24.999 46l35 -14
c-12 -33.333 -28.667 -61.333 -50 -84c-23.333 -24 -50.333 -36 -81 -36c-26 0 -53.667 7.66699 -83 23l-98 53c-18.667 10 -37.334 15 -56.001 15c-22.667 0 -41 -7.66699 -55 -23c-14 -14 -25.333 -32.667 -34 -56z" />
    <glyph glyph-name="Zcaron" horiz-adv-x="590" 
d="M497 250h63v-250h-530v69l426 568h-341v-147h-63v210h488v-62l-422 -575h379v187zM109 900h77l109 -112l108 112h77l-121 -140h-129z" />
    <glyph glyph-name="Zcaron" unicode="&#x17d;" horiz-adv-x="590" 
d="M497 250h63v-250h-530v69l426 568h-341v-147h-63v210h488v-62l-422 -575h379v187zM109 900h77l109 -112l108 112h77l-121 -140h-129z" />
    <glyph glyph-name="zcaron" horiz-adv-x="488" 
d="M398 175h50v-175h-408v49l315 409h-247v-105h-50v155h371v-52l-305 -406h274v125zM308 568h-115l-119 132h68l108 -105l109 105h68z" />
    <glyph glyph-name="zcaron" unicode="&#x17e;" horiz-adv-x="488" 
d="M398 175h50v-175h-408v49l315 409h-247v-105h-50v155h371v-52l-305 -406h274v125zM308 568h-115l-119 132h68l108 -105l109 105h68z" />
    <glyph glyph-name="uni00A0" unicode="&#xa0;" horiz-adv-x="233" 
 />
    <glyph glyph-name="exclamdown" unicode="&#xa1;" horiz-adv-x="300" 
d="M190 -188h-79v286l19 224h40l20 -224v-286zM110 418v94h80v-94h-80z" />
    <glyph glyph-name="cent" unicode="&#xa2;" 
d="M501 353l-50 -0.000976562c-3.33301 31.333 -15 58 -35 80c-22 22.667 -47.667 36.667 -77 42v-443c32.667 6.66699 56.667 18.667 72 36c26.667 28.667 41.667 65.334 45 110.001h66c-6 -60.667 -28 -110 -66 -148c-30 -29.333 -69 -45.666 -117 -48.999v-73h-63v73
c-52 3.33301 -95.667 21.666 -131 54.999c-51.333 49.333 -77 123.666 -77 222.999c0 88.667 21.667 156.334 65 203.001c34 37.333 81.667 59 143 65v67h63v-70c24 -4 48 -13.667 72 -29c14.667 -10 28 -23.333 40 -40v53h50v-155zM202 72.999
c20 -20 44.667 -33.333 74 -40v442c-32 -5.33301 -59.333 -19.333 -82 -42c-35.333 -35.333 -53 -92.666 -53 -171.999c0 -84.667 20.333 -147.334 61 -188.001z" />
    <glyph glyph-name="sterling" unicode="&#xa3;" 
d="M453 492l-0.000976562 19.999c-1.33301 44 -16 79.333 -44 106s-64 40 -108 40c-42.667 0 -78.334 -12 -107.001 -36s-43 -59.333 -43 -106c0 -40 15.667 -90 47 -150h159v-63h-139c10 -26 15 -53 15 -81c0 -30 -8 -59 -24 -87c-11.333 -20 -25.666 -37.333 -42.999 -52
l2 -4c22 8 45 12 69 12c27.333 0 60 -8 98 -24c29.333 -13.333 55 -20 77 -20c32 0 61 13 87 39l33 -46c-36 -40.667 -77 -61 -123 -61c-22.667 0 -55.667 8.33301 -99 25c-40.667 17.333 -76 26 -106 26c-40 0 -76.333 -12.667 -109 -38l-37 52
c38.667 26.667 63.334 49.334 74.001 68.001c20.667 28.667 31 61.667 31 99c0 32.667 -7 63.334 -21 92.001h-98v63h75c-27.333 54 -41 101.333 -41 142c0 64.667 18.667 115.667 56 153c40 40 95.667 60 167 60c28.667 0 57.667 -7.33301 87 -22s51 -33.334 65 -56.001v57
h63v-208h-63z" />
    <glyph glyph-name="currency" unicode="&#xa4;" 
d="M-4 86l87 87c-35.333 46 -53 98.333 -53 157c0 62 17.667 114.333 53 157l-87 88l46 46l87 -88c44.667 37.333 97.667 56 159 56c62.667 0 115.667 -18.667 159 -56l88 88l46 -46l-87 -88c35.333 -46 53 -97.333 53 -154c0 -58.667 -17.667 -112 -53 -160l87 -87l-46 -47
l-88 88c-45.333 -36.667 -97.666 -55 -156.999 -55c-64.667 0 -118.334 18.333 -161.001 55l-87 -88zM85 330c0 -56 19.667 -103.667 59 -143c39.333 -40.667 87.333 -61 144 -61s104.667 19.667 144 59c40 40 60 88.667 60 146c0 56 -20 104 -60 144
c-39.333 39.333 -87.333 59 -144 59c-55.333 0 -103.333 -20.333 -144 -61c-39.333 -39.333 -59 -87 -59 -143z" />
    <glyph glyph-name="yen" unicode="&#xa5;" 
d="M451 253h-125v-58h125v-50h-125v-82h73v-63h-220v63h73v82h-125v50h125v58h-125v50h122l-207 334h-67v63h216v-63h-59l160 -281l159 281h-58v63h208v-63h-66l-207 -334h123v-50z" />
    <glyph glyph-name="brokenbar" unicode="&#xa6;" horiz-adv-x="466" 
d="M208 206h50v-430h-50v430zM258 399h-50v430h50v-430z" />
    <glyph glyph-name="section" unicode="&#xa7;" horiz-adv-x="554" 
d="M102 29l62.999 -0.000976562c-1.33301 -39.333 8 -69 28 -89c18.667 -19.333 45.667 -29 81 -29c34 0 59.333 8.33301 76 25c14.667 14.667 22 34.334 22 59.001c0 24 -7.66699 43.667 -23 59c-5.33301 5.33301 -12 10.5 -20 15.5s-14.667 8.66699 -20 11
s-15.666 6.5 -30.999 12.5l-33 13l-49 20c-39.333 16.667 -71.666 37.334 -96.999 62.001c-30.667 30.667 -46 70 -46 118c0 45.333 15 84 45 116c20 22 47.333 39 82 51c-14 8 -27 20 -39 36c-15.333 21.333 -23 45.666 -23 72.999c0 38.667 11.667 70.667 35 96
c28 29.333 68.333 44 121 44c50.667 0 87.334 -16.333 110.001 -49v27h53v-145h-63v5c-2 36 -10.833 62.667 -26.5 80s-40.167 26 -73.5 26c-30.667 0 -52.667 -6.66699 -66 -20c-14 -14 -21 -33 -21 -57c0 -24.667 9 -45.667 27 -63c8 -7.33301 17.167 -13.833 27.5 -19.5
s24 -12 41 -19s29.167 -12.167 36.5 -15.5l45 -20c43.333 -19.333 75 -39 95 -59c28 -30 42 -67.667 42 -113c0 -47.333 -14.667 -87 -44 -119c-22.667 -24 -50.334 -41 -83.001 -51c19.333 -6.66699 35.333 -19.667 48 -39c12 -18.667 18 -41.667 18 -69
c0 -42 -13 -76 -39 -102c-28.667 -30 -69.334 -45 -122.001 -45c-56 0 -97.333 17 -124 51v-35h-53v158zM317.999 139.999c31.333 8 57.667 22.668 79 44.001c22.667 23.333 34 53.333 34 90c0 34.667 -11 63 -33 85c-24 24 -79 51.333 -165 82
c-34 -8.66699 -61 -23 -81 -43c-20 -20.667 -30 -48.334 -30 -83.001c0 -29.333 8.33301 -55.333 25 -78c21.333 -32 78.333 -64.333 171 -97z" />
    <glyph glyph-name="dieresis" unicode="&#xa8;" horiz-adv-x="374" 
d="M50 616v84h72v-84h-72zM253 616v84h71v-84h-71z" />
    <glyph glyph-name="copyright" unicode="&#xa9;" horiz-adv-x="804" 
d="M50 350c0 96 34.667 178.333 104 247s152 103 248 103s178.667 -34.333 248 -103s104 -151 104 -247s-34.667 -178.333 -104 -247s-152 -103 -248 -103s-178.667 34.333 -248 103s-104 151 -104 247zM541 424l-53 0.000976562c0 19.333 -6.66699 35.666 -20 48.999
c-14 15.333 -36 23 -66 23c-28.667 0 -51.667 -8.66699 -69 -26c-23.333 -23.333 -35 -61.333 -35 -114c0 -49.333 12 -86.666 36 -111.999c19.333 -19.333 44.333 -29 75 -29c24.667 0 45 8.33301 61 25c12 14 19.667 33 23 57h57c-6.66699 -42 -23.334 -74 -50.001 -96
c-24 -19.333 -55.333 -29 -94 -29c-51.333 0 -91 15 -119 45c-31.333 31.333 -47 77.666 -47 138.999c0 62 15.667 108.667 47 140c28.667 28.667 66.334 43 113.001 43c42 0 73 -14 93 -42v27h48v-100zM103 350.001c0 -84 29.167 -155.833 87.5 -215.5
s128.833 -89.5 211.5 -89.5s153.167 29.833 211.5 89.5s87.5 131.5 87.5 215.5s-29.167 155.833 -87.5 215.5s-128.833 89.5 -211.5 89.5s-153.167 -29.833 -211.5 -89.5s-87.5 -131.5 -87.5 -215.5z" />
    <glyph glyph-name="ordfeminine" unicode="&#xaa;" horiz-adv-x="358" 
d="M98 619l-44 -0.000976562c0 28.667 9 52 27 70c21.333 21.333 53.333 32 96 32c36 0 63 -7 81 -21c26 -18.667 38.333 -46.334 37 -83.001v-180h36v-35h-79v44c-9.33301 -14.667 -22.333 -27 -39 -37c-20.667 -10.667 -44 -16 -70 -16c-34 0 -59.333 8.33301 -76 25
s-25 38.667 -25 66c0 24 8.33301 44.333 25 61c11.333 10.667 25.333 18 42 22s43.334 8 80.001 12c3.33301 0.666992 8 1.33398 14 2.00098s10.833 1.16699 14.5 1.5s7.66699 1.33301 12 3s7.83301 3.83398 10.5 6.50098c6.66699 6.66699 10 16.334 10 29.001
c0 21.333 -5.66699 37.333 -17 48c-12.667 12 -32.334 18 -59.001 18c-24.667 0 -43 -5 -55 -15c-14 -12.667 -21 -30.334 -21 -53.001zM250 533.999v26.999c-7.33301 -4.66699 -15.5 -8.16699 -24.5 -10.5s-16.5 -4 -22.5 -5s-14.667 -1.66699 -26 -2
s-19 -0.833008 -23 -1.5c-24 -4 -40.333 -10.333 -49 -19c-10 -11.333 -15 -24.666 -15 -39.999c0 -16.667 5 -30 15 -40c10.667 -10.667 26.667 -16 48 -16c28 0 50.333 8.66699 67 26c18.667 20 28.667 47 30 81zM37 322.998v31h289v-31h-289z" />
    <glyph glyph-name="guillemotleft" unicode="&#xab;" horiz-adv-x="462" 
d="M99 273l112 -95v-68l-149 131v65l149 131v-68zM275 273l112 -95v-68l-149 131v65l149 131v-68z" />
    <glyph glyph-name="logicalnot" unicode="&#xac;" horiz-adv-x="600" 
d="M50 375h500v-188h-48v140h-452v48z" />
    <glyph glyph-name="uni00AD" unicode="&#xad;" horiz-adv-x="404" 
d="M65 232v68h274v-68h-274z" />
    <glyph glyph-name="registered" unicode="&#xae;" horiz-adv-x="628" 
d="M50 436c0 73.333 25.667 135.666 77 186.999s113.666 77 186.999 77s135.666 -25.667 186.999 -77s77 -113.666 77 -186.999s-25.667 -135.666 -77 -186.999s-113.666 -77 -186.999 -77s-135.666 25.667 -186.999 77s-77 113.666 -77 186.999zM366 316l-48 94h-45v-58h24
v-36h-100v36h28v174h-28v36h149c20 0 38 -6.5 54 -19.5s24 -31.5 24 -55.5c0 -15.333 -5.16699 -30.5 -15.5 -45.5s-23.833 -24.167 -40.5 -27.5l37 -62h31v-36h-70zM273 526v-79h49c32 0 48 13 48 39c0 26.667 -17.667 40 -53 40h-44zM99 434
c0 -61.333 21 -113.666 63 -156.999s92.667 -65 152 -65s110 21.667 152 65s63 95.666 63 156.999s-21 113.833 -63 157.5s-92.667 65.5 -152 65.5s-110 -21.833 -152 -65.5s-63 -96.167 -63 -157.5z" />
    <glyph glyph-name="overscore" unicode="&#xaf;" horiz-adv-x="409" 
d="M50 620v50h309v-50h-309z" />
    <glyph glyph-name="degree" unicode="&#xb0;" horiz-adv-x="264" 
d="M76 618c0 -15.333 5.5 -28.5 16.5 -39.5s24.167 -16.5 39.5 -16.5s28.5 5.5 39.5 16.5s16.5 24.167 16.5 39.5s-5.5 28.5 -16.5 39.5s-24.167 16.5 -39.5 16.5s-28.5 -5.5 -39.5 -16.5s-16.5 -24.167 -16.5 -39.5zM37 618c0 26 9.33301 48.333 28 67s41 28 67 28
s48.333 -9.33301 67 -28s28 -41 28 -67s-9.33301 -48.333 -28 -67s-41 -28 -67 -28s-48.333 9.33301 -67 28s-28 41 -28 67z" />
    <glyph glyph-name="plusminus" unicode="&#xb1;" horiz-adv-x="600" 
d="M50 444h226v206h48v-206h226v-48h-226v-186h-48v186h-226v48zM50 128h500v-48h-500v48z" />
    <glyph glyph-name="twosuperior" unicode="&#xb2;" horiz-adv-x="370" 
d="M331 411v-131.003h-284c0 50 16.667 91.667 50 125c14 14 37.833 31.833 71.5 53.5s57.834 39.834 72.501 54.501c20 19.333 30 44.333 30 75c0 26.667 -7.33301 47.334 -22 62.001c-14 14 -36 21 -66 21c-26.667 0 -47.334 -7.66699 -62.001 -23
c-14 -14.667 -21 -39 -21 -73v-5h-51v4c0 44 12.333 78.333 37 103c24 24 58.667 36 104 36c42.667 0 76 -12 100 -36c22.667 -22.667 34 -51.667 34 -87c0 -41.333 -14.667 -76.333 -44 -105c-14.667 -14.667 -39.834 -33.167 -75.501 -55.5s-61.167 -41.166 -76.5 -56.499
c-13.333 -14.667 -21.666 -31.667 -24.999 -51h184v89h44z" />
    <glyph glyph-name="threesuperior" unicode="&#xb3;" horiz-adv-x="370" 
d="M42 404l49.998 0.00195312c0 -28 8.33301 -51.333 25 -70c16.667 -16.667 38.334 -25 65.001 -25c29.333 0 51.333 6.66699 66 20c18 15.333 27 38.666 27 69.999c0 24.667 -6.66699 43.667 -20 57c-14.667 14.667 -36.667 22 -66 22h-32v42h23
c28.667 0 50.334 7.33301 65.001 22c12.667 12.667 19 31 19 55c0 23.333 -6.66699 41.666 -20 54.999c-12.667 12.667 -31 19 -55 19c-28.667 0 -50.334 -7.33301 -65.001 -22c-14 -14 -21.667 -38.333 -23 -73h-49c0 44 11.333 78 34 102c23.333 23.333 56.333 35 99 35
s75.334 -11.333 98.001 -34c20.667 -19.333 31 -45.666 31 -78.999c0 -30.667 -9.33301 -55 -28 -73c-10 -10 -23 -17.667 -39 -23v-3c20.667 -2.66699 38 -11 52 -25c18.667 -18.667 28 -44.334 28 -77.001c0 -39.333 -12 -71 -36 -95
c-24.667 -24.667 -60.667 -37 -108 -37c-45.333 0 -80.333 12.333 -105 37c-20.667 20.667 -32.667 54 -36 100z" />
    <glyph glyph-name="acute" unicode="&#xb4;" horiz-adv-x="292" 
d="M164 700h86l-95 -132h-61z" />
    <glyph glyph-name="mu" unicode="&#xb5;" horiz-adv-x="635" 
d="M45 458l0.00195312 50h137v-294c0 -51.333 9.16699 -94.833 27.5 -130.5s50.166 -53.5 95.499 -53.5c48.667 0 85.5 19 110.5 57s37.5 83.667 37.5 137v234h-68v50h137v-458h68v-50h-137v73h-2c-33.333 -62 -85.333 -93 -156 -93c-22.667 0 -44.834 5.5 -66.501 16.5
s-37.167 25.833 -46.5 44.5v-226h-69v643h-68z" />
    <glyph glyph-name="mu" unicode="&#x3bc;" horiz-adv-x="635" 
d="M45 458l0.00195312 50h137v-294c0 -51.333 9.16699 -94.833 27.5 -130.5s50.166 -53.5 95.499 -53.5c48.667 0 85.5 19 110.5 57s37.5 83.667 37.5 137v234h-68v50h137v-458h68v-50h-137v73h-2c-33.333 -62 -85.333 -93 -156 -93c-22.667 0 -44.834 5.5 -66.501 16.5
s-37.167 25.833 -46.5 44.5v-226h-69v643h-68z" />
    <glyph glyph-name="paragraph" unicode="&#xb6;" horiz-adv-x="452" 
d="M334 -185l0.000976562 838h-87v-838h-51v572c-50.667 2.66699 -90 20 -118 52c-25.333 26.667 -38 61.667 -38 105c0 46 14.333 83.333 43 112c29.333 29.333 70.666 44 123.999 44h251v-47h-73v-838h-51z" />
    <glyph glyph-name="middot" unicode="&#xb7;" horiz-adv-x="300" 
d="M110 220v95h80v-95h-80z" />
    <glyph glyph-name="cedilla" unicode="&#xb8;" horiz-adv-x="298" 
d="M43 -232l14.002 45.001c15.333 -5.33301 34.666 -8 57.999 -8c38.667 0 63.667 6 75 18c7.33301 7.33301 11 17.666 11 30.999c0 14 -4.33301 24 -13 30c-12 10.667 -36 16 -72 16h-31l12 42h28c57.333 0 96 -10 116 -30c14 -14 21 -31.667 21 -53
c0 -29.333 -8.33301 -52.333 -25 -69c-20 -20 -57 -30 -111 -30c-26.667 0 -54.334 2.66699 -83.001 8z" />
    <glyph glyph-name="onesuperior" unicode="&#xb9;" horiz-adv-x="370" 
d="M311 322v-42h-220v42h84v336h-84v42h136v-378h84z" />
    <glyph glyph-name="ordmasculine" unicode="&#xba;" horiz-adv-x="386" 
d="M43 323v31h300v-31h-300zM193 687c-28 0 -49.667 -7.33301 -65 -22c-24 -20.667 -36 -56.667 -36 -108c0 -50.667 11.333 -86.334 34 -107.001c16 -16 38.333 -24 67 -24s51 8 67 24c22.667 20.667 34 56.334 34 107.001c0 51.333 -12 87.333 -36 108
c-15.333 14.667 -37 22 -65 22zM193 392c-42.667 0 -75.998 11 -99.998 33c-33.333 30.667 -50 75 -50 133c0 56.667 15.667 99 47 127c25.333 24 59.666 36 102.999 36s77.666 -12 102.999 -36c31.333 -28 47 -70.333 47 -127c0 -58 -16.667 -102.333 -50 -133
c-24 -22 -57.333 -33 -100 -33z" />
    <glyph glyph-name="guillemotright" unicode="&#xbb;" horiz-adv-x="462" 
d="M364 273l-113 96v68l149 -131v-65l-149 -131v68zM188 273l-113 96v68l149 -131v-65l-149 -131v68z" />
    <glyph glyph-name="onequarter" unicode="&#xbc;" horiz-adv-x="804" 
d="M749 42v-42h-160v42h54v50h-196v38l190 290h58v-290h69v-38h-69v-50h54zM497 130h146v229zM311 322v-42h-220v42h84v336h-84v42h136v-378h84zM184 0l453 700h51l-453 -700h-51z" />
    <glyph glyph-name="onehalf" unicode="&#xbd;" horiz-adv-x="834" 
d="M311 322v-42h-220v42h84v336h-84v42h136v-378h84zM167 0l453 700h51l-453 -700h-51zM784 131v-131.003h-284c0 50 16.667 91.667 50 125c14 14 37.833 31.833 71.5 53.5s57.834 39.834 72.501 54.501c20 19.333 30 44.333 30 75c0 26.667 -7.33301 47.334 -22 62.001
c-14 14 -36 21 -66 21c-26.667 0 -47.334 -7.66699 -62.001 -23c-14 -14.667 -21 -39 -21 -73v-5h-51v4c0 44 12.333 78.333 37 103c24 24 58.667 36 104 36c42.667 0 76 -12 100 -36c22.667 -22.667 34 -51.667 34 -87c0 -41.333 -14.667 -76.333 -44 -105
c-14.667 -14.667 -39.834 -33.167 -75.501 -55.5s-61.167 -41.166 -76.5 -56.499c-13.333 -14.667 -21.666 -31.667 -24.999 -51h184v89h44z" />
    <glyph glyph-name="threequarters" unicode="&#xbe;" horiz-adv-x="800" 
d="M745 42v-42h-160v42h54v50h-196v38l190 290h58v-290h69v-38h-69v-50h54zM493 130h146v229zM186 0l453 700h51l-453 -700h-51zM42 404l49.998 0.00195312c0 -28 8.33301 -51.333 25 -70c16.667 -16.667 38.334 -25 65.001 -25c29.333 0 51.333 6.66699 66 20
c18 15.333 27 38.666 27 69.999c0 24.667 -6.66699 43.667 -20 57c-14.667 14.667 -36.667 22 -66 22h-32v42h23c28.667 0 50.334 7.33301 65.001 22c12.667 12.667 19 31 19 55c0 23.333 -6.66699 41.666 -20 54.999c-12.667 12.667 -31 19 -55 19
c-28.667 0 -50.334 -7.33301 -65.001 -22c-14 -14 -21.667 -38.333 -23 -73h-49c0 44 11.333 78 34 102c23.333 23.333 56.333 35 99 35s75.334 -11.333 98.001 -34c20.667 -19.333 31 -45.666 31 -78.999c0 -30.667 -9.33301 -55 -28 -73c-10 -10 -23 -17.667 -39 -23v-3
c20.667 -2.66699 38 -11 52 -25c18.667 -18.667 28 -44.334 28 -77.001c0 -39.333 -12 -71 -36 -95c-24.667 -24.667 -60.667 -37 -108 -37c-45.333 0 -80.333 12.333 -105 37c-20.667 20.667 -32.667 54 -36 100z" />
    <glyph glyph-name="questiondown" unicode="&#xbf;" horiz-adv-x="558" 
d="M322 512v-94h-80v94h80zM421 20l70.998 -0.00195312c2.66699 -74.667 -16.666 -132.667 -57.999 -174c-38 -36.667 -90.333 -55 -157 -55c-69.333 0 -122.666 17.667 -159.999 53c-34 32 -51 75.333 -51 130c0 58 22 106.667 66 146l42 38c32.667 30 53 51.667 61 65
c12 20 18 44.333 18 73v20h58v-17c0 -41.333 -6.33301 -73.666 -19 -96.999c-12 -21.333 -30 -43.333 -54 -66l-39 -36c-41.333 -36.667 -62 -79.667 -62 -129c0 -33.333 11.667 -61.666 35 -84.999c24 -24 58.667 -36 104 -36c44 0 77.667 11.333 101 34
c32 26.667 46.667 72 44 136z" />
    <glyph glyph-name="Agrave" unicode="&#xc0;" horiz-adv-x="719" 
d="M500 0v63h61l-51 138h-305l-52 -138h63v-63h-211v63h71l218 574h-80v63h187l242 -637h71v-63h-214zM226 264h262l-131 370zM325 900l73 -140h-67l-100 140h94z" />
    <glyph glyph-name="Aacute" unicode="&#xc1;" horiz-adv-x="719" 
d="M500 0v63h61l-51 138h-305l-52 -138h63v-63h-211v63h71l218 574h-80v63h187l242 -637h71v-63h-214zM226 264h262l-131 370zM383 900h94l-99 -140h-67z" />
    <glyph glyph-name="Acircumflex" unicode="&#xc2;" horiz-adv-x="719" 
d="M500 0v63h61l-51 138h-305l-52 -138h63v-63h-211v63h71l218 574h-80v63h187l242 -637h71v-63h-214zM226 264h262l-131 370zM278 900h121l119 -132h-71l-109 105l-108 -105h-71z" />
    <glyph glyph-name="Atilde" unicode="&#xc3;" horiz-adv-x="719" 
d="M500 0v63h61l-51 138h-305l-52 -138h63v-63h-211v63h71l218 574h-80v63h187l242 -637h71v-63h-214zM226 264h262l-131 370zM475 872h57.9971c-1.33301 -28.667 -12 -54.5 -32 -77.5s-45 -34.5 -75 -34.5c-20 0 -37.333 2.66699 -52 8s-34 16 -58 32
c-23.333 14.667 -43.666 22 -60.999 22c-30 0 -47 -17 -51 -51h-58c1.33301 30 13 55.667 35 77s48 32 78 32c16.667 0 31.834 -2.5 45.501 -7.5s31.834 -15.167 54.501 -30.5c22 -16 43.333 -24 64 -24c26 0 43.333 18 52 54z" />
    <glyph glyph-name="Adieresis" unicode="&#xc4;" horiz-adv-x="719" 
d="M500 0v63h61l-51 138h-305l-52 -138h63v-63h-211v63h71l218 574h-80v63h187l242 -637h71v-63h-214zM226 264h262l-131 370zM192 772v77h77v-77h-77zM396 772v77h77v-77h-77z" />
    <glyph glyph-name="Aring" unicode="&#xc5;" horiz-adv-x="719" 
d="M500 0v63h61l-51 138h-305l-52 -138h63v-63h-211v63h71l218 574h-80v63h187l242 -637h71v-63h-214zM226 264h262l-131 370zM238 831c0 28 9.83301 51.833 29.5 71.5s43.5 29.5 71.5 29.5s51.833 -9.83301 71.5 -29.5s29.5 -43.5 29.5 -71.5s-9.83301 -51.833 -29.5 -71.5
s-43.5 -29.5 -71.5 -29.5s-51.833 9.83301 -71.5 29.5s-29.5 43.5 -29.5 71.5zM281 831c0 -16 5.66699 -29.667 17 -41s25 -17 41 -17s29.667 5.66699 41 17s17 25 17 41s-5.66699 29.667 -17 41s-25 17 -41 17s-29.667 -5.66699 -41 -17s-17 -25 -17 -41z" />
    <glyph glyph-name="AE" unicode="&#xc6;" horiz-adv-x="1022" 
d="M325 637v63h655v-210h-63v147h-346v-243h294v-63h-294v-268h358v177h63v-240h-568v63h73v134h-255l-74 -134h58v-63h-221v63h75l325 574h-80zM497 260v377h-18l-204 -377h222z" />
    <glyph glyph-name="Ccedilla" unicode="&#xc7;" horiz-adv-x="733" 
d="M600 700l63.001 -0.000976562v-210h-63c-3.33301 42 -20.333 79.333 -51 112c-36 37.333 -87.667 56 -155 56c-70 0 -125.667 -20.333 -167 -61c-54.667 -54 -82 -132.333 -82 -235c0 -116 28.667 -201.667 86 -257c42 -42 97 -63 165 -63
c61.333 0 111.666 18.333 150.999 55c37.333 37.333 57.666 81 60.999 131h75c-8.66699 -71.333 -35.667 -129.666 -81 -174.999c-49.333 -49.333 -119.666 -74 -210.999 -74c-96 0 -172 29 -228 87c-64.667 67.333 -97 162.333 -97 285c0 128 32.333 223 97 285
c59.333 56.667 133.333 85 222 85c95.333 0 167 -33 215 -99v78zM268.001 -241.001l15 47.001c15.333 -5.33301 35.333 -8 60 -8c59.333 0 89 17.667 89 53c0 19.333 -8.16699 32 -24.5 38s-37.5 9 -63.5 9h-32l12 44h29c28 0 51.667 -1.83301 71 -5.5
s36.5 -12.334 51.5 -26.001s22.5 -32.5 22.5 -56.5c0 -70 -48 -105 -144 -105c-31.333 0 -60 3.33301 -86 10z" />
    <glyph glyph-name="Egrave" unicode="&#xc8;" horiz-adv-x="658" 
d="M60 637v63h556v-210h-63v147h-346v-243h294v-63h-294v-268h358v177h63v-240h-568v63h73v574h-73zM352 900l73 -140h-67l-100 140h94z" />
    <glyph glyph-name="Eacute" unicode="&#xc9;" horiz-adv-x="658" 
d="M60 637v63h556v-210h-63v147h-346v-243h294v-63h-294v-268h358v177h63v-240h-568v63h73v574h-73zM390 900h94l-99 -140h-67z" />
    <glyph glyph-name="Ecircumflex" unicode="&#xca;" horiz-adv-x="658" 
d="M60 637v63h556v-210h-63v147h-346v-243h294v-63h-294v-268h358v177h63v-240h-568v63h73v574h-73zM317 900h121l119 -132h-71l-109 105l-108 -105h-71z" />
    <glyph glyph-name="Edieresis" unicode="&#xcb;" horiz-adv-x="658" 
d="M60 637v63h556v-210h-63v147h-346v-243h294v-63h-294v-268h358v177h63v-240h-568v63h73v574h-73zM216 772v77h77v-77h-77zM420 772v77h77v-77h-77z" />
    <glyph glyph-name="Igrave" unicode="&#xcc;" horiz-adv-x="340" 
d="M60 637v63h220v-63h-73v-574h73v-63h-220v63h73v574h-73zM107 900l73 -140h-67l-100 140h94z" />
    <glyph glyph-name="Iacute" unicode="&#xcd;" horiz-adv-x="340" 
d="M60 637v63h220v-63h-73v-574h73v-63h-220v63h73v574h-73zM171 900h94l-99 -140h-67z" />
    <glyph glyph-name="Icircumflex" unicode="&#xce;" horiz-adv-x="340" 
d="M60 637v63h220v-63h-73v-574h73v-63h-220v63h73v574h-73zM111 900h121l119 -132h-71l-109 105l-108 -105h-71z" />
    <glyph glyph-name="Idieresis" unicode="&#xcf;" horiz-adv-x="340" 
d="M60 637v63h220v-63h-73v-574h73v-63h-220v63h73v574h-73zM31 772v77h77v-77h-77zM235 772v77h77v-77h-77z" />
    <glyph glyph-name="Eth" unicode="&#xd0;" horiz-adv-x="755" 
d="M60 637l0.00195312 63h300c111.333 0 194.666 -25.333 249.999 -76c66.667 -66.667 100 -156.667 100 -270c0 -124 -34 -217 -102 -279c-54.667 -50 -141.334 -75 -260.001 -75h-288v63h73v276h-103v53h103v245h-73zM207.002 637v-245h189v-53h-189v-276h119
c109.333 0 186 22 230 66c50.667 50.667 76 125 76 223s-26.667 172.667 -80 224c-40.667 40.667 -105 61 -193 61h-152z" />
    <glyph glyph-name="Ntilde" unicode="&#xd1;" horiz-adv-x="814" 
d="M534 637v63h220v-63h-73v-637h-84l-390 592v-529h73v-63h-220v63h73v574h-73v63h158l389 -592v529h-73zM545 872h57.9971c-1.33301 -28.667 -12 -54.5 -32 -77.5s-45 -34.5 -75 -34.5c-20 0 -37.333 2.66699 -52 8s-34 16 -58 32c-23.333 14.667 -43.666 22 -60.999 22
c-30 0 -47 -17 -51 -51h-58c1.33301 30 13 55.667 35 77s48 32 78 32c16.667 0 31.834 -2.5 45.501 -7.5s31.834 -15.167 54.501 -30.5c22 -16 43.333 -24 64 -24c26 0 43.333 18 52 54z" />
    <glyph glyph-name="Ograve" unicode="&#xd2;" horiz-adv-x="790" 
d="M66 350c0 124 34 219.998 102 287.998c55.333 55.333 130 83 224 83c93.333 0 168.666 -26.667 225.999 -80c70.667 -66 106 -163 106 -291c0 -129.333 -34.667 -226.666 -104 -291.999c-55.333 -52.667 -129.666 -79 -222.999 -79c-100 0 -177 27 -231 81
c-8 6.66699 -16.5 16.334 -25.5 29.001s-19.667 30.5 -32 53.5s-22.5 52.833 -30.5 89.5s-12 76 -12 118zM144 345.998c0 -104.667 26 -184.001 78 -238.001c44 -44 102 -66 174 -66c69.333 0 126.333 22.333 171 67c52.667 52.667 79 132.334 79 239.001
c0 113.333 -30 198 -90 254c-40.667 37.333 -94 56 -160 56s-120.333 -19 -163 -57c-59.333 -54 -89 -139 -89 -255zM380 899.997l73 -140h-67l-100 140h94z" />
    <glyph glyph-name="Oacute" unicode="&#xd3;" horiz-adv-x="790" 
d="M66 350c0 124 34 219.998 102 287.998c55.333 55.333 130 83 224 83c93.333 0 168.666 -26.667 225.999 -80c70.667 -66 106 -163 106 -291c0 -129.333 -34.667 -226.666 -104 -291.999c-55.333 -52.667 -129.666 -79 -222.999 -79c-100 0 -177 27 -231 81
c-8 6.66699 -16.5 16.334 -25.5 29.001s-19.667 30.5 -32 53.5s-22.5 52.833 -30.5 89.5s-12 76 -12 118zM144 345.998c0 -104.667 26 -184.001 78 -238.001c44 -44 102 -66 174 -66c69.333 0 126.333 22.333 171 67c52.667 52.667 79 132.334 79 239.001
c0 113.333 -30 198 -90 254c-40.667 37.333 -94 56 -160 56s-120.333 -19 -163 -57c-59.333 -54 -89 -139 -89 -255zM429 899.997h94l-99 -140h-67z" />
    <glyph glyph-name="Ocircumflex" unicode="&#xd4;" horiz-adv-x="790" 
d="M66 350c0 124 34 219.998 102 287.998c55.333 55.333 130 83 224 83c93.333 0 168.666 -26.667 225.999 -80c70.667 -66 106 -163 106 -291c0 -129.333 -34.667 -226.666 -104 -291.999c-55.333 -52.667 -129.666 -79 -222.999 -79c-100 0 -177 27 -231 81
c-8 6.66699 -16.5 16.334 -25.5 29.001s-19.667 30.5 -32 53.5s-22.5 52.833 -30.5 89.5s-12 76 -12 118zM144 345.998c0 -104.667 26 -184.001 78 -238.001c44 -44 102 -66 174 -66c69.333 0 126.333 22.333 171 67c52.667 52.667 79 132.334 79 239.001
c0 113.333 -30 198 -90 254c-40.667 37.333 -94 56 -160 56s-120.333 -19 -163 -57c-59.333 -54 -89 -139 -89 -255zM334 899.997h121l119 -132h-71l-109 105l-108 -105h-71z" />
    <glyph glyph-name="Otilde" unicode="&#xd5;" horiz-adv-x="790" 
d="M66 350c0 124 34 219.998 102 287.998c55.333 55.333 130 83 224 83c93.333 0 168.666 -26.667 225.999 -80c70.667 -66 106 -163 106 -291c0 -129.333 -34.667 -226.666 -104 -291.999c-55.333 -52.667 -129.666 -79 -222.999 -79c-100 0 -177 27 -231 81
c-8 6.66699 -16.5 16.334 -25.5 29.001s-19.667 30.5 -32 53.5s-22.5 52.833 -30.5 89.5s-12 76 -12 118zM144 345.998c0 -104.667 26 -184.001 78 -238.001c44 -44 102 -66 174 -66c69.333 0 126.333 22.333 171 67c52.667 52.667 79 132.334 79 239.001
c0 113.333 -30 198 -90 254c-40.667 37.333 -94 56 -160 56s-120.333 -19 -163 -57c-59.333 -54 -89 -139 -89 -255zM532 871.997h57.9971c-1.33301 -28.667 -12 -54.5 -32 -77.5s-45 -34.5 -75 -34.5c-20 0 -37.333 2.66699 -52 8s-34 16 -58 32
c-23.333 14.667 -43.666 22 -60.999 22c-30 0 -47 -17 -51 -51h-58c1.33301 30 13 55.667 35 77s48 32 78 32c16.667 0 31.834 -2.5 45.501 -7.5s31.834 -15.167 54.501 -30.5c22 -16 43.333 -24 64 -24c26 0 43.333 18 52 54z" />
    <glyph glyph-name="Odieresis" unicode="&#xd6;" horiz-adv-x="790" 
d="M66 350c0 124 34 219.998 102 287.998c55.333 55.333 130 83 224 83c93.333 0 168.666 -26.667 225.999 -80c70.667 -66 106 -163 106 -291c0 -129.333 -34.667 -226.666 -104 -291.999c-55.333 -52.667 -129.666 -79 -222.999 -79c-100 0 -177 27 -231 81
c-8 6.66699 -16.5 16.334 -25.5 29.001s-19.667 30.5 -32 53.5s-22.5 52.833 -30.5 89.5s-12 76 -12 118zM144 345.998c0 -104.667 26 -184.001 78 -238.001c44 -44 102 -66 174 -66c69.333 0 126.333 22.333 171 67c52.667 52.667 79 132.334 79 239.001
c0 113.333 -30 198 -90 254c-40.667 37.333 -94 56 -160 56s-120.333 -19 -163 -57c-59.333 -54 -89 -139 -89 -255zM258 771.997v77h77v-77h-77zM462 771.997v77h77v-77h-77z" />
    <glyph glyph-name="multiply" unicode="&#xd7;" horiz-adv-x="600" 
d="M70 153l196 196l-196 196l34 34l196 -196l196 196l34 -34l-196 -196l196 -196l-34 -34l-196 196l-196 -196z" />
    <glyph glyph-name="Oslash" unicode="&#xd8;" horiz-adv-x="790" 
d="M66 350c0 124 33.998 219.999 101.998 287.999c55.333 55.333 130 83 224 83c88 0 160 -24 216 -72l82 98l40 -30l-87 -103c54 -67.333 81 -155.333 81 -264c0 -129.333 -34.667 -226.666 -104 -291.999c-55.333 -52.667 -129.666 -79 -222.999 -79
c-97.333 0 -171.666 24.333 -222.999 73l-95 -113l-38 32l99 119c-49.333 66 -74 152.667 -74 260zM645.998 347.999c0 85.333 -17.333 154.332 -52 206.999l-373 -446c44.667 -44.667 103 -67 175 -67c69.333 0 126.333 22.333 171 67c52.667 52.667 79 132.334 79 239.001
zM143.998 345.998c0 -77.333 15.333 -143 46 -197l373 446l-7 7c-40.667 37.333 -94 56 -160 56s-120.333 -19 -163 -57c-59.333 -54 -89 -139 -89 -255z" />
    <glyph glyph-name="Ugrave" unicode="&#xd9;" horiz-adv-x="773" 
d="M508 637l-0.00292969 63.001h220v-63h-73v-365c0 -30 -1.16699 -55.5 -3.5 -76.5s-9.16602 -45.833 -20.499 -74.5s-27.666 -53.334 -48.999 -74.001c-45.333 -43.333 -110.666 -65 -195.999 -65c-86.667 0 -152.667 21 -198 63c-46.667 44 -70 119.667 -70 227v365h-73
v63h220v-63h-73v-357c0 -26 0.666992 -47.667 2 -65s5.5 -37.166 12.5 -59.499s17.167 -40.5 30.5 -54.5c34 -37.333 84 -56 150 -56s115.333 18 148 54c30.667 33.333 46 93.666 46 180.999v357h-73zM359.997 900.001l73 -140h-67l-100 140h94z" />
    <glyph glyph-name="Uacute" unicode="&#xda;" horiz-adv-x="773" 
d="M508 637l-0.00292969 63.001h220v-63h-73v-365c0 -30 -1.16699 -55.5 -3.5 -76.5s-9.16602 -45.833 -20.499 -74.5s-27.666 -53.334 -48.999 -74.001c-45.333 -43.333 -110.666 -65 -195.999 -65c-86.667 0 -152.667 21 -198 63c-46.667 44 -70 119.667 -70 227v365h-73
v63h220v-63h-73v-357c0 -26 0.666992 -47.667 2 -65s5.5 -37.166 12.5 -59.499s17.167 -40.5 30.5 -54.5c34 -37.333 84 -56 150 -56s115.333 18 148 54c30.667 33.333 46 93.666 46 180.999v357h-73zM407.997 900.001h94l-99 -140h-67z" />
    <glyph glyph-name="Ucircumflex" unicode="&#xdb;" horiz-adv-x="773" 
d="M508 637l-0.00292969 63.001h220v-63h-73v-365c0 -30 -1.16699 -55.5 -3.5 -76.5s-9.16602 -45.833 -20.499 -74.5s-27.666 -53.334 -48.999 -74.001c-45.333 -43.333 -110.666 -65 -195.999 -65c-86.667 0 -152.667 21 -198 63c-46.667 44 -70 119.667 -70 227v365h-73
v63h220v-63h-73v-357c0 -26 0.666992 -47.667 2 -65s5.5 -37.166 12.5 -59.499s17.167 -40.5 30.5 -54.5c34 -37.333 84 -56 150 -56s115.333 18 148 54c30.667 33.333 46 93.666 46 180.999v357h-73zM324.997 900.001h121l119 -132h-71l-109 105l-108 -105h-71z" />
    <glyph glyph-name="Udieresis" unicode="&#xdc;" horiz-adv-x="773" 
d="M508 637l-0.00292969 63.001h220v-63h-73v-365c0 -30 -1.16699 -55.5 -3.5 -76.5s-9.16602 -45.833 -20.499 -74.5s-27.666 -53.334 -48.999 -74.001c-45.333 -43.333 -110.666 -65 -195.999 -65c-86.667 0 -152.667 21 -198 63c-46.667 44 -70 119.667 -70 227v365h-73
v63h220v-63h-73v-357c0 -26 0.666992 -47.667 2 -65s5.5 -37.166 12.5 -59.499s17.167 -40.5 30.5 -54.5c34 -37.333 84 -56 150 -56s115.333 18 148 54c30.667 33.333 46 93.666 46 180.999v357h-73zM244.997 772.001v77h77v-77h-77zM448.997 772.001v77h77v-77h-77z" />
    <glyph glyph-name="Yacute" unicode="&#xdd;" horiz-adv-x="656" 
d="M5 637v63h216v-63h-59l170 -271l169 271h-58v63h208v-63h-66l-219 -338v-236h73v-63h-220v63h73v236l-220 338h-67zM356 900h94l-99 -140h-67z" />
    <glyph glyph-name="Thorn" unicode="&#xde;" horiz-adv-x="678" 
d="M60 637l-0.000976562 63.002h220v-63h-73v-71h175c93.333 0 159 -18 197 -54c39.333 -34.667 59 -83.334 59 -146.001c0 -58.667 -19.333 -107.334 -58 -146.001c-39.333 -41.333 -106.666 -62 -201.999 -62h-171v-95h73v-63h-220v63h73v574h-73zM206.999 503.002
v-281.998h166c70 0 118 12.333 144 37c30 27.333 45 62.666 45 105.999c0 39.333 -13.667 72.666 -41 99.999c-28 26 -77.333 39 -148 39h-166z" />
    <glyph glyph-name="germandbls" unicode="&#xdf;" horiz-adv-x="600" 
d="M114 50l0.000976562 408.999c0 29.333 0.666992 52.833 2 70.5s6.16602 38.667 14.499 63s20.5 45.166 36.5 62.499c34 35.333 84.333 53 151 53c62 0 108.333 -15.333 139 -46c28.667 -28.667 43 -68 43 -118c0 -39.333 -9 -71.666 -27 -96.999
c-15.333 -24 -39 -40.333 -71 -49v-3c38.667 -8 70 -23.667 94 -47c34 -33.333 51 -80 51 -140c0 -67.333 -21 -121.333 -63 -162c-35.333 -35.333 -85.333 -53 -150 -53c-22 0 -46.333 2.33301 -73 7v52c18 -5.33301 37 -8 57 -8c50 0 87.333 13 112 39
c29.333 29.333 44 71.666 44 126.999c0 50.667 -15 89.334 -45 116.001c-28 24.667 -75 37 -141 37h-27v50l30 -1c41.333 -2.66699 75 7 101 29c23.333 20.667 35 52.334 35 95.001c0 40 -10.333 70.333 -31 91c-20 20 -48.333 30 -85 30c-38 0 -67.667 -10.333 -89 -31
c-16.667 -16.667 -27.5 -37 -32.5 -61s-7.5 -56.333 -7.5 -97v-468h-137v50h69z" />
    <glyph glyph-name="agrave" unicode="&#xe0;" horiz-adv-x="564" 
d="M397 0l0.00195312 82.999c-15.333 -29.333 -37 -51.666 -65 -66.999c-32.667 -18.667 -72.334 -28 -119.001 -28c-55.333 0 -97 13.667 -125 41c-28 26 -42 61.667 -42 107c0 39.333 12.333 71.333 37 96c28 28 81.667 46.333 161 55l101 12
c20 3.33301 33.333 8.33301 40 15c8 8.66699 12 25 12 49c0 38.667 -10.333 67.667 -31 87c-21.333 18.667 -53.333 28 -96 28c-48.667 0 -83.334 -10.333 -104.001 -31c-20 -20 -30.667 -48.333 -32 -85h-67c0 56 22 99.667 66 131c33.333 23.333 81 35 143 35
c68 0 117.667 -15.667 149 -47c27.333 -27.333 41 -67 41 -119v-312h68v-50h-137zM397.002 218.999l0.000976562 50.001c-7.33301 -6 -16 -10.333 -26 -13c-10 -3.33301 -21.333 -6 -34 -8s-29.334 -3.83301 -50.001 -5.5s-34.667 -2.83398 -42 -3.50098
c-50.667 -6 -85 -17.667 -103 -35c-16 -16 -24 -39 -24 -69c0 -28 8.66699 -50.667 26 -68c17.333 -19.333 44 -29 80 -29c44 0 80.333 11.667 109 35c42.667 35.333 64 84 64 146zM263.003 700l70 -132h-60l-96 132h86z" />
    <glyph glyph-name="aacute" unicode="&#xe1;" horiz-adv-x="564" 
d="M397 0l0.00195312 82.999c-15.333 -29.333 -37 -51.666 -65 -66.999c-32.667 -18.667 -72.334 -28 -119.001 -28c-55.333 0 -97 13.667 -125 41c-28 26 -42 61.667 -42 107c0 39.333 12.333 71.333 37 96c28 28 81.667 46.333 161 55l101 12
c20 3.33301 33.333 8.33301 40 15c8 8.66699 12 25 12 49c0 38.667 -10.333 67.667 -31 87c-21.333 18.667 -53.333 28 -96 28c-48.667 0 -83.334 -10.333 -104.001 -31c-20 -20 -30.667 -48.333 -32 -85h-67c0 56 22 99.667 66 131c33.333 23.333 81 35 143 35
c68 0 117.667 -15.667 149 -47c27.333 -27.333 41 -67 41 -119v-312h68v-50h-137zM397.002 218.999l0.000976562 50.001c-7.33301 -6 -16 -10.333 -26 -13c-10 -3.33301 -21.333 -6 -34 -8s-29.334 -3.83301 -50.001 -5.5s-34.667 -2.83398 -42 -3.50098
c-50.667 -6 -85 -17.667 -103 -35c-16 -16 -24 -39 -24 -69c0 -28 8.66699 -50.667 26 -68c17.333 -19.333 44 -29 80 -29c44 0 80.333 11.667 109 35c42.667 35.333 64 84 64 146zM299.003 700h86l-95 -132h-61z" />
    <glyph glyph-name="acircumflex" unicode="&#xe2;" horiz-adv-x="564" 
d="M397 0l0.00195312 82.999c-15.333 -29.333 -37 -51.666 -65 -66.999c-32.667 -18.667 -72.334 -28 -119.001 -28c-55.333 0 -97 13.667 -125 41c-28 26 -42 61.667 -42 107c0 39.333 12.333 71.333 37 96c28 28 81.667 46.333 161 55l101 12
c20 3.33301 33.333 8.33301 40 15c8 8.66699 12 25 12 49c0 38.667 -10.333 67.667 -31 87c-21.333 18.667 -53.333 28 -96 28c-48.667 0 -83.334 -10.333 -104.001 -31c-20 -20 -30.667 -48.333 -32 -85h-67c0 56 22 99.667 66 131c33.333 23.333 81 35 143 35
c68 0 117.667 -15.667 149 -47c27.333 -27.333 41 -67 41 -119v-312h68v-50h-137zM397.002 218.999l0.000976562 50.001c-7.33301 -6 -16 -10.333 -26 -13c-10 -3.33301 -21.333 -6 -34 -8s-29.334 -3.83301 -50.001 -5.5s-34.667 -2.83398 -42 -3.50098
c-50.667 -6 -85 -17.667 -103 -35c-16 -16 -24 -39 -24 -69c0 -28 8.66699 -50.667 26 -68c17.333 -19.333 44 -29 80 -29c44 0 80.333 11.667 109 35c42.667 35.333 64 84 64 146zM222.003 700h115l119 -132h-68l-109 105l-108 -105h-68z" />
    <glyph glyph-name="atilde" unicode="&#xe3;" horiz-adv-x="564" 
d="M397 0l0.00195312 82.999c-15.333 -29.333 -37 -51.666 -65 -66.999c-32.667 -18.667 -72.334 -28 -119.001 -28c-55.333 0 -97 13.667 -125 41c-28 26 -42 61.667 -42 107c0 39.333 12.333 71.333 37 96c28 28 81.667 46.333 161 55l101 12
c20 3.33301 33.333 8.33301 40 15c8 8.66699 12 25 12 49c0 38.667 -10.333 67.667 -31 87c-21.333 18.667 -53.333 28 -96 28c-48.667 0 -83.334 -10.333 -104.001 -31c-20 -20 -30.667 -48.333 -32 -85h-67c0 56 22 99.667 66 131c33.333 23.333 81 35 143 35
c68 0 117.667 -15.667 149 -47c27.333 -27.333 41 -67 41 -119v-312h68v-50h-137zM397.002 218.999l0.000976562 50.001c-7.33301 -6 -16 -10.333 -26 -13c-10 -3.33301 -21.333 -6 -34 -8s-29.334 -3.83301 -50.001 -5.5s-34.667 -2.83398 -42 -3.50098
c-50.667 -6 -85 -17.667 -103 -35c-16 -16 -24 -39 -24 -69c0 -28 8.66699 -50.667 26 -68c17.333 -19.333 44 -29 80 -29c44 0 80.333 11.667 109 35c42.667 35.333 64 84 64 146zM410.003 701l52 0.000976562c-6 -30.667 -17.667 -55.667 -35 -75s-40.333 -29 -69 -29
c-30.667 0 -65.667 13.333 -105 40c-21.333 13.333 -40 20 -56 20c-28 0 -45.667 -16.667 -53 -50h-52c4 29.333 15.833 53.666 35.5 72.999s44.167 29 73.5 29c26 0 58.333 -12.667 97 -38c22 -14.667 41 -22 57 -22c12.667 0 24 5 34 15s17 22.333 21 37z" />
    <glyph glyph-name="adieresis" unicode="&#xe4;" horiz-adv-x="564" 
d="M397 0l0.00195312 82.999c-15.333 -29.333 -37 -51.666 -65 -66.999c-32.667 -18.667 -72.334 -28 -119.001 -28c-55.333 0 -97 13.667 -125 41c-28 26 -42 61.667 -42 107c0 39.333 12.333 71.333 37 96c28 28 81.667 46.333 161 55l101 12
c20 3.33301 33.333 8.33301 40 15c8 8.66699 12 25 12 49c0 38.667 -10.333 67.667 -31 87c-21.333 18.667 -53.333 28 -96 28c-48.667 0 -83.334 -10.333 -104.001 -31c-20 -20 -30.667 -48.333 -32 -85h-67c0 56 22 99.667 66 131c33.333 23.333 81 35 143 35
c68 0 117.667 -15.667 149 -47c27.333 -27.333 41 -67 41 -119v-312h68v-50h-137zM397.002 218.999l0.000976562 50.001c-7.33301 -6 -16 -10.333 -26 -13c-10 -3.33301 -21.333 -6 -34 -8s-29.334 -3.83301 -50.001 -5.5s-34.667 -2.83398 -42 -3.50098
c-50.667 -6 -85 -17.667 -103 -35c-16 -16 -24 -39 -24 -69c0 -28 8.66699 -50.667 26 -68c17.333 -19.333 44 -29 80 -29c44 0 80.333 11.667 109 35c42.667 35.333 64 84 64 146zM139.003 616v84h72v-84h-72zM342.003 616v84h71v-84h-71z" />
    <glyph glyph-name="aring" unicode="&#xe5;" horiz-adv-x="564" 
d="M397 0l0.00195312 82.999c-15.333 -29.333 -37 -51.666 -65 -66.999c-32.667 -18.667 -72.334 -28 -119.001 -28c-55.333 0 -97 13.667 -125 41c-28 26 -42 61.667 -42 107c0 39.333 12.333 71.333 37 96c28 28 81.667 46.333 161 55l101 12
c20 3.33301 33.333 8.33301 40 15c8 8.66699 12 25 12 49c0 38.667 -10.333 67.667 -31 87c-21.333 18.667 -53.333 28 -96 28c-48.667 0 -83.334 -10.333 -104.001 -31c-20 -20 -30.667 -48.333 -32 -85h-67c0 56 22 99.667 66 131c33.333 23.333 81 35 143 35
c68 0 117.667 -15.667 149 -47c27.333 -27.333 41 -67 41 -119v-312h68v-50h-137zM397.002 218.999l0.000976562 50.001c-7.33301 -6 -16 -10.333 -26 -13c-10 -3.33301 -21.333 -6 -34 -8s-29.334 -3.83301 -50.001 -5.5s-34.667 -2.83398 -42 -3.50098
c-50.667 -6 -85 -17.667 -103 -35c-16 -16 -24 -39 -24 -69c0 -28 8.66699 -50.667 26 -68c17.333 -19.333 44 -29 80 -29c44 0 80.333 11.667 109 35c42.667 35.333 64 84 64 146zM183.003 643c0 25.333 9.16699 47.168 27.5 65.501s40.166 27.5 65.499 27.5
c26 0 47.833 -9 65.5 -27s26.5 -40 26.5 -66s-8.83301 -48 -26.5 -66s-39.5 -27 -65.5 -27c-25.333 0 -47.166 9.16699 -65.499 27.5s-27.5 40.166 -27.5 65.499zM220.003 644.002c0 -14.667 5.33301 -27.832 16 -39.499s23.667 -17.5 39 -17.5s28.5 5.66699 39.5 17
s16.5 24.666 16.5 39.999s-5.5 28.333 -16.5 39s-24.167 16 -39.5 16s-28.333 -5.5 -39 -16.5s-16 -23.833 -16 -38.5z" />
    <glyph glyph-name="ae" unicode="&#xe6;" horiz-adv-x="916" 
d="M136 362l-67 -0.00195312c0 61.333 25.333 107 76 137c31.333 19.333 74 29 128 29c50.667 0 90 -8.33301 118 -25c26.667 -15.333 46.667 -36.666 60 -63.999c16 24 36 44 60 60c30.667 19.333 70 29 118 29c74.667 0 132 -20.667 172 -62c24 -24.667 40.333 -54 49 -88
s13 -76.333 13 -127v-10h-396c0 -70 18.333 -124.667 55 -164c30.667 -31.333 70 -47 118 -47c47.333 0 84.333 13.333 111 40c18 18 31.333 43.667 40 77h67c-12 -47.333 -31.333 -84.333 -58 -111c-37.333 -37.333 -91 -56 -161 -56c-56 0 -101.333 11.333 -136 34
c-31.333 19.333 -56 48.666 -74 87.999c-16 -35.333 -40.667 -64 -74 -86c-36 -22 -79.667 -33 -131 -33c-62.667 0 -108.667 14.333 -138 43c-26.667 25.333 -40 61 -40 107c0 40 12.667 72.667 38 98c19.333 18.667 41.833 31.834 67.5 39.501s58.167 13.5 97.5 17.5l38 4
l30 2.5c12 1 22.333 2.16699 31 3.5c22 5.33301 35.667 11 41 17c6.66699 9.33301 10 27.333 10 54c0 35.333 -10 62 -30 80c-20.667 19.333 -52.667 29 -96 29c-40.667 0 -71.667 -7.33301 -93 -22c-28 -19.333 -42.667 -50.666 -44 -93.999zM398 233.998
l-0.00195312 35.001c-6.66699 -6 -16.667 -10.667 -30 -14c-16 -4.66699 -36.667 -8 -62 -10c-46 -4 -74 -7 -84 -9c-37.333 -6 -63.666 -16.667 -78.999 -32c-17.333 -17.333 -26 -39.333 -26 -66c0 -32.667 10 -58.334 30 -77.001c18.667 -18 45.334 -27 80.001 -27
c52 0 93.667 16.333 125 49c30.667 32 46 82.333 46 151zM467.998 290.999l325.002 0.000976562c0 60.667 -16 108.667 -48 144c-28.667 28.667 -65.334 43 -110.001 43c-50.667 0 -90.334 -15.667 -119.001 -47c-27.333 -30.667 -43.333 -77.334 -48 -140.001z" />
    <glyph glyph-name="ccedilla" unicode="&#xe7;" horiz-adv-x="547" 
d="M486 353l-49.999 -0.000976562c-3.33301 31.333 -15 58 -35 80c-26.667 30 -62.667 45 -108 45c-46 0 -84 -15 -114 -45c-35.333 -35.333 -53 -92.666 -53 -171.999c0 -84.667 20.333 -147.334 61 -188.001c28.667 -28.667 64.667 -43 108 -43s77 12.667 101 38
c26.667 28.667 41.667 65.334 45 110.001h66c-6 -60.667 -28 -110 -66 -148c-20.667 -20.667 -42.5 -34.167 -65.5 -40.5s-50.167 -9.5 -81.5 -9.5c-70.667 0 -125.334 18.667 -164.001 56c-51.333 49.333 -77 123.666 -77 222.999c0 88.667 21.667 156.334 65 203.001
c38.667 44 95 66 169 66c42 0 78.333 -11 109 -33c14.667 -10 28 -23.333 40 -40v53h50v-155zM183.001 -232.001l14.002 45.001c15.333 -5.33301 34.666 -8 57.999 -8c38.667 0 63.667 6 75 18c7.33301 7.33301 11 17.666 11 30.999c0 14 -4.33301 24 -13 30
c-12 10.667 -36 16 -72 16h-31l12 42h28c57.333 0 96 -10 116 -30c14 -14 21 -31.667 21 -53c0 -29.333 -8.33301 -52.333 -25 -69c-20 -20 -57 -30 -111 -30c-26.667 0 -54.334 2.66699 -83.001 8z" />
    <glyph glyph-name="egrave" unicode="&#xe8;" 
d="M451 147h66c-8.66699 -41.333 -27 -77.333 -55 -108c-38 -39.333 -92 -59 -162 -59c-73.333 0 -130.666 19.667 -171.999 59c-50 48.667 -75 121 -75 217c0 92 23.333 161.333 70 208c42.667 42.667 100 64 172 64c69.333 0 123.333 -20 162 -60
c25.333 -26 42.166 -56.667 50.499 -92s13.5 -80.333 15.5 -135h-398c2.66699 -72 20.667 -125.667 54 -161c30 -33.333 71.333 -50 124 -50c43.333 0 78.333 12.667 105 38c18 16 32.333 42.333 43 79zM125 291l325 0.00195312c0 23.333 -4.33301 49.666 -13 78.999
s-20.667 51.666 -36 66.999c-26 27.333 -61.667 41 -107 41c-52 0 -92.667 -16.333 -122 -49c-31.333 -36 -47 -82 -47 -138zM278 700.002l70 -132h-60l-96 132h86z" />
    <glyph glyph-name="eacute" unicode="&#xe9;" 
d="M451 147h66c-8.66699 -41.333 -27 -77.333 -55 -108c-38 -39.333 -92 -59 -162 -59c-73.333 0 -130.666 19.667 -171.999 59c-50 48.667 -75 121 -75 217c0 92 23.333 161.333 70 208c42.667 42.667 100 64 172 64c69.333 0 123.333 -20 162 -60
c25.333 -26 42.166 -56.667 50.499 -92s13.5 -80.333 15.5 -135h-398c2.66699 -72 20.667 -125.667 54 -161c30 -33.333 71.333 -50 124 -50c43.333 0 78.333 12.667 105 38c18 16 32.333 42.333 43 79zM125 291l325 0.00195312c0 23.333 -4.33301 49.666 -13 78.999
s-20.667 51.666 -36 66.999c-26 27.333 -61.667 41 -107 41c-52 0 -92.667 -16.333 -122 -49c-31.333 -36 -47 -82 -47 -138zM319 700.002h86l-95 -132h-61z" />
    <glyph glyph-name="ecircumflex" unicode="&#xea;" 
d="M451 147h66c-8.66699 -41.333 -27 -77.333 -55 -108c-38 -39.333 -92 -59 -162 -59c-73.333 0 -130.666 19.667 -171.999 59c-50 48.667 -75 121 -75 217c0 92 23.333 161.333 70 208c42.667 42.667 100 64 172 64c69.333 0 123.333 -20 162 -60
c25.333 -26 42.166 -56.667 50.499 -92s13.5 -80.333 15.5 -135h-398c2.66699 -72 20.667 -125.667 54 -161c30 -33.333 71.333 -50 124 -50c43.333 0 78.333 12.667 105 38c18 16 32.333 42.333 43 79zM125 291l325 0.00195312c0 23.333 -4.33301 49.666 -13 78.999
s-20.667 51.666 -36 66.999c-26 27.333 -61.667 41 -107 41c-52 0 -92.667 -16.333 -122 -49c-31.333 -36 -47 -82 -47 -138zM243 700.002h115l119 -132h-68l-109 105l-108 -105h-68z" />
    <glyph glyph-name="edieresis" unicode="&#xeb;" 
d="M451 147h66c-8.66699 -41.333 -27 -77.333 -55 -108c-38 -39.333 -92 -59 -162 -59c-73.333 0 -130.666 19.667 -171.999 59c-50 48.667 -75 121 -75 217c0 92 23.333 161.333 70 208c42.667 42.667 100 64 172 64c69.333 0 123.333 -20 162 -60
c25.333 -26 42.166 -56.667 50.499 -92s13.5 -80.333 15.5 -135h-398c2.66699 -72 20.667 -125.667 54 -161c30 -33.333 71.333 -50 124 -50c43.333 0 78.333 12.667 105 38c18 16 32.333 42.333 43 79zM125 291l325 0.00195312c0 23.333 -4.33301 49.666 -13 78.999
s-20.667 51.666 -36 66.999c-26 27.333 -61.667 41 -107 41c-52 0 -92.667 -16.333 -122 -49c-31.333 -36 -47 -82 -47 -138zM150 616.002v84h72v-84h-72zM353 616.002v84h71v-84h-71z" />
    <glyph glyph-name="igrave" unicode="&#xec;" horiz-adv-x="295" 
d="M45 458v50h135v-458h70v-50h-205v50h66v408h-66zM105 700l70 -132h-60l-96 132h86z" />
    <glyph glyph-name="iacute" unicode="&#xed;" horiz-adv-x="295" 
d="M45 458v50h135v-458h70v-50h-205v50h66v408h-66zM167 700h86l-95 -132h-61z" />
    <glyph glyph-name="icircumflex" unicode="&#xee;" horiz-adv-x="295" 
d="M45 458v50h135v-458h70v-50h-205v50h66v408h-66zM79 700h115l119 -132h-68l-109 105l-108 -105h-68z" />
    <glyph glyph-name="idieresis" unicode="&#xef;" horiz-adv-x="295" 
d="M45 458v50h135v-458h70v-50h-205v50h66v408h-66zM-8 616v84h72v-84h-72zM195 616v84h71v-84h-71z" />
    <glyph glyph-name="eth" unicode="&#xf0;" horiz-adv-x="597" 
d="M149 689l10.002 44c68 -11.333 125.667 -27.666 173 -48.999l90 55l20 -30l-71 -44c30 -16.667 56.667 -36.667 80 -60c62 -58.667 93 -152.334 93 -281.001c0 -131.333 -28 -225 -84 -281c-42 -42 -99 -63 -171 -63c-66.667 0 -120.334 19 -161.001 57
c-50 46 -75 113 -75 201c0 90 22.667 158.667 68 206c41.333 42.667 99 64 173 64c51.333 0 94.333 -12 129 -36c30.667 -22 52.667 -51.333 66 -88h2c-3.33301 74 -32 138 -86 192c-22.667 22.667 -49 40.667 -79 54l-141 -86l-22 31l123 73
c-46.667 20 -92.334 33.667 -137.001 41zM471.002 247c0 75.333 -18.667 131 -56 167c-29.333 29.333 -69.333 44 -120 44c-46 0 -82.333 -13 -109 -39c-20.667 -19.333 -35.834 -45.833 -45.501 -79.5s-14.5 -67.167 -14.5 -100.5c0 -75.333 18 -131 54 -167
c28 -28 67 -42 117 -42c50.667 0 90.334 14.333 119.001 43c36.667 36.667 55 94.667 55 174z" />
    <glyph glyph-name="ntilde" unicode="&#xf1;" horiz-adv-x="635" 
d="M385 0l0.00195312 49.999h68v283c0 58.667 -12.333 98.334 -37 119.001c-20.667 17.333 -46.667 26 -78 26c-40 0 -74.667 -13.667 -104 -41c-34.667 -34.667 -52 -85.667 -52 -153v-234h68v-50h-205v50h68v408h-68v50h137v-74c16.667 26.667 40 49 70 67
c31.333 18 64.666 27 99.999 27c53.333 0 94.666 -14.667 123.999 -44c30.667 -30.667 46 -77.667 46 -141v-293h68v-50h-205zM466.002 700.999l52 0.000976562c-6 -30.667 -17.667 -55.667 -35 -75s-40.333 -29 -69 -29c-30.667 0 -65.667 13.333 -105 40
c-21.333 13.333 -40 20 -56 20c-28 0 -45.667 -16.667 -53 -50h-52c4 29.333 15.833 53.666 35.5 72.999s44.167 29 73.5 29c26 0 58.333 -12.667 97 -38c22 -14.667 41 -22 57 -22c12.667 0 24 5 34 15s17 22.333 21 37z" />
    <glyph glyph-name="ograve" unicode="&#xf2;" horiz-adv-x="592" 
d="M53 254c0 92 25.6699 163.667 77.0029 215c39.333 39.333 94.666 59 165.999 59c68.667 0 124 -19.667 166 -59c51.333 -48.667 77 -120.334 77 -215.001c0 -95.333 -27 -168 -81 -218c-40.667 -37.333 -94.334 -56 -161.001 -56c-70.667 0 -125.334 18.667 -164.001 56
c-22 18.667 -40.833 46.334 -56.5 83.001s-23.5 81.667 -23.5 135zM126.003 255c0 -85.333 20.333 -147.333 61 -186c28.667 -26 65 -39 109 -39c45.333 0 81.333 12.667 108 38c41.333 38 62 100.333 62 187c0 79.333 -17.333 138 -52 176c-30 31.333 -69 47 -117 47
c-47.333 0 -85 -14 -113 -42c-38.667 -38.667 -58 -99 -58 -181zM278.003 700l70 -132h-60l-96 132h86z" />
    <glyph glyph-name="oacute" unicode="&#xf3;" horiz-adv-x="592" 
d="M53 254c0 92 25.6699 163.667 77.0029 215c39.333 39.333 94.666 59 165.999 59c68.667 0 124 -19.667 166 -59c51.333 -48.667 77 -120.334 77 -215.001c0 -95.333 -27 -168 -81 -218c-40.667 -37.333 -94.334 -56 -161.001 -56c-70.667 0 -125.334 18.667 -164.001 56
c-22 18.667 -40.833 46.334 -56.5 83.001s-23.5 81.667 -23.5 135zM126.003 255c0 -85.333 20.333 -147.333 61 -186c28.667 -26 65 -39 109 -39c45.333 0 81.333 12.667 108 38c41.333 38 62 100.333 62 187c0 79.333 -17.333 138 -52 176c-30 31.333 -69 47 -117 47
c-47.333 0 -85 -14 -113 -42c-38.667 -38.667 -58 -99 -58 -181zM324.003 700h86l-95 -132h-61z" />
    <glyph glyph-name="ocircumflex" unicode="&#xf4;" horiz-adv-x="592" 
d="M53 254c0 92 25.6699 163.667 77.0029 215c39.333 39.333 94.666 59 165.999 59c68.667 0 124 -19.667 166 -59c51.333 -48.667 77 -120.334 77 -215.001c0 -95.333 -27 -168 -81 -218c-40.667 -37.333 -94.334 -56 -161.001 -56c-70.667 0 -125.334 18.667 -164.001 56
c-22 18.667 -40.833 46.334 -56.5 83.001s-23.5 81.667 -23.5 135zM126.003 255c0 -85.333 20.333 -147.333 61 -186c28.667 -26 65 -39 109 -39c45.333 0 81.333 12.667 108 38c41.333 38 62 100.333 62 187c0 79.333 -17.333 138 -52 176c-30 31.333 -69 47 -117 47
c-47.333 0 -85 -14 -113 -42c-38.667 -38.667 -58 -99 -58 -181zM241.003 700h115l119 -132h-68l-109 105l-108 -105h-68z" />
    <glyph glyph-name="otilde" unicode="&#xf5;" horiz-adv-x="592" 
d="M53 254c0 92 25.6699 163.667 77.0029 215c39.333 39.333 94.666 59 165.999 59c68.667 0 124 -19.667 166 -59c51.333 -48.667 77 -120.334 77 -215.001c0 -95.333 -27 -168 -81 -218c-40.667 -37.333 -94.334 -56 -161.001 -56c-70.667 0 -125.334 18.667 -164.001 56
c-22 18.667 -40.833 46.334 -56.5 83.001s-23.5 81.667 -23.5 135zM126.003 255c0 -85.333 20.333 -147.333 61 -186c28.667 -26 65 -39 109 -39c45.333 0 81.333 12.667 108 38c41.333 38 62 100.333 62 187c0 79.333 -17.333 138 -52 176c-30 31.333 -69 47 -117 47
c-47.333 0 -85 -14 -113 -42c-38.667 -38.667 -58 -99 -58 -181zM432.003 701l52 0.000976562c-6 -30.667 -17.667 -55.667 -35 -75s-40.333 -29 -69 -29c-30.667 0 -65.667 13.333 -105 40c-21.333 13.333 -40 20 -56 20c-28 0 -45.667 -16.667 -53 -50h-52
c4 29.333 15.833 53.666 35.5 72.999s44.167 29 73.5 29c26 0 58.333 -12.667 97 -38c22 -14.667 41 -22 57 -22c12.667 0 24 5 34 15s17 22.333 21 37z" />
    <glyph glyph-name="odieresis" unicode="&#xf6;" horiz-adv-x="592" 
d="M53 254c0 92 25.6699 163.667 77.0029 215c39.333 39.333 94.666 59 165.999 59c68.667 0 124 -19.667 166 -59c51.333 -48.667 77 -120.334 77 -215.001c0 -95.333 -27 -168 -81 -218c-40.667 -37.333 -94.334 -56 -161.001 -56c-70.667 0 -125.334 18.667 -164.001 56
c-22 18.667 -40.833 46.334 -56.5 83.001s-23.5 81.667 -23.5 135zM126.003 255c0 -85.333 20.333 -147.333 61 -186c28.667 -26 65 -39 109 -39c45.333 0 81.333 12.667 108 38c41.333 38 62 100.333 62 187c0 79.333 -17.333 138 -52 176c-30 31.333 -69 47 -117 47
c-47.333 0 -85 -14 -113 -42c-38.667 -38.667 -58 -99 -58 -181zM158.003 616v84h72v-84h-72zM361.003 616v84h71v-84h-71z" />
    <glyph glyph-name="divide" unicode="&#xf7;" horiz-adv-x="600" 
d="M50 331v48h500v-48h-500zM247 181c0 15.333 5 28 15 38s22.667 15 38 15s28 -5 38 -15s15 -22.667 15 -38s-5 -28 -15 -38s-22.667 -15 -38 -15s-28 5 -38 15s-15 22.667 -15 38zM247 529c0 15.333 5 28 15 38s22.667 15 38 15s28 -5 38 -15s15 -22.667 15 -38
s-5 -28 -15 -38s-22.667 -15 -38 -15s-28 5 -38 15s-15 22.667 -15 38z" />
    <glyph glyph-name="oslash" unicode="&#xf8;" horiz-adv-x="592" 
d="M53 254c0 92 25.6689 163.667 77.002 215c39.333 39.333 94.666 59 165.999 59c64 0 116 -17 156 -51l56 66l37 -32l-59 -70c35.333 -50.667 53 -113 53 -187c0 -95.333 -27 -168 -81 -218c-40.667 -37.333 -94.334 -56 -161.001 -56c-66 0 -118.667 16.667 -158 50
l-54 -65l-37 32l58 69c-35.333 49.333 -53 112 -53 188zM126.002 255c0 -56 8.33301 -101.333 25 -136l263 312c-30 31.333 -69 47 -117 47c-47.333 0 -85 -14 -113 -42c-38.667 -38.667 -58 -99 -58 -181zM466.002 255c0 53.333 -8.33301 97.667 -25 133l-262 -311
c2 -3.33301 4.66699 -6 8 -8c28.667 -26 65 -39 109 -39c45.333 0 81.333 12.667 108 38c41.333 38 62 100.333 62 187z" />
    <glyph glyph-name="ugrave" unicode="&#xf9;" horiz-adv-x="635" 
d="M45 458v49.999h137v-316c0 -33.333 2 -60.166 6 -80.499s13 -37.5 27 -51.5c20 -20 46.667 -30 80 -30c44 0 81.667 16 113 48c30 32 45 80.667 45 146v234h-68v50h137v-458h68v-50h-137v73h-2c-18.667 -30.667 -40.667 -53 -66 -67c-28 -17.333 -64.667 -26 -110 -26
c-50 0 -89.333 14.333 -118 43c-29.333 28.667 -44 76 -44 142v293h-68zM292 699.999l70 -132h-60l-96 132h86z" />
    <glyph glyph-name="uacute" unicode="&#xfa;" horiz-adv-x="635" 
d="M45 458v49.999h137v-316c0 -33.333 2 -60.166 6 -80.499s13 -37.5 27 -51.5c20 -20 46.667 -30 80 -30c44 0 81.667 16 113 48c30 32 45 80.667 45 146v234h-68v50h137v-458h68v-50h-137v73h-2c-18.667 -30.667 -40.667 -53 -66 -67c-28 -17.333 -64.667 -26 -110 -26
c-50 0 -89.333 14.333 -118 43c-29.333 28.667 -44 76 -44 142v293h-68zM335 699.999h86l-95 -132h-61z" />
    <glyph glyph-name="ucircumflex" unicode="&#xfb;" horiz-adv-x="635" 
d="M45 458v49.999h137v-316c0 -33.333 2 -60.166 6 -80.499s13 -37.5 27 -51.5c20 -20 46.667 -30 80 -30c44 0 81.667 16 113 48c30 32 45 80.667 45 146v234h-68v50h137v-458h68v-50h-137v73h-2c-18.667 -30.667 -40.667 -53 -66 -67c-28 -17.333 -64.667 -26 -110 -26
c-50 0 -89.333 14.333 -118 43c-29.333 28.667 -44 76 -44 142v293h-68zM263 699.999h115l119 -132h-68l-109 105l-108 -105h-68z" />
    <glyph glyph-name="udieresis" unicode="&#xfc;" horiz-adv-x="635" 
d="M45 458v49.999h137v-316c0 -33.333 2 -60.166 6 -80.499s13 -37.5 27 -51.5c20 -20 46.667 -30 80 -30c44 0 81.667 16 113 48c30 32 45 80.667 45 146v234h-68v50h137v-458h68v-50h-137v73h-2c-18.667 -30.667 -40.667 -53 -66 -67c-28 -17.333 -64.667 -26 -110 -26
c-50 0 -89.333 14.333 -118 43c-29.333 28.667 -44 76 -44 142v293h-68zM174 615.999v84h72v-84h-72zM377 615.999v84h71v-84h-71z" />
    <glyph glyph-name="yacute" unicode="&#xfd;" horiz-adv-x="534" 
d="M-10 458v50h203v-50h-58l149 -381l129 381h-60v50h191v-50h-63l-232 -643h-138v50h91l45 135l-193 458h-64zM294 700h86l-95 -132h-61z" />
    <glyph glyph-name="thorn" unicode="&#xfe;" horiz-adv-x="629" 
d="M45 650l0.00292969 50h134v-267h2c16 24 37 45.667 63 65c30.667 20 66.667 30 108 30c60.667 0 110.667 -18.333 150 -55c49.333 -49.333 74 -120.666 74 -213.999c0 -84.667 -18.833 -152.334 -56.5 -203.001s-90.834 -76 -159.501 -76
c-44.667 0 -82.334 9.33301 -113.001 28c-26.667 16.667 -48.334 40 -65.001 70v-213h68v-50h-205v50h68v785h-68zM178.003 252c0 -78 19.333 -136.333 58 -175c30 -31.333 67.667 -47 113 -47c38 0 70.667 13.667 98 41c38 40 57 102 57 186c0 81.333 -20 142 -60 182
c-26 26 -60 39 -102 39c-38.667 0 -73 -13.333 -103 -40c-40.667 -36.667 -61 -98.667 -61 -186z" />
    <glyph glyph-name="ydieresis" unicode="&#xff;" horiz-adv-x="534" 
d="M-10 458v50h203v-50h-58l149 -381l129 381h-60v50h191v-50h-63l-232 -643h-138v50h91l45 135l-193 458h-64zM139 616v84h72v-84h-72zM342 616v84h71v-84h-71z" />
    <glyph glyph-name="Amacron" unicode="&#x100;" horiz-adv-x="719" 
d="M500 0v63h61l-51 138h-305l-52 -138h63v-63h-211v63h71l218 574h-80v63h187l242 -637h71v-63h-214zM226 264h262l-131 370zM176 780v59h319v-59h-319z" />
    <glyph glyph-name="amacron" unicode="&#x101;" horiz-adv-x="564" 
d="M397 0l0.00195312 82.999c-15.333 -29.333 -37 -51.666 -65 -66.999c-32.667 -18.667 -72.334 -28 -119.001 -28c-55.333 0 -97 13.667 -125 41c-28 26 -42 61.667 -42 107c0 39.333 12.333 71.333 37 96c28 28 81.667 46.333 161 55l101 12
c20 3.33301 33.333 8.33301 40 15c8 8.66699 12 25 12 49c0 38.667 -10.333 67.667 -31 87c-21.333 18.667 -53.333 28 -96 28c-48.667 0 -83.334 -10.333 -104.001 -31c-20 -20 -30.667 -48.333 -32 -85h-67c0 56 22 99.667 66 131c33.333 23.333 81 35 143 35
c68 0 117.667 -15.667 149 -47c27.333 -27.333 41 -67 41 -119v-312h68v-50h-137zM397.002 218.999l0.000976562 50.001c-7.33301 -6 -16 -10.333 -26 -13c-10 -3.33301 -21.333 -6 -34 -8s-29.334 -3.83301 -50.001 -5.5s-34.667 -2.83398 -42 -3.50098
c-50.667 -6 -85 -17.667 -103 -35c-16 -16 -24 -39 -24 -69c0 -28 8.66699 -50.667 26 -68c17.333 -19.333 44 -29 80 -29c44 0 80.333 11.667 109 35c42.667 35.333 64 84 64 146zM118.003 620v50h309v-50h-309z" />
    <glyph glyph-name="Abreve" unicode="&#x102;" horiz-adv-x="719" 
d="M500 0v63h61l-51 138h-305l-52 -138h63v-63h-211v63h71l218 574h-80v63h187l242 -637h71v-63h-214zM226 264h262l-131 370zM444 900l73.0029 -0.000976562c-2.66699 -34 -17.334 -64.333 -44.001 -91c-32.667 -32.667 -76.334 -49 -131.001 -49
c-59.333 0 -105.333 16.333 -138 49c-26.667 26.667 -41.334 57 -44.001 91h73c3.33301 -28 14.333 -50 33 -66s43 -24 73 -24c28.667 0 52.5 7.83301 71.5 23.5s30.167 37.834 33.5 66.501z" />
    <glyph glyph-name="abreve" unicode="&#x103;" horiz-adv-x="564" 
d="M397 0l0.00195312 82.999c-15.333 -29.333 -37 -51.666 -65 -66.999c-32.667 -18.667 -72.334 -28 -119.001 -28c-55.333 0 -97 13.667 -125 41c-28 26 -42 61.667 -42 107c0 39.333 12.333 71.333 37 96c28 28 81.667 46.333 161 55l101 12
c20 3.33301 33.333 8.33301 40 15c8 8.66699 12 25 12 49c0 38.667 -10.333 67.667 -31 87c-21.333 18.667 -53.333 28 -96 28c-48.667 0 -83.334 -10.333 -104.001 -31c-20 -20 -30.667 -48.333 -32 -85h-67c0 56 22 99.667 66 131c33.333 23.333 81 35 143 35
c68 0 117.667 -15.667 149 -47c27.333 -27.333 41 -67 41 -119v-312h68v-50h-137zM397.002 218.999l0.000976562 50.001c-7.33301 -6 -16 -10.333 -26 -13c-10 -3.33301 -21.333 -6 -34 -8s-29.334 -3.83301 -50.001 -5.5s-34.667 -2.83398 -42 -3.50098
c-50.667 -6 -85 -17.667 -103 -35c-16 -16 -24 -39 -24 -69c0 -28 8.66699 -50.667 26 -68c17.333 -19.333 44 -29 80 -29c44 0 80.333 11.667 109 35c42.667 35.333 64 84 64 146zM372.003 700h66c-4 -31.333 -18 -59.666 -42 -84.999c-28 -28 -68.667 -42 -122 -42
s-94 14 -122 42c-24 25.333 -38 53.666 -42 84.999h66c2 -24 11.667 -43.667 29 -59c16 -14.667 39 -22 69 -22s53 7.33301 69 22c17.333 15.333 27 35 29 59z" />
    <glyph glyph-name="Aogonek" unicode="&#x104;" horiz-adv-x="719" 
d="M500 0l0.000976562 62.999h61l-51 138h-305l-52 -138h63v-63h-211v63h71l218 574h-80v63h187l242 -637h71v-63h-46c-22 -13.333 -39.333 -28.333 -52 -45c-14.667 -19.333 -22 -41 -22 -65c0 -18.667 5.33301 -32.667 16 -42c8.66699 -8.66699 21.667 -13 39 -13
c16.667 0 30.667 5 42 15c13.333 12.667 20.666 29.334 21.999 50.001h57c-2.66699 -32 -15.334 -59.333 -38.001 -82c-23.333 -21.333 -53.666 -32 -90.999 -32s-66.333 9.33301 -87 28c-19.333 16.667 -29 39.334 -29 68.001c0 26.667 7.66699 50.667 23 72
c12 17.333 28.333 32.666 49 45.999h-97zM226.001 263.999h262l-131 370z" />
    <glyph glyph-name="aogonek" unicode="&#x105;" horiz-adv-x="564" 
d="M397 0l0.000976562 82.9971c-15.333 -29.333 -37 -51.666 -65 -66.999c-32.667 -18.667 -72.334 -28 -119.001 -28c-55.333 0 -97 13.667 -125 41c-28 26 -42 61.667 -42 107c0 39.333 12.333 71.333 37 96c28 28 81.667 46.333 161 55l101 12
c20 3.33301 33.333 8.33301 40 15c8 8.66699 12 25 12 49c0 38.667 -10.333 67.667 -31 87c-21.333 18.667 -53.333 28 -96 28c-48.667 0 -83.334 -10.333 -104.001 -31c-20 -20 -30.667 -48.333 -32 -85h-67c0 56 22 99.667 66 131c33.333 23.333 81 35 143 35
c68 0 117.667 -15.667 149 -47c27.333 -27.333 41 -67 41 -119v-312h68v-50h-12c-48 -28 -72 -63.333 -72 -106c0 -16.667 4.5 -30.167 13.5 -40.5s22.167 -15.5 39.5 -15.5s31.5 6 42.5 18s17.833 28 20.5 48h53c-3.33301 -33.333 -15.666 -59.666 -36.999 -78.999
c-21.333 -20.667 -50.333 -31 -87 -31c-34.667 0 -61.667 9 -81 27c-18.667 14.667 -28 36.334 -28 65.001c0 44 23 82 69 114h-58zM397.001 218.997l0.000976562 50.001c-7.33301 -6 -16 -10.333 -26 -13c-10 -3.33301 -21.333 -6 -34 -8s-29.334 -3.83301 -50.001 -5.5
s-34.667 -2.83398 -42 -3.50098c-50.667 -6 -85 -17.667 -103 -35c-16 -16 -24 -39 -24 -69c0 -28 8.66699 -50.667 26 -68c17.333 -19.333 44 -29 80 -29c44 0 80.333 11.667 109 35c42.667 35.333 64 84 64 146z" />
    <glyph glyph-name="Cacute" unicode="&#x106;" horiz-adv-x="733" 
d="M600 700l63.001 -0.000976562v-210h-63c-3.33301 42 -20.333 79.333 -51 112c-36 37.333 -87.667 56 -155 56c-70 0 -125.667 -20.333 -167 -61c-54.667 -54 -82 -132.333 -82 -235c0 -116 28.667 -201.667 86 -257c42 -42 97 -63 165 -63
c61.333 0 111.666 18.333 150.999 55c37.333 37.333 57.666 81 60.999 131h75c-8.66699 -71.333 -35.667 -129.666 -81 -174.999c-49.333 -49.333 -119.666 -74 -210.999 -74c-96 0 -172 29 -228 87c-64.667 67.333 -97 162.333 -97 285c0 128 32.333 223 97 285
c59.333 56.667 133.333 85 222 85c95.333 0 167 -33 215 -99v78zM424.001 899.999h94l-99 -140h-67z" />
    <glyph glyph-name="cacute" unicode="&#x107;" horiz-adv-x="547" 
d="M486 353l-49.999 -0.000976562c-3.33301 31.333 -15 58 -35 80c-26.667 30 -62.667 45 -108 45c-46 0 -84 -15 -114 -45c-35.333 -35.333 -53 -92.666 -53 -171.999c0 -84.667 20.333 -147.334 61 -188.001c28.667 -28.667 64.667 -43 108 -43s77 12.667 101 38
c26.667 28.667 41.667 65.334 45 110.001h66c-6 -60.667 -28 -110 -66 -148c-20.667 -20.667 -42.5 -34.167 -65.5 -40.5s-50.167 -9.5 -81.5 -9.5c-70.667 0 -125.334 18.667 -164.001 56c-51.333 49.333 -77 123.666 -77 222.999c0 88.667 21.667 156.334 65 203.001
c38.667 44 95 66 169 66c42 0 78.333 -11 109 -33c14.667 -10 28 -23.333 40 -40v53h50v-155zM324.001 699.999h86l-95 -132h-61z" />
    <glyph glyph-name="Ccircumflex" unicode="&#x108;" horiz-adv-x="733" 
d="M600 700l63.001 -0.000976562v-210h-63c-3.33301 42 -20.333 79.333 -51 112c-36 37.333 -87.667 56 -155 56c-70 0 -125.667 -20.333 -167 -61c-54.667 -54 -82 -132.333 -82 -235c0 -116 28.667 -201.667 86 -257c42 -42 97 -63 165 -63
c61.333 0 111.666 18.333 150.999 55c37.333 37.333 57.666 81 60.999 131h75c-8.66699 -71.333 -35.667 -129.666 -81 -174.999c-49.333 -49.333 -119.666 -74 -210.999 -74c-96 0 -172 29 -228 87c-64.667 67.333 -97 162.333 -97 285c0 128 32.333 223 97 285
c59.333 56.667 133.333 85 222 85c95.333 0 167 -33 215 -99v78zM336.001 899.999h121l119 -132h-71l-109 105l-108 -105h-71z" />
    <glyph glyph-name="ccircumflex" unicode="&#x109;" horiz-adv-x="547" 
d="M486 353l-49.999 -0.000976562c-3.33301 31.333 -15 58 -35 80c-26.667 30 -62.667 45 -108 45c-46 0 -84 -15 -114 -45c-35.333 -35.333 -53 -92.666 -53 -171.999c0 -84.667 20.333 -147.334 61 -188.001c28.667 -28.667 64.667 -43 108 -43s77 12.667 101 38
c26.667 28.667 41.667 65.334 45 110.001h66c-6 -60.667 -28 -110 -66 -148c-20.667 -20.667 -42.5 -34.167 -65.5 -40.5s-50.167 -9.5 -81.5 -9.5c-70.667 0 -125.334 18.667 -164.001 56c-51.333 49.333 -77 123.666 -77 222.999c0 88.667 21.667 156.334 65 203.001
c38.667 44 95 66 169 66c42 0 78.333 -11 109 -33c14.667 -10 28 -23.333 40 -40v53h50v-155zM239.001 699.999h115l119 -132h-68l-109 105l-108 -105h-68z" />
    <glyph glyph-name="Cdotaccent" unicode="&#x10a;" horiz-adv-x="733" 
d="M600 700l63.001 -0.000976562v-210h-63c-3.33301 42 -20.333 79.333 -51 112c-36 37.333 -87.667 56 -155 56c-70 0 -125.667 -20.333 -167 -61c-54.667 -54 -82 -132.333 -82 -235c0 -116 28.667 -201.667 86 -257c42 -42 97 -63 165 -63
c61.333 0 111.666 18.333 150.999 55c37.333 37.333 57.666 81 60.999 131h75c-8.66699 -71.333 -35.667 -129.666 -81 -174.999c-49.333 -49.333 -119.666 -74 -210.999 -74c-96 0 -172 29 -228 87c-64.667 67.333 -97 162.333 -97 285c0 128 32.333 223 97 285
c59.333 56.667 133.333 85 222 85c95.333 0 167 -33 215 -99v78zM329.001 771.999v77h77v-77h-77z" />
    <glyph glyph-name="cdotaccent" unicode="&#x10b;" horiz-adv-x="547" 
d="M486 353l-49.999 -0.000976562c-3.33301 31.333 -15 58 -35 80c-26.667 30 -62.667 45 -108 45c-46 0 -84 -15 -114 -45c-35.333 -35.333 -53 -92.666 -53 -171.999c0 -84.667 20.333 -147.334 61 -188.001c28.667 -28.667 64.667 -43 108 -43s77 12.667 101 38
c26.667 28.667 41.667 65.334 45 110.001h66c-6 -60.667 -28 -110 -66 -148c-20.667 -20.667 -42.5 -34.167 -65.5 -40.5s-50.167 -9.5 -81.5 -9.5c-70.667 0 -125.334 18.667 -164.001 56c-51.333 49.333 -77 123.666 -77 222.999c0 88.667 21.667 156.334 65 203.001
c38.667 44 95 66 169 66c42 0 78.333 -11 109 -33c14.667 -10 28 -23.333 40 -40v53h50v-155zM246.001 615.999v84h74v-84h-74z" />
    <glyph glyph-name="Ccaron" unicode="&#x10c;" horiz-adv-x="733" 
d="M600 700l63.001 -0.000976562v-210h-63c-3.33301 42 -20.333 79.333 -51 112c-36 37.333 -87.667 56 -155 56c-70 0 -125.667 -20.333 -167 -61c-54.667 -54 -82 -132.333 -82 -235c0 -116 28.667 -201.667 86 -257c42 -42 97 -63 165 -63
c61.333 0 111.666 18.333 150.999 55c37.333 37.333 57.666 81 60.999 131h75c-8.66699 -71.333 -35.667 -129.666 -81 -174.999c-49.333 -49.333 -119.666 -74 -210.999 -74c-96 0 -172 29 -228 87c-64.667 67.333 -97 162.333 -97 285c0 128 32.333 223 97 285
c59.333 56.667 133.333 85 222 85c95.333 0 167 -33 215 -99v78zM207.001 899.999h77l109 -112l108 112h77l-121 -140h-129z" />
    <glyph glyph-name="ccaron" unicode="&#x10d;" horiz-adv-x="547" 
d="M486 353l-49.999 -0.000976562c-3.33301 31.333 -15 58 -35 80c-26.667 30 -62.667 45 -108 45c-46 0 -84 -15 -114 -45c-35.333 -35.333 -53 -92.666 -53 -171.999c0 -84.667 20.333 -147.334 61 -188.001c28.667 -28.667 64.667 -43 108 -43s77 12.667 101 38
c26.667 28.667 41.667 65.334 45 110.001h66c-6 -60.667 -28 -110 -66 -148c-20.667 -20.667 -42.5 -34.167 -65.5 -40.5s-50.167 -9.5 -81.5 -9.5c-70.667 0 -125.334 18.667 -164.001 56c-51.333 49.333 -77 123.666 -77 222.999c0 88.667 21.667 156.334 65 203.001
c38.667 44 95 66 169 66c42 0 78.333 -11 109 -33c14.667 -10 28 -23.333 40 -40v53h50v-155zM354.001 567.999h-115l-119 132h68l108 -105l109 105h68z" />
    <glyph glyph-name="Dcaron" unicode="&#x10e;" horiz-adv-x="755" 
d="M60 637l0.00195312 63h300c111.333 0 194.666 -25.333 249.999 -76c66.667 -66.667 100 -156.667 100 -270c0 -124 -34 -217 -102 -279c-54.667 -50 -141.334 -75 -260.001 -75h-288v63h73v574h-73zM207.002 637v-574h119c109.333 0 186 22 230 66
c50.667 50.667 76 125 76 223s-26.667 172.667 -80 224c-40.667 40.667 -105 61 -193 61h-152zM168.002 900h77l109 -112l108 112h77l-121 -140h-129z" />
    <glyph glyph-name="dcaron" unicode="&#x10f;" horiz-adv-x="640" 
d="M451 0l-0.00195312 75h-2c-12.667 -28 -32.667 -50.667 -60 -68c-28.667 -18 -65.667 -27 -111 -27c-63.333 0 -113.333 18.333 -150 55c-50 48.667 -75 122.667 -75 222c0 94 23.667 164.667 71 212c39.333 39.333 91 59 155 59c42.667 0 79.334 -9.66699 110.001 -29
c24.667 -15.333 44.334 -37 59.001 -65v216h-68v50h137v-650h68v-50h-134zM125.998 258c0 -84 18 -144.668 54 -182.001c28 -30.667 63.667 -46 107 -46c42 0 76.667 13.667 104 41c40.667 40.667 61 101.667 61 183c0 83.333 -21 145 -63 185c-28 26 -62.333 39 -103 39
c-38.667 0 -71.667 -12 -99 -36c-40.667 -37.333 -61 -98.666 -61 -183.999zM559.998 699.999l80 -0.00195312v-115c0 -43.333 -9.66699 -74.666 -29 -93.999c-12.667 -12.667 -29.667 -21.667 -51 -27v46c14 4.66699 24 12.334 30 23.001c6.66699 12 10 29 10 51v22h-40v94
z" />
    <glyph glyph-name="Dcroat" unicode="&#x110;" horiz-adv-x="755" 
d="M60 637l0.00195312 63h300c111.333 0 194.666 -25.333 249.999 -76c66.667 -66.667 100 -156.667 100 -270c0 -124 -34 -217 -102 -279c-54.667 -50 -141.334 -75 -260.001 -75h-288v63h73v276h-103v53h103v245h-73zM207.002 637v-245h189v-53h-189v-276h119
c109.333 0 186 22 230 66c50.667 50.667 76 125 76 223s-26.667 172.667 -80 224c-40.667 40.667 -105 61 -193 61h-152z" />
    <glyph glyph-name="dslash" unicode="&#x111;" horiz-adv-x="630" 
d="M451 0l-0.00195312 75h-2c-12.667 -28 -32.667 -50.667 -60 -68c-28.667 -18 -65.667 -27 -111 -27c-63.333 0 -113.333 18.333 -150 55c-50 48.667 -75 122.667 -75 222c0 94 23.667 164.667 71 212c39.333 39.333 91 59 155 59c42.667 0 79.334 -9.66699 110.001 -29
c24.667 -15.333 44.334 -37 59.001 -65v127h-182v45h182v44h-68v50h137v-94h83v-45h-83v-511h68v-50h-134zM125.998 258c0 -84 18 -144.668 54 -182.001c28 -30.667 63.667 -46 107 -46c42 0 76.667 13.667 104 41c40.667 40.667 61 101.667 61 183
c0 83.333 -21 145 -63 185c-28 26 -62.333 39 -103 39c-38.667 0 -71.667 -12 -99 -36c-40.667 -37.333 -61 -98.666 -61 -183.999z" />
    <glyph glyph-name="Emacron" unicode="&#x112;" horiz-adv-x="658" 
d="M60 637v63h556v-210h-63v147h-346v-243h294v-63h-294v-268h358v177h63v-240h-568v63h73v574h-73zM201 780v59h319v-59h-319z" />
    <glyph glyph-name="emacron" unicode="&#x113;" 
d="M451 147h66c-8.66699 -41.333 -27 -77.333 -55 -108c-38 -39.333 -92 -59 -162 -59c-73.333 0 -130.666 19.667 -171.999 59c-50 48.667 -75 121 -75 217c0 92 23.333 161.333 70 208c42.667 42.667 100 64 172 64c69.333 0 123.333 -20 162 -60
c25.333 -26 42.166 -56.667 50.499 -92s13.5 -80.333 15.5 -135h-398c2.66699 -72 20.667 -125.667 54 -161c30 -33.333 71.333 -50 124 -50c43.333 0 78.333 12.667 105 38c18 16 32.333 42.333 43 79zM125 291l325 0.00195312c0 23.333 -4.33301 49.666 -13 78.999
s-20.667 51.666 -36 66.999c-26 27.333 -61.667 41 -107 41c-52 0 -92.667 -16.333 -122 -49c-31.333 -36 -47 -82 -47 -138zM139 620.002v50h309v-50h-309z" />
    <glyph glyph-name="Edotaccent" unicode="&#x116;" horiz-adv-x="658" 
d="M60 637v63h556v-210h-63v147h-346v-243h294v-63h-294v-268h358v177h63v-240h-568v63h73v574h-73zM321 772v77h77v-77h-77z" />
    <glyph glyph-name="edotaccent" unicode="&#x117;" 
d="M451 147h66c-8.66699 -41.333 -27 -77.333 -55 -108c-38 -39.333 -92 -59 -162 -59c-73.333 0 -130.666 19.667 -171.999 59c-50 48.667 -75 121 -75 217c0 92 23.333 161.333 70 208c42.667 42.667 100 64 172 64c69.333 0 123.333 -20 162 -60
c25.333 -26 42.166 -56.667 50.499 -92s13.5 -80.333 15.5 -135h-398c2.66699 -72 20.667 -125.667 54 -161c30 -33.333 71.333 -50 124 -50c43.333 0 78.333 12.667 105 38c18 16 32.333 42.333 43 79zM125 291l325 0.00195312c0 23.333 -4.33301 49.666 -13 78.999
s-20.667 51.666 -36 66.999c-26 27.333 -61.667 41 -107 41c-52 0 -92.667 -16.333 -122 -49c-31.333 -36 -47 -82 -47 -138zM260 616.002v84h74v-84h-74z" />
    <glyph glyph-name="Eogonek" unicode="&#x118;" horiz-adv-x="658" 
d="M405 0l-344.999 -0.000976562v63h73v574h-73v63h556v-210h-63v147h-346v-243h294v-63h-294v-268h358v177h63v-240h-152c-22 -13.333 -39.333 -28.333 -52 -45c-14.667 -19.333 -22 -41 -22 -65c0 -18.667 5.33301 -32.667 16 -42c8.66699 -8.66699 21.667 -13 39 -13
c16.667 0 30.667 5 42 15c13.333 12.667 20.666 29.334 21.999 50.001h57c-2.66699 -32 -15.334 -59.333 -38.001 -82c-23.333 -21.333 -53.666 -32 -90.999 -32c-36.667 0 -65.667 9.33301 -87 28c-19.333 16.667 -29 39.334 -29 68.001c0 26.667 7.66699 50.667 23 72
c12 17.333 28.333 32.666 49 45.999z" />
    <glyph glyph-name="eogonek" unicode="&#x119;" 
d="M451 147l65.999 -0.00195312c-8.66699 -41.333 -27 -77.333 -55 -108c-14 -15.333 -32 -28.333 -54 -39h1c-48 -28 -72 -63.333 -72 -106c0 -16.667 4.5 -30.167 13.5 -40.5s22.167 -15.5 39.5 -15.5s31.5 6 42.5 18s17.833 28 20.5 48h53
c-3.33301 -33.333 -15.666 -59.666 -36.999 -78.999c-21.333 -20.667 -50.333 -31 -87 -31c-34.667 0 -61.667 9 -81 27c-18.667 14.667 -28 36.334 -28 65.001c0 36.667 14.667 68 44 94h-17c-73.333 0 -130.666 19.667 -171.999 59c-50 48.667 -75 121 -75 217
c0 92 23.333 161.333 70 208c42.667 42.667 100 64 172 64c69.333 0 123.333 -20 162 -60c25.333 -26 42.166 -56.667 50.499 -92s13.5 -80.333 15.5 -135h-398c2.66699 -72 20.667 -125.667 54 -161c30 -33.333 71.333 -50 124 -50c43.333 0 78.333 12.667 105 38
c18 16 32.333 42.333 43 79zM124.999 290.998l325 0.00195312c0 23.333 -4.33301 49.666 -13 78.999s-20.667 51.666 -36 66.999c-26 27.333 -61.667 41 -107 41c-52 0 -92.667 -16.333 -122 -49c-31.333 -36 -47 -82 -47 -138z" />
    <glyph glyph-name="Ecaron" unicode="&#x11a;" horiz-adv-x="658" 
d="M60 637v63h556v-210h-63v147h-346v-243h294v-63h-294v-268h358v177h63v-240h-568v63h73v574h-73zM169 900h77l109 -112l108 112h77l-121 -140h-129z" />
    <glyph glyph-name="ecaron" unicode="&#x11b;" 
d="M451 147h66c-8.66699 -41.333 -27 -77.333 -55 -108c-38 -39.333 -92 -59 -162 -59c-73.333 0 -130.666 19.667 -171.999 59c-50 48.667 -75 121 -75 217c0 92 23.333 161.333 70 208c42.667 42.667 100 64 172 64c69.333 0 123.333 -20 162 -60
c25.333 -26 42.166 -56.667 50.499 -92s13.5 -80.333 15.5 -135h-398c2.66699 -72 20.667 -125.667 54 -161c30 -33.333 71.333 -50 124 -50c43.333 0 78.333 12.667 105 38c18 16 32.333 42.333 43 79zM125 291l325 0.00195312c0 23.333 -4.33301 49.666 -13 78.999
s-20.667 51.666 -36 66.999c-26 27.333 -61.667 41 -107 41c-52 0 -92.667 -16.333 -122 -49c-31.333 -36 -47 -82 -47 -138zM354 568.002h-115l-119 132h68l108 -105l109 105h68z" />
    <glyph glyph-name="Gcircumflex" unicode="&#x11c;" horiz-adv-x="809" 
d="M611 700l60.999 0.000976562v-210h-64c-7.33301 44.667 -23.333 79.334 -48 104.001c-42.667 44 -96 66 -160 66c-80 0 -140.333 -22.667 -181 -68c-50 -52 -75 -131.667 -75 -239c0 -103.333 26.667 -183.333 80 -240c42.667 -47.333 100.334 -71 173.001 -71
c64.667 0 117 20 157 60c47.333 45.333 71 110 71 194h-201v63h348v-63h-78v-296h-62v123h-2c-20.667 -42 -48.334 -75.667 -83.001 -101c-40 -28.667 -94 -43 -162 -43c-95.333 0 -169.333 28 -222 84c-9.33301 9.33301 -18.5 20.5 -27.5 33.5s-19.167 31.167 -30.5 54.5
s-20.666 52.666 -27.999 87.999s-11 73.666 -11 114.999c0 124.667 32.667 219.667 98 285c56 56 133 84 231 84c45.333 0 87 -9.33301 125 -28s68.333 -46 91 -82v87zM332.999 900.001h121l119 -132h-71l-109 105l-108 -105h-71z" />
    <glyph glyph-name="gcircumflex" unicode="&#x11d;" horiz-adv-x="626" 
d="M84 -62h68.998c6.66699 -20 19.667 -38.333 39 -55c22.667 -16.667 54.667 -25 96 -25c48.667 0 85 11.333 109 34c31.333 28 47 74 47 138v59c-16 -32.667 -37.667 -57.334 -65 -74.001c-25.333 -15.333 -58 -23 -98 -23c-69.333 0 -123 21.333 -161 64
c-44.667 48.667 -67 116.667 -67 204c0 92.667 22.333 162.334 67 209.001c38.667 39.333 90.667 59 156 59c43.333 0 79.333 -9.33301 108 -28c26.667 -16.667 47.334 -39 62.001 -67h2v75h133v-50h-68v-434c0 -71.333 -18.667 -125.333 -56 -162s-91.666 -55 -162.999 -55
c-77.333 0 -133.333 17.333 -168 52c-22 22 -36 48.333 -42 79zM290.998 42c39.333 0 72.335 13.332 99.002 39.999c17.333 16 30.666 39.333 39.999 70s14.666 53.834 15.999 69.501s2 30.167 2 43.5c0 76 -17 132 -51 168c-30 30 -68.333 45 -115 45
c-43.333 0 -78.333 -14 -105 -42c-34 -34 -51 -90 -51 -168c0 -82 18 -142 54 -180c30.667 -30.667 67.667 -46 111 -46zM229 699.999h115l119 -132h-68l-109 105l-108 -105h-68z" />
    <glyph glyph-name="Gbreve" unicode="&#x11e;" horiz-adv-x="809" 
d="M611 700l60.999 0.000976562v-210h-64c-7.33301 44.667 -23.333 79.334 -48 104.001c-42.667 44 -96 66 -160 66c-80 0 -140.333 -22.667 -181 -68c-50 -52 -75 -131.667 -75 -239c0 -103.333 26.667 -183.333 80 -240c42.667 -47.333 100.334 -71 173.001 -71
c64.667 0 117 20 157 60c47.333 45.333 71 110 71 194h-201v63h348v-63h-78v-296h-62v123h-2c-20.667 -42 -48.334 -75.667 -83.001 -101c-40 -28.667 -94 -43 -162 -43c-95.333 0 -169.333 28 -222 84c-9.33301 9.33301 -18.5 20.5 -27.5 33.5s-19.167 31.167 -30.5 54.5
s-20.666 52.666 -27.999 87.999s-11 73.666 -11 114.999c0 124.667 32.667 219.667 98 285c56 56 133 84 231 84c45.333 0 87 -9.33301 125 -28s68.333 -46 91 -82v87zM493.999 900.001l73.0029 -0.000976562c-2.66699 -34 -17.334 -64.333 -44.001 -91
c-32.667 -32.667 -76.334 -49 -131.001 -49c-59.333 0 -105.333 16.333 -138 49c-26.667 26.667 -41.334 57 -44.001 91h73c3.33301 -28 14.333 -50 33 -66s43 -24 73 -24c28.667 0 52.5 7.83301 71.5 23.5s30.167 37.834 33.5 66.501z" />
    <glyph glyph-name="gbreve" unicode="&#x11f;" horiz-adv-x="626" 
d="M84 -62h68.998c6.66699 -20 19.667 -38.333 39 -55c22.667 -16.667 54.667 -25 96 -25c48.667 0 85 11.333 109 34c31.333 28 47 74 47 138v59c-16 -32.667 -37.667 -57.334 -65 -74.001c-25.333 -15.333 -58 -23 -98 -23c-69.333 0 -123 21.333 -161 64
c-44.667 48.667 -67 116.667 -67 204c0 92.667 22.333 162.334 67 209.001c38.667 39.333 90.667 59 156 59c43.333 0 79.333 -9.33301 108 -28c26.667 -16.667 47.334 -39 62.001 -67h2v75h133v-50h-68v-434c0 -71.333 -18.667 -125.333 -56 -162s-91.666 -55 -162.999 -55
c-77.333 0 -133.333 17.333 -168 52c-22 22 -36 48.333 -42 79zM290.998 42c39.333 0 72.335 13.332 99.002 39.999c17.333 16 30.666 39.333 39.999 70s14.666 53.834 15.999 69.501s2 30.167 2 43.5c0 76 -17 132 -51 168c-30 30 -68.333 45 -115 45
c-43.333 0 -78.333 -14 -105 -42c-34 -34 -51 -90 -51 -168c0 -82 18 -142 54 -180c30.667 -30.667 67.667 -46 111 -46zM373 699.999h66c-4 -31.333 -18 -59.666 -42 -84.999c-28 -28 -68.667 -42 -122 -42s-94 14 -122 42c-24 25.333 -38 53.666 -42 84.999h66
c2 -24 11.667 -43.667 29 -59c16 -14.667 39 -22 69 -22s53 7.33301 69 22c17.333 15.333 27 35 29 59z" />
    <glyph glyph-name="Gdotaccent" unicode="&#x120;" horiz-adv-x="809" 
d="M611 700l60.999 0.000976562v-210h-64c-7.33301 44.667 -23.333 79.334 -48 104.001c-42.667 44 -96 66 -160 66c-80 0 -140.333 -22.667 -181 -68c-50 -52 -75 -131.667 -75 -239c0 -103.333 26.667 -183.333 80 -240c42.667 -47.333 100.334 -71 173.001 -71
c64.667 0 117 20 157 60c47.333 45.333 71 110 71 194h-201v63h348v-63h-78v-296h-62v123h-2c-20.667 -42 -48.334 -75.667 -83.001 -101c-40 -28.667 -94 -43 -162 -43c-95.333 0 -169.333 28 -222 84c-9.33301 9.33301 -18.5 20.5 -27.5 33.5s-19.167 31.167 -30.5 54.5
s-20.666 52.666 -27.999 87.999s-11 73.666 -11 114.999c0 124.667 32.667 219.667 98 285c56 56 133 84 231 84c45.333 0 87 -9.33301 125 -28s68.333 -46 91 -82v87zM355.999 772.001v77h77v-77h-77z" />
    <glyph glyph-name="gdotaccent" unicode="&#x121;" horiz-adv-x="626" 
d="M84 -62h68.998c6.66699 -20 19.667 -38.333 39 -55c22.667 -16.667 54.667 -25 96 -25c48.667 0 85 11.333 109 34c31.333 28 47 74 47 138v59c-16 -32.667 -37.667 -57.334 -65 -74.001c-25.333 -15.333 -58 -23 -98 -23c-69.333 0 -123 21.333 -161 64
c-44.667 48.667 -67 116.667 -67 204c0 92.667 22.333 162.334 67 209.001c38.667 39.333 90.667 59 156 59c43.333 0 79.333 -9.33301 108 -28c26.667 -16.667 47.334 -39 62.001 -67h2v75h133v-50h-68v-434c0 -71.333 -18.667 -125.333 -56 -162s-91.666 -55 -162.999 -55
c-77.333 0 -133.333 17.333 -168 52c-22 22 -36 48.333 -42 79zM290.998 42c39.333 0 72.335 13.332 99.002 39.999c17.333 16 30.666 39.333 39.999 70s14.666 53.834 15.999 69.501s2 30.167 2 43.5c0 76 -17 132 -51 168c-30 30 -68.333 45 -115 45
c-43.333 0 -78.333 -14 -105 -42c-34 -34 -51 -90 -51 -168c0 -82 18 -142 54 -180c30.667 -30.667 67.667 -46 111 -46zM256 615.999v84h74v-84h-74z" />
    <glyph glyph-name="Gcommaaccent" unicode="&#x122;" horiz-adv-x="809" 
d="M611 700l60.999 0.000976562v-210h-64c-7.33301 44.667 -23.333 79.334 -48 104.001c-42.667 44 -96 66 -160 66c-80 0 -140.333 -22.667 -181 -68c-50 -52 -75 -131.667 -75 -239c0 -103.333 26.667 -183.333 80 -240c42.667 -47.333 100.334 -71 173.001 -71
c64.667 0 117 20 157 60c47.333 45.333 71 110 71 194h-201v63h348v-63h-78v-296h-62v123h-2c-20.667 -42 -48.334 -75.667 -83.001 -101c-40 -28.667 -94 -43 -162 -43c-95.333 0 -169.333 28 -222 84c-9.33301 9.33301 -18.5 20.5 -27.5 33.5s-19.167 31.167 -30.5 54.5
s-20.666 52.666 -27.999 87.999s-11 73.666 -11 114.999c0 124.667 32.667 219.667 98 285c56 56 133 84 231 84c45.333 0 87 -9.33301 125 -28s68.333 -46 91 -82v87zM351.999 -59.999l87.999 -0.000976562v-90c0 -32 -10 -58 -30 -78
c-13.333 -13.333 -32.666 -21.666 -57.999 -24.999v46c15.333 4 25.333 8.33301 30 13c8.66699 8.66699 13 21.667 13 39v14h-43v81z" />
    <glyph glyph-name="gcommaaccent" unicode="&#x123;" horiz-adv-x="626" 
d="M84 -62h68.998c6.66699 -20 19.667 -38.333 39 -55c22.667 -16.667 54.667 -25 96 -25c48.667 0 85 11.333 109 34c31.333 28 47 74 47 138v59c-16 -32.667 -37.667 -57.334 -65 -74.001c-25.333 -15.333 -58 -23 -98 -23c-69.333 0 -123 21.333 -161 64
c-44.667 48.667 -67 116.667 -67 204c0 92.667 22.333 162.334 67 209.001c38.667 39.333 90.667 59 156 59c43.333 0 79.333 -9.33301 108 -28c26.667 -16.667 47.334 -39 62.001 -67h2v75h133v-50h-68v-434c0 -71.333 -18.667 -125.333 -56 -162s-91.666 -55 -162.999 -55
c-77.333 0 -133.333 17.333 -168 52c-22 22 -36 48.333 -42 79zM290.998 42c39.333 0 72.335 13.332 99.002 39.999c17.333 16 30.666 39.333 39.999 70s14.666 53.834 15.999 69.501s2 30.167 2 43.5c0 76 -17 132 -51 168c-30 30 -68.333 45 -115 45
c-43.333 0 -78.333 -14 -105 -42c-34 -34 -51 -90 -51 -168c0 -82 18 -142 54 -180c30.667 -30.667 67.667 -46 111 -46zM325 559.999h-79v88c0 35.333 8.33301 61.333 25 78c14 14 32 22.333 54 25v-46c-11.333 -2 -20.333 -6.33301 -27 -13
c-8.66699 -8.66699 -13 -21.667 -13 -39v-12h40v-81z" />
    <glyph glyph-name="Hcircumflex" unicode="&#x124;" horiz-adv-x="795" 
d="M515 0v63h73v275h-381v-275h73v-63h-220v63h73v574h-73v63h220v-63h-73v-236h381v236h-73v63h220v-63h-73v-574h73v-63h-220zM334 900h121l119 -132h-71l-109 105l-108 -105h-71z" />
    <glyph glyph-name="hcircumflex" unicode="&#x125;" horiz-adv-x="634" 
d="M384 0l0.000976562 50.002h68v266v16.5v19.5c0 4 -0.166992 10.167 -0.5 18.5s-1.16602 15.166 -2.49902 20.499s-3 11.5 -5 18.5s-4.83301 13.333 -8.5 19s-7.83398 11.167 -12.501 16.5c-20 22 -47.667 33 -83 33c-44.667 0 -81.667 -15.333 -111 -46
c-31.333 -33.333 -47 -82.666 -47 -147.999v-234h68v-50h-205v50h68v600h-68v50h137v-266c14 25.333 34.667 46.666 62 63.999c31.333 20 67.666 30 108.999 30c54 0 95.667 -14.667 125 -44c13.333 -13.333 23.333 -28.833 30 -46.5s10.5 -32.834 11.5 -45.501
s1.5 -29 1.5 -49v-293h68v-50h-205zM80.001 860.002h115l119 -132h-68l-109 105l-108 -105h-68z" />
    <glyph glyph-name="Hbar" unicode="&#x126;" horiz-adv-x="795" 
d="M515 0v63h73v275h-381v-275h73v-63h-220v63h73v437h-73v53h73v84h-73v63h220v-63h-73v-84h381v84h-73v63h220v-63h-73v-84h72v-53h-72v-437h73v-63h-220zM207 401h381v99h-381v-99z" />
    <glyph glyph-name="hbar" unicode="&#x127;" horiz-adv-x="634" 
d="M384 0l0.000976562 50.002h68v266v16.5v19.5c0 4 -0.166992 10.167 -0.5 18.5s-1.16602 15.166 -2.49902 20.499s-3 11.5 -5 18.5s-4.83301 13.333 -8.5 19s-7.83398 11.167 -12.501 16.5c-20 22 -47.667 33 -83 33c-44.667 0 -81.667 -15.333 -111 -46
c-31.333 -33.333 -47 -82.666 -47 -147.999v-234h68v-50h-205v50h68v511h-80v45h80v44h-68v50h137v-94h215v-45h-215v-127c14 25.333 34.667 46.666 62 63.999c31.333 20 67.666 30 108.999 30c54 0 95.667 -14.667 125 -44c13.333 -13.333 23.333 -28.833 30 -46.5
s10.5 -32.834 11.5 -45.501s1.5 -29 1.5 -49v-293h68v-50h-205z" />
    <glyph glyph-name="Imacron" unicode="&#x12a;" horiz-adv-x="340" 
d="M60 637v63h220v-63h-73v-574h73v-63h-220v63h73v574h-73zM12 780v59h319v-59h-319z" />
    <glyph glyph-name="imacron" unicode="&#x12b;" horiz-adv-x="295" 
d="M45 458v50h135v-458h70v-50h-205v50h66v408h-66zM-18 620v50h309v-50h-309z" />
    <glyph glyph-name="Iogonek" unicode="&#x12e;" horiz-adv-x="340" 
d="M136 0l-75.999 -0.000976562v63h73v574h-73v63h220v-63h-73v-574h73v-63h-73c-22 -13.333 -39.333 -28.333 -52 -45c-14.667 -19.333 -22 -41 -22 -65c0 -18.667 5.33301 -32.667 16 -42c8.66699 -8.66699 21.667 -13 39 -13c16.667 0 30.667 5 42 15
c13.333 12.667 20.666 29.334 21.999 50.001h57c-2.66699 -32 -15.334 -59.333 -38.001 -82c-23.333 -21.333 -53.666 -32 -90.999 -32s-66.333 9.33301 -87 28c-19.333 16.667 -29 39.334 -29 68.001c0 26.667 7.66699 50.667 23 72c12 17.333 28.333 32.666 49 45.999z
" />
    <glyph glyph-name="iogonek" unicode="&#x12f;" horiz-adv-x="295" 
d="M114 0l-69.001 -0.00195312v50h66v408h-66v50h135v-458h70v-50h-69c-48 -28 -72 -63.333 -72 -106c0 -16.667 4.5 -30.167 13.5 -40.5s22.167 -15.5 39.5 -15.5s31.5 6 42.5 18s17.833 28 20.5 48h53c-3.33301 -33.333 -15.666 -59.666 -36.999 -78.999
c-21.333 -20.667 -50.333 -31 -87 -31c-34.667 0 -61.667 9 -81 27c-18.667 14.667 -28 36.334 -28 65.001c0 44 23 82 69 114zM109.999 615.998v84h71v-84h-71z" />
    <glyph glyph-name="Idot" unicode="&#x130;" horiz-adv-x="340" 
d="M60 637v63h220v-63h-73v-574h73v-63h-220v63h73v574h-73zM132 772v77h77v-77h-77z" />
    <glyph glyph-name="dotlessi" unicode="&#x131;" horiz-adv-x="295" 
d="M45 458v50h135v-458h70v-50h-205v50h66v408h-66z" />
    <glyph glyph-name="Jcircumflex" unicode="&#x134;" horiz-adv-x="550" 
d="M290 637l0.00195312 63h220v-63h-73v-409c0 -90.667 -18.667 -155.667 -56 -195c-34.667 -36 -84.334 -54 -149.001 -54c-62.667 0 -110.334 16 -143.001 48c-39.333 39.333 -59 104 -59 194v4h74v-6c0 -72 14.667 -121 44 -147c20 -20 49.333 -30 88 -30
c35.333 0 64 10.333 86 31c27.333 26.667 41 75 41 145v419h-73zM336.002 900h121l119 -132h-71l-109 105l-108 -105h-71z" />
    <glyph glyph-name="jcircumflex" unicode="&#x135;" horiz-adv-x="228" 
d="M13 458l0.00195312 49.999h137v-556c0 -55.333 -9.66699 -92.666 -29 -111.999c-18.667 -18.667 -48.667 -28 -90 -28c-12.667 0 -25.334 1 -38.001 3v51h4c29.333 0 50.666 5.33301 63.999 16c13.333 12 20 36.333 20 73v503h-68zM41.002 699.999h115l119 -132h-68
l-109 105l-108 -105h-68z" />
    <glyph glyph-name="Kcommaaccent" unicode="&#x136;" horiz-adv-x="668" 
d="M232 358l265 279h-53v63h207v-63h-63l-266 -274l272 -300h69v-63h-228v63h66zM207 637v-574h73v-63h-220v63h73v574h-73v63h220v-63h-73zM303 -60l88 -0.000976562v-90c0 -32 -10 -58 -30 -78c-14 -13.333 -33.333 -21.666 -58 -24.999v46c15.333 4 25.333 8.33301 30 13
c8.66699 8.66699 13 21.667 13 39v14h-43v81z" />
    <glyph glyph-name="kcommaaccent" unicode="&#x137;" horiz-adv-x="537" 
d="M45 650v50h137v-650h68v-50h-205v50h68v600h-68zM202 263l169 195h-45v50h179v-50h-56l-168 -189l183 -219h73v-50h-113zM264 -60h79v-88c0 -35.333 -8.33301 -61.333 -25 -78c-14 -14 -32 -22.333 -54 -25v46c11.333 2 20.333 6.33301 27 13
c8.66699 8.66699 13 21.667 13 39v12h-40v81z" />
    <glyph glyph-name="Lacute" unicode="&#x139;" horiz-adv-x="601" 
d="M60 637v63h220v-63h-73v-574h301v187h63v-250h-511v63h73v574h-73zM215 900h94l-99 -140h-67z" />
    <glyph glyph-name="lacute" unicode="&#x13a;" horiz-adv-x="295" 
d="M45 650v50h137v-650h68v-50h-205v50h68v600h-68zM183 860h86l-95 -132h-61z" />
    <glyph glyph-name="Lcommaaccent" unicode="&#x13b;" horiz-adv-x="601" 
d="M60 637v63h220v-63h-73v-574h301v187h63v-250h-511v63h73v574h-73zM286 -60l87.999 -0.000976562v-90c0 -32 -10 -58 -30 -78c-13.333 -13.333 -32.666 -21.666 -57.999 -24.999v46c15.333 4 25.333 8.33301 30 13c8.66699 8.66699 13 21.667 13 39v14h-43v81z" />
    <glyph glyph-name="lcommaaccent" unicode="&#x13c;" horiz-adv-x="295" 
d="M45 650v50h137v-650h68v-50h-205v50h68v600h-68zM107 -60h79v-88c0 -35.333 -8.33301 -61.333 -25 -78c-14 -14 -32 -22.333 -54 -25v46c11.333 2 20.333 6.33301 27 13c8.66699 8.66699 13 21.667 13 39v12h-40v81z" />
    <glyph glyph-name="Lcaron" unicode="&#x13d;" horiz-adv-x="601" 
d="M60 637v63h220v-63h-73v-574h301v187h63v-250h-511v63h73v574h-73zM332 700l80 -0.00195312v-115c0 -43.333 -9.66699 -74.666 -29 -93.999c-12.667 -12.667 -29.667 -21.667 -51 -27v46c14 4.66699 24 12.334 30 23.001c6.66699 12 10 29 10 51v22h-40v94z" />
    <glyph glyph-name="lcaron" unicode="&#x13e;" horiz-adv-x="304" 
d="M45 650v50h137v-650h68v-50h-205v50h68v600h-68zM224 700l80 -0.00195312v-115c0 -43.333 -9.66699 -74.666 -29 -93.999c-12.667 -12.667 -29.667 -21.667 -51 -27v46c14 4.66699 24 12.334 30 23.001c6.66699 12 10 29 10 51v22h-40v94z" />
    <glyph glyph-name="Ldot" unicode="&#x13f;" horiz-adv-x="601" 
d="M60 637v63h220v-63h-73v-574h301v187h63v-250h-511v63h73v574h-73zM405 340v95h80v-95h-80z" />
    <glyph glyph-name="ldot" unicode="&#x140;" horiz-adv-x="295" 
d="M45 650v50h137v-650h68v-50h-205v50h68v600h-68zM255 303v95h80v-95h-80z" />
    <glyph glyph-name="Lslash" unicode="&#x141;" horiz-adv-x="601" 
d="M60 637v63h220v-63h-73v-292l215 209v-58l-215 -209v-224h301v187h63v-250h-511v63h73v152l-103 -100v58l103 100v364h-73z" />
    <glyph glyph-name="lslash" unicode="&#x142;" horiz-adv-x="295" 
d="M45 650v50h137v-257l113 75v-57l-113 -75v-336h68v-50h-205v50h68v290l-113 -75v57l113 75v253h-68z" />
    <glyph glyph-name="Nacute" unicode="&#x143;" horiz-adv-x="814" 
d="M534 637v63h220v-63h-73v-637h-84l-390 592v-529h73v-63h-220v63h73v574h-73v63h158l389 -592v529h-73zM420 900h94l-99 -140h-67z" />
    <glyph glyph-name="nacute" unicode="&#x144;" horiz-adv-x="635" 
d="M385 0l0.00195312 49.999h68v283c0 58.667 -12.333 98.334 -37 119.001c-20.667 17.333 -46.667 26 -78 26c-40 0 -74.667 -13.667 -104 -41c-34.667 -34.667 -52 -85.667 -52 -153v-234h68v-50h-205v50h68v408h-68v50h137v-74c16.667 26.667 40 49 70 67
c31.333 18 64.666 27 99.999 27c53.333 0 94.666 -14.667 123.999 -44c30.667 -30.667 46 -77.667 46 -141v-293h68v-50h-205zM353.002 699.999h86l-95 -132h-61z" />
    <glyph glyph-name="Ncommaaccent" unicode="&#x145;" horiz-adv-x="814" 
d="M534 637v63h220v-63h-73v-637h-84l-390 592v-529h73v-63h-220v63h73v574h-73v63h158l389 -592v529h-73zM366 -60l87.999 -0.000976562v-90c0 -32 -10 -58 -30 -78c-13.333 -13.333 -32.666 -21.666 -57.999 -24.999v46c15.333 4 25.333 8.33301 30 13
c8.66699 8.66699 13 21.667 13 39v14h-43v81z" />
    <glyph glyph-name="ncommaaccent" unicode="&#x146;" horiz-adv-x="635" 
d="M385 0l0.00195312 49.999h68v283c0 58.667 -12.333 98.334 -37 119.001c-20.667 17.333 -46.667 26 -78 26c-40 0 -74.667 -13.667 -104 -41c-34.667 -34.667 -52 -85.667 -52 -153v-234h68v-50h-205v50h68v408h-68v50h137v-74c16.667 26.667 40 49 70 67
c31.333 18 64.666 27 99.999 27c53.333 0 94.666 -14.667 123.999 -44c30.667 -30.667 46 -77.667 46 -141v-293h68v-50h-205zM279.002 -60.001h79v-88c0 -35.333 -8.33301 -61.333 -25 -78c-14 -14 -32 -22.333 -54 -25v46c11.333 2 20.333 6.33301 27 13
c8.66699 8.66699 13 21.667 13 39v12h-40v81z" />
    <glyph glyph-name="Ncaron" unicode="&#x147;" horiz-adv-x="814" 
d="M534 637v63h220v-63h-73v-637h-84l-390 592v-529h73v-63h-220v63h73v574h-73v63h158l389 -592v529h-73zM223 900h77l109 -112l108 112h77l-121 -140h-129z" />
    <glyph glyph-name="ncaron" unicode="&#x148;" horiz-adv-x="635" 
d="M385 0l0.00195312 49.999h68v283c0 58.667 -12.333 98.334 -37 119.001c-20.667 17.333 -46.667 26 -78 26c-40 0 -74.667 -13.667 -104 -41c-34.667 -34.667 -52 -85.667 -52 -153v-234h68v-50h-205v50h68v408h-68v50h137v-74c16.667 26.667 40 49 70 67
c31.333 18 64.666 27 99.999 27c53.333 0 94.666 -14.667 123.999 -44c30.667 -30.667 46 -77.667 46 -141v-293h68v-50h-205zM388.002 567.999h-115l-119 132h68l108 -105l109 105h68z" />
    <glyph glyph-name="Omacron" unicode="&#x14c;" horiz-adv-x="790" 
d="M66 350c0 124 34 219.998 102 287.998c55.333 55.333 130 83 224 83c93.333 0 168.666 -26.667 225.999 -80c70.667 -66 106 -163 106 -291c0 -129.333 -34.667 -226.666 -104 -291.999c-55.333 -52.667 -129.666 -79 -222.999 -79c-100 0 -177 27 -231 81
c-8 6.66699 -16.5 16.334 -25.5 29.001s-19.667 30.5 -32 53.5s-22.5 52.833 -30.5 89.5s-12 76 -12 118zM144 345.998c0 -104.667 26 -184.001 78 -238.001c44 -44 102 -66 174 -66c69.333 0 126.333 22.333 171 67c52.667 52.667 79 132.334 79 239.001
c0 113.333 -30 198 -90 254c-40.667 37.333 -94 56 -160 56s-120.333 -19 -163 -57c-59.333 -54 -89 -139 -89 -255zM235 779.997v59h319v-59h-319z" />
    <glyph glyph-name="omacron" unicode="&#x14d;" horiz-adv-x="592" 
d="M53 254c0 92 25.6699 163.667 77.0029 215c39.333 39.333 94.666 59 165.999 59c68.667 0 124 -19.667 166 -59c51.333 -48.667 77 -120.334 77 -215.001c0 -95.333 -27 -168 -81 -218c-40.667 -37.333 -94.334 -56 -161.001 -56c-70.667 0 -125.334 18.667 -164.001 56
c-22 18.667 -40.833 46.334 -56.5 83.001s-23.5 81.667 -23.5 135zM126.003 255c0 -85.333 20.333 -147.333 61 -186c28.667 -26 65 -39 109 -39c45.333 0 81.333 12.667 108 38c41.333 38 62 100.333 62 187c0 79.333 -17.333 138 -52 176c-30 31.333 -69 47 -117 47
c-47.333 0 -85 -14 -113 -42c-38.667 -38.667 -58 -99 -58 -181zM137.003 620v50h309v-50h-309z" />
    <glyph glyph-name="Ohungarumlaut" unicode="&#x150;" horiz-adv-x="790" 
d="M66 350c0 124 34 219.998 102 287.998c55.333 55.333 130 83 224 83c93.333 0 168.666 -26.667 225.999 -80c70.667 -66 106 -163 106 -291c0 -129.333 -34.667 -226.666 -104 -291.999c-55.333 -52.667 -129.666 -79 -222.999 -79c-100 0 -177 27 -231 81
c-8 6.66699 -16.5 16.334 -25.5 29.001s-19.667 30.5 -32 53.5s-22.5 52.833 -30.5 89.5s-12 76 -12 118zM144 345.998c0 -104.667 26 -184.001 78 -238.001c44 -44 102 -66 174 -66c69.333 0 126.333 22.333 171 67c52.667 52.667 79 132.334 79 239.001
c0 113.333 -30 198 -90 254c-40.667 37.333 -94 56 -160 56s-120.333 -19 -163 -57c-59.333 -54 -89 -139 -89 -255zM339 899.997h88l-95 -140h-63zM482 899.997h88l-95 -140h-63z" />
    <glyph glyph-name="ohungarumlaut" unicode="&#x151;" horiz-adv-x="592" 
d="M53 254c0 92 25.6699 163.667 77.0029 215c39.333 39.333 94.666 59 165.999 59c68.667 0 124 -19.667 166 -59c51.333 -48.667 77 -120.334 77 -215.001c0 -95.333 -27 -168 -81 -218c-40.667 -37.333 -94.334 -56 -161.001 -56c-70.667 0 -125.334 18.667 -164.001 56
c-22 18.667 -40.833 46.334 -56.5 83.001s-23.5 81.667 -23.5 135zM126.003 255c0 -85.333 20.333 -147.333 61 -186c28.667 -26 65 -39 109 -39c45.333 0 81.333 12.667 108 38c41.333 38 62 100.333 62 187c0 79.333 -17.333 138 -52 176c-30 31.333 -69 47 -117 47
c-47.333 0 -85 -14 -113 -42c-38.667 -38.667 -58 -99 -58 -181zM260.003 700h86l-95 -132h-61zM403.003 700h86l-95 -132h-61z" />
    <glyph glyph-name="OE" unicode="&#x152;" horiz-adv-x="1083" 
d="M558 700l483.001 -0.000976562v-210h-63v147h-346v-243h294v-63h-294v-268h358v177h63v-240h-495c-33.333 -14 -87 -21 -161 -21c-100 0 -177 27 -231 81c-8 6.66699 -16.5 16.334 -25.5 29.001s-19.667 30.5 -32 53.5s-22.5 52.833 -30.5 89.5s-12 76 -12 118
c0 124 34 220 102 288c55.333 55.333 130 83 224 83c69.333 0 124.666 -7 165.999 -21zM396.001 41.999c68.667 0 122.667 13 162 39v544c-39.333 22 -93.333 33 -162 33c-66 0 -120.333 -19 -163 -57c-59.333 -54 -89 -139 -89 -255c0 -104.667 26 -184 78 -238
c44 -44 102 -66 174 -66z" />
    <glyph glyph-name="oe" unicode="&#x153;" horiz-adv-x="987" 
d="M862 148l66.999 0.00292969c-9.33301 -45.333 -29.666 -83 -60.999 -113c-37.333 -36.667 -90.333 -55 -159 -55c-54.667 0 -99.667 11.333 -135 34c-32 22 -56.667 51.333 -74 88c-16.667 -40 -42.667 -70 -78 -90c-36 -21.333 -78.333 -32 -127 -32
c-70.667 0 -126 20 -166 60c-24 24 -42.667 55.167 -56 93.5s-20 79.166 -20 122.499s7 84.5 21 123.5s33.667 70.167 59 93.5c39.333 36.667 94.333 55 165 55c51.333 0 93.333 -10.333 126 -31c36 -22 61.333 -51.667 76 -89c17.333 35.333 43 64.666 77 87.999
c34 21.333 76.667 32 128 32c68.667 0 123.667 -20.667 165 -62c42.667 -44.667 64 -116.334 64 -215.001v-10h-398c0 -70.667 18.333 -125 55 -163c31.333 -32 71.333 -48 120 -48c47.333 0 84.333 13.333 111 40c20.667 20.667 34 46.667 40 78zM535.999 291.003h325
c0 60.667 -16 108.667 -48 144c-28.667 28.667 -64.667 43 -108 43c-52 0 -92.333 -15.667 -121 -47c-27.333 -30 -43.333 -76.667 -48 -140zM125.999 254.003c0 -84.667 19.333 -145.667 58 -183c29.333 -27.333 66.333 -41 111 -41c46 0 83.333 13.667 112 41
c38.667 38.667 58 99.667 58 183s-19.333 144.333 -58 183c-28.667 27.333 -66 41 -112 41c-44.667 0 -81.667 -13.667 -111 -41c-38.667 -37.333 -58 -98.333 -58 -183z" />
    <glyph glyph-name="Racute" unicode="&#x154;" horiz-adv-x="733" 
d="M436 298h-229v-235h73v-63h-220v63h73v574h-73v63h345c99.333 0 167.333 -18.333 204 -55c35.333 -35.333 53 -80 53 -134c0 -51.333 -14.667 -95.333 -44 -132c-25.333 -32 -60.333 -54.667 -105 -68l94 -248h86v-63h-140zM207 637v-276h204c54.667 0 97 12 127 36
c30 26 45 62.667 45 110c0 43.333 -14 76 -42 98c-24.667 21.333 -71 32 -139 32h-195zM390 900h94l-99 -140h-67z" />
    <glyph glyph-name="racute" unicode="&#x155;" horiz-adv-x="377" 
d="M45 458v50h137v-101h2c12.667 32 33.667 58.333 63 79c31.333 21.333 71 32 119 32h11v-56h-10c-60 0 -105 -16 -135 -48c-20 -20 -33.333 -41.833 -40 -65.5s-10 -52.5 -10 -86.5v-212h68v-50h-205v50h68v408h-68zM258 700h86l-95 -132h-61z" />
    <glyph glyph-name="Rcommaaccent" unicode="&#x156;" horiz-adv-x="733" 
d="M436 298h-229v-235h73v-63h-220v63h73v574h-73v63h345c99.333 0 167.333 -18.333 204 -55c35.333 -35.333 53 -80 53 -134c0 -51.333 -14.667 -95.333 -44 -132c-25.333 -32 -60.333 -54.667 -105 -68l94 -248h86v-63h-140zM207 637v-276h204c54.667 0 97 12 127 36
c30 26 45 62.667 45 110c0 43.333 -14 76 -42 98c-24.667 21.333 -71 32 -139 32h-195zM343 -60l87.999 -0.000976562v-90c0 -32 -10 -58 -30 -78c-13.333 -13.333 -32.666 -21.666 -57.999 -24.999v46c15.333 4 25.333 8.33301 30 13c8.66699 8.66699 13 21.667 13 39v14
h-43v81z" />
    <glyph glyph-name="rcommaaccent" unicode="&#x157;" horiz-adv-x="377" 
d="M45 458v50h137v-101h2c12.667 32 33.667 58.333 63 79c31.333 21.333 71 32 119 32h11v-56h-10c-60 0 -105 -16 -135 -48c-20 -20 -33.333 -41.833 -40 -65.5s-10 -52.5 -10 -86.5v-212h68v-50h-205v50h68v408h-68zM107 -60h79v-88c0 -35.333 -8.33301 -61.333 -25 -78
c-14 -14 -32 -22.333 -54 -25v46c11.333 2 20.333 6.33301 27 13c8.66699 8.66699 13 21.667 13 39v12h-40v81z" />
    <glyph glyph-name="Rcaron" unicode="&#x158;" horiz-adv-x="733" 
d="M436 298h-229v-235h73v-63h-220v63h73v574h-73v63h345c99.333 0 167.333 -18.333 204 -55c35.333 -35.333 53 -80 53 -134c0 -51.333 -14.667 -95.333 -44 -132c-25.333 -32 -60.333 -54.667 -105 -68l94 -248h86v-63h-140zM207 637v-276h204c54.667 0 97 12 127 36
c30 26 45 62.667 45 110c0 43.333 -14 76 -42 98c-24.667 21.333 -71 32 -139 32h-195zM183 900h77l109 -112l108 112h77l-121 -140h-129z" />
    <glyph glyph-name="rcaron" unicode="&#x159;" horiz-adv-x="377" 
d="M45 458v50h137v-101h2c12.667 32 33.667 58.333 63 79c31.333 21.333 71 32 119 32h11v-56h-10c-60 0 -105 -16 -135 -48c-20 -20 -33.333 -41.833 -40 -65.5s-10 -52.5 -10 -86.5v-212h68v-50h-205v50h68v408h-68zM280 568h-115l-119 132h68l108 -105l109 105h68z" />
    <glyph glyph-name="Sacute" unicode="&#x15a;" horiz-adv-x="643" 
d="M497 700l63.0029 -0.00195312v-190h-63c-2.66699 42.667 -23.334 79 -62.001 109c-35.333 26.667 -76 40 -122 40c-49.333 0 -88.333 -9 -117 -27c-38.667 -24 -58 -58.667 -58 -104c0 -27.333 9 -50.666 27 -69.999c22 -22.667 63.333 -39.667 124 -51l66 -13
c89.333 -17.333 150.666 -41.666 183.999 -72.999c34 -31.333 51 -74.333 51 -129c0 -62.667 -20 -113 -60 -151c-44 -40 -109.333 -60 -196 -60c-104.667 0 -177.334 33.667 -218.001 101v-82h-63v250h63c0 -26 5.16699 -51.833 15.5 -77.5s21.5 -46.167 33.5 -61.5
c37.333 -44.667 90.666 -67 159.999 -67c66.667 0 116 15.667 148 47c26 26 39 57.333 39 94c0 32 -10.333 59.667 -31 83c-23.333 25.333 -68 44 -134 56l-70 13c-87.333 16.667 -146 41.667 -176 75c-27.333 31.333 -41 68.333 -41 111c0 70 27 122.333 81 157
c43.333 28 97.333 42 162 42c90.667 0 155.334 -28.667 194.001 -86v64zM349.003 899.998h94l-99 -140h-67z" />
    <glyph glyph-name="sacute" unicode="&#x15b;" horiz-adv-x="506" 
d="M425 373l-50.002 0.999023c-4 24.667 -13.333 44.667 -28 60c-26 29.333 -60 44 -102 44c-40 0 -70 -10 -90 -30c-15.333 -15.333 -23 -36 -23 -62c0 -23.333 8.66699 -42.666 26 -57.999c14.667 -12 41.667 -23 81 -33l53 -12
c60.667 -15.333 100.334 -30.333 119.001 -45c30 -22 45 -54 45 -96c0 -57.333 -18.667 -99.333 -56 -126c-31.333 -24 -77.333 -36 -138 -36c-42 0 -77.333 7.33301 -106 22c-19.333 10.667 -36.333 25.667 -51 45v-47h-50v175h50c2.66699 -38.667 16.667 -73 42 -103
c25.333 -28 61.333 -42 108 -42c42 0 74 9 96 27c22.667 18.667 34 45 34 79c0 24 -9 43.667 -27 59c-14 12.667 -42 23.667 -84 33l-56 12c-63.333 14.667 -104.666 31.667 -123.999 51c-22.667 22.667 -34 52 -34 88c0 50 21 89.667 63 119c30.667 20 70 30 118 30
c59.333 0 104 -20 134 -60v40h50v-135zM262.998 699.999h86l-95 -132h-61z" />
    <glyph glyph-name="Scircumflex" unicode="&#x15c;" horiz-adv-x="643" 
d="M497 700l63.0029 -0.00195312v-190h-63c-2.66699 42.667 -23.334 79 -62.001 109c-35.333 26.667 -76 40 -122 40c-49.333 0 -88.333 -9 -117 -27c-38.667 -24 -58 -58.667 -58 -104c0 -27.333 9 -50.666 27 -69.999c22 -22.667 63.333 -39.667 124 -51l66 -13
c89.333 -17.333 150.666 -41.666 183.999 -72.999c34 -31.333 51 -74.333 51 -129c0 -62.667 -20 -113 -60 -151c-44 -40 -109.333 -60 -196 -60c-104.667 0 -177.334 33.667 -218.001 101v-82h-63v250h63c0 -26 5.16699 -51.833 15.5 -77.5s21.5 -46.167 33.5 -61.5
c37.333 -44.667 90.666 -67 159.999 -67c66.667 0 116 15.667 148 47c26 26 39 57.333 39 94c0 32 -10.333 59.667 -31 83c-23.333 25.333 -68 44 -134 56l-70 13c-87.333 16.667 -146 41.667 -176 75c-27.333 31.333 -41 68.333 -41 111c0 70 27 122.333 81 157
c43.333 28 97.333 42 162 42c90.667 0 155.334 -28.667 194.001 -86v64zM264.003 899.998h121l119 -132h-71l-109 105l-108 -105h-71z" />
    <glyph glyph-name="scircumflex" unicode="&#x15d;" horiz-adv-x="506" 
d="M425 373l-50.002 0.999023c-4 24.667 -13.333 44.667 -28 60c-26 29.333 -60 44 -102 44c-40 0 -70 -10 -90 -30c-15.333 -15.333 -23 -36 -23 -62c0 -23.333 8.66699 -42.666 26 -57.999c14.667 -12 41.667 -23 81 -33l53 -12
c60.667 -15.333 100.334 -30.333 119.001 -45c30 -22 45 -54 45 -96c0 -57.333 -18.667 -99.333 -56 -126c-31.333 -24 -77.333 -36 -138 -36c-42 0 -77.333 7.33301 -106 22c-19.333 10.667 -36.333 25.667 -51 45v-47h-50v175h50c2.66699 -38.667 16.667 -73 42 -103
c25.333 -28 61.333 -42 108 -42c42 0 74 9 96 27c22.667 18.667 34 45 34 79c0 24 -9 43.667 -27 59c-14 12.667 -42 23.667 -84 33l-56 12c-63.333 14.667 -104.666 31.667 -123.999 51c-22.667 22.667 -34 52 -34 88c0 50 21 89.667 63 119c30.667 20 70 30 118 30
c59.333 0 104 -20 134 -60v40h50v-135zM185.998 699.999h115l119 -132h-68l-109 105l-108 -105h-68z" />
    <glyph glyph-name="Scedilla" unicode="&#x15e;" horiz-adv-x="643" 
d="M497 700l63.0029 -0.00195312v-190h-63c-2.66699 42.667 -23.334 79 -62.001 109c-35.333 26.667 -76 40 -122 40c-49.333 0 -88.333 -9 -117 -27c-38.667 -24 -58 -58.667 -58 -104c0 -27.333 9 -50.666 27 -69.999c22 -22.667 63.333 -39.667 124 -51l66 -13
c89.333 -17.333 150.666 -41.666 183.999 -72.999c34 -31.333 51 -74.333 51 -129c0 -62.667 -20 -113 -60 -151c-44 -40 -109.333 -60 -196 -60c-104.667 0 -177.334 33.667 -218.001 101v-82h-63v250h63c0 -26 5.16699 -51.833 15.5 -77.5s21.5 -46.167 33.5 -61.5
c37.333 -44.667 90.666 -67 159.999 -67c66.667 0 116 15.667 148 47c26 26 39 57.333 39 94c0 32 -10.333 59.667 -31 83c-23.333 25.333 -68 44 -134 56l-70 13c-87.333 16.667 -146 41.667 -176 75c-27.333 31.333 -41 68.333 -41 111c0 70 27 122.333 81 157
c43.333 28 97.333 42 162 42c90.667 0 155.334 -28.667 194.001 -86v64zM206.003 -241.002l15 47.001c15.333 -5.33301 35.333 -8 60 -8c59.333 0 89 17.667 89 53c0 19.333 -8.16699 32 -24.5 38s-37.5 9 -63.5 9h-32l12 44h29c28 0 51.667 -1.83301 71 -5.5
s36.5 -12.334 51.5 -26.001s22.5 -32.5 22.5 -56.5c0 -70 -48 -105 -144 -105c-31.333 0 -60 3.33301 -86 10z" />
    <glyph glyph-name="scedilla" unicode="&#x15f;" horiz-adv-x="506" 
d="M425 373l-50.002 0.999023c-4 24.667 -13.333 44.667 -28 60c-26 29.333 -60 44 -102 44c-40 0 -70 -10 -90 -30c-15.333 -15.333 -23 -36 -23 -62c0 -23.333 8.66699 -42.666 26 -57.999c14.667 -12 41.667 -23 81 -33l53 -12
c60.667 -15.333 100.334 -30.333 119.001 -45c30 -22 45 -54 45 -96c0 -57.333 -18.667 -99.333 -56 -126c-31.333 -24 -77.333 -36 -138 -36c-42 0 -77.333 7.33301 -106 22c-19.333 10.667 -36.333 25.667 -51 45v-47h-50v175h50c2.66699 -38.667 16.667 -73 42 -103
c25.333 -28 61.333 -42 108 -42c42 0 74 9 96 27c22.667 18.667 34 45 34 79c0 24 -9 43.667 -27 59c-14 12.667 -42 23.667 -84 33l-56 12c-63.333 14.667 -104.666 31.667 -123.999 51c-22.667 22.667 -34 52 -34 88c0 50 21 89.667 63 119c30.667 20 70 30 118 30
c59.333 0 104 -20 134 -60v40h50v-135zM139.998 -232.001l14.002 45.001c15.333 -5.33301 34.666 -8 57.999 -8c38.667 0 63.667 6 75 18c7.33301 7.33301 11 17.666 11 30.999c0 14 -4.33301 24 -13 30c-12 10.667 -36 16 -72 16h-31l12 42h28c57.333 0 96 -10 116 -30
c14 -14 21 -31.667 21 -53c0 -29.333 -8.33301 -52.333 -25 -69c-20 -20 -57 -30 -111 -30c-26.667 0 -54.334 2.66699 -83.001 8z" />
    <glyph glyph-name="Scaron" unicode="&#x160;" horiz-adv-x="643" 
d="M497 700l63.0029 -0.00195312v-190h-63c-2.66699 42.667 -23.334 79 -62.001 109c-35.333 26.667 -76 40 -122 40c-49.333 0 -88.333 -9 -117 -27c-38.667 -24 -58 -58.667 -58 -104c0 -27.333 9 -50.666 27 -69.999c22 -22.667 63.333 -39.667 124 -51l66 -13
c89.333 -17.333 150.666 -41.666 183.999 -72.999c34 -31.333 51 -74.333 51 -129c0 -62.667 -20 -113 -60 -151c-44 -40 -109.333 -60 -196 -60c-104.667 0 -177.334 33.667 -218.001 101v-82h-63v250h63c0 -26 5.16699 -51.833 15.5 -77.5s21.5 -46.167 33.5 -61.5
c37.333 -44.667 90.666 -67 159.999 -67c66.667 0 116 15.667 148 47c26 26 39 57.333 39 94c0 32 -10.333 59.667 -31 83c-23.333 25.333 -68 44 -134 56l-70 13c-87.333 16.667 -146 41.667 -176 75c-27.333 31.333 -41 68.333 -41 111c0 70 27 122.333 81 157
c43.333 28 97.333 42 162 42c90.667 0 155.334 -28.667 194.001 -86v64zM130.003 899.998h77l109 -112l108 112h77l-121 -140h-129z" />
    <glyph glyph-name="scaron" unicode="&#x161;" horiz-adv-x="506" 
d="M425 373l-50.002 0.999023c-4 24.667 -13.333 44.667 -28 60c-26 29.333 -60 44 -102 44c-40 0 -70 -10 -90 -30c-15.333 -15.333 -23 -36 -23 -62c0 -23.333 8.66699 -42.666 26 -57.999c14.667 -12 41.667 -23 81 -33l53 -12
c60.667 -15.333 100.334 -30.333 119.001 -45c30 -22 45 -54 45 -96c0 -57.333 -18.667 -99.333 -56 -126c-31.333 -24 -77.333 -36 -138 -36c-42 0 -77.333 7.33301 -106 22c-19.333 10.667 -36.333 25.667 -51 45v-47h-50v175h50c2.66699 -38.667 16.667 -73 42 -103
c25.333 -28 61.333 -42 108 -42c42 0 74 9 96 27c22.667 18.667 34 45 34 79c0 24 -9 43.667 -27 59c-14 12.667 -42 23.667 -84 33l-56 12c-63.333 14.667 -104.666 31.667 -123.999 51c-22.667 22.667 -34 52 -34 88c0 50 21 89.667 63 119c30.667 20 70 30 118 30
c59.333 0 104 -20 134 -60v40h50v-135zM296.998 567.999h-115l-119 132h68l108 -105l109 105h68z" />
    <glyph glyph-name="Tcedilla" unicode="&#x162;" horiz-adv-x="621" 
d="M200 0v63h73v574h-200v-177h-63v240h601v-240h-63v177h-201v-574h73v-63h-220zM193 -241l15 47.001c15.333 -5.33301 35.333 -8 60 -8c59.333 0 89 17.667 89 53c0 19.333 -8.16699 32 -24.5 38s-37.5 9 -63.5 9h-32l12 44h29c28 0 51.667 -1.83301 71 -5.5
s36.5 -12.334 51.5 -26.001s22.5 -32.5 22.5 -56.5c0 -70 -48 -105 -144 -105c-31.333 0 -60 3.33301 -86 10z" />
    <glyph glyph-name="tcedilla" unicode="&#x163;" horiz-adv-x="310" 
d="M16 508h88.999v152h69v-152h109v-50h-109v-368c0 -17.333 3.33301 -30 10 -38c8 -8.66699 21.333 -13 40 -13c18 0 37.667 3.66699 59 11v-50c-24 -9.33301 -50.667 -14 -80 -14c-37.333 0 -62.666 8.33301 -75.999 25c-14.667 16.667 -22 42.667 -22 78v369h-89v50z
M81.999 -232l14.002 45.001c15.333 -5.33301 34.666 -8 57.999 -8c38.667 0 63.667 6 75 18c7.33301 7.33301 11 17.666 11 30.999c0 14 -4.33301 24 -13 30c-12 10.667 -36 16 -72 16h-31l12 42h28c57.333 0 96 -10 116 -30c14 -14 21 -31.667 21 -53
c0 -29.333 -8.33301 -52.333 -25 -69c-20 -20 -57 -30 -111 -30c-26.667 0 -54.334 2.66699 -83.001 8z" />
    <glyph glyph-name="Tcaron" unicode="&#x164;" horiz-adv-x="621" 
d="M200 0v63h73v574h-200v-177h-63v240h601v-240h-63v177h-201v-574h73v-63h-220zM124 900h77l109 -112l108 112h77l-121 -140h-129z" />
    <glyph glyph-name="tcaron" unicode="&#x165;" horiz-adv-x="384" 
d="M16 508h88.999v152h69v-152h109v-50h-109v-368c0 -17.333 3.33301 -30 10 -38c8 -8.66699 21.333 -13 40 -13c18 0 37.667 3.66699 59 11v-50c-24 -9.33301 -50.667 -14 -80 -14c-37.333 0 -62.666 8.33301 -75.999 25c-14.667 16.667 -22 42.667 -22 78v369h-89v50z
M313.999 700l80 -0.00195312v-115c0 -43.333 -9.66699 -74.666 -29 -93.999c-12.667 -12.667 -29.667 -21.667 -51 -27v46c14 4.66699 24 12.334 30 23.001c6.66699 12 10 29 10 51v22h-40v94z" />
    <glyph glyph-name="Umacron" unicode="&#x16a;" horiz-adv-x="773" 
d="M508 637l-0.00292969 63.001h220v-63h-73v-365c0 -30 -1.16699 -55.5 -3.5 -76.5s-9.16602 -45.833 -20.499 -74.5s-27.666 -53.334 -48.999 -74.001c-45.333 -43.333 -110.666 -65 -195.999 -65c-86.667 0 -152.667 21 -198 63c-46.667 44 -70 119.667 -70 227v365h-73
v63h220v-63h-73v-357c0 -26 0.666992 -47.667 2 -65s5.5 -37.166 12.5 -59.499s17.167 -40.5 30.5 -54.5c34 -37.333 84 -56 150 -56s115.333 18 148 54c30.667 33.333 46 93.666 46 180.999v357h-73zM226.997 780.001v59h319v-59h-319z" />
    <glyph glyph-name="umacron" unicode="&#x16b;" horiz-adv-x="635" 
d="M45 458v49.999h137v-316c0 -33.333 2 -60.166 6 -80.499s13 -37.5 27 -51.5c20 -20 46.667 -30 80 -30c44 0 81.667 16 113 48c30 32 45 80.667 45 146v234h-68v50h137v-458h68v-50h-137v73h-2c-18.667 -30.667 -40.667 -53 -66 -67c-28 -17.333 -64.667 -26 -110 -26
c-50 0 -89.333 14.333 -118 43c-29.333 28.667 -44 76 -44 142v293h-68zM164 619.999v50h309v-50h-309z" />
    <glyph glyph-name="Ubreve" unicode="&#x16c;" horiz-adv-x="773" 
d="M508 637l-0.00292969 63.001h220v-63h-73v-365c0 -30 -1.16699 -55.5 -3.5 -76.5s-9.16602 -45.833 -20.499 -74.5s-27.666 -53.334 -48.999 -74.001c-45.333 -43.333 -110.666 -65 -195.999 -65c-86.667 0 -152.667 21 -198 63c-46.667 44 -70 119.667 -70 227v365h-73
v63h220v-63h-73v-357c0 -26 0.666992 -47.667 2 -65s5.5 -37.166 12.5 -59.499s17.167 -40.5 30.5 -54.5c34 -37.333 84 -56 150 -56s115.333 18 148 54c30.667 33.333 46 93.666 46 180.999v357h-73zM490.997 900.001l73.0029 -0.000976562
c-2.66699 -34 -17.334 -64.333 -44.001 -91c-32.667 -32.667 -76.334 -49 -131.001 -49c-59.333 0 -105.333 16.333 -138 49c-26.667 26.667 -41.334 57 -44.001 91h73c3.33301 -28 14.333 -50 33 -66s43 -24 73 -24c28.667 0 52.5 7.83301 71.5 23.5
s30.167 37.834 33.5 66.501z" />
    <glyph glyph-name="ubreve" unicode="&#x16d;" horiz-adv-x="635" 
d="M45 458v49.999h137v-316c0 -33.333 2 -60.166 6 -80.499s13 -37.5 27 -51.5c20 -20 46.667 -30 80 -30c44 0 81.667 16 113 48c30 32 45 80.667 45 146v234h-68v50h137v-458h68v-50h-137v73h-2c-18.667 -30.667 -40.667 -53 -66 -67c-28 -17.333 -64.667 -26 -110 -26
c-50 0 -89.333 14.333 -118 43c-29.333 28.667 -44 76 -44 142v293h-68zM414 699.999h66c-4 -31.333 -18 -59.666 -42 -84.999c-28 -28 -68.667 -42 -122 -42s-94 14 -122 42c-24 25.333 -38 53.666 -42 84.999h66c2 -24 11.667 -43.667 29 -59c16 -14.667 39 -22 69 -22
s53 7.33301 69 22c17.333 15.333 27 35 29 59z" />
    <glyph glyph-name="Uring" unicode="&#x16e;" horiz-adv-x="773" 
d="M508 637l-0.00292969 63.001h220v-63h-73v-365c0 -30 -1.16699 -55.5 -3.5 -76.5s-9.16602 -45.833 -20.499 -74.5s-27.666 -53.334 -48.999 -74.001c-45.333 -43.333 -110.666 -65 -195.999 -65c-86.667 0 -152.667 21 -198 63c-46.667 44 -70 119.667 -70 227v365h-73
v63h220v-63h-73v-357c0 -26 0.666992 -47.667 2 -65s5.5 -37.166 12.5 -59.499s17.167 -40.5 30.5 -54.5c34 -37.333 84 -56 150 -56s115.333 18 148 54c30.667 33.333 46 93.666 46 180.999v357h-73zM284.997 831.001c0 28 9.83301 51.833 29.5 71.5s43.5 29.5 71.5 29.5
s51.833 -9.83301 71.5 -29.5s29.5 -43.5 29.5 -71.5s-9.83301 -51.833 -29.5 -71.5s-43.5 -29.5 -71.5 -29.5s-51.833 9.83301 -71.5 29.5s-29.5 43.5 -29.5 71.5zM327.997 831.001c0 -16 5.66699 -29.667 17 -41s25 -17 41 -17s29.667 5.66699 41 17s17 25 17 41
s-5.66699 29.667 -17 41s-25 17 -41 17s-29.667 -5.66699 -41 -17s-17 -25 -17 -41z" />
    <glyph glyph-name="uring" unicode="&#x16f;" horiz-adv-x="635" 
d="M45 458v49.999h137v-316c0 -33.333 2 -60.166 6 -80.499s13 -37.5 27 -51.5c20 -20 46.667 -30 80 -30c44 0 81.667 16 113 48c30 32 45 80.667 45 146v234h-68v50h137v-458h68v-50h-137v73h-2c-18.667 -30.667 -40.667 -53 -66 -67c-28 -17.333 -64.667 -26 -110 -26
c-50 0 -89.333 14.333 -118 43c-29.333 28.667 -44 76 -44 142v293h-68zM221 642.999c0 25.333 9.16699 47.168 27.5 65.501s40.166 27.5 65.499 27.5c26 0 47.833 -9 65.5 -27s26.5 -40 26.5 -66s-8.83301 -48 -26.5 -66s-39.5 -27 -65.5 -27
c-25.333 0 -47.166 9.16699 -65.499 27.5s-27.5 40.166 -27.5 65.499zM258 644.001c0 -14.667 5.33301 -27.832 16 -39.499s23.667 -17.5 39 -17.5s28.5 5.66699 39.5 17s16.5 24.666 16.5 39.999s-5.5 28.333 -16.5 39s-24.167 16 -39.5 16s-28.333 -5.5 -39 -16.5
s-16 -23.833 -16 -38.5z" />
    <glyph glyph-name="Uhungarumlaut" unicode="&#x170;" horiz-adv-x="773" 
d="M508 637l-0.00292969 63.001h220v-63h-73v-365c0 -30 -1.16699 -55.5 -3.5 -76.5s-9.16602 -45.833 -20.499 -74.5s-27.666 -53.334 -48.999 -74.001c-45.333 -43.333 -110.666 -65 -195.999 -65c-86.667 0 -152.667 21 -198 63c-46.667 44 -70 119.667 -70 227v365h-73
v63h220v-63h-73v-357c0 -26 0.666992 -47.667 2 -65s5.5 -37.166 12.5 -59.499s17.167 -40.5 30.5 -54.5c34 -37.333 84 -56 150 -56s115.333 18 148 54c30.667 33.333 46 93.666 46 180.999v357h-73zM332.997 900.001h88l-95 -140h-63zM475.997 900.001h88l-95 -140h-63z
" />
    <glyph glyph-name="uhungarumlaut" unicode="&#x171;" horiz-adv-x="635" 
d="M45 458v49.999h137v-316c0 -33.333 2 -60.166 6 -80.499s13 -37.5 27 -51.5c20 -20 46.667 -30 80 -30c44 0 81.667 16 113 48c30 32 45 80.667 45 146v234h-68v50h137v-458h68v-50h-137v73h-2c-18.667 -30.667 -40.667 -53 -66 -67c-28 -17.333 -64.667 -26 -110 -26
c-50 0 -89.333 14.333 -118 43c-29.333 28.667 -44 76 -44 142v293h-68zM269 699.999h86l-95 -132h-61zM412 699.999h86l-95 -132h-61z" />
    <glyph glyph-name="Uogonek" unicode="&#x172;" horiz-adv-x="773" 
d="M508 637l-0.000976562 62.999h220v-63h-73v-365c0 -30 -1.16699 -55.5 -3.5 -76.5s-9.16602 -45.833 -20.499 -74.5s-27.666 -53.334 -48.999 -74.001c-46 -43.333 -108.667 -65 -188 -65c-10 -6 -18.667 -15 -26 -27c-14.667 -19.333 -22 -41 -22 -65
c0 -18.667 5.33301 -32.667 16 -42c8.66699 -8.66699 21.667 -13 39 -13c16.667 0 30.667 5 42 15c13.333 12.667 20.666 29.334 21.999 50.001h57c-2.66699 -32 -15.334 -59.333 -38.001 -82c-23.333 -21.333 -53.666 -32 -90.999 -32c-36.667 0 -65.667 9.33301 -87 28
c-19.333 16.667 -29 39.334 -29 68.001c0 26.667 7.66699 50.667 23 72c8 12 17.667 22.667 29 32c-62 7.33301 -109 27 -141 59c-46.667 44 -70 119.667 -70 227v365h-73v63h220v-63h-73v-357c0 -26 0.666992 -47.667 2 -65s5.5 -37.166 12.5 -59.499
s17.167 -40.5 30.5 -54.5c34 -37.333 84 -56 150 -56s115.333 18 148 54c30.667 33.333 46 93.666 46 180.999v357h-73z" />
    <glyph glyph-name="uogonek" unicode="&#x173;" horiz-adv-x="635" 
d="M489 0l-36.001 -0.00292969v73h-2c-18.667 -30.667 -40.667 -53 -66 -67c-28 -17.333 -64.667 -26 -110 -26c-50 0 -89.333 14.333 -118 43c-29.333 28.667 -44 76 -44 142v293h-68v50h137v-316c0 -33.333 2 -60.166 6 -80.499s13 -37.5 27 -51.5
c20 -20 46.667 -30 80 -30c44 0 81.667 16 113 48c30 32 45 80.667 45 146v234h-68v50h137v-458h68v-50h-34c-48 -28 -72 -63.333 -72 -106c0 -16.667 4.5 -30.167 13.5 -40.5s22.167 -15.5 39.5 -15.5s31.5 6 42.5 18s17.833 28 20.5 48h53
c-3.33301 -33.333 -15.666 -59.666 -36.999 -78.999c-21.333 -20.667 -50.333 -31 -87 -31c-34.667 0 -61.667 9 -81 27c-18.667 14.667 -28 36.334 -28 65.001c0 44 23 82 69 114z" />
    <glyph glyph-name="Ydieresis" unicode="&#x178;" horiz-adv-x="656" 
d="M5 637v63h216v-63h-59l170 -271l169 271h-58v63h208v-63h-66l-219 -338v-236h73v-63h-220v63h73v236l-220 338h-67zM187 772v77h77v-77h-77zM391 772v77h77v-77h-77z" />
    <glyph glyph-name="Zacute" unicode="&#x179;" horiz-adv-x="590" 
d="M497 250h63v-250h-530v69l426 568h-341v-147h-63v210h488v-62l-422 -575h379v187zM318 900h94l-99 -140h-67z" />
    <glyph glyph-name="zacute" unicode="&#x17a;" horiz-adv-x="488" 
d="M398 175h50v-175h-408v49l315 409h-247v-105h-50v155h371v-52l-305 -406h274v125zM264 700h86l-95 -132h-61z" />
    <glyph glyph-name="Zdotaccent" unicode="&#x17b;" horiz-adv-x="590" 
d="M497 250h63v-250h-530v69l426 568h-341v-147h-63v210h488v-62l-422 -575h379v187zM257 772v77h77v-77h-77z" />
    <glyph glyph-name="zdotaccent" unicode="&#x17c;" horiz-adv-x="488" 
d="M398 175h50v-175h-408v49l315 409h-247v-105h-50v155h371v-52l-305 -406h274v125zM214 616v84h74v-84h-74z" />
    <glyph glyph-name="uni018F" unicode="&#x18f;" horiz-adv-x="780" 
d="M382 721c93.333 0 168.666 -26.6689 225.999 -80.002c70.667 -66 106 -163 106 -291c0 -129.333 -34.667 -226.666 -104 -291.999c-54 -52.667 -126.667 -79 -218 -79c-92.667 0 -168 27 -226 81c-8 6.66699 -16.5 16.334 -25.5 29.001s-19.667 30.5 -32 53.5
s-22.5 52.833 -30.5 89.5s-12 76 -12 118c0 15.333 0.333008 26.666 1 33.999h568c-6 94.667 -35.667 167.334 -89 218.001c-40.667 37.333 -94.667 56 -162 56c-58.667 0 -107 -13.667 -145 -41c-16 -10.667 -33 -28 -51 -52s-28.667 -49 -32 -75h-63v210h61v-93
c24 38 56.833 66.5 98.5 85.5s84.834 28.5 129.501 28.5zM557 108.998c49.333 50 75.667 122.667 79 218h-492c3.33301 -97.333 29.333 -170.333 78 -219c44 -44 100.333 -66 169 -66c66 0 121.333 22.333 166 67z" />
    <glyph glyph-name="florin" unicode="&#x192;" 
d="M453 508l-10 -49.998h-109l-108 -512c-10 -46.667 -25.333 -80.334 -46 -101.001c-22.667 -22.667 -55.334 -34 -98.001 -34c-15.333 0 -28.666 1.33301 -39.999 4l11 52c9.33301 -1.33301 16.666 -2 21.999 -2c24.667 0 43 6.66699 55 20c11.333 11.333 20 31 26 59
l108 514h-93l11 50h93l15 69c10 38.667 22.667 66 38 82c26.667 27.333 64.334 41 113.001 41c18.667 0 36.334 -2.33301 53.001 -7l-9 -49c-14 4 -28.667 6 -44 6c-24.667 0 -43.667 -6.66699 -57 -20c-12.667 -12.667 -21.334 -31.334 -26.001 -56.001l-14 -66h109z" />
    <glyph glyph-name="uni01DD" unicode="&#x1dd;" horiz-adv-x="586" 
d="M290 478c-55.333 0 -96.3301 -14 -122.997 -42c-22.667 -24 -36 -51.667 -40 -83h-50v155h50v-56c18.667 23.333 38.667 41 60 53c28.667 15.333 63 23 103 23c68.667 0 124 -19.667 166 -59c51.333 -48.667 77 -120.334 77 -215.001c0 -95.333 -27 -168 -81 -218
c-40.667 -37.333 -93.334 -56 -158.001 -56c-68.667 0 -122.334 18.667 -161.001 56c-22 18.667 -40.833 46.334 -56.5 83.001s-23.5 81.667 -23.5 135c0 14 0.333008 23.333 1 28h406c-4.66699 69.333 -24.334 121.333 -59.001 156c-27.333 26.667 -64.333 40 -111 40z
M460.003 232h-334.002c0 -24 4.33301 -51.333 13 -82s23.334 -56.334 44.001 -77.001c28.667 -28.667 65.334 -43 110.001 -43c43.333 0 79.333 13.667 108 41c34 32.667 53.667 86.334 59 161.001z" />
    <glyph glyph-name="Scommaaccent" unicode="&#x218;" horiz-adv-x="643" 
d="M497 700l63.0029 -0.00195312v-190h-63c-2.66699 42.667 -23.334 79 -62.001 109c-35.333 26.667 -76 40 -122 40c-49.333 0 -88.333 -9 -117 -27c-38.667 -24 -58 -58.667 -58 -104c0 -27.333 9 -50.666 27 -69.999c22 -22.667 63.333 -39.667 124 -51l66 -13
c89.333 -17.333 150.666 -41.666 183.999 -72.999c34 -31.333 51 -74.333 51 -129c0 -62.667 -20 -113 -60 -151c-44 -40 -109.333 -60 -196 -60c-104.667 0 -177.334 33.667 -218.001 101v-82h-63v250h63c0 -26 5.16699 -51.833 15.5 -77.5s21.5 -46.167 33.5 -61.5
c37.333 -44.667 90.666 -67 159.999 -67c66.667 0 116 15.667 148 47c26 26 39 57.333 39 94c0 32 -10.333 59.667 -31 83c-23.333 25.333 -68 44 -134 56l-70 13c-87.333 16.667 -146 41.667 -176 75c-27.333 31.333 -41 68.333 -41 111c0 70 27 122.333 81 157
c43.333 28 97.333 42 162 42c90.667 0 155.334 -28.667 194.001 -86v64zM284.003 -60.002l87.999 -0.000976562v-90c0 -32 -10 -58 -30 -78c-13.333 -13.333 -32.666 -21.666 -57.999 -24.999v46c15.333 4 25.333 8.33301 30 13c8.66699 8.66699 13 21.667 13 39v14h-43v81z
" />
    <glyph glyph-name="scommaaccent" unicode="&#x219;" horiz-adv-x="506" 
d="M425 373l-50.002 0.999023c-4 24.667 -13.333 44.667 -28 60c-26 29.333 -60 44 -102 44c-40 0 -70 -10 -90 -30c-15.333 -15.333 -23 -36 -23 -62c0 -23.333 8.66699 -42.666 26 -57.999c14.667 -12 41.667 -23 81 -33l53 -12
c60.667 -15.333 100.334 -30.333 119.001 -45c30 -22 45 -54 45 -96c0 -57.333 -18.667 -99.333 -56 -126c-31.333 -24 -77.333 -36 -138 -36c-42 0 -77.333 7.33301 -106 22c-19.333 10.667 -36.333 25.667 -51 45v-47h-50v175h50c2.66699 -38.667 16.667 -73 42 -103
c25.333 -28 61.333 -42 108 -42c42 0 74 9 96 27c22.667 18.667 34 45 34 79c0 24 -9 43.667 -27 59c-14 12.667 -42 23.667 -84 33l-56 12c-63.333 14.667 -104.666 31.667 -123.999 51c-22.667 22.667 -34 52 -34 88c0 50 21 89.667 63 119c30.667 20 70 30 118 30
c59.333 0 104 -20 134 -60v40h50v-135zM221.998 -60.001h79v-88c0 -35.333 -8.33301 -61.333 -25 -78c-14 -14 -32 -22.333 -54 -25v46c11.333 2 20.333 6.33301 27 13c8.66699 8.66699 13 21.667 13 39v12h-40v81z" />
    <glyph glyph-name="Tcommaaccent" unicode="&#x21a;" horiz-adv-x="621" 
d="M200 0v63h73v574h-200v-177h-63v240h601v-240h-63v177h-201v-574h73v-63h-220zM267 -60l88 -0.000976562v-90c0 -32 -10 -58 -30 -78c-14 -13.333 -33.333 -21.666 -58 -24.999v46c15.333 4 25.333 8.33301 30 13c8.66699 8.66699 13 21.667 13 39v14h-43v81z" />
    <glyph glyph-name="tcommaaccent" unicode="&#x21b;" horiz-adv-x="310" 
d="M16 508h88.999v152h69v-152h109v-50h-109v-368c0 -17.333 3.33301 -30 10 -38c8 -8.66699 21.333 -13 40 -13c18 0 37.667 3.66699 59 11v-50c-24 -9.33301 -50.667 -14 -80 -14c-37.333 0 -62.666 8.33301 -75.999 25c-14.667 16.667 -22 42.667 -22 78v369h-89v50z
M163.999 -60h79v-88c0 -35.333 -8.33301 -61.333 -25 -78c-14 -14 -32 -22.333 -54 -25v46c11.333 2 20.333 6.33301 27 13c8.66699 8.66699 13 21.667 13 39v12h-40v81z" />
    <glyph glyph-name="uni0259" unicode="&#x259;" horiz-adv-x="586" 
d="M290 478c-55.333 0 -96.3301 -14 -122.997 -42c-22.667 -24 -36 -51.667 -40 -83h-50v155h50v-56c18.667 23.333 38.667 41 60 53c28.667 15.333 63 23 103 23c68.667 0 124 -19.667 166 -59c51.333 -48.667 77 -120.334 77 -215.001c0 -95.333 -27 -168 -81 -218
c-40.667 -37.333 -93.334 -56 -158.001 -56c-68.667 0 -122.334 18.667 -161.001 56c-22 18.667 -40.833 46.334 -56.5 83.001s-23.5 81.667 -23.5 135c0 14 0.333008 23.333 1 28h406c-4.66699 69.333 -24.334 121.333 -59.001 156c-27.333 26.667 -64.333 40 -111 40z
M460.003 232h-334.002c0 -24 4.33301 -51.333 13 -82s23.334 -56.334 44.001 -77.001c28.667 -28.667 65.334 -43 110.001 -43c43.333 0 79.333 13.667 108 41c34 32.667 53.667 86.334 59 161.001z" />
    <glyph glyph-name="afii57929" unicode="&#x2bc;" horiz-adv-x="180" 
d="M50 700l80 -0.00195312v-115c0 -43.333 -9.66699 -74.666 -29 -93.999c-12.667 -12.667 -29.667 -21.667 -51 -27v46c14 4.66699 24 12.334 30 23.001c6.66699 12 10 29 10 51v22h-40v94z" />
    <glyph glyph-name="circumflex" unicode="&#x2c6;" horiz-adv-x="453" 
d="M169 700h115l119 -132h-68l-109 105l-108 -105h-68z" />
    <glyph glyph-name="caron" unicode="&#x2c7;" horiz-adv-x="453" 
d="M284 568h-115l-119 132h68l108 -105l109 105h68z" />
    <glyph glyph-name="breve" unicode="&#x2d8;" horiz-adv-x="414" 
d="M305 700h66c-4 -31.333 -18 -59.666 -42 -84.999c-28 -28 -68.667 -42 -122 -42s-94 14 -122 42c-24 25.333 -38 53.666 -42 84.999h66c2 -24 11.667 -43.667 29 -59c16 -14.667 39 -22 69 -22s53 7.33301 69 22c17.333 15.333 27 35 29 59z" />
    <glyph glyph-name="dotaccent" unicode="&#x2d9;" horiz-adv-x="174" 
d="M50 616v84h74v-84h-74z" />
    <glyph glyph-name="ring" unicode="&#x2da;" horiz-adv-x="284" 
d="M49 643c0 25.333 9.16699 47.168 27.5 65.501s40.166 27.5 65.499 27.5c26 0 47.833 -9 65.5 -27s26.5 -40 26.5 -66s-8.83301 -48 -26.5 -66s-39.5 -27 -65.5 -27c-25.333 0 -47.166 9.16699 -65.499 27.5s-27.5 40.166 -27.5 65.499zM86 644.002
c0 -14.667 5.33301 -27.832 16 -39.499s23.667 -17.5 39 -17.5s28.5 5.66699 39.5 17s16.5 24.666 16.5 39.999s-5.5 28.333 -16.5 39s-24.167 16 -39.5 16s-28.333 -5.5 -39 -16.5s-16 -23.833 -16 -38.5z" />
    <glyph glyph-name="ogonek" unicode="&#x2db;" horiz-adv-x="341" 
d="M123 0l66.999 -0.00195312c-48 -28 -72 -63.333 -72 -106c0 -16.667 4.5 -30.167 13.5 -40.5s22.167 -15.5 39.5 -15.5s31.5 6 42.5 18s17.833 28 20.5 48h53c-3.33301 -33.333 -15.666 -59.666 -36.999 -78.999c-21.333 -20.667 -50.333 -31 -87 -31
c-34.667 0 -61.667 9 -81 27c-18.667 14.667 -28 36.334 -28 65.001c0 44 23 82 69 114z" />
    <glyph glyph-name="tilde" unicode="&#x2dc;" horiz-adv-x="462" 
d="M367 701l52 0.000976562c-6 -30.667 -17.667 -55.667 -35 -75s-40.333 -29 -69 -29c-30.667 0 -65.667 13.333 -105 40c-21.333 13.333 -40 20 -56 20c-28 0 -45.667 -16.667 -53 -50h-52c4 29.333 15.833 53.666 35.5 72.999s44.167 29 73.5 29
c26 0 58.333 -12.667 97 -38c22 -14.667 41 -22 57 -22c12.667 0 24 5 34 15s17 22.333 21 37z" />
    <glyph glyph-name="hungarumlaut" unicode="&#x2dd;" horiz-adv-x="399" 
d="M120 700h86l-95 -132h-61zM263 700h86l-95 -132h-61z" />
    <glyph glyph-name="gravecomb" unicode="&#x300;" horiz-adv-x="2" 
d="M-322 700l70 -132h-60l-96 132h86z" />
    <glyph glyph-name="acutecomb" unicode="&#x301;" horiz-adv-x="2" 
d="M-255 700h86l-95 -132h-61z" />
    <glyph glyph-name="uni0394" unicode="&#x394;" horiz-adv-x="648" 
d="M320 611l-204 -548h409zM15 0l271 700h76l271 -700h-618z" />
    <glyph glyph-name="uni0394" unicode="&#x2206;" horiz-adv-x="648" 
d="M320 611l-204 -548h409zM15 0l271 700h76l271 -700h-618z" />
    <glyph glyph-name="uni03A9" unicode="&#x3a9;" horiz-adv-x="728" 
d="M44 150l63 0.00195312v-87h134v45c-41.333 10.667 -77.333 31.334 -108 62.001c-53.333 53.333 -80 129.666 -80 228.999c0 100.667 28.667 179.667 86 237c53.333 56 128 84 224 84s171 -28 225 -84c58 -60 87 -139 87 -237c0 -98.667 -28 -176 -84 -232
c-30.667 -30.667 -65.334 -50.334 -104.001 -59.001v-45h134v87h63v-150h-260v148c45.333 9.33301 83 31 113 65c39.333 52 59 114 59 186c0 90 -25 157.667 -75 203c-38 36.667 -90.333 55 -157 55c-67.333 0 -119.666 -18.333 -156.999 -55
c-50.667 -48.667 -76 -116.334 -76 -203.001c0 -78.667 19.667 -140.667 59 -186c29.333 -33.333 67.333 -55 114 -65v-148h-260v150z" />
    <glyph glyph-name="uni03A9" unicode="&#x2126;" horiz-adv-x="728" 
d="M44 150l63 0.00195312v-87h134v45c-41.333 10.667 -77.333 31.334 -108 62.001c-53.333 53.333 -80 129.666 -80 228.999c0 100.667 28.667 179.667 86 237c53.333 56 128 84 224 84s171 -28 225 -84c58 -60 87 -139 87 -237c0 -98.667 -28 -176 -84 -232
c-30.667 -30.667 -65.334 -50.334 -104.001 -59.001v-45h134v87h63v-150h-260v148c45.333 9.33301 83 31 113 65c39.333 52 59 114 59 186c0 90 -25 157.667 -75 203c-38 36.667 -90.333 55 -157 55c-67.333 0 -119.666 -18.333 -156.999 -55
c-50.667 -48.667 -76 -116.334 -76 -203.001c0 -78.667 19.667 -140.667 59 -186c29.333 -33.333 67.333 -55 114 -65v-148h-260v150z" />
    <glyph glyph-name="pi" unicode="&#x3c0;" horiz-adv-x="625" 
d="M62 50h68.001v408h-10c-32.667 0 -59.334 -6.66699 -80.001 -20v50c21.333 13.333 54.333 20 99 20h441v-50h-68v-458h-69v458h-244v-458h-137v50z" />
    <glyph glyph-name="afii10023" unicode="&#x401;" horiz-adv-x="658" 
d="M60 637v63h556v-210h-63v147h-346v-243h294v-63h-294v-268h358v177h63v-240h-568v63h73v574h-73zM216 772v77h77v-77h-77zM420 772v77h77v-77h-77z" />
    <glyph glyph-name="afii10051" unicode="&#x402;" horiz-adv-x="761" 
d="M175 0v62.999h73v574h-175v-177h-63v240h576v-220h-63v157h-201v-245c46.667 6.66699 95 10 145 10c94 0 161.667 -20.667 203 -62c34 -36 51 -82.667 51 -140c0 -71.333 -20.333 -125.666 -61 -162.999c-34.667 -33.333 -82 -50 -142 -50
c-33.333 0 -62.666 4.33301 -87.999 13v63c24.667 -8.66699 49.667 -13 75 -13c43.333 0 77.666 12.667 102.999 38c24.667 26.667 37 64 37 112c0 42 -11.333 74.333 -34 97c-28 28 -78.333 42 -151 42c-49.333 0 -95.333 -2.33301 -138 -7v-269h53v-63h-200z" />
    <glyph glyph-name="afii10052" unicode="&#x403;" horiz-adv-x="582" 
d="M60 637v63h512v-240h-63v177h-302v-574h73v-63h-220v63h73v574h-73zM370 900h94l-99 -140h-67z" />
    <glyph glyph-name="afii10053" unicode="&#x404;" horiz-adv-x="733" 
d="M600 700l63.001 -0.000976562v-210h-63c-3.33301 42 -20.333 79.333 -51 112c-36 37.333 -87.667 56 -155 56c-70 0 -125.667 -20.333 -167 -61c-48.667 -46 -75.667 -113.667 -81 -203h356v-63h-357c6 -102 34.667 -177.333 86 -226c42 -42 97 -63 165 -63
c61.333 0 111.666 18.333 150.999 55c37.333 37.333 57.666 81 60.999 131h75c-8.66699 -71.333 -35.667 -129.666 -81 -174.999c-49.333 -49.333 -119.666 -74 -210.999 -74c-96 0 -172 29 -228 87c-64.667 67.333 -97 162.333 -97 285c0 128 32.333 223 97 285
c59.333 56.667 133.333 85 222 85c95.333 0 167 -33 215 -99v78z" />
    <glyph glyph-name="afii10054" unicode="&#x405;" horiz-adv-x="643" 
d="M497 700l63.0029 -0.00195312v-190h-63c-2.66699 42.667 -23.334 79 -62.001 109c-35.333 26.667 -76 40 -122 40c-49.333 0 -88.333 -9 -117 -27c-38.667 -24 -58 -58.667 -58 -104c0 -27.333 9 -50.666 27 -69.999c22 -22.667 63.333 -39.667 124 -51l66 -13
c89.333 -17.333 150.666 -41.666 183.999 -72.999c34 -31.333 51 -74.333 51 -129c0 -62.667 -20 -113 -60 -151c-44 -40 -109.333 -60 -196 -60c-104.667 0 -177.334 33.667 -218.001 101v-82h-63v250h63c0 -26 5.16699 -51.833 15.5 -77.5s21.5 -46.167 33.5 -61.5
c37.333 -44.667 90.666 -67 159.999 -67c66.667 0 116 15.667 148 47c26 26 39 57.333 39 94c0 32 -10.333 59.667 -31 83c-23.333 25.333 -68 44 -134 56l-70 13c-87.333 16.667 -146 41.667 -176 75c-27.333 31.333 -41 68.333 -41 111c0 70 27 122.333 81 157
c43.333 28 97.333 42 162 42c90.667 0 155.334 -28.667 194.001 -86v64z" />
    <glyph glyph-name="afii10055" unicode="&#x406;" horiz-adv-x="340" 
d="M60 637v63h220v-63h-73v-574h73v-63h-220v63h73v574h-73z" />
    <glyph glyph-name="afii10056" unicode="&#x407;" horiz-adv-x="340" 
d="M62 772v77h77v-77h-77zM200 772v77h77v-77h-77zM60 637v63h220v-63h-73v-574h73v-63h-220v63h73v574h-73z" />
    <glyph glyph-name="afii10057" unicode="&#x408;" horiz-adv-x="550" 
d="M290 637l0.00195312 63h220v-63h-73v-409c0 -90.667 -18.667 -155.667 -56 -195c-34.667 -36 -84.334 -54 -149.001 -54c-62.667 0 -110.334 16 -143.001 48c-39.333 39.333 -59 104 -59 194v4h74v-6c0 -72 14.667 -121 44 -147c20 -20 49.333 -30 88 -30
c35.333 0 64 10.333 86 31c27.333 26.667 41 75 41 145v419h-73z" />
    <glyph glyph-name="afii10058" unicode="&#x409;" horiz-adv-x="1072" 
d="M263 637l-0.000976562 -145c0 -231.333 -36 -381 -108 -449c-30 -30 -69.667 -45 -119 -45c-6 0 -16.333 0.666992 -31 2v65c18 -3.33301 36.167 -2.5 54.5 2.5s33.833 13.167 46.5 24.5c59.333 53.333 89 183 89 389v156h-85v63h565v-63h-73v-230h175
c91.333 0 155.333 -16.667 192 -50c42 -38 63 -87.333 63 -148s-22.667 -112 -68 -154c-43.333 -36.667 -108.666 -55 -195.999 -55h-313v63h73v574h-265zM601.999 344v-281.001h181c52.667 0 94 11 124 33c32.667 24 49 60.333 49 109c0 50.667 -17.333 87.334 -52 110.001
c-29.333 19.333 -72.333 29 -129 29h-173z" />
    <glyph glyph-name="afii10059" unicode="&#x40a;" horiz-adv-x="1132" 
d="M515 0l-0.000976562 63h73v275h-381v-275h73v-63h-220v63h73v574h-73v63h220v-63h-73v-236h381v236h-73v63h220v-63h-73v-230h175c91.333 0 155.333 -16.667 192 -50c42 -38 63 -87.333 63 -148s-22.667 -112 -68 -154c-43.333 -36.667 -108.666 -55 -195.999 -55h-313z
M661.999 344v-281.001h181c52.667 0 94 11 124 33c32.667 24 49 60.333 49 109c0 50.667 -17.333 87.334 -52 110.001c-29.333 19.333 -72.333 29 -129 29h-173z" />
    <glyph glyph-name="afii10060" unicode="&#x40b;" horiz-adv-x="841" 
d="M586 700v-219.999h-63v157h-201v-248c70 6 116.333 9 139 9c82 0 142 -13.833 180 -41.5s57 -76.834 57 -147.501v-146h73v-63h-147v205c0 50.667 -14.167 85 -42.5 103s-70.5 27 -126.5 27c-34.667 0 -79 -3 -133 -9v-263h73v-63h-220v63h73v574h-175v-177h-63v240h576z
" />
    <glyph glyph-name="afii10061" unicode="&#x40c;" horiz-adv-x="668" 
d="M232 358l265 279h-53v63h207v-63h-63l-266 -274l272 -300h69v-63h-228v63h66zM207 637v-574h73v-63h-220v63h73v574h-73v63h220v-63h-73zM384 900h94l-99 -140h-67z" />
    <glyph glyph-name="afii10062" unicode="&#x40e;" horiz-adv-x="644" 
d="M5 637v63h210v-63h-58l184 -383l153 383h-59v63h204v-63h-66l-265 -637h-158v63h112l42 105l-237 469h-62zM434 900l73.0029 -0.000976562c-2.66699 -34 -17.334 -64.333 -44.001 -91c-32.667 -32.667 -76.334 -49 -131.001 -49c-59.333 0 -105.333 16.333 -138 49
c-26.667 26.667 -41.334 57 -44.001 91h73c3.33301 -28 14.333 -50 33 -66s43 -24 73 -24c28.667 0 52.5 7.83301 71.5 23.5s30.167 37.834 33.5 66.501z" />
    <glyph glyph-name="afii10145" unicode="&#x40f;" horiz-adv-x="786" 
d="M280 700v-63h-73v-574h372v574h-73v63h220v-63h-73v-574h73v-63h-299v-185h-68v185h-299v63h73v574h-73v63h220z" />
    <glyph glyph-name="afii10017" unicode="&#x410;" horiz-adv-x="719" 
d="M500 0v63h61l-51 138h-305l-52 -138h63v-63h-211v63h71l218 574h-80v63h187l242 -637h71v-63h-214zM226 264h262l-131 370z" />
    <glyph glyph-name="afii10018" unicode="&#x411;" horiz-adv-x="717" 
d="M60 637l0.000976562 63h547v-210h-63v147h-337v-233h224c79.333 0 136.666 -17.667 171.999 -53c39.333 -38 59 -87.333 59 -148c0 -57.333 -22.333 -107 -67 -149c-40 -36 -102.333 -54 -187 -54h-348v63h73v574h-73zM207.001 342v-278.999h196c62.667 0 109 13 139 39
c29.333 25.333 44 58.666 44 99.999c0 44.667 -13.667 79 -41 103c-28 24.667 -74.667 37 -140 37h-198z" />
    <glyph glyph-name="afii10019" unicode="&#x412;" horiz-adv-x="713" 
d="M60 637v63h345c78 0 137.333 -17.667 178 -53c33.333 -29.333 50 -69 50 -119c0 -44.667 -14.667 -82.667 -44 -114c-23.333 -23.333 -48 -37.666 -74 -42.999v-2c40.667 -6 74.667 -22.667 102 -50c30.667 -30.667 46 -72 46 -124c0 -24.667 -5 -49.334 -15 -74.001
s-23.667 -45 -41 -61c-42 -40 -113.667 -60 -215 -60h-332v63h73v574h-73zM207 332v-269.001h191c64 0 111.333 11.667 142 35c31.333 26.667 47 60.334 47 101.001c0 48.667 -15.333 83.667 -46 105c-25.333 18.667 -72.333 28 -141 28h-193zM207 636.999
l-0.000976562 -242h189c62.667 0 105.334 11.333 128.001 34s34 52.667 34 90c0 32 -11.667 59.667 -35 83c-25.333 23.333 -66 35 -122 35h-194z" />
    <glyph glyph-name="afii10020" unicode="&#x413;" horiz-adv-x="582" 
d="M60 637v63h512v-240h-63v177h-302v-574h73v-63h-220v63h73v574h-73z" />
    <glyph glyph-name="afii10021" unicode="&#x414;" horiz-adv-x="752" 
d="M122 637v63.001h562v-63h-73v-574h101l-8 -221h-65v158h-566v-158h-66l-7 221h64c51.333 69.333 88.333 144.666 111 225.999c20 72.667 30 163 30 271v77h-83zM537 637.001l-264 0.000976562v-89c0 -132.667 -17 -246.334 -51 -341.001
c-18.667 -52.667 -43.667 -100.667 -75 -144h390v574z" />
    <glyph glyph-name="afii10022" unicode="&#x415;" horiz-adv-x="658" 
d="M60 637v63h556v-210h-63v147h-346v-243h294v-63h-294v-268h358v177h63v-240h-568v63h73v574h-73z" />
    <glyph glyph-name="afii10024" unicode="&#x416;" horiz-adv-x="956" 
d="M441 63v574h-73v63h220v-63h-73v-574h73v-63h-220v63h73zM540 372l230 265h-53v63h200v-63h-60l-233 -261l249 -313h78v-63h-118zM186 637l230 -265l-293 -372h-118v63h78l249 313l-233 261h-60v63h200v-63h-53z" />
    <glyph glyph-name="afii10025" unicode="&#x417;" horiz-adv-x="650" 
d="M80 700l60.9961 0.000976562v-79c12.667 19.333 28.667 36.666 48 51.999c42 32 93.667 48 155 48c73.333 0 131.333 -19.667 174 -59c35.333 -34 53 -78 53 -132c0 -46.667 -13 -83.667 -39 -111c-22 -22 -49 -36.667 -81 -44v-2c40.667 -4 74.334 -20 101.001 -48
c32 -34 48 -76 48 -126c0 -66 -20.667 -118.333 -62 -157c-44 -42 -113.333 -63 -208 -63c-95.333 0 -166 23.667 -212 71c-40.667 42.667 -62.334 95.334 -65.001 158.001h74c2.66699 -50 20.334 -90 53.001 -120c32.667 -30.667 83.334 -46 152.001 -46
c67.333 0 117.333 16.333 150 49c28 28 42 63.667 42 107c0 31.333 -6.16699 56.666 -18.5 75.999s-26.166 33.333 -41.499 42c-27.333 15.333 -64.666 23 -111.999 23h-90v63h83c51.333 0 90 11 116 33c23.333 20.667 35 50 35 88c0 46.667 -18 82 -54 106
c-30 19.333 -67.667 29 -113 29c-50 0 -92.667 -15 -128 -45c-30.667 -26.667 -50 -61 -58 -103h-63v190z" />
    <glyph glyph-name="afii10026" unicode="&#x418;" horiz-adv-x="813" 
d="M60 637v63h220v-63h-73v-531l397 594h149v-63h-73v-574h73v-63h-220v63h73v534l-397 -597h-149v63h73v574h-73z" />
    <glyph glyph-name="afii10027" unicode="&#x419;" horiz-adv-x="813" 
d="M60 637v63h220v-63h-73v-531l397 594h149v-63h-73v-574h73v-63h-220v63h73v534l-397 -597h-149v63h73v574h-73zM512 900l73.0029 -0.000976562c-2.66699 -34 -17.334 -64.333 -44.001 -91c-32.667 -32.667 -76.334 -49 -131.001 -49c-59.333 0 -105.333 16.333 -138 49
c-26.667 26.667 -41.334 57 -44.001 91h73c3.33301 -28 14.333 -50 33 -66s43 -24 73 -24c28.667 0 52.5 7.83301 71.5 23.5s30.167 37.834 33.5 66.501z" />
    <glyph glyph-name="afii10028" unicode="&#x41a;" horiz-adv-x="668" 
d="M232 358l265 279h-53v63h207v-63h-63l-266 -274l272 -300h69v-63h-228v63h66zM207 637v-574h73v-63h-220v63h73v574h-73v63h220v-63h-73z" />
    <glyph glyph-name="afii10029" unicode="&#x41b;" horiz-adv-x="735" 
d="M263 637l0.000976562 -145c0 -231.333 -36 -381 -108 -449c-30 -30 -69.667 -45 -119 -45c-6 0 -16.333 0.666992 -31 2v65c9.33301 -1.33301 16.666 -2 21.999 -2c32 0 58.333 9.66699 79 29c59.333 53.333 89 183 89 389v156h-85v63h565v-63h-73v-574h73v-63h-220v63
h73v574h-265z" />
    <glyph glyph-name="afii10030" unicode="&#x41c;" horiz-adv-x="990" 
d="M710 0v63h73v523l2 27h-3l-255 -613h-64l-256 613h-2l2 -27v-523h73v-63h-220v63h73v574h-73v63h187l250 -603l251 603h182v-63h-73v-574h73v-63h-220z" />
    <glyph glyph-name="afii10031" unicode="&#x41d;" horiz-adv-x="795" 
d="M515 0v63h73v275h-381v-275h73v-63h-220v63h73v574h-73v63h220v-63h-73v-236h381v236h-73v63h220v-63h-73v-574h73v-63h-220z" />
    <glyph glyph-name="afii10032" unicode="&#x41e;" horiz-adv-x="790" 
d="M66 350c0 124 34 219.998 102 287.998c55.333 55.333 130 83 224 83c93.333 0 168.666 -26.667 225.999 -80c70.667 -66 106 -163 106 -291c0 -129.333 -34.667 -226.666 -104 -291.999c-55.333 -52.667 -129.666 -79 -222.999 -79c-100 0 -177 27 -231 81
c-8 6.66699 -16.5 16.334 -25.5 29.001s-19.667 30.5 -32 53.5s-22.5 52.833 -30.5 89.5s-12 76 -12 118zM144 345.998c0 -104.667 26 -184.001 78 -238.001c44 -44 102 -66 174 -66c69.333 0 126.333 22.333 171 67c52.667 52.667 79 132.334 79 239.001
c0 113.333 -30 198 -90 254c-40.667 37.333 -94 56 -160 56s-120.333 -19 -163 -57c-59.333 -54 -89 -139 -89 -255z" />
    <glyph glyph-name="afii10033" unicode="&#x41f;" horiz-adv-x="786" 
d="M506 0v63h73v574h-372v-574h73v-63h-220v63h73v574h-73v63h666v-63h-73v-574h73v-63h-220z" />
    <glyph glyph-name="afii10034" unicode="&#x420;" horiz-adv-x="668" 
d="M60 637l-0.000976562 63.002h322c93.333 0 159 -18 197 -54c39.333 -34.667 59 -83.334 59 -146.001c0 -58.667 -19.333 -107.334 -58 -146.001c-39.333 -41.333 -106.666 -62 -201.999 -62h-171v-229h73v-63h-220v63h73v574h-73zM206.999 637.002v-281.998h166
c70 0 118 12.333 144 37c30 27.333 45 62.666 45 105.999c0 39.333 -13.667 72.666 -41 99.999c-28 26 -77.333 39 -148 39h-166z" />
    <glyph glyph-name="afii10035" unicode="&#x421;" horiz-adv-x="733" 
d="M600 700l63.001 -0.000976562v-210h-63c-3.33301 42 -20.333 79.333 -51 112c-36 37.333 -87.667 56 -155 56c-70 0 -125.667 -20.333 -167 -61c-54.667 -54 -82 -132.333 -82 -235c0 -116 28.667 -201.667 86 -257c42 -42 97 -63 165 -63
c61.333 0 111.666 18.333 150.999 55c37.333 37.333 57.666 81 60.999 131h75c-8.66699 -71.333 -35.667 -129.666 -81 -174.999c-49.333 -49.333 -119.666 -74 -210.999 -74c-96 0 -172 29 -228 87c-64.667 67.333 -97 162.333 -97 285c0 128 32.333 223 97 285
c59.333 56.667 133.333 85 222 85c95.333 0 167 -33 215 -99v78z" />
    <glyph glyph-name="afii10036" unicode="&#x422;" horiz-adv-x="621" 
d="M200 0v63h73v574h-200v-177h-63v240h601v-240h-63v177h-201v-574h73v-63h-220z" />
    <glyph glyph-name="afii10037" unicode="&#x423;" horiz-adv-x="644" 
d="M5 637v63h210v-63h-58l184 -383l153 383h-59v63h204v-63h-66l-265 -637h-158v63h112l42 105l-237 469h-62z" />
    <glyph glyph-name="afii10038" unicode="&#x424;" horiz-adv-x="880" 
d="M330 671v60h220v-60h-73v-47h46c109.333 0 190.333 -28 243 -84c44 -47.333 66 -107.666 66 -180.999c0 -80.667 -25.333 -146.334 -76 -197.001c-50 -49.333 -126 -74 -228 -74h-51v-51h73v-60h-220v60h73v51h-51c-102 0 -178 24 -228 72c-50.667 48 -76 113 -76 195
c0 73.333 22 135 66 185c50.667 56 131.667 84 243 84h46v47h-73zM403 146v420.001h-37c-81.333 0 -142.333 -19.333 -183 -58c-38 -36.667 -57 -86.334 -57 -149.001c0 -67.333 19.667 -120.333 59 -159c38 -36 96 -54 174 -54h44zM477 146.001l44 -0.000976562
c76 0 134 18 174 54c39.333 38.667 59 91.667 59 159c0 62.667 -19 112.334 -57 149.001c-40.667 38.667 -101.667 58 -183 58h-37v-420z" />
    <glyph glyph-name="afii10039" unicode="&#x425;" horiz-adv-x="668" 
d="M28 637v63h200v-63h-52l158 -220l157 220h-49v63h200v-63h-62l-198 -274l215 -300h66v-63h-218v63h59l-170 246l-170 -246h56v-63h-215v63h66l214 300l-199 274h-58z" />
    <glyph glyph-name="afii10040" unicode="&#x426;" horiz-adv-x="794" 
d="M60 637v63h220v-63h-73v-574h373v574h-73v63h220v-63h-73v-574h100l-7 -221h-65v158h-622v63h73v574h-73z" />
    <glyph glyph-name="afii10041" unicode="&#x427;" horiz-adv-x="704" 
d="M424 0v62.999h73v248c-44.667 -6 -97.667 -9 -159 -9c-82 0 -142 13.833 -180 41.5s-57 76.834 -57 147.501v146h-73v63h220v-63h-73v-142c0 -50.667 14.167 -85 42.5 -103s70.5 -27 126.5 -27c48 0 99 3 153 9v263h-73v63h220v-63h-73v-574h73v-63h-220z" />
    <glyph glyph-name="afii10042" unicode="&#x428;" horiz-adv-x="1110" 
d="M60 637v63h218v-63h-71v-574h311v574h-71v63h216v-63h-71v-574h311v574h-71v63h218v-63h-73v-574h73v-63h-990v63h73v574h-73z" />
    <glyph glyph-name="afii10043" unicode="&#x429;" horiz-adv-x="1119" 
d="M832 637v63h218v-63h-73v-574h102l-7 -221h-66v158h-946v63h73v574h-73v63h218v-63h-71v-574h311v574h-71v63h216v-63h-71v-574h311v574h-71z" />
    <glyph glyph-name="afii10044" unicode="&#x42a;" horiz-adv-x="791" 
d="M10 700h383.999v-63h-73v-230h175c91.333 0 155.333 -16.667 192 -50c42 -38 63 -87.333 63 -148s-22.667 -112 -68 -154c-43.333 -36.667 -108.666 -55 -195.999 -55h-313v63h73v574h-174v-177h-63v240zM320.999 344v-281.001h181c52.667 0 94 11 124 33
c32.667 24 49 60.333 49 109c0 50.667 -17.333 87.334 -52 110.001c-29.333 19.333 -72.333 29 -129 29h-173z" />
    <glyph glyph-name="afii10045" unicode="&#x42b;" horiz-adv-x="956" 
d="M676 637v63h220v-63h-73v-574h73v-63h-220v63h73v574h-73zM60 637l-0.000976562 63h220v-63h-73v-230h170c91.333 0 155.333 -16.667 192 -50c42 -38 63 -87.333 63 -148s-22.667 -112 -68 -154c-43.333 -36.667 -108.666 -55 -195.999 -55h-308v63h73v574h-73z
M206.999 344v-281.001h176c52.667 0 94 11 124 33c32.667 24 49 60.333 49 109c0 50.667 -17.333 87.334 -52 110.001c-29.333 19.333 -72.333 29 -129 29h-168z" />
    <glyph glyph-name="afii10046" unicode="&#x42c;" horiz-adv-x="677" 
d="M60 637l-0.000976562 63h220v-63h-73v-230h175c91.333 0 155.333 -16.667 192 -50c42 -38 63 -87.333 63 -148s-22.667 -112 -68 -154c-43.333 -36.667 -108.666 -55 -195.999 -55h-313v63h73v574h-73zM206.999 344v-281.001h181c52.667 0 94 11 124 33
c32.667 24 49 60.333 49 109c0 50.667 -17.333 87.334 -52 110.001c-29.333 19.333 -72.333 29 -129 29h-173z" />
    <glyph glyph-name="afii10047" unicode="&#x42d;" horiz-adv-x="733" 
d="M77 700l61.0039 -0.000976562v-93c22.667 38.667 54.667 67.334 96 86.001s84.333 28 129 28c76 0 139.333 -19.333 190 -58c37.333 -30 65.666 -72.167 84.999 -126.5s29 -115.5 29 -183.5c0 -66 -10.833 -127.833 -32.5 -185.5s-51.834 -102.167 -90.501 -133.5
c-47.333 -38.667 -112.333 -58 -195 -58c-91.333 0 -163 26 -215 78c-46 46 -74 106 -84 180h75c6.66699 -56.667 28.667 -103 66 -139c38 -37.333 89.667 -56 155 -56c58 0 105.667 14 143 42c27.333 20 49.166 48.333 65.499 85s26.166 67.667 29.499 93
s5 49.666 5 72.999h-349v62h349c-4 98.667 -29.333 169.334 -76 212.001c-40 34.667 -91.333 52 -154 52c-54 0 -100 -13.667 -138 -41c-15.333 -10 -31.833 -27.167 -49.5 -51.5s-28.167 -49.5 -31.5 -75.5h-63v210z" />
    <glyph glyph-name="afii10048" unicode="&#x42e;" horiz-adv-x="1036" 
d="M207 401l124.999 0.000976562c7.33301 102.667 40.333 182 99 238c56 54.667 129.333 82 220 82c88.667 0 160.334 -26 215.001 -78c69.333 -66 104 -165.667 104 -299c0 -126.667 -34 -222.334 -102 -287.001c-54 -52 -126.667 -78 -218 -78
c-45.333 0 -85.5 5.66699 -120.5 17s-68.5 32 -100.5 62c-66 64 -99 157.333 -99 280h-123v-275h73v-63h-220v63h73v574h-73v63h220v-63h-73v-236zM648.999 42.001c69.333 0 126.001 22.667 170.001 68c48.667 49.333 73 127.333 73 234c0 114 -27.333 198.333 -82 253
c-42.667 40.667 -97.334 61 -164.001 61c-63.333 0 -116.333 -20.667 -159 -62c-54 -52 -81 -134 -81 -246c0 -114 27.333 -196.333 82 -247c42 -40.667 95.667 -61 161 -61z" />
    <glyph glyph-name="afii10049" unicode="&#x42f;" horiz-adv-x="722" 
d="M662 63v-63.001h-220v63h69v225h-185l-156 -288h-140v63h86l133 232c-58 5.33301 -102.333 23.333 -133 54c-36 34.667 -54 82.667 -54 144c0 58.667 21.667 108.334 65 149.001c43.333 38.667 107.333 58 192 58h343v-63h-77v-574h77zM511 636.999
l-195.999 -0.000976562c-61.333 0 -105.333 -12.667 -132 -38c-30 -26.667 -45 -61.667 -45 -105s11.667 -76.666 35 -99.999c27.333 -28.667 77.666 -43 150.999 -43h187v286z" />
    <glyph glyph-name="afii10065" unicode="&#x430;" horiz-adv-x="564" 
d="M397 0l0.00195312 82.999c-15.333 -29.333 -37 -51.666 -65 -66.999c-32.667 -18.667 -72.334 -28 -119.001 -28c-55.333 0 -97 13.667 -125 41c-28 26 -42 61.667 -42 107c0 39.333 12.333 71.333 37 96c28 28 81.667 46.333 161 55l101 12
c20 3.33301 33.333 8.33301 40 15c8 8.66699 12 25 12 49c0 38.667 -10.333 67.667 -31 87c-21.333 18.667 -53.333 28 -96 28c-48.667 0 -83.334 -10.333 -104.001 -31c-20 -20 -30.667 -48.333 -32 -85h-67c0 56 22 99.667 66 131c33.333 23.333 81 35 143 35
c68 0 117.667 -15.667 149 -47c27.333 -27.333 41 -67 41 -119v-312h68v-50h-137zM397.002 218.999l0.000976562 50.001c-7.33301 -6 -16 -10.333 -26 -13c-10 -3.33301 -21.333 -6 -34 -8s-29.334 -3.83301 -50.001 -5.5s-34.667 -2.83398 -42 -3.50098
c-50.667 -6 -85 -17.667 -103 -35c-16 -16 -24 -39 -24 -69c0 -28 8.66699 -50.667 26 -68c17.333 -19.333 44 -29 80 -29c44 0 80.333 11.667 109 35c42.667 35.333 64 84 64 146z" />
    <glyph glyph-name="afii10066" unicode="&#x431;" horiz-adv-x="597" 
d="M465 730h61.001c-2.66699 -30 -13 -53.333 -31 -70c-13.333 -12.667 -32.833 -22.167 -58.5 -28.5s-56.334 -11 -92.001 -14s-55.834 -4.83301 -60.501 -5.5c-54 -10.667 -92.667 -27.667 -116 -51c-38.667 -36.667 -58 -92 -58 -166h2c10.667 30 27 54.667 49 74
c37.333 34 86 51 146 51c71.333 0 127.333 -21 168 -63c46 -48 69 -114.333 69 -199c0 -40 -6.16699 -79.667 -18.5 -119s-31.166 -71.666 -56.499 -96.999c-24.667 -24.667 -50 -41.167 -76 -49.5s-56.667 -12.5 -92 -12.5c-74.667 0 -131 20 -169 60
c-52.667 55.333 -79 144 -79 266c0 153.333 27.667 256.666 83 309.999c26 24.667 57 41.667 93 51s85.667 16.333 149 21c12 0.666992 21.667 1.66699 29 3s15.5 3.33301 24.5 6s16.167 6.66699 21.5 12s9.33301 12.333 12 21zM126.001 257
c0 -86 20.332 -148.332 60.999 -186.999c26.667 -26.667 63.667 -40 111 -40c48.667 0 86 12.333 112 37c40.667 37.333 61 96 61 176c0 86 -18.667 147.667 -56 185c-28.667 28 -67.667 42 -117 42c-47.333 0 -84.666 -13.333 -111.999 -40
c-40 -38.667 -60 -96.334 -60 -173.001z" />
    <glyph glyph-name="afii10067" unicode="&#x432;" horiz-adv-x="564" 
d="M45 458l0.000976562 50.001h269c70 0 117.667 -12.333 143 -37c25.333 -24 38 -52 38 -84c0 -36.667 -12 -66.334 -36 -89.001c-14.667 -14 -32.334 -23.667 -53.001 -29v-2c33.333 -9.33301 58.333 -22.333 75 -39c22 -22 33 -52 33 -90c0 -36 -14 -68 -42 -96
c-28.667 -28 -82.667 -42 -162 -42h-265v50h68v408h-68zM182.001 241.001v-190.999h126c54 0 91.333 10.667 112 32c15.333 15.333 23 37.666 23 66.999c0 31.333 -12.333 55 -37 71c-22 14 -55 21 -99 21h-125zM182.001 458.002l0.000976562 -166.999h123
c45.333 0 78.666 10.667 99.999 32c13.333 13.333 20 32.333 20 57c0 23.333 -8.33301 41.666 -25 54.999c-18.667 15.333 -48.667 23 -90 23h-128z" />
    <glyph glyph-name="afii10068" unicode="&#x433;" horiz-adv-x="448" 
d="M45 458v50h398v-180h-50v130h-211v-408h68v-50h-205v50h68v408h-68z" />
    <glyph glyph-name="afii10069" unicode="&#x434;" horiz-adv-x="583" 
d="M80 458l0.000976562 50h463v-50h-68v-408h88l-5 -182h-60v132h-432v-132h-60l-6 182h61c28.667 46 49.667 90.667 63 134c6.66699 21.333 11.667 45.5 15 72.5s5.16602 51 5.49902 72s0.5 53.167 0.5 96.5v33h-65zM210.001 458v-76c0 -76.667 -7 -142.667 -21 -198
c-13.333 -49.333 -32.333 -94 -57 -134h274v408h-196z" />
    <glyph glyph-name="afii10070" unicode="&#x435;" 
d="M451 147h66c-8.66699 -41.333 -27 -77.333 -55 -108c-38 -39.333 -92 -59 -162 -59c-73.333 0 -130.666 19.667 -171.999 59c-50 48.667 -75 121 -75 217c0 92 23.333 161.333 70 208c42.667 42.667 100 64 172 64c69.333 0 123.333 -20 162 -60
c25.333 -26 42.166 -56.667 50.499 -92s13.5 -80.333 15.5 -135h-398c2.66699 -72 20.667 -125.667 54 -161c30 -33.333 71.333 -50 124 -50c43.333 0 78.333 12.667 105 38c18 16 32.333 42.333 43 79zM125 291l325 0.00195312c0 23.333 -4.33301 49.666 -13 78.999
s-20.667 51.666 -36 66.999c-26 27.333 -61.667 41 -107 41c-52 0 -92.667 -16.333 -122 -49c-31.333 -36 -47 -82 -47 -138z" />
    <glyph glyph-name="afii10072" unicode="&#x436;" horiz-adv-x="747" 
d="M428 267l158 191h-46v50h183v-50h-59l-161 -185l170 -223h74v-50h-117zM408 458v-408h65v-50h-199v50h65v408h-65v50h199v-50h-65zM161 458l158 -191l-202 -267h-117v50h74l170 223l-161 185h-59v50h183v-50h-46z" />
    <glyph glyph-name="afii10073" unicode="&#x437;" horiz-adv-x="512" 
d="M255 30c46 0 80.334 10.001 103.001 30.001c22 19.333 33 47.333 33 84c0 32.667 -10.333 57.667 -31 75c-19.333 16 -50 24 -92 24h-80v50h71c39.333 0 68.333 7.33301 87 22c19.333 16 29 37.333 29 64c0 32.667 -10.667 57.667 -32 75c-20.667 16 -51.667 24 -93 24
c-33.333 0 -62.333 -11.333 -87 -34c-22 -20.667 -36.333 -44.334 -43 -71.001h-50v135h50v-48c32 45.333 80.333 68 145 68c62 0 109 -15.667 141 -47c26 -24 39 -57.333 39 -100c0 -32.667 -10.667 -59.667 -32 -81c-17.333 -15.333 -36.333 -24.666 -57 -27.999v-2
c27.333 -5.33301 50.666 -17 69.999 -35c24 -22.667 36 -53.334 36 -92.001c0 -56 -19.667 -98.667 -59 -128c-32.667 -23.333 -82 -35 -148 -35c-76.667 0 -132 16.333 -166 49c-32.667 32.667 -49 73.667 -49 123h66c0 -37.333 12.333 -67 37 -89
c24 -22 61.333 -33 112 -33z" />
    <glyph glyph-name="afii10074" unicode="&#x438;" horiz-adv-x="644" 
d="M45 0v50h68v408h-68v50h205v-50h-68v-378l271 428h146v-50h-68v-408h68v-50h-205v50h68v379l-270 -429h-147z" />
    <glyph glyph-name="afii10075" unicode="&#x439;" horiz-adv-x="644" 
d="M45 0v50h68v408h-68v50h205v-50h-68v-378l271 428h146v-50h-68v-408h68v-50h-205v50h68v379l-270 -429h-147zM419 700h66c-4 -31.333 -18 -59.666 -42 -84.999c-28 -28 -68.667 -42 -122 -42s-94 14 -122 42c-24 25.333 -38 53.666 -42 84.999h66
c2 -24 11.667 -43.667 29 -59c16 -14.667 39 -22 69 -22s53 7.33301 69 22c17.333 15.333 27 35 29 59z" />
    <glyph glyph-name="afii10076" unicode="&#x43a;" horiz-adv-x="537" 
d="M182 458v-408h68v-50h-205v50h68v408h-68v50h200v-50h-63zM202 263l169 195h-45v50h179v-50h-56l-168 -189l183 -219h73v-50h-113z" />
    <glyph glyph-name="afii10077" unicode="&#x43b;" horiz-adv-x="584" 
d="M211 458l-0.000976562 -95.999c0 -138.667 -18 -235.667 -54 -291c-17.333 -28 -38.166 -48.333 -62.499 -61s-55.833 -16 -94.5 -10v52c39.333 -2.66699 69.333 9 90 35c37.333 43.333 56 134.666 56 273.999v97h-68v50h461v-50h-68v-408h68v-50h-205v50h68v408h-191z
" />
    <glyph glyph-name="afii10078" unicode="&#x43c;" horiz-adv-x="795" 
d="M750 50v-50h-205v50h68v350l2 27h-2l-187 -427h-58l-186 427h-2l2 -27v-350h68v-50h-205v50h68v408h-68v50h167l189 -433l189 433h160v-50h-68v-408h68z" />
    <glyph glyph-name="afii10079" unicode="&#x43d;" horiz-adv-x="647" 
d="M397 0v50h68v194h-283v-194h68v-50h-205v50h68v408h-68v50h205v-50h-68v-164h283v164h-68v50h205v-50h-68v-408h68v-50h-205z" />
    <glyph glyph-name="afii10080" unicode="&#x43e;" horiz-adv-x="592" 
d="M53 254c0 92 25.6699 163.667 77.0029 215c39.333 39.333 94.666 59 165.999 59c68.667 0 124 -19.667 166 -59c51.333 -48.667 77 -120.334 77 -215.001c0 -95.333 -27 -168 -81 -218c-40.667 -37.333 -94.334 -56 -161.001 -56c-70.667 0 -125.334 18.667 -164.001 56
c-22 18.667 -40.833 46.334 -56.5 83.001s-23.5 81.667 -23.5 135zM126.003 255c0 -85.333 20.333 -147.333 61 -186c28.667 -26 65 -39 109 -39c45.333 0 81.333 12.667 108 38c41.333 38 62 100.333 62 187c0 79.333 -17.333 138 -52 176c-30 31.333 -69 47 -117 47
c-47.333 0 -85 -14 -113 -42c-38.667 -38.667 -58 -99 -58 -181z" />
    <glyph glyph-name="afii10081" unicode="&#x43f;" horiz-adv-x="626" 
d="M376 0v50h68v408h-262v-408h68v-50h-205v50h68v408h-68v50h536v-50h-68v-408h68v-50h-205z" />
    <glyph glyph-name="afii10082" unicode="&#x440;" horiz-adv-x="629" 
d="M45 458l0.00292969 50h134v-75h2c16 24 37 45.667 63 65c30.667 20 66.667 30 108 30c60.667 0 110.667 -18.333 150 -55c49.333 -49.333 74 -120.666 74 -213.999c0 -84.667 -18.833 -152.334 -56.5 -203.001s-90.834 -76 -159.501 -76
c-44.667 0 -82.334 9.33301 -113.001 28c-26.667 16.667 -48.334 40 -65.001 70v-213h68v-50h-205v50h68v593h-68zM178.003 252c0 -78 19.333 -136.333 58 -175c30 -31.333 67.667 -47 113 -47c38 0 70.667 13.667 98 41c38 40 57 102 57 186c0 81.333 -20 142 -60 182
c-26 26 -60 39 -102 39c-38.667 0 -73 -13.333 -103 -40c-40.667 -36.667 -61 -98.667 -61 -186z" />
    <glyph glyph-name="afii10083" unicode="&#x441;" horiz-adv-x="547" 
d="M486 353l-49.999 -0.000976562c-3.33301 31.333 -15 58 -35 80c-26.667 30 -62.667 45 -108 45c-46 0 -84 -15 -114 -45c-35.333 -35.333 -53 -92.666 -53 -171.999c0 -84.667 20.333 -147.334 61 -188.001c28.667 -28.667 64.667 -43 108 -43s77 12.667 101 38
c26.667 28.667 41.667 65.334 45 110.001h66c-6 -60.667 -28 -110 -66 -148c-20.667 -20.667 -42.5 -34.167 -65.5 -40.5s-50.167 -9.5 -81.5 -9.5c-70.667 0 -125.334 18.667 -164.001 56c-51.333 49.333 -77 123.666 -77 222.999c0 88.667 21.667 156.334 65 203.001
c38.667 44 95 66 169 66c42 0 78.333 -11 109 -33c14.667 -10 28 -23.333 40 -40v53h50v-155z" />
    <glyph glyph-name="afii10084" unicode="&#x442;" horiz-adv-x="495" 
d="M145 0v50h68v408h-153v-130h-50v180h475v-180h-50v130h-153v-408h68v-50h-205z" />
    <glyph glyph-name="afii10085" unicode="&#x443;" horiz-adv-x="534" 
d="M-10 458v50h203v-50h-58l149 -381l129 381h-60v50h191v-50h-63l-232 -643h-138v50h91l45 135l-193 458h-64z" />
    <glyph glyph-name="afii10086" unicode="&#x444;" horiz-adv-x="783" 
d="M289 650l-0.000976562 49.999h137v-180c102.667 2.66699 180.334 -21.666 233.001 -72.999c47.333 -45.333 71 -107.666 71 -186.999c0 -82.667 -24 -148 -72 -196c-55.333 -55.333 -132.666 -81 -231.999 -77v-122h68v-50h-205v50h68v122
c-103.333 -4 -182.333 23.667 -237 83c-44.667 49.333 -67 111.666 -67 186.999c0 80.667 22 143 66 187c31.333 32 69.666 53.167 114.999 63.5s86.333 14.5 123 12.5v130h-68zM356.999 36.999v433c-78 3.33301 -137 -15.667 -177 -57c-36.667 -38 -55 -90 -55 -156
c0 -68 19.333 -121.333 58 -160c38.667 -40 96.667 -60 174 -60zM425.999 469.999l0.000976562 -433.002c75.333 -1.33301 133.666 18.667 174.999 60c38 38 57 91.667 57 161c0 68.667 -18.333 120.334 -55 155.001c-21.333 20 -48.5 34.833 -81.5 44.5
s-64.833 13.834 -95.5 12.501z" />
    <glyph glyph-name="afii10087" unicode="&#x445;" horiz-adv-x="529" 
d="M337 0v50h51l-121 171l-125 -171h53v-50h-195v50h64l163 215l-136 193h-57v50h184v-50h-51l100 -148l102 148h-53v50h192v-50h-61l-139 -193l158 -215h63v-50h-192z" />
    <glyph glyph-name="afii10088" unicode="&#x446;" horiz-adv-x="625" 
d="M45 458v50h205v-50h-68v-408h266v408h-68v50h205v-50h-68v-408h88l-5 -182h-60v132h-495v50h68v408h-68z" />
    <glyph glyph-name="afii10089" unicode="&#x447;" horiz-adv-x="556" 
d="M306 0l-0.000976562 50.001h68v169c-46 -5.33301 -86.333 -8 -121 -8c-56 0 -100 10.167 -132 30.5s-48 56.166 -48 107.499v109h-68v50h205v-50h-68v-101c0 -36.667 10.333 -61.667 31 -75s56 -20 106 -20c32.667 0 64.334 2.66699 95.001 8v188h-68v50h205v-50h-68
v-408h68v-50h-205z" />
    <glyph glyph-name="afii10090" unicode="&#x448;" horiz-adv-x="899" 
d="M45 458v50h203v-50h-66v-408h233v408h-65v50h199v-50h-65v-408h233v408h-65v50h202v-50h-68v-408h68v-50h-809v50h68v408h-68z" />
    <glyph glyph-name="afii10091" unicode="&#x449;" horiz-adv-x="894" 
d="M652 458v50h202v-50h-68v-408h88l-6 -182h-60v132h-763v50h68v408h-68v50h203v-50h-66v-408h233v408h-65v50h199v-50h-65v-408h233v408h-65z" />
    <glyph glyph-name="afii10092" unicode="&#x44a;" horiz-adv-x="608" 
d="M109 0v50h68v408h-122v-130h-50v180h309v-50h-68v-154h151c64 0 110.667 -14.667 140 -44c27.333 -27.333 41 -62.333 41 -105c0 -44 -14.333 -80.333 -43 -109c-30.667 -30.667 -79 -46 -145 -46h-281zM246 254l-0.000976562 -204h128
c50.667 0 85.334 10.333 104.001 31c19.333 20.667 29 45.667 29 75c0 28.667 -9.66699 52 -29 70c-20 18.667 -52.667 28 -98 28h-134z" />
    <glyph glyph-name="afii10093" unicode="&#x44b;" horiz-adv-x="780" 
d="M530 458v50h205v-50h-68v-408h68v-50h-192v50h55v408h-68zM45 458v50h205v-50h-68v-154h146c64 0 110.667 -14.667 140 -44c27.333 -27.333 41 -62.333 41 -105c0 -44 -14.333 -80.333 -43 -109c-30.667 -30.667 -79 -46 -145 -46h-276v50h68v408h-68zM182 254
l-0.000976562 -204h123c50.667 0 85.334 10.333 104.001 31c19.333 20.667 29 45.667 29 75c0 28.667 -9.66699 52 -29 70c-20 18.667 -52.667 28 -98 28h-129z" />
    <glyph glyph-name="afii10094" unicode="&#x44c;" horiz-adv-x="544" 
d="M45 458v50h205v-50h-68v-154h151c64 0 110.667 -14.667 140 -44c27.333 -27.333 41 -62.333 41 -105c0 -44 -14.333 -80.333 -43 -109c-30.667 -30.667 -79 -46 -145 -46h-281v50h68v408h-68zM182 254l-0.000976562 -204h128c50.667 0 85.334 10.333 104.001 31
c19.333 20.667 29 45.667 29 75c0 28.667 -9.66699 52 -29 70c-20 18.667 -52.667 28 -98 28h-134z" />
    <glyph glyph-name="afii10095" unicode="&#x44d;" horiz-adv-x="546" 
d="M189 241v50.001h232c0 47.333 -7.66699 85 -23 113c-28.667 49.333 -73.667 74 -135 74c-46.667 0 -83.334 -14 -110.001 -42c-24 -25.333 -37.333 -53 -40 -83h-50v155h50v-56c18.667 23.333 38.667 41 60 53c28.667 15.333 63.334 23 104.001 23
c63.333 0 115 -19.333 155 -58c40.667 -40.667 61 -110.667 61 -210c0 -91.333 -17.333 -159 -52 -203c-38.667 -51.333 -98 -77 -178 -77c-72 0 -126 18 -162 54c-36 34.667 -56.333 81 -61 139h68c1.33301 -32.667 10 -60.334 26 -83.001c26.667 -40 71 -60 133 -60
c61.333 0 105.333 28 132 84c16 32.667 23.333 75 22 127h-232z" />
    </font>
</defs>
</svg>
